<?xml version="1.0" standalone="no"?>
<!DOCTYPE svg PUBLIC "-//W3C//DTD SVG 1.1//EN" "http://www.w3.org/Graphics/SVG/1.1/DTD/svg11.dtd" >
<svg xmlns="http://www.w3.org/2000/svg">
<metadata></metadata>
<defs>
<font id="baron_neue_bold_italicBdIt" horiz-adv-x="1144" >
<font-face units-per-em="2048" ascent="1536" descent="-512" />
<missing-glyph horiz-adv-x="706" />
<glyph horiz-adv-x="0" />
<glyph horiz-adv-x="682" />
<glyph unicode=" "  horiz-adv-x="706" />
<glyph unicode="&#x09;" horiz-adv-x="706" />
<glyph unicode="&#xa0;" horiz-adv-x="706" />
<glyph unicode="!" horiz-adv-x="565" d="M-147 147q10 55 57.5 95.5t101.5 40.5q72 0 113 -49t29 -115q-12 -57 -59 -96t-105 -39q-69 0 -110.5 48.5t-26.5 114.5zM-72 432l211 993q1 5 1.5 6t3 2t8.5 1h233q9 0 18 -9.5t7 -15.5l-211 -993q0 -6 -1 -7t-10 -1h-233q-9 0 -19 9t-8 15z" />
<glyph unicode="&#x22;" horiz-adv-x="651" d="M-51 979l94 446q2 8 4 8.5t8 0.5h193q9 0 17.5 -9.5t6.5 -15.5l-94 -446q-2 -8 -4 -8.5t-8 -0.5h-193q-9 0 -17.5 9.5t-6.5 15.5zM270 979l95 446q2 8 4 8.5t8 0.5h190q9 0 18 -9.5t7 -15.5l-94 -446q-1 -5 -1.5 -6t-3 -2t-8.5 -1h-190q-9 0 -18 9.5t-7 15.5z" />
<glyph unicode="#" horiz-adv-x="1339" d="M-246 319l101 201q4 6 16 6l186 9q30 62 84 168.5t78 156.5l-160 -8q-10 0 -20.5 10.5t-7.5 18.5l96 196q4 6 16 6h187l166 344q5 7 16 7h211q11 0 21.5 -11t7.5 -18l-164 -322h188l166 344q5 7 16 7h211q11 0 21.5 -11t7.5 -18l-164 -322h140q10 0 20.5 -10.5t7.5 -17.5 l-98 -197q-2 -6 -14 -6l-168 -8q-19 -37 -53 -103t-60.5 -119t-50.5 -104l141 8q11 0 21.5 -10.5t7.5 -17.5l-101 -201q-4 -6 -16 -6h-168l-137 -287q-4 -6 -14 -6h-213q-10 0 -19.5 10.5t-7.5 18.5l133 264h-188l-136 -287q-4 -6 -16 -6h-211q-9 0 -19.5 11t-7.5 18 l132 264h-158q-9 0 -19.5 10.5t-7.5 17.5zM279 500h229l190 379h-229z" />
<glyph unicode="$" horiz-adv-x="1112" d="M-119 418v1l10 -1h232q8 0 16.5 -9.5t7.5 -19.5q-13 -71 25.5 -107t106.5 -36q82 0 152 49.5t87 126.5q16 71 -25.5 117t-101.5 49q-116 0 -207 53q-111 53 -157.5 150.5t-18.5 228.5q34 163 150 273.5t270 144.5l45 164q10 8 12 8h195q9 0 19 -9.5t8 -15.5l-43 -151 q137 -36 207 -148.5t40 -265.5q0 -3 -0.5 -3.5t-9.5 -0.5h-229q-9 0 -18.5 11t-6.5 22q11 69 -25.5 103t-103.5 34q-88 0 -156.5 -51t-87.5 -144q-14 -70 25 -107.5t107 -37.5q115 0 202 -53q112 -53 157 -159.5t17 -240.5q-34 -161 -143.5 -264t-261.5 -137l-43 -154v-2 q0 -3 -1 -3.5t-9 -0.5h-195q-9 0 -19 9t-8 14l41 141q-148 31 -222.5 140.5t-39.5 281.5z" />
<glyph unicode="%" horiz-adv-x="1359" d="M-313 37l1386 1397h12h222q14 0 24 -12t4 -21l-1386 -1397h-12h-222q-14 0 -24 12t-4 21zM-29 1163q26 121 129 206t222 85q134 0 212 -94.5t50 -224.5q-26 -120 -129 -204.5t-222 -84.5q-134 0 -212 94t-50 223zM162 1135q-9 -44 11.5 -72.5t59.5 -28.5q55 0 102.5 38 t57.5 91q9 46 -11 75.5t-58 29.5q-54 0 -102 -39t-60 -94zM449 303q26 123 128 208t224 85q138 0 215 -95t49 -227q-26 -123 -128.5 -207.5t-225.5 -84.5q-137 0 -214 94.5t-48 226.5zM641 274q-9 -44 10.5 -73t59.5 -29q54 0 102.5 38.5t60.5 92.5q9 44 -12.5 73.5 t-60.5 29.5q-55 0 -102 -39t-58 -93z" />
<glyph unicode="&#x26;" horiz-adv-x="1337" d="M-143 402.5q6 107.5 69.5 218t175.5 198.5q-44 45 -59.5 121t2.5 152q31 146 155 249t267 103q162 0 252.5 -112.5t58.5 -268.5q-20 -87 -80 -165.5t-145 -131.5l135 -188l60 253q7 8 10 9h352q9 0 19 -9.5t8 -15.5l-41 -190q-1 -5 -1.5 -6t-3 -2t-8.5 -1h-165l-27 -131 q-6 -30 -31 -90l-6 4l158 -211q12 -18 6 -24l-201 -164q-8 -6 -24 10l-123 137q-90 -81 -193 -122t-203 -41q-140 0 -237 55t-141 154q-45 102 -39 209.5zM122.5 394.5q3.5 -59.5 49.5 -101t127 -41.5q116 0 221 94l-244 301q-78 -52 -117.5 -122.5t-36 -130zM287 1063 q-11 -48 11 -81.5t64 -33.5q59 0 111 43t64 101q9 48 -13.5 80t-66.5 32q-58 0 -108.5 -42t-61.5 -99z" />
<glyph unicode="'" horiz-adv-x="339" d="M-53 979l94 446q2 8 4 8.5t8 0.5h213q9 0 18 -9.5t7 -15.5l-94 -446q-1 -5 -1.5 -6t-3 -2t-8.5 -1h-213q-9 0 -17.5 9.5t-6.5 15.5z" />
<glyph unicode="(" horiz-adv-x="636" d="M-41 735q76 361 322 703q9 -6 16 -6h270q13 0 22 -13t3 -26q-292 -324 -367 -684q-78 -367 49 -697q15 -6 16 -9t-9 -3h-279l-12 14q-111 342 -31 721z" />
<glyph unicode=")" horiz-adv-x="630" d="M-270 39q292 321 368 684q29 133 29 303q-4 66 -16 134t-21 104t-26 92.5t-19 62.5q-20 9 -11 12q3 1 9 1h279l12 -15q54 -167 59 -354q15 -175 -26 -365q-75 -353 -324 -704q-9 6 -16 6h-271q-14 0 -23 13t-3 26z" />
<glyph unicode="*" horiz-adv-x="784" d="M-18 1069l22 102q2 8 4 8.5t8 0.5h156l-86 118q-7 3 -11.5 12t-0.5 13l88 70q9 6 26 -11l91 -100l34 143q1 6 1.5 6.5t2.5 1.5t7 1h102q9 0 18 -9.5t7 -15.5l-31 -127l127 111q11 8 24 -11l58 -69q6 -5 11.5 -13.5t2.5 -11.5l-143 -108h125q9 0 17.5 -9.5t6.5 -15.5 l-22 -102q-7 -8 -11 -9h-153l84 -116q7 -5 12 -14t2 -13l-88 -67q-7 -4 -15 0t-12 10l-90 98l-34 -143q-1 -4 -1 -4.5t-1.5 -2t-3.5 -1.5h-7h-102q-7 0 -16 9t-7 15l31 127l-127 -108q-7 -4 -15 0.5t-10 9.5l-59 67q-7 5 -11 13.5t1 13.5l141 106h-127q-9 0 -18.5 9.5 t-7.5 15.5z" />
<glyph unicode="+" horiz-adv-x="956" d="M-133 623l43 202q2 8 4 8.5t8 0.5h281l61 294q2 8 4 8.5t8 0.5h203q9 0 18 -9.5t9 -15.5l-60 -278h275q9 0 17.5 -9.5t6.5 -15.5l-43 -203q-10 -8 -12 -8h-295l-63 -299q-1 -4 -1 -4.5t-1.5 -2t-3.5 -1.5h-7h-202q-9 0 -18 9t-7 15l60 283h-261q-9 0 -17.5 9.5t-6.5 15.5 z" />
<glyph unicode="," horiz-adv-x="380" d="M-252 139q10 52 54.5 88.5t95.5 36.5q90 0 125 -48.5t20 -123.5q-17 -76 -75 -161t-122 -126q-16 -3 -29.5 8.5t-11.5 22.5l43 148q-53 6 -82.5 51.5t-17.5 103.5z" />
<glyph unicode="-" horiz-adv-x="907" d="M-104 623l45 213q10 8 12 8h704q9 0 17 -9.5t6 -15.5l-45 -213q-1 -2 -1 -5t-9 -3h-705q-9 0 -17.5 9.5t-6.5 15.5z" />
<glyph unicode="." horiz-adv-x="368" d="M-240 143q12 54 55.5 91.5t94.5 37.5q70 0 109.5 -46.5t25.5 -110.5q-11 -54 -55 -90.5t-99 -36.5q-66 0 -105 46t-26 109z" />
<glyph unicode="/" horiz-adv-x="925" d="M-315 29l948 1401q2 4 12 4h240q11 0 19.5 -11t4.5 -20l-954 -1401q-2 -4 -12 -4h-234q-11 0 -19.5 11t-4.5 20z" />
<glyph unicode="0" horiz-adv-x="1157" d="M-76.5 219.5q-20.5 78.5 0.5 181.5l137 648q21 98 72 177t119.5 128t146 74.5t156.5 25.5q85 0 158.5 -27.5t126.5 -81.5t73.5 -132.5t-0.5 -180.5l-137 -647q-21 -99 -72.5 -178.5t-120 -127.5t-145.5 -73.5t-155 -25.5q-86 0 -159.5 27t-126.5 80.5t-73.5 132zM193 375 q-16 -73 15.5 -111.5t86.5 -38.5q70 0 131 45.5t78 120.5l143 674q16 73 -15.5 110t-86.5 37q-70 0 -131.5 -44.5t-77.5 -118.5z" />
<glyph unicode="1" horiz-adv-x="679" d="M-66.5 1257q0.5 1 3.5 5l370 172h197q9 0 16.5 -9.5t5.5 -15.5l-297 -1401q-1 -2 -1 -5t-9 -3h-235q-9 0 -17 9.5t-6 15.5l244 1099q-93 -27 -189 -69q-13 0 -24.5 8t-9.5 14l-43 166q-1 2 -3.5 7.5t-2 6.5z" />
<glyph unicode="2" horiz-adv-x="1003" d="M-242 25l39 206l654 705q72 76 86 137q10 50 -14 81.5t-70 31.5q-69 0 -130 -43.5t-79 -124.5h-11h-219q-9 0 -17.5 10t-6.5 19q37 181 160 293t319 112q83 0 155 -30t121 -81t69.5 -125t2.5 -157q-27 -135 -149 -271l-516 -522h485q9 0 18 -9t7 -15l-50 -234 q-10 -8 -12 -8h-817q-9 0 -18 9.5t-7 15.5z" />
<glyph unicode="3" horiz-adv-x="1009" d="M-173.5 237q-20.5 81 1.5 181q9 2 10 2h232q8 0 15.5 -10.5t6.5 -20.5q-14 -66 22 -105.5t97 -39.5q94 0 163.5 64.5t88.5 148.5q19 90 -17.5 146t-121.5 63h-193q-13 0 -24 10.5t-5 19.5l390 480h-426q-9 0 -18 9t-7 15l47 225q2 8 4 8.5t8 0.5h824q12 0 23 -11t5 -20 l-432 -529q134 -41 190 -163.5t19 -298.5q-19 -90 -59 -163.5t-92.5 -122.5t-116.5 -82.5t-130.5 -48.5t-135.5 -15q-92 0 -169 31t-128 88t-71.5 138z" />
<glyph unicode="4" horiz-adv-x="1054" d="M-160 449l41 217l746 768h10h233q9 0 18 -9.5t7 -15.5l-297 -1401q-10 -8 -12 -8h-234q-7 0 -15.5 9.5t-6.5 15.5l84 399h-549q-9 0 -18 9.5t-7 15.5zM162 662h305l86 389z" />
<glyph unicode="5" horiz-adv-x="1026" d="M-147.5 236q-17.5 82 4.5 188q9 2 10 2h231q10 0 19 -10.5t6 -20.5q-14 -73 15 -109t89 -36q89 0 156.5 62t85.5 145q43 200 -121 211h-397q-9 0 -19 9t-8 15l156 733q2 8 4 8.5t8 0.5h752q9 0 17.5 -9.5t6.5 -15.5l-45 -217q-10 -8 -12 -8h-508l-59 -277h133 q152 0 244 -62.5t115.5 -172t-5.5 -258.5q-21 -99 -73.5 -181t-123 -135.5t-153.5 -82.5t-168 -29q-94 0 -169 28.5t-124.5 84t-67 137.5z" />
<glyph unicode="6" horiz-adv-x="966" d="M-166 428q12 62 43 139l490 863q1 4 10 4h250q9 0 18 -11t6 -20l-344 -578q13 4 64 4q117 0 196.5 -63.5t106 -162t2.5 -210.5q-37 -170 -182 -289.5t-314 -119.5q-128 0 -217 61t-122 162t-7 221zM80 391q-15 -67 18 -113.5t95 -46.5q78 0 147 56t86 133q14 68 -20 115 t-97 47q-75 0 -144.5 -57.5t-84.5 -133.5z" />
<glyph unicode="7" horiz-adv-x="892" d="M-217 31l678 1145h-465q-9 0 -18 9t-7 15l47 225q1 5 1.5 6t3 2t8.5 1h837q11 0 21 -11t6 -20l-825 -1399q-3 -4 -13 -4h-250q-10 0 -19 11t-5 20z" />
<glyph unicode="8" horiz-adv-x="997" d="M-157 234.5q-19 84.5 3 195.5q18 79 73 161t132 138q-48 53 -72 136.5t-6 166.5q21 102 73.5 184t122 132t147 77t155.5 27q86 0 159.5 -29t126.5 -85.5t72.5 -140t-2.5 -193.5q-18 -84 -73 -163.5t-138 -131.5q53 -56 77.5 -139.5t6.5 -168.5q-18 -83 -56 -153 t-88 -118.5t-110 -83t-122 -50.5t-125 -16q-85 0 -158 28.5t-126 85t-72 141zM109 401q-18 -79 14 -121t90 -42q73 0 138.5 51.5t84.5 140.5q14 65 -17.5 112.5t-90.5 47.5q-73 0 -138.5 -57.5t-80.5 -131.5zM229 1004q-13 -67 19 -112.5t94 -45.5q77 0 144.5 55t82.5 131 q18 81 -16 124.5t-94 43.5q-75 0 -142 -52.5t-88 -143.5z" />
<glyph unicode="9" horiz-adv-x="995" d="M-35 1040q37 170 182.5 290t313.5 120q129 0 218 -61t122 -162t8 -221q-14 -70 -47 -142l-486 -860q-3 -4 -14 -4h-248q-10 0 -19 11t-7 20l346 577q-13 -4 -64 -4q-117 0 -196.5 63.5t-106 162t-2.5 210.5zM219 1014q-14 -66 19 -112t94 -46q74 0 142 55t83 131 q15 66 -18 111t-93 45q-76 0 -143 -54.5t-84 -129.5z" />
<glyph unicode=":" horiz-adv-x="368" d="M-240 143q12 54 55.5 91.5t94.5 37.5q70 0 109.5 -46.5t25.5 -110.5q-11 -54 -55 -90.5t-99 -36.5q-66 0 -105 46t-26 109zM-115 727q10 54 54.5 91.5t95.5 37.5q69 0 108 -47t27 -111q-12 -54 -55.5 -90.5t-98.5 -36.5q-66 0 -105 46.5t-26 109.5z" />
<glyph unicode=";" horiz-adv-x="370" d="M-252 139q10 52 54.5 88.5t95.5 36.5q90 0 125 -48.5t20 -123.5q-17 -76 -75 -161t-122 -126q-16 -3 -29.5 8.5t-11.5 22.5l43 148q-53 6 -82.5 51.5t-17.5 103.5zM-115 727q10 54 54.5 91.5t95.5 37.5q69 0 108 -47t27 -111q-12 -54 -55.5 -90.5t-98.5 -36.5 q-66 0 -105 46.5t-26 109.5z" />
<glyph unicode="&#x3c;" horiz-adv-x="714" d="M-129 719l541 465q12 7 24 -10l107 -138q17 -17 10 -22l-375 -314l225 -317q19 -19 13 -25l-166 -139q-9 -4 -23 10l-344 463q-19 20 -12 27z" />
<glyph unicode="=" horiz-adv-x="874" d="M-176 326l43 202q2 8 4 8.5t8 0.5h701q9 0 16.5 -9.5t5.5 -15.5l-43 -203v-3q1 -2 0 -2.5t-8 -0.5h-701q-9 0 -18.5 9t-7.5 14zM-100 682l43 201q10 8 12 8h700q9 0 17 -9.5t6 -15.5l-43 -200v-6q-2 -1 -8 -1h-701q-9 0 -18.5 9t-7.5 14z" />
<glyph unicode="&#x3e;" horiz-adv-x="708" d="M-164 393l375 307l-225 324q-18 18 -11 23l164 137q7 4 15 -0.5t10 -9.5l344 -465q20 -19 12 -27l-540 -463q-10 -5 -25 10l-109 140q-18 18 -10 24z" />
<glyph unicode="?" horiz-adv-x="1003" d="M-35 1065q36 170 177 279.5t313 109.5q98 0 175.5 -29.5t128.5 -87t68 -142t-6 -194.5q-26 -124 -139 -226t-254 -140l-61 -240q0 -5 -1 -5.5t-10 -0.5h-211q-9 0 -18.5 9t-7.5 14l90 424l3 8h1q155 -9 239 49.5t101 136.5q20 90 -14 124t-101 34q-74 0 -134 -42.5 t-73 -109.5q-9 -2 -10 -2h-231q-10 0 -19 10.5t-6 20.5zM41 152q13 63 60.5 98t103.5 35q70 0 112.5 -44t26.5 -118q-13 -62 -61 -96.5t-105 -34.5q-69 0 -111 43.5t-26 116.5z" />
<glyph unicode="@" horiz-adv-x="1832" d="M-199.5 536.5q-6.5 94.5 17.5 194.5q31 146 110 277t191.5 230t261.5 157.5t311 58.5q153 0 280 -51.5t211.5 -147.5t117 -234t-4.5 -312l-75 -351q0 -6 -1 -7t-10 -1h-721q-76 0 -140.5 30t-104.5 82t-57 121.5t1 147.5q31 147 155 249.5t271 102.5q160 0 252 -113 t58 -268q-18 -87 -54 -133l127 6l31 150q24 114 7 202t-67 148t-124 91.5t-164 31.5q-114 0 -219 -41.5t-182 -110.5t-130.5 -158t-74.5 -186q-13 -74 -10 -142.5t31 -128t72.5 -103.5t115.5 -69.5t159 -25.5h701q9 0 18.5 -9t7.5 -15l-47 -217q-7 -8 -10 -8h-700 q-111 0 -207 27.5t-167 77t-125 118.5t-80 152t-32.5 177.5zM428 702q-10 -49 13.5 -81.5t66.5 -32.5q59 0 111.5 42.5t64.5 100.5q10 49 -13.5 82t-66.5 33q-59 0 -111.5 -43t-64.5 -101z" />
<glyph unicode="A" horiz-adv-x="1167" d="M-297 31l866 1439q4 6 10 6q3 0 9 -2q14 -6 14 -18l254 -1440q3 -9 3 -12q0 -2 -1 -2q-2 -2 -8 -2h-254q-6 0 -16 6t-7 10l-24 146h-467l-86 -158q-3 -4 -14 -4h-252q-12 0 -22 11q-7 8 -6 14q0 3 1 6zM221 403h289l-47 431z" />
<glyph unicode="B" horiz-adv-x="1234" d="M-154 25l297 1400q1 5 1.5 6t3 2t8.5 1h487q19 0 50.5 -2.5t108.5 -25t131.5 -62.5t86.5 -128q18 -49 19 -108q0 -46 -11 -98q-47 -217 -262 -299q56 -21 92.5 -60t49.5 -78.5t16 -80t0.5 -62t-4.5 -27.5q-17 -81 -54 -146t-80.5 -106t-100.5 -71.5t-103.5 -45 t-101.5 -23t-83.5 -10t-58.5 -1.5h-467q-9 0 -18 9.5t-7 15.5zM168 262h205q38 0 78 8t83 26t75.5 54.5t43.5 87.5q4 18 4 33q0 25 -10 45q-16 32 -46 44t-61 18t-54 5l-23 -1h-225zM293 850h225q8 0 22 1.5t51 12t67 27t59 51t39 80.5q4 19 4 36q0 24 -8 44 q-14 34 -40.5 47.5t-54.5 21t-49 7.5h-20h-226z" />
<glyph unicode="C" horiz-adv-x="1421" d="M-58 421q-13 62 -13 131q0 85 20 179q44 210 168.5 375t304 256.5t383.5 91.5q155 0 276.5 -59t190.5 -162q7 0 13 -4q5 -4 7 -9q1 -2 1 -4t-1 -4l-200 -161q-6 -4 -15.5 2t-9.5 14q-108 121 -279 121q-212 0 -367 -136.5t-200 -349.5q-13 -65 -13 -122q0 -124 64 -210 q94 -124 277 -124q97 0 189 38.5t163 104.5q10 0 18.5 -5.5t10.5 -10.5l131 -164q5 -5 8.5 -15t-0.5 -18q-117 -93 -256.5 -144.5t-280.5 -51.5q-152 0 -276.5 53t-204 151t-109.5 237z" />
<glyph unicode="D" horiz-adv-x="1355" d="M-154 25l297 1400q1 5 1.5 6t3 2t8.5 1h233q718 0 718 -523q0 -96 -24 -209q-27 -126 -76.5 -229.5t-111 -175t-140.5 -126t-156.5 -86.5t-167.5 -51.5t-167 -26.5t-160 -7h-233q-9 0 -18 9.5t-7 15.5zM162 264q17 -2 37 -2q17 0 37 2q42 4 87.5 7t95.5 19t98 36.5 t94 57.5t84.5 83.5t69.5 114.5t48 149q14 71 14 130q0 44 -8 82q-18 87 -80.5 139.5t-152.5 73.5q-70 16 -159 16q-25 0 -52 -1z" />
<glyph unicode="E" horiz-adv-x="1204" d="M-154 25l297 1400q1 5 1.5 6t3 2t8.5 1h915q9 0 18 -9.5t7 -15.5l-47 -227q-1 -4 -1 -4.5t-1.5 -2t-3.5 -1.5h-7h-671l-70 -324h553q7 0 16.5 -9.5t7.5 -15.5l-49 -227q-8 -8 -10 -8h-573l-68 -324h670q9 0 17.5 -9t6.5 -15l-49 -234q-10 -8 -12 -8h-934q-9 0 -18 9.5 t-7 15.5z" />
<glyph unicode="F" horiz-adv-x="1187" d="M-154 25l297 1400q1 5 1.5 6t3 2t8.5 1h934q9 0 17.5 -9.5t6.5 -15.5l-49 -233q-2 -8 -4 -8.5t-8 -0.5h-691l-67 -323h553q7 0 15.5 -9.5t6.5 -15.5l-47 -227q-8 -8 -10 -8h-573l-123 -576q-1 -4 -1 -4.5t-1.5 -2t-3.5 -1.5h-7h-233q-9 0 -18 9.5t-7 15.5z" />
<glyph unicode="G" horiz-adv-x="1583" d="M-57 414q-10 56 -10 118q0 93 22 199q33 154 117 289.5t198.5 230t254.5 149t284 54.5q155 0 276.5 -59t190.5 -162q7 0 13 -4t7 -9q1 -2 1 -4t-1 -4l-200 -161q-6 -5 -16 2t-9 14q-105 121 -278 121q-129 0 -246 -57.5t-204.5 -169.5t-119.5 -259q-15 -79 -15 -143 q0 -35 4 -65q13 -86 62 -141.5t118.5 -81t160.5 -25.5q202 0 377 155l45 181h-221q-9 0 -19 8t-8 14l45 217q10 8 12 8h488q8 0 17 -9t7 -15l-172 -803q-5 -8 -8 -8h-205q-8 0 -17.5 8t-8.5 14l22 119q-166 -155 -401 -155q-149 0 -267.5 50.5t-194.5 147t-101 236.5z" />
<glyph unicode="H" horiz-adv-x="1404" d="M-150 25l297 1400q1 5 1.5 6t3 2t8.5 1h233q9 0 18 -9.5t7 -15.5l-117 -557h543l121 573q2 8 4 8.5t8 0.5h233q9 0 18 -9.5t7 -15.5l-297 -1401q-10 -8 -12 -8h-234q-9 0 -17.5 9.5t-6.5 15.5l118 559h-542l-123 -576q-10 -8 -12 -8h-234q-9 0 -18 9.5t-7 15.5z" />
<glyph unicode="I" horiz-adv-x="716" d="M-250 25l45 213q10 8 12 8h156l199 942h-127q-9 0 -18 9t-7 15l45 213q1 5 1.5 6t3 2t8.5 1h546q9 0 18 -9.5t7 -15.5l-45 -213q-10 -8 -12 -8h-146l-198 -942h133q9 0 17.5 -9.5t6.5 -15.5l-45 -213q-10 -8 -12 -8h-563q-9 0 -18 9.5t-7 15.5z" />
<glyph unicode="J" horiz-adv-x="831" d="M-248 25l49 233q1 4 1 4.5t1.5 2t3.5 1.5h7h176q44 0 81.5 17t59 41.5t36.5 49t21 41.5l5 17l161 758h-223q-9 0 -19 9t-8 15l46 213q2 8 4 8.5t8 0.5h487q9 0 18 -9.5t7 -15.5l-213 -995q-18 -87 -56 -156.5t-84 -111.5t-97.5 -73t-99 -45t-86.5 -21.5t-62 -8.5h-23 h-176q-9 0 -18 9.5t-7 15.5z" />
<glyph unicode="K" horiz-adv-x="1323" d="M-154 25l297 1400q1 5 1.5 6t3 2t8.5 1h235q7 0 16 -9.5t7 -15.5l-140 -643l678 668h13h292q14 0 26 -12q8 -8 8 -14q0 -4 -3 -7l-731 -696l424 -685q17 -20 -4 -20h-307q-3 0 -16 5.5t-13 6.5l-299 504q-5 -4 -57 -53t-80 -72l-88 -383q-1 -5 -1.5 -6t-2.5 -1.5t-7 -0.5 h-235q-9 0 -18 9.5t-7 15.5z" />
<glyph unicode="L" horiz-adv-x="1026" d="M-156 25l297 1400q1 5 1.5 6t3 2t8.5 1h235q7 0 16 -9.5t7 -15.5l-242 -1143h489q9 0 18 -9t7 -15l-49 -234q-10 -8 -12 -8h-754q-9 0 -18 9.5t-7 15.5z" />
<glyph unicode="M" horiz-adv-x="1875" d="M-152 25l297 1402q0 2 1 4q0 5 10 5h239q3 0 10 -3.5t12.5 -7.5t4.5 -6l285 -1046l718 1059q2 4 13 4h237q9 0 19 -9.5t8 -15.5l-299 -1403q-10 -8 -12 -8h-234q-9 0 -17.5 9.5t-6.5 15.5l170 778l-523 -742q-4 -4 -12 -4h-221q-3 0 -10 3.5t-12 7.5t-3 6l-227 747 l-176 -813q-1 -4 -1 -4.5t-1.5 -2t-3.5 -1.5h-7h-235q-9 0 -17 9.5t-6 15.5z" />
<glyph unicode="N" horiz-adv-x="1519" d="M-152 25l297 1400q1 6 1.5 6.5t2.5 1.5t7 1h237q2 0 8.5 -2.5t12 -5.5t4.5 -5l456 -938l205 942q1 5 1.5 6t3 2t8.5 1h231q9 0 18 -9.5t7 -15.5l-297 -1401q-1 -4 -1 -4.5t-1.5 -2t-3.5 -1.5h-7h-235q-2 0 -8.5 2t-12 5t-4.5 5l-454 938l-205 -942q-1 -4 -1 -4.5t-1.5 -2 t-3.5 -1.5h-7h-235q-7 0 -16 9.5t-7 15.5z" />
<glyph unicode="O" horiz-adv-x="1306" d="M-145 25l49 231q10 8 12 8h924q9 0 17.5 -9t6.5 -15l-49 -232q-10 -8 -12 -8h-924q-9 0 -17.5 9.5t-6.5 15.5zM-6 932q46 215 231 368.5t400 153.5q151 0 265 -75t162 -202q30 -77 29 -162q0 -54 -12 -112q-22 -106 -84 -203t-146.5 -167t-189.5 -111t-211 -41 q-151 0 -264.5 74.5t-161.5 201.5q-30 77 -30 163q0 54 12 112zM260 903q-7 -32 -7 -61q1 -71 41 -123q56 -74 159 -74q120 0 222 83.5t128 203.5q7 32 7 61q0 71 -40 123q-56 74 -160 74q-119 0 -222 -84.5t-128 -202.5z" />
<glyph unicode="P" horiz-adv-x="1193" d="M-154 25l174 817q0 6 1 7t10 1l209 6q-29 63 -79.5 183t-62.5 149l45 237q1 5 1.5 6t3 2t8.5 1h487q6 0 16 -1t42.5 -5t60.5 -12t70 -23.5t71 -37.5t63.5 -55t47.5 -76q12 -44 22 -101q3 -18 3 -38q0 -42 -13 -90q-18 -86 -59 -155t-92 -110.5t-108 -72t-110.5 -44 t-97 -21t-69.5 -8.5h-27h-223l-123 -576q-1 -4 -1 -4.5t-1.5 -2t-3.5 -1.5h-7h-233q-9 0 -18 9.5t-7 15.5zM391 1167l127 -315q30 0 65.5 10t72 29.5t65 54t37.5 78.5q4 19 4 36q0 19 -5 34q-10 29 -27 43t-48 21.5t-47.5 8t-41.5 0.5h-7h-195z" />
<glyph unicode="Q" horiz-adv-x="1683" d="M-60 492q-3 34 -3 69q0 83 18 174q31 146 110.5 277.5t191 229t256 155t296.5 57.5q128 0 236 -39t182 -108t123 -163t58 -204q3 -33 3 -66q0 -80 -16 -167q-24 -108 -77.5 -216t-129.5 -192l98 -147q20 -20 12 -25l-204 -160q-3 -2 -7 -2t-8 3q-8 4 -10 9l-108 129 q-201 -124 -424 -124q-122 0 -227.5 37t-181.5 104.5t-126.5 161.5t-61.5 207zM223 707q-13 -61 -13 -116q0 -66 19 -123q35 -106 120 -163t204 -57t260 74q-71 105 -453 655q-50 -58 -87 -130t-50 -140zM594 1149l438 -633q71 112 94 219q10 50 10 97q0 67 -20 128 q-35 104 -120.5 166t-202.5 62q-92 0 -199 -39z" />
<glyph unicode="R" horiz-adv-x="1253" d="M-152 25l175 817q0 6 0.5 7t9.5 1l209 6q-24 54 -71.5 165.5t-70.5 166.5l45 237q1 5 1.5 6t3 2t8.5 1h487q6 0 16 -1t43 -5t61 -12t70 -23.5t71.5 -37.5t64 -55t47.5 -76q12 -44 22 -101q3 -18 4 -38q0 -42 -14 -90q-63 -294 -377 -383l230 -594q8 -15 5 -17 q-1 -1 -7 -1h-275q-3 0 -9.5 2.5t-11.5 6t-3 5.5l-236 570h-104l-123 -576q-1 -4 -1 -4.5t-1.5 -2t-3.5 -1.5h-7h-233q-9 0 -18 9.5t-7 15.5zM401 1167l127 -315q32 1 66 10t68.5 28t61 53.5t36.5 80.5q5 21 5 39q-1 21 -7 37q-6 14 -15 25.5t-21 18t-25.5 11.5t-27.5 7 q-13 2 -27 4q-9 1 -18 1h-8q-12 -1 -20 0h-4.5h-3.5h-187z" />
<glyph unicode="S" horiz-adv-x="1112" d="M-121 418q9 2 10 2h234q8 0 16.5 -10.5t7.5 -20.5q-3 -17 -4 -33q1 -46 31 -74q40 -36 107 -36q83 0 153.5 50.5t87.5 127.5q4 20 4 37q0 46 -30 79q-42 45 -103 48q-116 0 -209 55q-114 53 -160 151q-29 61 -29 135q0 45 11 95q28 130 113 230t194.5 150t223.5 50 q130 0 226 -54.5t138 -154.5q26 -63 27 -135q0 -43 -10 -90h-11h-231q-8 0 -17 10t-8 19q3 16 3 31q0 48 -28 74q-36 34 -106 34q-87 0 -156.5 -51.5t-87.5 -141.5q-5 -20 -5 -38q0 -44 29 -71q40 -38 108 -38q19 0 45 -2.5t75 -16t86 -36.5q112 -51 158 -157 q27 -64 27 -138q0 -49 -11 -103q-21 -98 -74 -178t-125 -131t-156 -78.5t-169 -27.5q-204 6 -314 122q-81 86 -82 216q0 47 11 100z" />
<glyph unicode="T" horiz-adv-x="917" d="M-23 1212l46 213q2 8 4 8.5t8 0.5h821q9 0 18 -9.5t7 -15.5l-45 -213q-1 -4 -1 -4.5t-1.5 -2t-3.5 -1.5h-7h-284l-250 -1180q-1 -4 -1 -4.5t-1.5 -2t-3.5 -1.5h-7h-231q-9 0 -18 9.5t-7 15.5l246 1163h-264q-9 0 -18 9t-7 15z" />
<glyph unicode="U" horiz-adv-x="1515" d="M-33 588l178 837q1 6 1.5 6.5t2.5 1.5t7 1h1165q9 0 18 -9.5t7 -15.5l-177 -838l-3 -13q-3 -13 -7 -27.5t-11 -36.5t-17.5 -47t-23 -53.5t-30 -60t-37.5 -61.5q-108 -141 -256.5 -216.5t-322.5 -75.5q-191 0 -314 83t-161 238q-27 79 -27 176q0 53 8 111zM228 481 q-1 -14 0 -26q0 -40 8 -68q57 -141 241 -141q219 0 330 170q29 35 52 78.5t31.5 67.5t8.5 28l127 598h-659l-127 -600q-3 -12 -5.5 -31t-6.5 -76z" />
<glyph unicode="V" horiz-adv-x="1177" d="M18 1434h1121q10 0 19 -11q6 -8 6 -14q0 -3 -1 -6l-866 -1456q-5 -6 -11 -6q-4 1 -10 3q-12 6 -14 17l-252 1456q-2 7 -2 11q0 6 10 6zM326 1180l82 -574l333 574h-415z" />
<glyph unicode="W" horiz-adv-x="2076" d="M33 1434h252q6 0 14.5 -7.5t7.5 -11.5l119 -768l465 783q1 4 12 4h252q7 0 17.5 -6.5t7.5 -10.5l125 -770l458 783q1 4 13 4h252q12 0 21 -11q6 -8 6 -14q0 -3 -1 -6l-870 -1454q-5 -6 -11 -6q-5 1 -9 3q-12 6 -13 17l-186 1096l-658 -1110q-4 -6 -11 -6q-4 1 -10 3 q-14 6 -12 17l-249 1454q-2 7 -2 11q0 6 10 6z" />
<glyph unicode="X" horiz-adv-x="1380" d="M-279 33l652 690q-190 375 -336 696q-16 6 -15 11q2 4 9 4h286q2 0 8.5 -2.5t12 -5.5t4.5 -5l233 -471l447 484q1 2 2.5 2t4 -1t3.5 -1h287q15 0 25 -12q7 -8 6 -14q0 -4 -2 -7l-656 -690q151 -293 340 -697q18 -8 12 -12q-3 -2 -10 -2h-286q-2 0 -8.5 2t-12 5t-4.5 5 l-231 471l-449 -483q-1 -2 -2.5 -2t-4 1t-3.5 1h-287q-12 0 -22 12q-6 7 -6 13q0 4 3 8z" />
<glyph unicode="Y" horiz-adv-x="1320" d="M-13 1430q3 4 11 4h285q2 0 8 -2.5t11.5 -5.5t4.5 -5l234 -471l448 484q1 2 2 2t3 -1t3 -1h287q14 0 24 -12q7 -8 7 -14q0 -4 -2 -7l-682 -727l-146 -666q-10 -8 -12 -8h-233q-9 0 -18 9.5t-7 15.5l145 655q-28 58 -88.5 179.5t-96 193.5t-84.5 175t-89 191q-16 6 -15 11 z" />
<glyph unicode="Z" horiz-adv-x="972" d="M-250 31l701 1136h-428q-9 0 -18 9.5t-7 15.5l49 233q2 8 4 8.5t8 0.5h815q12 0 22 -11q7 -8 6 -14q0 -3 -1 -6l-700 -1137h428q9 0 17.5 -9t6.5 -15l-49 -234q-10 -8 -12 -8h-815q-11 0 -21 11q-7 8 -7 14q0 3 1 6z" />
<glyph unicode="[" horiz-adv-x="704" d="M-158 25l297 1400q1 6 1.5 6.5t2.5 1.5t7 1h466q9 0 18 -9.5t7 -15.5l-49 -233q-2 -8 -4 -8.5t-8 -0.5h-222l-190 -901h201q9 0 17.5 -9t6.5 -15l-49 -234q-10 -8 -12 -8h-467q-7 0 -16 9.5t-7 15.5z" />
<glyph unicode="\" horiz-adv-x="929" d="M-14.5 1432q1.5 2 8.5 2h239q3 0 10 -3.5t12 -7.5t3 -6l348 -1403q1 -3 2 -8q2 -4 0.5 -6t-8.5 -2h-240q-3 0 -9.5 3t-12 7t-4.5 6l-346 1403q0 3 -2 8t-0.5 7z" />
<glyph unicode="]" horiz-adv-x="720" d="M-236 25l50 233q10 8 12 8h223l191 901h-203q-9 0 -18 9.5t-7 15.5l49 233q1 5 1.5 6t3 2t8.5 1h467q9 0 16.5 -9.5t5.5 -15.5l-297 -1401q0 -2 -1 -5q0 -3 -9 -3h-467q-9 0 -18 9.5t-7 15.5z" />
<glyph unicode="^" horiz-adv-x="1216" d="M-102 1028l516 406q7 4 15.5 -0.5t10.5 -10.5l344 -405q20 -20 11 -27l-156 -121q-14 -8 -27 11l-229 262q-164 -127 -340 -279q-20 0 -31 17l-104 120q-20 20 -10 27z" />
<glyph unicode="_" horiz-adv-x="1103" d="M-274 -170l41 193q0 7 0.5 7.5t9.5 0.5h925q9 0 19 -9.5t8 -15.5l-41 -192q-2 -8 -4 -8.5t-8 -0.5h-926q-9 0 -17.5 9.5t-6.5 15.5z" />
<glyph unicode="`" horiz-adv-x="542" d="M-6 1327l141 168q6 6 25 -4l315 -205q7 -3 14.5 -13t4.5 -16l-132 -159q-6 -6 -22 4l-328 198q-8 2 -14.5 11.5t-3.5 15.5z" />
<glyph unicode="a" horiz-adv-x="1169" d="M-297 31l866 1439q4 6 10 6q3 0 9 -2q14 -6 14 -18l254 -1440q3 -9 3 -12q0 -2 -1 -2q-2 -2 -8 -2h-254q-6 0 -16 6t-7 10l-24 146h-467l-86 -158q-3 -4 -14 -4h-252q-12 0 -22 11q-7 8 -6 14q0 3 1 6zM221 403h289l-47 431z" />
<glyph unicode="b" horiz-adv-x="1234" d="M-152 25l297 1400q1 6 1.5 6.5t2.5 1.5t7 1h483q6 0 16 -0.5t42.5 -3.5t60.5 -10.5t70 -21t71 -35t63.5 -52.5t47.5 -73q12 -42 22 -98q3 -18 3 -38q0 -41 -13 -88q-44 -212 -258 -291q56 -21 91.5 -61.5t47.5 -82t14 -84.5q1 -17 1 -31q0 -20 -2 -34q-3 -22 -5 -29 q-17 -80 -54 -145t-79.5 -106t-98.5 -71t-102.5 -44.5t-101 -23t-82.5 -10t-59 -1.5h-463q-7 0 -16 9.5t-7 15.5zM168 262h201q38 0 78 8t83 26.5t75.5 55t43.5 86.5q5 20 5 38q0 20 -7 38q-12 32 -31 47t-53.5 23t-52 9t-43.5 1h-6h-221zM293 844h201q22 0 53.5 6.5 t76.5 24t81.5 57.5t48.5 96q4 19 4 36q0 24 -8 42q-14 32 -41 44t-55 18q-24 5 -42 4h-7l-21 -1h-222z" />
<glyph unicode="c" horiz-adv-x="1421" d="M-58 418q-13 62 -13 129q0 84 20 178q45 209 168 375t302.5 260t381.5 94q154 0 274.5 -57.5t190.5 -159.5q10 1 16 -7q4 -4 4 -8q0 -3 -2 -5l-197 -160q-7 -4 -16.5 2t-7.5 14q-109 119 -277 119q-104 0 -200 -38.5t-168.5 -105.5t-124.5 -158t-74 -194 q-13 -65 -13 -121q0 -125 64 -209q94 -122 275 -122q96 0 186.5 37.5t161.5 103.5q10 0 18.5 -5.5t10.5 -10.5l131 -162q5 -5 8 -15.5t0 -17.5q-117 -92 -255.5 -143t-277.5 -51q-151 0 -274 52.5t-202.5 150t-109.5 235.5z" />
<glyph unicode="d" horiz-adv-x="1355" d="M-152 25l297 1400q1 5 1.5 6t3 2t8.5 1h231q63 0 119.5 -4t122 -14.5t121 -28t111 -47t97.5 -68t75 -94t49 -122.5q16 -63 17 -146q0 -5 -1 -10q-1 -89 -23 -193q-27 -125 -76.5 -228.5t-110.5 -175.5t-139 -127t-155.5 -87.5t-166.5 -53t-166 -28t-159 -7.5h-231 q-9 0 -18 9.5t-7 15.5zM160 256q19 -1 38 -1q24 -1 47 1q43 2 101.5 13.5t111.5 31t110 56.5t102 86.5t83 124.5t58 167q17 82 17 147q0 61 -14 107q-14 47 -43 82.5t-67.5 57.5t-91.5 35q-52 12 -109 16q-27 2 -56 2q-33 0 -70 -2z" />
<glyph unicode="e" horiz-adv-x="1204" d="M-152 25l297 1400q1 6 1.5 6.5t2.5 1.5t7 1h927q9 0 18 -9.5t7 -15.5l-47 -227q-10 -8 -12 -8h-687l-69 -332h549q9 0 16.5 -9.5t5.5 -15.5l-47 -223q-1 -2 -1 -5t-9 -3h-569l-70 -328h666q9 0 17.5 -9.5t6.5 -15.5l-47 -225q-10 -8 -12 -8h-928q-7 0 -16 9.5t-7 15.5z " />
<glyph unicode="f" horiz-adv-x="1187" d="M-152 25l295 1388q1 5 1.5 6t2.5 1.5t7 0.5h927q9 0 18 -9t7 -15l-49 -232q-1 -4 -1 -4.5t-1.5 -2t-3.5 -1.5h-7h-686l-65 -315h549q9 0 16.5 -9.5t5.5 -15.5l-49 -229q-1 -2 -1 -5t-9 -3h-569l-121 -572q-10 -8 -11 -8h-233q-7 0 -16 9.5t-7 15.5z" />
<glyph unicode="g" horiz-adv-x="1583" d="M-55 412q-10 56 -10 119q0 93 22 200q33 154 117 289.5t197.5 230t254 149t283.5 54.5q156 0 276.5 -58t190.5 -161q7 0 13 -4t7 -9q1 -2 1 -4t-1 -4l-200 -161q-6 -4 -15.5 2t-9.5 14q-108 121 -276 121q-198 0 -360 -133.5t-210 -354.5q-16 -80 -16 -145q0 -34 5 -64 q12 -87 60.5 -142.5t118 -81t160.5 -25.5q103 0 202.5 42t180.5 113l45 191h-346q-9 0 -18 9t-7 15l43 207q1 4 1 4.5t1.5 2t3.5 1.5h7h604q9 0 18.5 -9t7.5 -15l-170 -801q-10 -8 -12 -8h-205q-8 0 -16.5 8t-7.5 14l22 111q-186 -152 -399 -152q-149 0 -267.5 50.5 t-194.5 147.5t-101 237z" />
<glyph unicode="h" horiz-adv-x="1404" d="M-147 25l297 1400q2 8 4 8.5t8 0.5h231q9 0 18 -9.5t7 -15.5l-117 -551h537l120 567q1 5 1.5 6t3 2t8.5 1h233q7 0 16 -9.5t7 -15.5l-297 -1401q-8 -8 -10 -8h-234q-9 0 -17.5 9.5t-6.5 15.5l120 573h-536l-125 -590q-10 -8 -12 -8h-232q-9 0 -17.5 9.5t-6.5 15.5z" />
<glyph unicode="i" horiz-adv-x="573" d="M-152 25l297 1400q1 5 1.5 6t3 2t8.5 1h231q9 0 18 -9.5t7 -15.5l-297 -1401q-1 -4 -1 -4.5t-1.5 -2t-3.5 -1.5h-7h-231q-9 0 -18 9.5t-7 15.5z" />
<glyph unicode="j" horiz-adv-x="831" d="M-246 25l49 231q1 4 1 4.5t1.5 2t3.5 1.5h7h174q44 0 80.5 17t57.5 41t36 48t20 41l6 17l211 997q0 2 1 4q0 5 10 5h233q7 0 16 -9.5t7 -15.5l-211 -997q-18 -86 -56 -155t-83.5 -111t-96.5 -72.5t-98 -44t-85.5 -21t-61.5 -8.5h-23h-174q-9 0 -18 9.5t-7 15.5z" />
<glyph unicode="k" horiz-adv-x="1323" d="M-152 25l297 1400q1 5 1.5 6t3 2t8.5 1h233q9 0 18 -9.5t7 -15.5l-144 -655l680 680h13h290q14 0 26 -12q8 -8 8 -14q0 -4 -3 -7l-729 -696l422 -685q17 -20 -4 -20h-305q-3 0 -16 5.5t-13 6.5l-299 504q-12 -11 -60 -56.5t-75 -68.5l-88 -383q-1 -4 -1 -4.5t-1.5 -2 t-3.5 -1.5h-7h-233q-9 0 -18 9.5t-7 15.5z" />
<glyph unicode="l" horiz-adv-x="1026" d="M-154 25l297 1400q1 5 1.5 6t3 2t8.5 1h231q9 0 18 -9.5t7 -15.5l-242 -1145h483q9 0 18 -9t7 -15l-49 -232q-1 -4 -1 -4.5t-1.5 -2t-3.5 -1.5h-7h-745q-9 0 -18 9.5t-7 15.5z" />
<glyph unicode="m" horiz-adv-x="1875" d="M-150 25l297 1400q1 5 1.5 6t3 2t8.5 1h235q3 0 10 -3.5t12 -7.5t3 -6l280 -1048l717 1061q2 4 13 4h235q9 0 18 -9.5t7 -15.5l-297 -1401q-1 -4 -1 -4.5t-1.5 -2t-3.5 -1.5h-7h-231q-9 0 -18 9.5t-7 15.5l174 798l-524 -764q-2 -4 -12 -4h-219q-3 0 -9.5 3.5t-11 7.5 t-2.5 6l-221 768l-180 -832q-1 -4 -1 -4.5t-1.5 -2t-3.5 -1.5h-7h-231q-9 0 -18 9.5t-7 15.5z" />
<glyph unicode="n" horiz-adv-x="1519" d="M-150 25l297 1402q0 2 1 4q0 5 10 5h235q2 0 8 -2.5t11 -5.5t4 -5l450 -956l207 960q2 8 4 8.5t8 0.5h230q9 0 18.5 -9.5t7.5 -15.5l-299 -1403q-10 -8 -12 -8h-233q-2 0 -8.5 2t-12 5t-4.5 5l-448 949l-207 -953q-1 -5 -1.5 -6t-2.5 -1.5t-7 -0.5h-233q-9 0 -17 9.5 t-6 15.5z" />
<glyph unicode="o" horiz-adv-x="1632" d="M-74 574q2 78 19 159q30 138 100 265t174.5 230t252 164.5t316.5 61.5q100 0 186 -22t150 -61.5t113.5 -94t79.5 -120t45 -139.5q13 -65 14 -134q0 -9 -1 -19q-2 -79 -19 -159q-29 -138 -100 -265.5t-175.5 -230.5t-251.5 -165t-313 -62q-102 0 -189 22t-151 61.5 t-113.5 94.5t-79 121t-44.5 140q-13 65 -13 134v19zM204 564v-6q0 -63 22 -120q22 -59 59 -103t100.5 -69.5t144.5 -25.5q107 0 203.5 42t166.5 111.5t118 156t67 179.5q13 62 13 120q0 54 -11 104q-11 52 -36.5 96t-63 76.5t-92 50.5t-121.5 18q-108 0 -205 -42.5 t-167 -112.5t-118 -157.5t-67 -181.5q-12 -70 -13 -136z" />
<glyph unicode="p" horiz-adv-x="1187" d="M-154 20l299 1405q1 6 1.5 6.5t2.5 1.5t7 1h465q17 0 37.5 -1.5t62 -8t76.5 -18.5t80 -34t73 -54.5t55.5 -79t27.5 -108.5t-11 -143q-18 -85 -58 -153.5t-85 -110.5t-105 -72.5t-105.5 -44.5t-99 -22t-72 -8.5t-38.5 -0.5h-223l-121 -571q-10 -8 -11 -8h-233q-8 0 -17 9 t-8 15zM291 840h203q17 0 38.5 2.5t59 13t68.5 27.5t58.5 52t37.5 81q4 18 4 35q0 21 -7 39q-12 32 -32 46.5t-52.5 22.5t-48 9t-34.5 1h-224z" />
<glyph unicode="q" horiz-adv-x="1693" d="M-66 538q-1 20 -1 40q0 76 18 155q31 145 107 275.5t185 229.5t253.5 157.5t302.5 58.5q106 0 199 -28t162 -78t121.5 -119.5t78 -153t32.5 -177.5q1 -20 1 -40q0 -75 -19 -153q-23 -108 -78 -221.5t-131 -198.5l99 -135q20 -20 10 -27l-197 -160q-3 -2 -6 -2 q-8 0 -20 12l-109 125q-203 -118 -416 -118q-108 0 -201.5 28t-162 78.5t-120.5 120.5t-77 153.5t-31 177.5zM206 564q3 -68 28.5 -126.5t66 -102t102.5 -68.5t138 -25q109 0 241 61q-70 105 -88 135q-7 0 -13 4t-7.5 9t0.5 8l200 162q9 7 27 -11l107 -114q77 113 102 237 q13 70 13 135q0 3 -1 6q0 67 -24 125t-64 101t-104 67.5t-146 24.5q-106 0 -203 -40.5t-169.5 -108t-123 -155t-71.5 -183.5q-11 -61 -11 -119v-22z" />
<glyph unicode="r" horiz-adv-x="1226" d="M-154 25l297 1400q1 6 1.5 6.5t2.5 1.5t7 1h462q19 0 38 -1t56 -5.5t67 -13t70.5 -23.5t67.5 -38t58 -55.5t41 -76t17 -100.5q2 -15 2 -30q0 -45 -15 -98q-59 -278 -338 -381q19 -104 66.5 -304.5t66.5 -299.5q20 -8 0 -8h-256q-3 0 -10 3t-12.5 7t-4.5 6l-137 564h-157 l-121 -572q-1 -4 -1 -4.5t-1.5 -2t-3.5 -1.5h-7h-233q-7 0 -16 9.5t-7 15.5zM293 842h199q23 0 47 2.5t59.5 13.5t64 29.5t54 53t35.5 81.5q4 19 4 36q0 21 -6 38q-11 31 -30 45.5t-51 22.5t-48.5 9t-38.5 1h-220z" />
<glyph unicode="s" horiz-adv-x="1112" d="M-121 416h10h232q8 0 17.5 -9.5t6.5 -19.5q-2 -16 -3 -30q0 -49 30 -77q38 -36 107 -36q82 0 152 49.5t87 126.5q4 18 4 34q0 48 -32 82q-42 46 -99 48q-118 0 -209 53q-109 53 -155 155q-28 63 -28 137q0 46 11 97q27 129 110.5 228t192 148.5t222.5 49.5 q197 0 305 -120q80 -89 81 -215q0 -44 -10 -93q-9 -2 -10 -2h-229q-8 0 -17 10.5t-8 20.5q3 16 3 31q0 46 -28 72q-36 34 -102 34q-87 0 -156 -50.5t-88 -142.5q-4 -19 -4 -37q0 -46 28 -77q38 -43 103 -43q18 0 44.5 -2.5t75 -16t85.5 -35.5q112 -52 157 -157 q28 -65 28 -140q0 -47 -11 -98q-21 -98 -74 -177.5t-124.5 -129.5t-154 -77t-167.5 -27q-203 4 -312 120q-81 86 -81 218q0 46 10 98z" />
<glyph unicode="t" horiz-adv-x="917" d="M-23 1200l46 213q10 8 12 8h813q9 0 17.5 -9t6.5 -15l-45 -213q-1 -6 -1.5 -6h-10.5h-283l-247 -1170q-10 -8 -11 -8h-231q-9 0 -17 9.5t-6 15.5l244 1153h-262q-9 0 -18 8t-7 14z" />
<glyph unicode="u" horiz-adv-x="1398" d="M-57 469l200 944q1 4 1 4.5t1.5 2t3.5 1.5h7h231q9 0 18 -9t7 -15l-203 -942q-1 -14 -1 -26q0 -84 51 -131q59 -54 157 -54q116 0 215 61t121 164l200 944q1 4 1 4.5t1.5 2t3.5 1.5h7h233q7 0 16 -9t7 -15l-201 -944q-46 -222 -218.5 -347.5t-402.5 -125.5 q-115 0 -209.5 35t-157.5 97q-64 64 -88 156q-13 48 -12 99q0 49 11 102z" />
<glyph unicode="v" horiz-adv-x="1169" d="M12 1432q2 2 8 2h250q6 0 15 -7.5t8 -11.5l115 -792l460 807q1 4 13 4h249q12 0 22 -11q7 -8 6 -14q0 -3 -1 -6l-862 -1436q-3 -4 -9 -4q-4 1 -10 3q-12 6 -14 16l-248 1435q0 3 -2 8q-1 3 -1 5q0 1 1 2z" />
<glyph unicode="w" horiz-adv-x="2058" d="M18 1430q2 4 11 4h250q6 0 14.5 -7.5t7.5 -11.5l113 -790l463 805q1 4 10 4h258q6 0 14.5 -7.5t7.5 -11.5l115 -790l463 805q1 4 12 4h250q12 0 21 -11q6 -7 6 -13q0 -3 -2 -7l-865 -1454q-4 -6 -10 -6q-5 1 -9 3q-12 6 -11 17l-183 1100l-655 -1114q-5 -6 -11 -6 q-4 1 -10 3q-12 6 -14 17l-244 1454q-2 6 -2 10v3z" />
<glyph unicode="x" horiz-adv-x="1380" d="M-276 33l647 684q-134 262 -332 702q-16 6 -15 11q3 4 11 4h282q2 0 8.5 -2.5t12 -5.5t4.5 -5l229 -479l445 492q1 2 2.5 2t4 -1t3.5 -1h285q12 0 22 -12q6 -8 6 -14q0 -4 -2 -7l-651 -696q118 -228 340 -691q4 -2 6.5 -4.5t3.5 -4.5t-1.5 -3.5t-8.5 -1.5h-285q-2 0 -8 2 t-11.5 5t-4.5 5l-228 467l-446 -479q-1 -2 -2.5 -2t-4 1t-3.5 1h-283q-14 0 -24 12q-5 7 -5 13q0 4 3 8z" />
<glyph unicode="y" horiz-adv-x="1341" d="M9 1430q3 4 11 4h285q1 0 7 -2.5t11.5 -5.5t4.5 -5l229 -479l447 492q1 2 2.5 2t3 -1t2.5 -1h284q14 0 24 -12q7 -8 7 -14q0 -4 -2 -7l-678 -731l-145 -662q-1 -4 -1 -4.5t-1.5 -2t-3.5 -1.5h-7h-231q-9 0 -18 9.5t-7 15.5l144 651q-183 373 -352 743q-16 6 -16 11z" />
<glyph unicode="z" horiz-adv-x="1193" d="M-313 31l944 1138h-608q-7 0 -17 9.5t-8 15.5l49 231q8 9 10 9h1067q12 0 22 -12q8 -9 8 -17q0 -2 -1 -4l-942 -1137h666q9 0 16.5 -9t5.5 -15l-49 -232q0 -2 -1 -5q0 -3 -9 -3h-1127q-11 0 -21 11q-7 7 -7 13q0 4 2 7z" />
<glyph unicode="{" horiz-adv-x="708" d="M-201 724q0 6 6 9l283 121l123 571q2 8 4 8.5t8 0.5h391q9 0 17 -9.5t6 -15.5l-49 -233q-1 -2 -1 -5q0 -4 -9 -4h-148l-190 -901h127q9 0 16.5 -9t5.5 -15l-49 -234q0 -2 -1 -5q0 -3 -9 -3h-391q-9 0 -18 9.5t-7 15.5l127 559q-74 40 -211 125q-26 2 -31 15z" />
<glyph unicode="|" horiz-adv-x="575" d="M-172 25l297 1400q2 8 4 8.5t8 0.5h234q9 0 17.5 -9.5t6.5 -15.5l-297 -1401q-10 -8 -12 -8h-233q-9 0 -18 9.5t-7 15.5z" />
<glyph unicode="}" horiz-adv-x="737" d="M-233 25l49 233q0 2 1 5q0 3 9 3h147l191 901h-127q-9 0 -17 9.5t-6 15.5l49 233q0 2 1 4q0 5 10 5h391q9 0 17.5 -9.5t6.5 -15.5l-127 -559q111 -60 211 -125q27 -2 32 -15q2 -7 -7 -10l-283 -120l-122 -572q-1 -4 -1 -4.5t-1.5 -2t-3.5 -1.5h-7h-391q-9 0 -16.5 9.5 t-5.5 15.5z" />
<glyph unicode="~" horiz-adv-x="950" d="M-135 610q41 112 116.5 165.5t172.5 53.5q100 0 206 -53l-2 -2q0 -1 12 0h3q30 -20 55 -20q61 0 96 69q3 -1 21 -6l182 -55q8 0 17 -11.5t6 -21.5q-62 -114 -131.5 -162.5t-153.5 -48.5q-101 0 -205 49l-31 13q-10 3 -24 8t-23 7.5t-14 2.5q-51 0 -78 -74q-2 0 -22 4 l-181 54q-9 2 -17 10t-5 18z" />
<glyph unicode="&#xa1;" horiz-adv-x="565" d="M-164 8l211 993q2 8 4 8.5t8 0.5h234q9 0 17.5 -9.5t6.5 -15.5l-211 -993q-7 -8 -10 -8h-233q-9 0 -19 9t-8 15zM94 1300q12 56 58.5 95t103.5 39q70 0 111.5 -48.5t27.5 -113.5q-11 -56 -59 -96.5t-103 -40.5q-71 0 -112 50t-27 115z" />
<glyph unicode="&#xa2;" horiz-adv-x="1187" d="M-61 731q43 199 199 353t364 204l45 166q10 8 12 8h180q9 0 18 -9t7 -15l-39 -140q95 -12 173 -59.5t126 -116.5q11 -6 15 -20.5t-3 -22.5l-157 -129q-17 -13 -33.5 -4.5t-18.5 27.5q-55 52 -135 71l-160 -653q100 23 170 96q35 13 64 -24l100 -121q10 -34 4 -55 q-175 -129 -372 -152l-37 -129q-10 -8 -12 -8h-181q-9 0 -17.5 9.5t-6.5 15.5l37 124q-190 50 -288 213t-54 371zM207 702q-21 -100 7 -177.5t103 -116.5l146 610q-92 -45 -163 -129.5t-93 -186.5z" />
<glyph unicode="&#xa3;" horiz-adv-x="1212" d="M-199 510l54 246q0 6 0.5 6h9.5l205 6q34 59 63 115q169 227 414 391q79 42 164.5 74t147.5 47.5t118.5 25t79.5 11.5t30 2q16 0 26.5 -9t8.5 -16l-51 -244l-2 -8q-21 0 -63 -5.5t-140.5 -39t-185.5 -90.5q-170 -92 -299 -266l180 6q9 0 19 -8.5t8 -14.5l-53 -245 q0 -6 -1 -6.5t-10 -0.5l-299 -8q-53 -138 -73 -211l698 8q9 0 17.5 -9t6.5 -15l-51 -244q-10 -8 -12 -8h-975q-9 0 -17.5 9.5t-6.5 15.5l24 120q41 192 103 351l-111 -9q-9 0 -19 8.5t-8 14.5z" />
<glyph unicode="&#xa5;" horiz-adv-x="1310" d="M-13 1430q3 4 11 4h285q2 0 8 -2.5t11.5 -5.5t4.5 -5l232 -479l450 492q1 2 2 2t3 -1t3 -1h287q14 0 24.5 -12t4.5 -21l-563 -598h131q9 0 17.5 -9.5t6.5 -15.5l-39 -186q-10 -8 -12 -8h-246l-18 -86h225q9 0 18 -9.5t7 -15.5l-37 -180q-10 -8 -12 -8h-246l-60 -277 q-10 -8 -12 -8h-233q-9 0 -18 9.5t-7 15.5l55 260h-233q-9 0 -19 9t-8 15l39 180q2 8 4 8.5t8 0.5h254l19 86h-236q-9 0 -18.5 9t-7.5 15l41 187q10 8 12 8l166 6q-173 349 -289 610q-16 6 -15 11z" />
<glyph unicode="&#xa7;" horiz-adv-x="851" d="M-166 301q2 2 12 2h170q9 0 17.5 -10.5t5.5 -20.5q-12 -63 22 -88q26 -8 89 -8q12 0 42 13q15 6 27 14q73 20 88 98q15 64 -16 88q-39 10 -92 10q-5 0 -24 3.5t-53 14t-59 25.5q-80 41 -117.5 118t-19.5 171q26 126 129 211q-65 86 -37 217q19 87 77.5 158t142.5 113 q93 32 186 32q78 -8 133 -45q84 -39 121.5 -115t17.5 -172q-2 -2 -12 -2h-170q-9 0 -17 10.5t-5 20.5q12 62 -21 88q-60 12 -61 13q-12 -3 -29 -3l-8 -2h2q-57 -14 -70 -20h2q-70 -31 -84 -105q-15 -63 19 -90q31 -8 90 -8l12 -2q12 -1 25 -4t30 -7.5t35 -12t33 -17.5 q87 -38 122 -114t15 -175q-25 -124 -127 -208q64 -88 35 -220q-19 -87 -76.5 -158t-142.5 -112q-88 -33 -187 -33q-19 0 -68 16q-38 12 -65 29q-83 39 -121 115.5t-18 171.5zM131 702q-11 -56 23 -90q41 -8 88 -8q1 1 11.5 4t27 9t30.5 14q33 9 57 35t31 65q11 54 -20 88 q-41 8 -88 8q0 -1 -12 -4.5t-29.5 -9.5t-28.5 -12q-32 -9 -57.5 -35.5t-32.5 -63.5z" />
<glyph unicode="&#xa8;" horiz-adv-x="770" d="M-10 1313q12 55 58 94t99 39q69 0 111 -49t29 -113q-10 -55 -57.5 -94t-102.5 -39q-67 0 -108 48.5t-29 113.5zM408 1313q12 55 58.5 94t100.5 39q69 0 110.5 -48.5t27.5 -113.5q-10 -55 -57 -94t-101 -39q-69 0 -110 48.5t-29 113.5z" />
<glyph unicode="&#xa9;" horiz-adv-x="1417" d="M-51 829q27 123 97.5 235t167.5 193t218 129t244 48q175 0 304.5 -85.5t183.5 -231.5t18 -316q-34 -164 -143 -301.5t-264 -217t-320 -79.5q-174 0 -303 84t-183.5 228.5t-19.5 313.5zM137 801q-35 -170 58.5 -291t259.5 -121q121 0 235.5 59.5t195 161t105.5 219.5 q24 114 -9 209.5t-114 151t-192 55.5q-182 0 -340.5 -130.5t-198.5 -313.5zM283 831q25 118 125.5 202.5t214.5 84.5q70 0 122.5 -26.5t79.5 -71.5q10 -1 16 -8.5t1 -12.5l-82 -63q-6 -4 -15.5 2t-7.5 14q-42 39 -100 39q-77 0 -143.5 -55t-81.5 -133q-15 -66 16.5 -111 t93.5 -45q82 0 142 60q15 0 26 -17l60 -63q6 -6 6 -31q-102 -76 -219 -76q-129 0 -205.5 93.5t-48.5 217.5z" />
<glyph unicode="&#xab;" horiz-adv-x="1032" d="M-150 674l463 465q5 4 13 -1t10 -10l127 -116q20 -15 14 -25l-340 -330l199 -309q15 -15 6 -22l-178 -123q-5 -4 -13 1t-10 11l-282 438q-11 17 -9 21zM262 674l459 465q5 4 12.5 -0.5t9.5 -10.5l127 -116q21 -16 15 -25l-320 -330l178 -309q16 -16 7 -22l-179 -123 q-5 -4 -12.5 1t-9.5 11l-279 438q-11 17 -8 21z" />
<glyph unicode="&#xad;" horiz-adv-x="907" d="M-104 623l45 213q10 8 12 8h704q9 0 17 -9.5t6 -15.5l-45 -213q-1 -2 -1 -5t-9 -3h-705q-9 0 -17.5 9.5t-6.5 15.5z" />
<glyph unicode="&#xae;" horiz-adv-x="1382" d="M-62 586q-28 114 1 243q27 123 97.5 235t167.5 193t218 129t244 48q88 0 166.5 -23t139 -64.5t108 -99.5t72.5 -128t32 -151t-13 -167q-34 -164 -143 -301.5t-264 -217t-320 -79.5q-130 0 -238 49.5t-174 134.5t-94 199zM143 801q-35 -165 54 -281.5t249 -116.5 q178 0 331 125.5t190 300.5q35 168 -52 284t-251 116q-175 0 -329 -126t-192 -302zM285 532l123 574q0 2 1 5q0 3 9 3h198q102 0 156 -58t35 -143q-19 -94 -137 -147l53 -242q0 -3 2 -7q2 -5 0.5 -7t-10.5 -2h-109q-3 0 -9.5 3t-11.5 7t-3 6l-58 232h-51l-51 -240 q-10 -8 -12 -8h-101q-8 0 -16 8.5t-8 15.5zM498 872h67q40 0 70 22t35 50q5 20 -9 32t-51 13h-88z" />
<glyph unicode="&#xb0;" horiz-adv-x="747" d="M-16 1155q28 128 136 218.5t234 90.5q141 0 222.5 -100.5t52.5 -237.5q-28 -127 -136.5 -217t-234.5 -90q-141 0 -222 99.5t-52 236.5zM176 1126q-10 -49 13.5 -81.5t68.5 -32.5q60 0 113 42.5t65 100.5q10 49 -14 84t-68 35q-60 0 -113 -44.5t-65 -103.5z" />
<glyph unicode="&#xb1;" horiz-adv-x="1060" d="M-182 16h784l49 234h-784zM-82 686l43 203q10 8 12 8h303l66 303q0 2 1 5q0 3 9 3h209q9 0 18 -9t7 -15l-62 -287h281q7 0 16.5 -9.5t7.5 -15.5l-43 -202q-8 -6 -10 -6h-301l-65 -310q-1 -4 -1 -4.5t-1.5 -2t-3.5 -1.5h-7h-209q-9 0 -16.5 9.5t-5.5 15.5l61 293h-282 q-8 0 -17.5 8.5t-9.5 13.5z" />
<glyph unicode="&#xb2;" horiz-adv-x="698" d="M-113 623l21 114l362 400q78 80 61 125q-9 22 -34 22q-38 0 -71.5 -23t-41.5 -63q-2 -2 -12 -2h-133q-9 0 -17.5 10.5t-5.5 20.5q20 98 98 160.5t183 62.5q77 0 133 -34.5t79 -89.5t3 -129.5t-86 -147.5l-276 -287h247q8 0 17 -8.5t8 -14.5l-29 -133q-8 -8 -10 -8h-471 q-9 0 -18 9.5t-7 15.5z" />
<glyph unicode="&#xb3;" horiz-adv-x="681" d="M-47 864h10h133q9 0 17.5 -9.5t7.5 -18.5q-7 -32 5.5 -52t37.5 -20q45 0 85 30.5t48 69.5q8 37 -1.5 61.5t-37.5 24.5h-55q-16 0 -27.5 8t-9.5 15l24 112q1 5 1.5 6t3 2t8.5 1h57q35 0 66 33t39 71q6 30 -9.5 50t-42.5 20q-40 0 -79 -30t-46 -69q-2 -2 -12 -2h-129 q-9 0 -17 10.5t-5 20.5q20 97 102 166.5t180 69.5q115 0 182 -76t43 -189q-22 -105 -116 -157q74 -62 51 -176q-24 -113 -109 -175.5t-188 -62.5q-114 0 -177 78.5t-40 187.5z" />
<glyph unicode="&#xb4;" horiz-adv-x="569" d="M-12.5 1299.5q-0.5 1.5 2.5 3.5l428 208q9 3 18.5 -3.5t9.5 -12.5l74 -166q1 -2 2 -5.5t2 -6t0.5 -5t-2.5 -3.5l-432 -201q-7 -3 -18 3.5t-11 12.5l-63 162q-1 3 -5.5 7.5t-5 6z" />
<glyph unicode="&#xb7;" horiz-adv-x="417" d="M-104 737q12 57 58.5 97t100.5 40q73 0 114.5 -49t27.5 -116q-12 -56 -59 -95t-105 -39q-69 0 -110 48.5t-27 113.5z" />
<glyph unicode="&#xb8;" horiz-adv-x="878" d="M-266 -113q7 2 8 2h190q9 0 17.5 -10t7.5 -20q-10 -49 13 -82t69 -33q58 0 109 42t65 101q10 50 -13 82.5t-67 32.5q-16 0 -26.5 9t-8.5 16l41 192q1 4 1 6h1q154 0 242 -108.5t57 -257.5q-31 -140 -151 -240t-258 -100q-156 0 -242.5 109t-54.5 259z" />
<glyph unicode="&#xb9;" horiz-adv-x="546" d="M38 1359.5q0 2.5 5 4.5l205 70h110q9 0 18 -9.5t7 -15.5l-145 -692q-1 -4 -1 -4.5t-1.5 -2t-3.5 -1.5h-7h-135q-9 0 -19 9t-8 15l111 504l-80 -31q-7 -3 -16.5 3.5t-9.5 11.5l-25 125q-1 2 -3 6.5t-2 7z" />
<glyph unicode="&#xbb;" horiz-adv-x="1021" d="M-195 362l318 295l-164 342q-12 17 -8 23l178 117q7 4 16 -1.5t11 -11.5l268 -464q11 -16 8 -21l-465 -436q-9 -7 -24 8l-129 125q-11 17 -9 24zM190 360l318 297l-162 342q-12 17 -8 23l176 117q7 4 17 -1.5t12 -11.5l268 -464q11 -16 8 -21l-465 -436q-10 -8 -26 8 l-125 123q-19 18 -13 24z" />
<glyph unicode="&#xbf;" horiz-adv-x="1003" d="M-154 432q27 125 139.5 227t254.5 140l61 239q1 2 1 3q0 3 9 3h213q9 0 18 -8.5t7 -13.5l-90 -424l-3 -8h-1q-82 5 -147 -11t-103.5 -46t-60.5 -62.5t-29 -67.5q-20 -90 12.5 -123.5t99.5 -33.5q74 0 134 42t73 109q2 2 12 2h234q9 0 16 -10t4 -20q-35 -170 -175 -279.5 t-314 -109.5q-201 0 -305 119.5t-60 332.5zM324 1311q13 62 60.5 96.5t102.5 34.5q69 0 111.5 -43.5t26.5 -116.5q-13 -63 -60.5 -98t-103.5 -35q-69 0 -111 44t-26 118z" />
<glyph unicode="&#xc0;" d="M-315 31l866 1439q6 10 19.5 3.5t13.5 -17.5l254 -1440q4 -9 3.5 -12.5t-10.5 -3.5h-253q-6 0 -16 6t-7 10l-25 146h-467l-86 -158q-3 -4 -14 -4h-252q-12 0 -21 11t-5 20zM203 403h289l-48 431zM381 1722l141 168q6 6 25 -4l315 -205q7 -4 14.5 -13.5t4.5 -14.5 l-131 -160q-7 -7 -23 4l-328 199q-8 2 -14.5 11t-3.5 15z" />
<glyph unicode="&#xc1;" d="M-315 31l866 1439q6 10 19.5 3.5t13.5 -17.5l254 -1440q4 -9 3.5 -12.5t-10.5 -3.5h-253q-6 0 -16 6t-7 10l-25 146h-467l-86 -158q-3 -4 -14 -4h-252q-12 0 -21 11t-5 20zM203 403h289l-48 431zM356 1683l428 209q7 3 18 -3.5t11 -12.5l74 -166q1 -2 2 -5.5t2 -6t0.5 -5 t-2.5 -3.5l-432 -201q-8 -3 -18.5 3t-12.5 13l-64 162q-1 2 -2 3t-3 4q-6 8 -1 9z" />
<glyph unicode="&#xc2;" d="M-315 31l866 1439q6 10 19.5 3.5t13.5 -17.5l254 -1440q4 -9 3.5 -12.5t-10.5 -3.5h-253q-6 0 -16 6t-7 10l-25 146h-467l-86 -158q-3 -4 -14 -4h-252q-12 0 -21 11t-5 20zM203 403h289l-48 431zM245.5 1639q0.5 2 2.5 3l385 197q5 3 18 -10l305 -182q8 -3 15 -12t4 -15 l-123 -154q-4 -4 -21 2l-225 138l-260 -142q-4 -1 -13 4.5t-11 10.5l-68 141q-1 2 -3 5t-3 5t-2 4.5t-0.5 4.5z" />
<glyph unicode="&#xc3;" d="M-315 31l866 1439q6 10 19.5 3.5t13.5 -17.5l254 -1440q4 -9 3.5 -12.5t-10.5 -3.5h-253q-6 0 -16 6t-7 10l-25 146h-467l-86 -158q-3 -4 -14 -4h-252q-12 0 -21 11t-5 20zM203 403h289l-48 431zM238 1602q37 102 102 151t147 49q91 0 172 -49l-6 4q10 0 19 -7q2 -2 0 -3 q20 -12 47 -12q52 0 80 61q7 -3 20 -6l152 -51q8 -2 16 -12t4 -19q-57 -105 -114 -148.5t-129 -43.5q-87 0 -175 45l-30 10q-32 16 -43 16q-45 0 -68 -65q-4 0 -20 4l-154 45q-8 2 -14.5 11.5t-5.5 19.5z" />
<glyph unicode="&#xc4;" d="M-315 31l866 1439q6 10 19.5 3.5t13.5 -17.5l254 -1440q4 -9 3.5 -12.5t-10.5 -3.5h-253q-6 0 -16 6t-7 10l-25 146h-467l-86 -158q-3 -4 -14 -4h-252q-12 0 -21 11t-5 20zM203 403h289l-48 431zM254 1657q12 55 58.5 94t99.5 39q69 0 111 -48.5t28 -113.5 q-10 -55 -58.5 -94t-103.5 -39q-67 0 -108 48.5t-27 113.5zM672 1657q12 55 58.5 94t100.5 39q69 0 110.5 -48.5t27.5 -113.5q-10 -55 -57.5 -94t-102.5 -39q-69 0 -110 48.5t-27 113.5z" />
<glyph unicode="&#xc5;" d="M-315 31l718 1171q-72 31 -106 106t-14 167q25 112 122 192t207 80q126 0 199 -89.5t47 -211.5q-15 -75 -76 -144.5t-141 -105.5l197 -1180q4 -9 3.5 -12.5t-10.5 -3.5h-253q-5 0 -13.5 7t-7.5 11l-27 144h-467l-86 -158q-3 -4 -14 -4h-252q-12 0 -21 11t-5 20zM201 397 l293 6q-5 37 -25 178.5t-29 233.5zM475 1446q-7 -36 8.5 -59t46.5 -23q45 0 86 33t50 78q7 35 -9 59.5t-45 24.5q-46 0 -87 -34.5t-50 -78.5z" />
<glyph unicode="&#xc6;" horiz-adv-x="1617" d="M-319 31l1017 1388h2q0 1 1.5 2.5t3 4.5t2.5 6q9 2 10 2h751q9 0 18 -9.5t7 -15.5l-45 -217q-10 -8 -12 -8h-492l-72 -334h377q9 0 19 -9.5t8 -15.5l-47 -217q-10 -8 -12 -8h-398l-74 -350h494q9 0 18 -9t9 -16l-47 -217q-1 -4 -1 -4.5t-1.5 -2t-3.5 -1.5h-7h-757 q-9 0 -18 9.5t-7 15.5l33 159h-330l-135 -182q-1 -2 -12 -2h-271q-12 0 -23 11t-5 20zM289 418l219 8q62 270 125 516z" />
<glyph unicode="&#xc7;" horiz-adv-x="1421" d="M-67.5 502.5q-11.5 109.5 12.5 232.5q30 145 114 277.5t199.5 229t259.5 153.5t289 57q157 0 280 -59t193 -164q10 0 16.5 -7t3.5 -12l-202 -166q-7 -3 -17 4t-10 13q-109 121 -280 121q-128 0 -251 -64.5t-210 -174t-113 -236.5q-26 -122 10 -224t123 -160.5t205 -58.5 q98 0 190 38.5t164 105.5q16 0 31 -15l131 -170q17 -13 10 -30q-129 -99 -288 -162q45 -80 24 -181q-31 -141 -153 -242.5t-263 -101.5q-160 0 -249.5 99.5t-57.5 251.5h10h195q10 0 19 -9.5t6 -19.5q-10 -48 14 -71t72 -23q60 0 113 43t65 102q9 47 -10 79t-60 38l2 -2 q-118 1 -222 39.5t-179 106t-125 160.5t-61.5 202.5z" />
<glyph unicode="&#xc8;" horiz-adv-x="1204" d="M-154 25l297 1400q1 5 1.5 6t3 2t8.5 1h915q9 0 18 -9.5t7 -15.5l-47 -227q-1 -4 -1 -4.5t-1.5 -2t-3.5 -1.5h-7h-671l-70 -324h553q7 0 16.5 -9.5t7.5 -15.5l-49 -227q-8 -8 -10 -8h-573l-68 -324h670q9 0 17.5 -9t6.5 -15l-49 -234q-10 -8 -12 -8h-934q-9 0 -18 9.5 t-7 15.5zM428 1747l141 168q6 6 25 -4l313 -205q8 -3 15 -13t4 -16l-129 -159q-6 -6 -25 4l-326 198q-8 2 -14.5 11.5t-3.5 15.5z" />
<glyph unicode="&#xc9;" horiz-adv-x="1204" d="M-154 25l297 1400q1 5 1.5 6t3 2t8.5 1h915q9 0 18 -9.5t7 -15.5l-47 -227q-1 -4 -1 -4.5t-1.5 -2t-3.5 -1.5h-7h-671l-70 -324h553q7 0 16.5 -9.5t7.5 -15.5l-49 -227q-8 -8 -10 -8h-573l-68 -324h670q9 0 17.5 -9t6.5 -15l-49 -234q-10 -8 -12 -8h-934q-9 0 -18 9.5 t-7 15.5zM453 1712l428 209q7 3 17.5 -3.5t10.5 -12.5l74 -166q1 -2 2 -6t2 -6t0.5 -5t-2.5 -4l-432 -200q-8 -3 -18.5 3t-12.5 13l-63 162q-1 2 -2 3t-3 4q-6 8 -1 9z" />
<glyph unicode="&#xca;" horiz-adv-x="1204" d="M-154 25l297 1400q1 5 1.5 6t3 2t8.5 1h915q9 0 18 -9.5t7 -15.5l-47 -227q-1 -4 -1 -4.5t-1.5 -2t-3.5 -1.5h-7h-671l-70 -324h553q7 0 16.5 -9.5t7.5 -15.5l-49 -227q-8 -8 -10 -8h-573l-68 -324h670q9 0 17.5 -9t6.5 -15l-49 -234q-10 -8 -12 -8h-934q-9 0 -18 9.5 t-7 15.5zM330 1702l385 196q5 3 18 -10l305 -182q8 -3 15 -12t6 -15l-123 -153l-7.5 -2.5t-7.5 2t-8 2.5l-225 137l-260 -141q-4 -1 -13.5 4t-11.5 10l-65 141q-15 20 -8 23z" />
<glyph unicode="&#xcb;" horiz-adv-x="1204" d="M-154 25l297 1400q1 5 1.5 6t3 2t8.5 1h915q9 0 18 -9.5t7 -15.5l-47 -227q-1 -4 -1 -4.5t-1.5 -2t-3.5 -1.5h-7h-671l-70 -324h553q7 0 16.5 -9.5t7.5 -15.5l-49 -227q-8 -8 -10 -8h-573l-68 -324h670q9 0 17.5 -9t6.5 -15l-49 -234q-10 -8 -12 -8h-934q-9 0 -18 9.5 t-7 15.5zM338 1686q12 55 58.5 94t99.5 39q69 0 111 -48.5t28 -113.5q-10 -55 -58.5 -94t-103.5 -39q-67 0 -108 48.5t-27 113.5zM756 1686q12 55 58.5 94t100.5 39q69 0 110.5 -48.5t27.5 -113.5q-10 -55 -57.5 -94t-102.5 -39q-69 0 -110 48.5t-27 113.5z" />
<glyph unicode="&#xcc;" horiz-adv-x="716" d="M-250 25l45 213q10 8 12 8h156l199 942h-127q-9 0 -18 9t-7 15l45 213q1 5 1.5 6t3 2t8.5 1h546q9 0 18 -9.5t7 -15.5l-45 -213q-10 -8 -12 -8h-146l-198 -942h133q9 0 17.5 -9.5t6.5 -15.5l-45 -213q-10 -8 -12 -8h-563q-9 0 -18 9.5t-7 15.5zM162 1737l143 168 q7 7 23 -4l315 -205q8 -3 15 -13t4 -16l-130 -160q-3 -3 -6.5 -3t-5.5 0.5t-6.5 3t-5.5 3.5l-326 199q-7 1 -14.5 11t-5.5 16z" />
<glyph unicode="&#xcd;" horiz-adv-x="716" d="M-250 25l45 213q10 8 12 8h156l199 942h-127q-9 0 -18 9t-7 15l45 213q1 5 1.5 6t3 2t8.5 1h546q9 0 18 -9.5t7 -15.5l-45 -213q-10 -8 -12 -8h-146l-198 -942h133q9 0 17.5 -9.5t6.5 -15.5l-45 -213q-10 -8 -12 -8h-563q-9 0 -18 9.5t-7 15.5zM140.5 1688.5 q-0.5 1.5 2.5 3.5l426 209q9 3 20 -4t11 -13l74 -166q0 -2 1 -4t1.5 -4t1 -3.5t0.5 -3t-1 -3t-3 -2.5l-430 -201q-9 -3 -20 3.5t-11 12.5l-63 162q-1 3 -5 7.5t-4.5 6z" />
<glyph unicode="&#xce;" horiz-adv-x="716" d="M-250 25l45 213q10 8 12 8h156l199 942h-127q-9 0 -18 9t-7 15l45 213q1 5 1.5 6t3 2t8.5 1h546q9 0 18 -9.5t7 -15.5l-45 -213q-10 -8 -12 -8h-146l-198 -942h133q9 0 17.5 -9.5t6.5 -15.5l-45 -213q-10 -8 -12 -8h-563q-9 0 -18 9.5t-7 15.5zM44.5 1697q0.5 2 2.5 3 l385 196q6 3 19 -10l305 -182q8 -3 14.5 -12t3.5 -15l-123 -153q-3 -4 -20 2l-225 137l-261 -141q-4 -1 -13 4t-11 10l-68 141q-1 2 -3 5t-3 5.5l-2 5t-0.5 4.5z" />
<glyph unicode="&#xcf;" horiz-adv-x="716" d="M-250 25l45 213q10 8 12 8h156l199 942h-127q-9 0 -18 9t-7 15l45 213q1 5 1.5 6t3 2t8.5 1h546q9 0 18 -9.5t7 -15.5l-45 -213q-10 -8 -12 -8h-146l-198 -942h133q9 0 17.5 -9.5t6.5 -15.5l-45 -213q-10 -8 -12 -8h-563q-9 0 -18 9.5t-7 15.5zM49 1679q10 55 56.5 94 t99.5 39q69 0 111 -48t30 -113q-12 -55 -60 -94t-102 -39q-68 0 -108 48.5t-27 112.5zM467 1679q10 55 57 94t101 39q69 0 110 -48t29 -113q-12 -55 -59 -94t-101 -39q-69 0 -110 48t-27 113z" />
<glyph unicode="&#xd0;" horiz-adv-x="1355" d="M-180 618l43 203q1 2 1 5t9 3h143l127 596q1 5 1.5 6t3 2t8.5 1h233q63 0 120 -4t123 -14.5t122 -28t112 -47t98.5 -68.5t76.5 -94.5t50.5 -123.5t15 -157.5t-23.5 -194.5q-27 -126 -76.5 -229.5t-111 -175t-140.5 -126t-156.5 -86.5t-167.5 -51.5t-167 -26.5t-160 -7 h-233q-9 0 -18 9.5t-7 15.5l121 569h-123q-8 0 -16 8.5t-8 15.5zM160 258q42 -2 85 0t102 12t112 29t110.5 55t103 85t83.5 124t57 168q25 124 6.5 212t-80.5 142t-153 76.5t-211 16.5l-84 -349h231q9 0 19 -9t8 -15l-43 -203q-10 -8 -12 -8h-252z" />
<glyph unicode="&#xd1;" horiz-adv-x="1519" d="M-152 25l297 1400q1 6 1.5 6.5t2.5 1.5t7 1h237q2 0 8.5 -2.5t12 -5.5t4.5 -5l456 -938l205 942q1 5 1.5 6t3 2t8.5 1h231q9 0 18 -9.5t7 -15.5l-297 -1401q-1 -4 -1 -4.5t-1.5 -2t-3.5 -1.5h-7h-235q-2 0 -8.5 2t-12 5t-4.5 5l-454 938l-205 -942q-1 -4 -1 -4.5t-1.5 -2 t-3.5 -1.5h-7h-235q-7 0 -16 9.5t-7 15.5zM438 1634q35 101 101.5 151t148.5 50q90 0 166 -45q17 -6 17 -8q1 -1 -1 -2q22 -13 50 -13q51 0 77 62l21 -6l151 -51q9 -2 17.5 -11.5t5.5 -19.5q-57 -105 -115.5 -149t-130.5 -44q-84 0 -172 45l-31 11q-36 16 -45 16 q-20 0 -37.5 -17t-27.5 -49q-3 0 -11.5 2t-11.5 3l-151 45q-9 2 -16.5 11t-4.5 19z" />
<glyph unicode="&#xd2;" horiz-adv-x="1306" d="M-145 25l49 231q10 8 12 8h924q9 0 17.5 -9t6.5 -15l-49 -232q-10 -8 -12 -8h-924q-9 0 -17.5 9.5t-6.5 15.5zM-6 932q46 215 231 368.5t400 153.5q151 0 264.5 -75t162 -202t17.5 -274q-22 -106 -84 -203t-146.5 -167t-189.5 -111t-211 -41q-151 0 -264.5 74.5 t-162 201.5t-17.5 275zM260 903q-23 -110 33.5 -184t159.5 -74q120 0 222 83.5t128 203.5q23 109 -33 183.5t-160 74.5q-119 0 -222 -84.5t-128 -202.5zM457 1737l143 168q7 7 23 -4l315 -205q8 -3 14.5 -13t3.5 -16l-129 -160q-3 -3 -6.5 -3t-5.5 0.5t-6.5 3t-5.5 3.5 l-326 199q-7 1 -14.5 11t-5.5 16z" />
<glyph unicode="&#xd3;" horiz-adv-x="1306" d="M-145 25l49 231q10 8 12 8h924q9 0 17.5 -9t6.5 -15l-49 -232q-10 -8 -12 -8h-924q-9 0 -17.5 9.5t-6.5 15.5zM-6 932q46 215 231 368.5t400 153.5q151 0 264.5 -75t162 -202t17.5 -274q-22 -106 -84 -203t-146.5 -167t-189.5 -111t-211 -41q-151 0 -264.5 74.5 t-162 201.5t-17.5 275zM260 903q-23 -110 33.5 -184t159.5 -74q120 0 222 83.5t128 203.5q23 109 -33 183.5t-160 74.5q-119 0 -222 -84.5t-128 -202.5zM442 1712l428 209q7 3 18 -3.5t11 -12.5l74 -166q1 -2 2 -6t2 -6t0.5 -5t-2.5 -4l-432 -200q-8 -3 -18.5 3t-12.5 13 l-63 162q-1 1 -2 2.5l-2 3t-2 2.5q-6 7 -1 8z" />
<glyph unicode="&#xd4;" horiz-adv-x="1306" d="M-145 25l49 231q10 8 12 8h924q9 0 17.5 -9t6.5 -15l-49 -232q-10 -8 -12 -8h-924q-9 0 -17.5 9.5t-6.5 15.5zM-6 932q46 215 231 368.5t400 153.5q151 0 264.5 -75t162 -202t17.5 -274q-22 -106 -84 -203t-146.5 -167t-189.5 -111t-211 -41q-151 0 -264.5 74.5 t-162 201.5t-17.5 275zM260 903q-23 -110 33.5 -184t159.5 -74q120 0 222 83.5t128 203.5q23 109 -33 183.5t-160 74.5q-119 0 -222 -84.5t-128 -202.5zM332.5 1669.5q-0.5 1.5 1.5 5.5l385 197q4 1 11 -3.5t7 -6.5l307 -183q7 -4 14.5 -12.5t4.5 -13.5l-123 -154l-7.5 -2.5 t-7 2t-7.5 2.5l-226 137l-258 -141q-6 -1 -15 4t-11 10l-66 142q-1 2 -5 8.5t-4.5 8z" />
<glyph unicode="&#xd5;" horiz-adv-x="1306" d="M-145 25l49 231q10 8 12 8h924q9 0 17.5 -9t6.5 -15l-49 -232q-10 -8 -12 -8h-924q-9 0 -17.5 9.5t-6.5 15.5zM-6 932q46 215 231 368.5t400 153.5q151 0 264.5 -75t162 -202t17.5 -274q-22 -106 -84 -203t-146.5 -167t-189.5 -111t-211 -41q-151 0 -264.5 74.5 t-162 201.5t-17.5 275zM260 903q-23 -110 33.5 -184t159.5 -74q120 0 222 83.5t128 203.5q23 109 -33 183.5t-160 74.5q-119 0 -222 -84.5t-128 -202.5zM324 1616q37 102 102 151.5t147 49.5q90 0 166 -45q18 -8 17 -11q20 -12 49 -12q52 0 78 61l20 -6l152 -51 q9 -2 17 -11.5t5 -19.5q-56 -105 -115 -148.5t-131 -43.5q-84 0 -172 45l-30 10q-34 17 -45 17q-20 0 -38 -17t-28 -49q-2 0 -22 4l-152 45q-8 2 -15.5 11.5t-4.5 19.5z" />
<glyph unicode="&#xd6;" horiz-adv-x="1306" d="M-145 25l49 231q10 8 12 8h924q9 0 17.5 -9t6.5 -15l-49 -232q-10 -8 -12 -8h-924q-9 0 -17.5 9.5t-6.5 15.5zM-6 932q46 215 231 368.5t400 153.5q151 0 264.5 -75t162 -202t17.5 -274q-22 -106 -84 -203t-146.5 -167t-189.5 -111t-211 -41q-151 0 -264.5 74.5 t-162 201.5t-17.5 275zM260 903q-23 -110 33.5 -184t159.5 -74q120 0 222 83.5t128 203.5q23 109 -33 183.5t-160 74.5q-119 0 -222 -84.5t-128 -202.5zM338 1661q10 55 56.5 94t99.5 39q69 0 111.5 -49t29.5 -113q-12 -55 -60 -94t-102 -39q-67 0 -108 48.5t-27 113.5z M756 1661q10 55 56.5 94t100.5 39q69 0 111 -49t29 -113q-12 -55 -59 -94t-101 -39q-69 0 -110 48.5t-27 113.5z" />
<glyph unicode="&#xd7;" horiz-adv-x="825" d="M-178 506l244 190l-148 199q-20 19 -12 27l172 139q14 8 26 -10l156 -191l236 199q7 4 13.5 0t8.5 -10l115 -138q19 -19 10 -26l-246 -189l148 -200q19 -19 10 -25l-172 -139q-13 -8 -25 10l-155 188l-234 -198q-7 -4 -14.5 0t-9.5 10l-113 139q-19 19 -10 25z" />
<glyph unicode="&#xd8;" horiz-adv-x="1306" d="M-145 25l49 231q10 8 12 8h924q9 0 17.5 -9t6.5 -15l-49 -232q-10 -8 -12 -8h-924q-9 0 -17.5 9.5t-6.5 15.5zM-104 348l176 176q-56 78 -79 180.5t-1 206.5q30 142 124.5 262.5t229 190.5t275.5 70q114 0 208 -48l89 99q1 3 5 1.5t5 -1.5h246q12 0 22 -11t4 -20 l-201 -209q51 -74 68.5 -165t-2.5 -197q-30 -142 -125 -262.5t-230 -190.5t-276 -70q-105 0 -186 35l-76 -78q-1 -2 -2.5 -2t-4 1t-3.5 1h-238q-14 0 -24 11t-4 20zM256 883q-14 -70 2 -131q22 24 76.5 85t80 89t68.5 75t81.5 87.5t80.5 82.5q-12 -2 -39 -2q-119 0 -222 -84 t-128 -202zM432 625h37q106 0 205 84.5t125 201.5q13 61 2 113z" />
<glyph unicode="&#xd9;" horiz-adv-x="1515" d="M-33 588l178 837q1 6 1.5 6.5t2.5 1.5t7 1h1165q9 0 18 -9.5t7 -15.5l-177 -838l-3 -13q-3 -13 -7 -27.5t-11 -36.5t-17.5 -47t-23 -53.5t-30 -60t-37.5 -61.5q-108 -141 -256.5 -216.5t-322.5 -75.5q-191 0 -314 83t-161 238q-42 123 -19 287zM228.5 481 q-3.5 -57 7.5 -94q57 -141 241 -141q219 0 330 170q29 35 52 78.5t31.5 67.5t8.5 28l127 598h-659l-127 -600q-3 -12 -5.5 -31t-6 -76zM561 1737l144 168q6 6 22 -4l315 -205q8 -3 15 -13t4 -16l-129 -160q-6 -6 -25 4l-325 199q-7 1 -15 11t-6 16z" />
<glyph unicode="&#xda;" horiz-adv-x="1515" d="M-33 588l178 837q1 6 1.5 6.5t2.5 1.5t7 1h1165q9 0 18 -9.5t7 -15.5l-177 -838l-3 -13q-3 -13 -7 -27.5t-11 -36.5t-17.5 -47t-23 -53.5t-30 -60t-37.5 -61.5q-108 -141 -256.5 -216.5t-322.5 -75.5q-191 0 -314 83t-161 238q-42 123 -19 287zM228.5 481 q-3.5 -57 7.5 -94q57 -141 241 -141q219 0 330 170q29 35 52 78.5t31.5 67.5t8.5 28l127 598h-659l-127 -600q-3 -12 -5.5 -31t-6 -76zM547 1712l428 209q7 3 18 -3.5t11 -12.5l73 -166q1 -2 2 -6t2 -6t0.5 -5t-2.5 -4l-432 -200q-8 -3 -18.5 3t-12.5 13l-63 162q-1 2 -2 3 t-3 4q-6 8 -1 9z" />
<glyph unicode="&#xdb;" horiz-adv-x="1515" d="M-33 588l178 837q1 6 1.5 6.5t2.5 1.5t7 1h1165q9 0 18 -9.5t7 -15.5l-177 -838l-3 -13q-3 -13 -7 -27.5t-11 -36.5t-17.5 -47t-23 -53.5t-30 -60t-37.5 -61.5q-108 -141 -256.5 -216.5t-322.5 -75.5q-191 0 -314 83t-161 238q-42 123 -19 287zM228.5 481 q-3.5 -57 7.5 -94q57 -141 241 -141q219 0 330 170q29 35 52 78.5t31.5 67.5t8.5 28l127 598h-659l-127 -600q-3 -12 -5.5 -31t-6 -76zM442.5 1700q-0.5 2 1.5 6l387 197q5 3 19 -11l305 -182q7 -4 14.5 -13t4.5 -14l-123 -153l-7.5 -2.5t-7.5 2t-8 2.5l-225 137l-258 -141 q-4 -1 -14 4t-13 10l-65 141q-1 2 -5.5 8.5t-5 8.5z" />
<glyph unicode="&#xdc;" horiz-adv-x="1515" d="M-33 588l178 837q1 6 1.5 6.5t2.5 1.5t7 1h1165q9 0 18 -9.5t7 -15.5l-177 -838l-3 -13q-3 -13 -7 -27.5t-11 -36.5t-17.5 -47t-23 -53.5t-30 -60t-37.5 -61.5q-108 -141 -256.5 -216.5t-322.5 -75.5q-191 0 -314 83t-161 238q-42 123 -19 287zM228.5 481 q-3.5 -57 7.5 -94q57 -141 241 -141q219 0 330 170q29 35 52 78.5t31.5 67.5t8.5 28l127 598h-659l-127 -600q-3 -12 -5.5 -31t-6 -76zM449 1692q10 55 57 94t100 39q69 0 111 -48.5t28 -113.5q-12 -55 -59.5 -94t-101.5 -39q-67 0 -108 48.5t-27 113.5zM866 1692 q10 55 57.5 94t102.5 39q69 0 110 -48.5t27 -113.5q-12 -55 -58.5 -94t-100.5 -39q-69 0 -110.5 48.5t-27.5 113.5z" />
<glyph unicode="&#xdd;" horiz-adv-x="1320" d="M-13 1430q3 4 11 4h285q2 0 8 -2.5t11.5 -5.5t4.5 -5l234 -471l448 484q1 2 2 2t3 -1t3 -1h287q14 0 24.5 -12t4.5 -21l-682 -727l-146 -666q-10 -8 -12 -8h-233q-9 0 -18 9.5t-7 15.5l145 655q-28 58 -88.5 179.5t-96 193.5t-84.5 175t-89 191q-16 6 -15 11z M442.5 1686.5q-0.5 1.5 3.5 3.5l426 208q8 3 18.5 -3t12.5 -13l72 -166q1 -2 3.5 -7.5t2 -7t-3.5 -5.5l-432 -201q-7 -3 -18 3.5t-11 12.5l-63 162q-1 3 -5.5 7.5t-5 6z" />
<glyph unicode="&#xde;" horiz-adv-x="1193" d="M-154 25l113 532q10 8 12 8l209 6q-28 62 -76.5 178.5t-64.5 153.5l104 524q1 5 1.5 6t3 2t8.5 1h233q9 0 19 -9.5t8 -15.5l-58 -262h203q9 0 22.5 -1t47.5 -5t64.5 -12t72.5 -23t73 -37.5t65 -55t47.5 -76t22.5 -100.5t-11 -128q-18 -84 -56 -151.5t-81 -109.5 t-100 -72.5t-101.5 -44.5t-98.5 -22t-77 -9t-50 -1h-223l-61 -293q-1 -4 -1 -4.5t-1.5 -2t-3.5 -1.5h-7h-233q-9 0 -18 9.5t-7 15.5zM332 883l125 -314q32 0 68 9.5t72 29t63.5 53.5t37.5 78q3 25 3.5 45t-9.5 34.5t-19.5 25t-26.5 18t-31 11.5t-32.5 6.5t-30.5 3t-26 0.5 h-194z" />
<glyph unicode="&#xdf;" horiz-adv-x="1212" d="M-152 25l297 1400q1 6 1.5 6.5t2.5 1.5t7 1h483q6 0 16 -1t42.5 -5t60.5 -12t69.5 -23t70.5 -37.5t63 -55t47 -76t22.5 -100t-10.5 -127.5q-16 -73 -49.5 -130.5t-73.5 -90t-77.5 -50.5t-69.5 -21q56 -18 93 -56t49.5 -76t16 -78.5t1 -61.5t-4.5 -27q-53 -249 -310 -352 q-133 -53 -271 -54q-2 0 -8 10t-5 15l49 229v3q0 4 2 4.5t17 0.5q10 0 28.5 2t58 12t73 26.5t64 51t40.5 80.5q7 34 -3 60.5t-33.5 41.5t-47.5 24.5t-53.5 12.5t-40.5 4t-19 1q-2 0 -7.5 9.5t-4.5 14.5l49 232q1 5 0 8q22 0 45 2t62 13t69.5 29t58.5 54.5t38 85.5 q12 54 -14.5 89.5t-68 48t-91.5 12.5h-205l-250 -1168q-8 -8 -10 -8h-246q-7 0 -16 9.5t-7 15.5z" />
<glyph unicode="&#xe0;" d="M-315 31l866 1439q6 10 19.5 3.5t13.5 -17.5l254 -1440q4 -9 3.5 -12.5t-10.5 -3.5h-253q-6 0 -16 6t-7 10l-25 146h-467l-86 -158q-3 -4 -14 -4h-252q-12 0 -21 11t-5 20zM203 403h289l-48 431zM381 1722l141 168q6 6 25 -4l315 -205q7 -4 14.5 -13.5t4.5 -14.5 l-131 -160q-7 -7 -23 4l-328 199q-8 2 -14.5 11t-3.5 15z" />
<glyph unicode="&#xe1;" d="M-315 31l866 1439q6 10 19.5 3.5t13.5 -17.5l254 -1440q4 -9 3.5 -12.5t-10.5 -3.5h-253q-6 0 -16 6t-7 10l-25 146h-467l-86 -158q-3 -4 -14 -4h-252q-12 0 -21 11t-5 20zM203 403h289l-48 431zM356 1683l428 209q7 3 18 -3.5t11 -12.5l74 -166q1 -2 2 -5.5t2 -6t0.5 -5 t-2.5 -3.5l-432 -201q-8 -3 -18.5 3t-12.5 13l-64 162q-1 2 -2 3t-3 4q-6 8 -1 9z" />
<glyph unicode="&#xe2;" d="M-315 31l866 1439q6 10 19.5 3.5t13.5 -17.5l254 -1440q4 -9 3.5 -12.5t-10.5 -3.5h-253q-6 0 -16 6t-7 10l-25 146h-467l-86 -158q-3 -4 -14 -4h-252q-12 0 -21 11t-5 20zM203 403h289l-48 431zM245.5 1639q0.5 2 2.5 3l385 197q5 3 18 -10l305 -182q8 -3 15 -12t4 -15 l-123 -154q-4 -4 -21 2l-225 138l-260 -142q-4 -1 -13 4.5t-11 10.5l-68 141q-1 2 -3 5t-3 5t-2 4.5t-0.5 4.5z" />
<glyph unicode="&#xe3;" d="M-315 31l866 1439q6 10 19.5 3.5t13.5 -17.5l254 -1440q4 -9 3.5 -12.5t-10.5 -3.5h-253q-6 0 -16 6t-7 10l-25 146h-467l-86 -158q-3 -4 -14 -4h-252q-12 0 -21 11t-5 20zM203 403h289l-48 431zM240 1610q37 102 102 151t147 49q90 0 166 -45q19 -6 19 -8q0 -1 -2 -2 q24 -12 49 -12q52 0 78 61q12 -4 22 -6l152 -51q8 -2 16 -12t4 -19q-56 -105 -114.5 -148.5t-130.5 -43.5q-85 0 -173 45l-30 10q-32 16 -43 16q-45 0 -68 -65q-2 0 -22 4l-152 45q-8 2 -14.5 11.5t-5.5 19.5z" />
<glyph unicode="&#xe4;" d="M-315 31l866 1439q6 10 19.5 3.5t13.5 -17.5l254 -1440q4 -9 3.5 -12.5t-10.5 -3.5h-253q-6 0 -16 6t-7 10l-25 146h-467l-86 -158q-3 -4 -14 -4h-252q-12 0 -21 11t-5 20zM203 403h289l-48 431zM254 1657q12 55 58.5 94t99.5 39q69 0 111 -48.5t28 -113.5 q-10 -55 -58.5 -94t-103.5 -39q-67 0 -108 48.5t-27 113.5zM672 1657q12 55 58.5 94t100.5 39q69 0 110.5 -48.5t27.5 -113.5q-10 -55 -57.5 -94t-102.5 -39q-69 0 -110 48.5t-27 113.5z" />
<glyph unicode="&#xe5;" d="M-311 31l712 1159q-72 33 -106 106.5t-14 163.5q23 112 118.5 191.5t206.5 79.5q125 0 197.5 -89t46.5 -210q-17 -74 -76.5 -142.5t-138.5 -105.5l196 -1168q4 -9 3.5 -12.5t-11.5 -3.5h-250q-6 0 -14.5 7t-7.5 11l-25 142h-463l-86 -156q-3 -4 -14 -4h-250 q-11 0 -19.5 11t-4.5 20zM201 393l288 6q-51 395 -53 410zM471 1432q-7 -35 7.5 -57.5t45.5 -22.5q45 0 85.5 32t49.5 76q7 36 -8 60t-45 24q-46 0 -86 -33t-49 -79z" />
<glyph unicode="&#xe6;" horiz-adv-x="1617" d="M-315 31l1028 1376h2q0 1 1.5 2t3.5 4t3 6l8 2h725q9 0 18 -9t7 -15l-47 -226q-1 -4 -1 -4.5t-1.5 -2t-3.5 -1.5h-7h-487l-68 -321h373q9 0 18 -9.5t7 -15.5l-47 -221q-1 -4 -1 -4.5t-1.5 -2t-3.5 -1.5h-7h-393l-70 -332h492q7 0 15.5 -9.5t6.5 -15.5l-47 -223 q-8 -8 -10 -8h-754q-7 0 -15.5 9.5t-6.5 15.5l29 135h-342l-117 -158q-1 -2 -10 -2h-269q-12 0 -23 11t-5 20zM283 412l223 8q11 52 32.5 149.5t30.5 141.5l52 196l-148 -237z" />
<glyph unicode="&#xe7;" horiz-adv-x="1421" d="M-49 725q40 189 167.5 349.5t307.5 253.5t369 93q153 0 273 -58.5t189 -160.5q10 0 17 -7.5t4 -12.5l-199 -160q-6 -4 -15 2t-9 14q-106 119 -277 119q-191 0 -355.5 -135.5t-205.5 -325.5q-38 -181 59.5 -306.5t272.5 -125.5q96 0 186.5 38t161.5 104q20 0 31 -17 l129 -164q14 -14 8 -30q-127 -94 -281 -158q39 -89 23 -176q-31 -139 -150 -238.5t-256 -99.5q-158 0 -245.5 96.5t-55.5 245.5q0 2 1.5 2h9.5h188q8 0 17 -10.5t6 -20.5q-9 -45 15 -67.5t71 -22.5q59 0 110.5 42.5t63.5 100.5q9 45 -9.5 76t-60.5 37l2 -2q-192 2 -336 100 t-206 264.5t-21 360.5z" />
<glyph unicode="&#xe8;" horiz-adv-x="1204" d="M-154 25l297 1400q1 5 1.5 6t3 2t8.5 1h915q9 0 18 -9.5t7 -15.5l-47 -227q-1 -4 -1 -4.5t-1.5 -2t-3.5 -1.5h-7h-671l-70 -324h553q7 0 16.5 -9.5t7.5 -15.5l-49 -227q-8 -8 -10 -8h-573l-68 -324h670q9 0 17.5 -9t6.5 -15l-49 -234q-10 -8 -12 -8h-934q-9 0 -18 9.5 t-7 15.5zM469 1747l141 168q6 6 25 -4l313 -205q8 -3 15 -13t4 -16l-129 -159q-6 -6 -25 4l-326 198q-8 2 -14.5 11.5t-3.5 15.5z" />
<glyph unicode="&#xe9;" horiz-adv-x="1204" d="M-154 25l297 1400q1 5 1.5 6t3 2t8.5 1h915q9 0 18 -9.5t7 -15.5l-47 -227q-1 -4 -1 -4.5t-1.5 -2t-3.5 -1.5h-7h-671l-70 -324h553q7 0 16.5 -9.5t7.5 -15.5l-49 -227q-8 -8 -10 -8h-573l-68 -324h670q9 0 17.5 -9t6.5 -15l-49 -234q-10 -8 -12 -8h-934q-9 0 -18 9.5 t-7 15.5zM453 1712l428 209q7 3 17.5 -3.5t10.5 -12.5l74 -166q1 -2 2 -6t2 -6t0.5 -5t-2.5 -4l-432 -200q-8 -3 -18.5 3t-12.5 13l-63 162q-1 2 -2 3t-3 4q-6 8 -1 9z" />
<glyph unicode="&#xea;" horiz-adv-x="1204" d="M-154 25l297 1400q1 5 1.5 6t3 2t8.5 1h915q9 0 18 -9.5t7 -15.5l-47 -227q-1 -4 -1 -4.5t-1.5 -2t-3.5 -1.5h-7h-671l-70 -324h553q7 0 16.5 -9.5t7.5 -15.5l-49 -227q-8 -8 -10 -8h-573l-68 -324h670q9 0 17.5 -9t6.5 -15l-49 -234q-10 -8 -12 -8h-934q-9 0 -18 9.5 t-7 15.5zM346.5 1702.5q-0.5 1.5 1.5 5.5l387 197q5 3 19 -11l305 -182q7 -4 14 -12.5t4 -13.5l-123 -154q-5 -2 -6.5 -2.5t-7.5 2t-8 2.5l-223 137l-260 -141q-4 -1 -14 4t-13 10l-66 142q-1 2 -5 8.5t-4.5 8z" />
<glyph unicode="&#xeb;" horiz-adv-x="1204" d="M-154 25l297 1400q1 5 1.5 6t3 2t8.5 1h915q9 0 18 -9.5t7 -15.5l-47 -227q-1 -4 -1 -4.5t-1.5 -2t-3.5 -1.5h-7h-671l-70 -324h553q7 0 16.5 -9.5t7.5 -15.5l-49 -227q-8 -8 -10 -8h-573l-68 -324h670q9 0 17.5 -9t6.5 -15l-49 -234q-10 -8 -12 -8h-934q-9 0 -18 9.5 t-7 15.5zM369 1671q10 55 56 94t99 39q69 0 112 -49t30 -113q-12 -55 -60 -94t-102 -39q-67 0 -108 48.5t-27 113.5zM786 1671q10 55 57 94t101 39q69 0 111 -48.5t28 -113.5q-12 -55 -58.5 -94t-100.5 -39q-69 0 -110.5 48.5t-27.5 113.5z" />
<glyph unicode="&#xec;" horiz-adv-x="573" d="M-152 25l297 1400q1 5 1.5 6t3 2t8.5 1h231q9 0 18 -9.5t7 -15.5l-297 -1401q-1 -4 -1 -4.5t-1.5 -2t-3.5 -1.5h-7h-231q-9 0 -18 9.5t-7 15.5zM94 1751l142 168q3 3 6.5 3t5.5 -0.5t6.5 -3t5.5 -3.5l315 -205q7 -3 14.5 -13t4.5 -16l-131 -159q-7 -7 -23 4l-327 198 q-8 2 -15 11.5t-4 15.5z" />
<glyph unicode="&#xed;" horiz-adv-x="573" d="M-152 25l297 1400q1 5 1.5 6t3 2t8.5 1h231q9 0 18 -9.5t7 -15.5l-297 -1401q-1 -4 -1 -4.5t-1.5 -2t-3.5 -1.5h-7h-231q-9 0 -18 9.5t-7 15.5zM80 1710q-6 7 0 8l426 209q8 3 18.5 -3t12.5 -13l71 -166q1 -2 3.5 -8t2 -7.5t-3.5 -5.5l-432 -200q-7 -3 -17.5 3.5 t-10.5 12.5l-64 162q-1 2 -3 4.5t-3 3.5z" />
<glyph unicode="&#xee;" horiz-adv-x="573" d="M-152 25l297 1400q1 5 1.5 6t3 2t8.5 1h231q9 0 18 -9.5t7 -15.5l-297 -1401q-1 -4 -1 -4.5t-1.5 -2t-3.5 -1.5h-7h-231q-9 0 -18 9.5t-7 15.5zM-31.5 1678q0.5 2 2.5 3l385 197q6 3 19 -10l305 -182q8 -3 14.5 -12t3.5 -15l-123 -154q-2 -2 -5 -2.5t-5 0.5t-5.5 2.5 t-4.5 1.5l-225 138l-260 -142q-4 -1 -13.5 4.5t-11.5 10.5l-68 141q-1 2 -3 5t-3 5t-2 4.5t-0.5 4.5z" />
<glyph unicode="&#xef;" horiz-adv-x="573" d="M-152 25l297 1400q1 5 1.5 6t3 2t8.5 1h231q9 0 18 -9.5t7 -15.5l-297 -1401q-1 -4 -1 -4.5t-1.5 -2t-3.5 -1.5h-7h-231q-9 0 -18 9.5t-7 15.5zM-23 1698q12 55 58.5 94t99.5 39q69 0 111 -48.5t28 -113.5q-10 -55 -57.5 -94t-101.5 -39q-68 0 -109.5 49t-28.5 113z M395 1698q12 55 59 94t101 39q69 0 110 -48.5t27 -113.5q-10 -55 -56.5 -94t-100.5 -39q-69 0 -111 49t-29 113z" />
<glyph unicode="&#xf0;" horiz-adv-x="1355" d="M-176 625l41 188q0 7 0.5 7.5t9.5 0.5h141l127 592q10 8 11 8h233q62 0 118.5 -3.5t122 -14.5t121 -28.5t111 -46.5t97.5 -67.5t75 -93.5t49.5 -122.5t15 -156t-23.5 -192.5q-147 -696 -969 -696h-233q-9 0 -17 9.5t-6 15.5l121 575h-121q-9 0 -17.5 9.5t-6.5 15.5z M158 254q5 -1 12.5 -1t16.5 0.5t14 0.5q40 0 80.5 4t94.5 16.5t103 33t102 57t94.5 84t76.5 119t53 157.5q14 65 15 121t-8.5 97.5t-29 75.5t-43.5 57t-55.5 40.5t-61 27t-63 15.5t-60 8t-53.5 2l-75 -2l-84 -346h231q8 0 17 -9t8 -15l-41 -189q-8 -8 -10 -8h-252z" />
<glyph unicode="&#xf1;" horiz-adv-x="1519" d="M-152 25l297 1400q1 6 1.5 6.5t2.5 1.5t7 1h237q2 0 8.5 -2.5t12 -5.5t4.5 -5l456 -938l205 942q1 5 1.5 6t3 2t8.5 1h231q9 0 18 -9.5t7 -15.5l-297 -1401q-1 -4 -1 -4.5t-1.5 -2t-3.5 -1.5h-7h-235q-2 0 -8.5 2t-12 5t-4.5 5l-454 938l-205 -942q-1 -4 -1 -4.5t-1.5 -2 t-3.5 -1.5h-7h-235q-7 0 -16 9.5t-7 15.5zM438 1634q35 101 101.5 151t148.5 50q90 0 166 -45q17 -6 17 -8q1 -1 -1 -2q22 -13 50 -13q51 0 77 62l21 -6l151 -51q9 -2 17.5 -11.5t5.5 -19.5q-57 -105 -115.5 -149t-130.5 -44q-84 0 -172 45l-31 11q-36 16 -45 16 q-20 0 -37.5 -17t-27.5 -49q-3 0 -11.5 2t-11.5 3l-151 45q-9 2 -16.5 11t-4.5 19z" />
<glyph unicode="&#xf2;" horiz-adv-x="1632" d="M-74 573.5q2 78.5 19 159.5q30 138 100 265t174.5 230t252 164.5t316.5 61.5q100 0 186 -22t150 -61.5t113.5 -94t79.5 -120t45 -139.5t13 -153t-19 -159q-29 -138 -100 -265.5t-175.5 -230.5t-251.5 -165t-313 -62q-102 0 -189 22t-151 61.5t-113.5 94.5t-79 121 t-44.5 140t-13 152.5zM204 563.5q-1 -66.5 21.5 -125.5t59.5 -103t100.5 -69.5t144.5 -25.5q107 0 203.5 42t166.5 111.5t118 156t67 179.5q12 59 12.5 115.5t-10.5 108.5t-36.5 96t-63 76.5t-92 50.5t-121.5 18q-108 0 -205 -42.5t-167 -112.5t-118 -157.5t-67 -181.5 q-12 -70 -13 -136.5zM621 1747l141 168q3 3 6.5 3t5.5 -0.5t6.5 -3t5.5 -3.5l314 -205q8 -3 14.5 -13t3.5 -16l-129 -159q-3 -3 -6.5 -3t-5.5 0.5t-6.5 3t-5.5 3.5l-326 198q-8 2 -14.5 11.5t-3.5 15.5z" />
<glyph unicode="&#xf3;" horiz-adv-x="1632" d="M-74 573.5q2 78.5 19 159.5q30 138 100 265t174.5 230t252 164.5t316.5 61.5q100 0 186 -22t150 -61.5t113.5 -94t79.5 -120t45 -139.5t13 -153t-19 -159q-29 -138 -100 -265.5t-175.5 -230.5t-251.5 -165t-313 -62q-102 0 -189 22t-151 61.5t-113.5 94.5t-79 121 t-44.5 140t-13 152.5zM204 563.5q-1 -66.5 21.5 -125.5t59.5 -103t100.5 -69.5t144.5 -25.5q107 0 203.5 42t166.5 111.5t118 156t67 179.5q12 59 12.5 115.5t-10.5 108.5t-36.5 96t-63 76.5t-92 50.5t-121.5 18q-108 0 -205 -42.5t-167 -112.5t-118 -157.5t-67 -181.5 q-12 -70 -13 -136.5zM621 1712l428 209q7 3 17.5 -3.5t10.5 -12.5l74 -166q1 -2 2 -6t2 -6t0.5 -5t-2.5 -4l-432 -200q-8 -3 -18.5 3t-12.5 13l-63 162q-1 2 -2 3t-3 4q-6 8 -1 9z" />
<glyph unicode="&#xf4;" horiz-adv-x="1632" d="M-74 573.5q2 78.5 19 159.5q30 138 100 265t174.5 230t252 164.5t316.5 61.5q100 0 186 -22t150 -61.5t113.5 -94t79.5 -120t45 -139.5t13 -153t-19 -159q-29 -138 -100 -265.5t-175.5 -230.5t-251.5 -165t-313 -62q-102 0 -189 22t-151 61.5t-113.5 94.5t-79 121 t-44.5 140t-13 152.5zM204 563.5q-1 -66.5 21.5 -125.5t59.5 -103t100.5 -69.5t144.5 -25.5q107 0 203.5 42t166.5 111.5t118 156t67 179.5q12 59 12.5 115.5t-10.5 108.5t-36.5 96t-63 76.5t-92 50.5t-121.5 18q-108 0 -205 -42.5t-167 -112.5t-118 -157.5t-67 -181.5 q-12 -70 -13 -136.5zM497.5 1676q0.5 2 2.5 3l385 197q5 3 18 -10l305 -183q8 -3 15 -11.5t4 -14.5l-123 -154q-2 -2 -5 -2.5t-5.5 0.5t-6.5 2t-6 2l-223 137l-260 -141q-4 -1 -13.5 4.5t-11.5 10.5l-67 141q-1 2 -3 5t-3 5t-2 4.5t-0.5 4.5z" />
<glyph unicode="&#xf5;" horiz-adv-x="1632" d="M-74 573.5q2 78.5 19 159.5q30 138 100 265t174.5 230t252 164.5t316.5 61.5q100 0 186 -22t150 -61.5t113.5 -94t79.5 -120t45 -139.5t13 -153t-19 -159q-29 -138 -100 -265.5t-175.5 -230.5t-251.5 -165t-313 -62q-102 0 -189 22t-151 61.5t-113.5 94.5t-79 121 t-44.5 140t-13 152.5zM204 563.5q-1 -66.5 21.5 -125.5t59.5 -103t100.5 -69.5t144.5 -25.5q107 0 203.5 42t166.5 111.5t118 156t67 179.5q12 59 12.5 115.5t-10.5 108.5t-36.5 96t-63 76.5t-92 50.5t-121.5 18q-108 0 -205 -42.5t-167 -112.5t-118 -157.5t-67 -181.5 q-12 -70 -13 -136.5zM504 1647q37 102 102.5 151t147.5 49q90 0 166 -45q18 -6 18 -8q0 -1 -2 -2q24 -12 49 -12q52 0 78 61q12 -4 22 -6l150 -51q9 -2 17.5 -11.5t4.5 -19.5q-56 -105 -114.5 -148.5t-130.5 -43.5q-84 0 -172 45l-31 10q-32 16 -43 16q-20 0 -39 -16.5 t-29 -48.5q-2 0 -22 4l-152 45q-8 2 -14.5 11.5t-5.5 19.5z" />
<glyph unicode="&#xf6;" horiz-adv-x="1632" d="M-74 573.5q2 78.5 19 159.5q30 138 100 265t174.5 230t252 164.5t316.5 61.5q100 0 186 -22t150 -61.5t113.5 -94t79.5 -120t45 -139.5t13 -153t-19 -159q-29 -138 -100 -265.5t-175.5 -230.5t-251.5 -165t-313 -62q-102 0 -189 22t-151 61.5t-113.5 94.5t-79 121 t-44.5 140t-13 152.5zM204 563.5q-1 -66.5 21.5 -125.5t59.5 -103t100.5 -69.5t144.5 -25.5q107 0 203.5 42t166.5 111.5t118 156t67 179.5q12 59 12.5 115.5t-10.5 108.5t-36.5 96t-63 76.5t-92 50.5t-121.5 18q-108 0 -205 -42.5t-167 -112.5t-118 -157.5t-67 -181.5 q-12 -70 -13 -136.5zM506 1694q12 55 58.5 94t99.5 39q69 0 111 -48.5t28 -113.5q-12 -55 -60 -94t-102 -39q-67 0 -108 48.5t-27 113.5zM924 1694q12 55 58.5 94t100.5 39q69 0 110.5 -48.5t27.5 -113.5q-12 -55 -59 -94t-101 -39q-69 0 -110 48.5t-27 113.5z" />
<glyph unicode="&#xf7;" horiz-adv-x="1003" d="M-80 588h811l47 223h-811zM123 371q12 59 60 99t106 40q74 0 116.5 -50t28.5 -118q-12 -59 -61 -99t-109 -40q-73 0 -114.5 50t-26.5 118zM268 1055q12 59 60 99t106 40q74 0 117 -50t29 -118q-14 -60 -62 -100.5t-108 -40.5q-73 0 -115 50.5t-27 119.5z" />
<glyph unicode="&#xf8;" horiz-adv-x="1632" d="M-133 -98l207 248q-96 105 -130.5 260t1.5 317q29 137 99 262.5t173.5 227t250.5 162.5t314 61q135 0 242 -39l117 147q1 2 12 2h236q12 0 21.5 -11.5t6.5 -20.5l-200 -240q102 -104 135 -260.5t-6 -321.5q-23 -108 -71 -210.5t-123 -193.5t-168.5 -159t-214.5 -107.5 t-255 -39.5q-133 0 -250 37q-80 -86 -125 -158q-6 6 -14 6h-229q-12 0 -23.5 11t-5.5 20zM213 696q-40 -200 29 -307q94 119 297 381t319 406q-81 6 -90 6q-108 0 -205 -42t-166.5 -111.5t-116.5 -155t-67 -177.5zM422 250q66 -8 104 -8q107 0 203.5 41.5t166 110t117 154.5 t66.5 177q47 206 -32 315q-80 -100 -294 -373.5t-331 -416.5z" />
<glyph unicode="&#xf9;" horiz-adv-x="1398" d="M-57 469l200 944q1 4 1 4.5t1.5 2t3.5 1.5h7h231q9 0 18 -9t7 -15l-203 -942q-9 -103 50 -157t157 -54q116 0 215 61t121 164l200 944q1 4 1 4.5t1.5 2t3.5 1.5h7h233q7 0 16 -9t7 -15l-201 -944q-46 -222 -218.5 -347.5t-402.5 -125.5q-115 0 -209.5 35t-157.5 97.5 t-87.5 155t-1.5 201.5zM471 1722l141 168q6 6 25 -4l315 -205q7 -4 14.5 -13.5t4.5 -14.5l-131 -160q-7 -7 -23 4l-328 199q-8 2 -14.5 11t-3.5 15z" />
<glyph unicode="&#xfa;" horiz-adv-x="1398" d="M-57 469l200 944q1 4 1 4.5t1.5 2t3.5 1.5h7h231q9 0 18 -9t7 -15l-203 -942q-9 -103 50 -157t157 -54q116 0 215 61t121 164l200 944q1 4 1 4.5t1.5 2t3.5 1.5h7h233q7 0 16 -9t7 -15l-201 -944q-46 -222 -218.5 -347.5t-402.5 -125.5q-115 0 -209.5 35t-157.5 97.5 t-87.5 155t-1.5 201.5zM500 1671q-6 7 0 8l426 209q9 3 18.5 -3.5t9.5 -12.5l74 -166q1 -2 3.5 -7.5t2 -7t-3.5 -5.5l-432 -201q-7 -3 -18 3.5t-11 12.5l-63 162q-1 2 -3 4.5t-3 3.5z" />
<glyph unicode="&#xfb;" horiz-adv-x="1398" d="M-57 469l200 944q1 4 1 4.5t1.5 2t3.5 1.5h7h231q9 0 18 -9t7 -15l-203 -942q-9 -103 50 -157t157 -54q116 0 215 61t121 164l200 944q1 4 1 4.5t1.5 2t3.5 1.5h7h233q7 0 16 -9t7 -15l-201 -944q-46 -222 -218.5 -347.5t-402.5 -125.5q-115 0 -209.5 35t-157.5 97.5 t-87.5 155t-1.5 201.5zM379.5 1669.5q-0.5 1.5 1.5 5.5l385 197q4 1 11 -3.5t7 -6.5l308 -183q7 -4 14 -12.5t4 -13.5l-123 -154l-7.5 -2.5t-7 2t-7.5 2.5l-226 137l-258 -141q-6 -1 -15 4t-11 10l-66 142q-1 2 -5 8.5t-4.5 8z" />
<glyph unicode="&#xfc;" horiz-adv-x="1398" d="M-57 469l200 944q1 4 1 4.5t1.5 2t3.5 1.5h7h231q9 0 18 -9t7 -15l-203 -942q-9 -103 50 -157t157 -54q116 0 215 61t121 164l200 944q1 4 1 4.5t1.5 2t3.5 1.5h7h233q7 0 16 -9t7 -15l-201 -944q-46 -222 -218.5 -347.5t-402.5 -125.5q-115 0 -209.5 35t-157.5 97.5 t-87.5 155t-1.5 201.5zM385 1673q12 55 58.5 94t99.5 39q69 0 110.5 -48.5t28.5 -112.5q-12 -55 -60 -94.5t-102 -39.5q-67 0 -108 48.5t-27 113.5zM803 1673q12 55 59 94t101 39q69 0 110 -48t27 -113q-12 -55 -59 -94.5t-101 -39.5q-69 0 -110 48.5t-27 113.5z" />
<glyph unicode="&#xfd;" horiz-adv-x="1320" d="M-11 1430q3 4 11 4h285q1 0 7 -2.5t11 -5.5t4 -5l230 -479l446 492q1 2 2.5 2t3 -1t2.5 -1h285q14 0 24.5 -12t4.5 -21l-678 -731l-146 -662q-10 -8 -12 -8h-231q-9 0 -18 9.5t-7 15.5l143 651q-183 373 -352 743q-16 6 -15 11zM455 1696l428 209q7 3 17.5 -4t10.5 -13 l74 -166q1 -2 2 -5.5t2 -6t0.5 -5t-2.5 -3.5l-432 -201q-7 -3 -18 4t-11 13l-63 161q-2 2 -5 6q-9 10 -3 11z" />
<glyph unicode="&#xfe;" horiz-adv-x="1187" d="M-154 20l297 1393q1 5 1.5 6t2.5 1.5t7 0.5h233q9 0 17 -9t6 -15l-52 -246h224q19 0 50.5 -3.5t108 -28t130 -65.5t86 -130t6.5 -209q-18 -85 -58.5 -154t-91.5 -110.5t-108 -72t-110.5 -44t-97 -21t-69.5 -7.5l-27 -1h-223l-63 -301q-10 -8 -11 -8h-233q-8 0 -17 9 t-8 15zM233 569h224q8 0 22 1.5t51 12t67.5 27t59.5 52t39 81.5q6 32 0.5 55.5t-20.5 39.5t-34 25.5t-40 14.5t-38 7t-28 2h-12h-223z" />
<glyph unicode="&#xff;" horiz-adv-x="1320" d="M-11 1430q3 4 11 4h285q1 0 7 -2.5t11 -5.5t4 -5l230 -479l446 492q1 2 2.5 2t3 -1t2.5 -1h285q14 0 24.5 -12t4.5 -21l-678 -731l-146 -662q-10 -8 -12 -8h-231q-9 0 -18 9.5t-7 15.5l143 651q-183 373 -352 743q-16 6 -15 11zM346 1671q10 55 56.5 94t99.5 39 q69 0 111.5 -49t29.5 -113q-12 -55 -60 -94t-102 -39q-67 0 -108 48.5t-27 113.5zM764 1671q10 55 57 94t101 39q69 0 111 -48.5t28 -113.5q-12 -55 -59 -94t-101 -39q-69 0 -110 48.5t-27 113.5z" />
<glyph unicode="&#x152;" horiz-adv-x="1937" d="M-54 574.5q2 78.5 19 158.5q24 110 72 213t122.5 195.5t167 161.5t211.5 109t250 40q87 0 181 -20l782 2q9 0 18 -9.5t7 -15.5l-47 -223q-1 -4 -1 -4.5t-1.5 -2t-3.5 -1.5h-7h-563l-70 -328h453q9 0 19 -9.5t8 -15.5l-47 -223q-1 -4 -1 -4.5t-1.5 -2t-3.5 -1.5h-7h-473 l-72 -332h570q9 0 18.5 -9t7.5 -15l-49 -230q-10 -8 -12 -8h-817q-71 -14 -158 -14q-98 0 -182 22t-146.5 61t-110.5 93.5t-77 120t-43.5 139.5t-12.5 152.5zM234.5 560q-2.5 -69 16.5 -130.5t52.5 -107t90.5 -72.5t132 -27q78 0 158 23l221 946q-61 18 -127 18 q-100 0 -191 -43.5t-157.5 -116t-113 -162.5t-66.5 -186q-13 -73 -15.5 -142z" />
<glyph unicode="&#x153;" horiz-adv-x="1937" d="M-50.5 569.5q2.5 77.5 19.5 157.5q29 137 97.5 262.5t170 227t244 162.5t303.5 61q80 0 179 -21l774 2q9 0 17.5 -9t6.5 -15l-47 -221q-2 -8 -4 -8.5t-8 -0.5h-557l-68 -325h449q7 0 15.5 -9.5t6.5 -15.5l-47 -219q-8 -8 -10 -8h-469l-70 -330h566q9 0 18.5 -9t7.5 -15 l-49 -228q-10 -8 -12 -8h-811q-71 -14 -156 -14q-98 0 -181.5 21.5t-145.5 60.5t-109.5 93.5t-76 119t-42.5 138t-11.5 151zM233.5 555.5q-1.5 -68.5 17.5 -129t52 -105.5t90 -71.5t131 -26.5q86 0 156 21l219 938q-70 18 -125 18q-99 0 -189.5 -43.5t-157 -115t-113 -161 t-66.5 -184.5q-13 -72 -14.5 -140.5z" />
<glyph unicode="&#x178;" horiz-adv-x="1320" d="M-13 1430q3 4 11 4h285q2 0 8 -2.5t11.5 -5.5t4.5 -5l234 -471l448 484q1 2 2 2t3 -1t3 -1h287q14 0 24.5 -12t4.5 -21l-682 -727l-146 -666q-10 -8 -12 -8h-233q-9 0 -18 9.5t-7 15.5l145 655q-28 58 -88.5 179.5t-96 193.5t-84.5 175t-89 191q-16 6 -15 11zM348 1688 q12 55 58.5 94t99.5 39q69 0 111 -48.5t28 -113.5q-10 -55 -57.5 -94t-102.5 -39q-68 0 -109 49t-28 113zM766 1688q12 55 59 94t101 39q69 0 110 -48.5t27 -113.5q-10 -55 -57 -94t-101 -39q-69 0 -111 48.5t-28 113.5z" />
<glyph unicode="&#x2c6;" horiz-adv-x="802" d="M7.5 1293q0.5 2 2.5 3l385 197q6 3 19 -10l305 -183q8 -3 14.5 -11.5t3.5 -14.5l-123 -154q-4 -4 -20 2l-225 138l-260 -142q-4 -1 -13.5 4.5t-11.5 10.5l-68 141q-1 2 -3 5t-3 5t-2 4.5t-0.5 4.5z" />
<glyph unicode="&#x2dc;" horiz-adv-x="802" d="M0 1251q37 102 102.5 151.5t147.5 49.5q90 0 166 -45q18 -6 18 -8q0 -1 -2 -2q26 -13 49 -13q52 0 78 62q10 -4 23 -6l149 -51q9 -2 18 -11.5t5 -19.5q-57 -105 -115.5 -149t-130.5 -44q-84 0 -172 45l-31 11q-32 16 -43 16q-20 0 -38.5 -17t-28.5 -49q-3 0 -11.5 2 t-11.5 3l-152 45q-8 2 -14.5 11t-5.5 19z" />
<glyph unicode="&#x2000;" horiz-adv-x="964" />
<glyph unicode="&#x2001;" horiz-adv-x="1928" />
<glyph unicode="&#x2002;" horiz-adv-x="964" />
<glyph unicode="&#x2003;" horiz-adv-x="1928" />
<glyph unicode="&#x2004;" horiz-adv-x="642" />
<glyph unicode="&#x2005;" horiz-adv-x="482" />
<glyph unicode="&#x2006;" horiz-adv-x="321" />
<glyph unicode="&#x2007;" horiz-adv-x="321" />
<glyph unicode="&#x2008;" horiz-adv-x="241" />
<glyph unicode="&#x2009;" horiz-adv-x="385" />
<glyph unicode="&#x200a;" horiz-adv-x="107" />
<glyph unicode="&#x2010;" horiz-adv-x="907" d="M-104 623l45 213q10 8 12 8h704q9 0 17 -9.5t6 -15.5l-45 -213q-1 -2 -1 -5t-9 -3h-705q-9 0 -17.5 9.5t-6.5 15.5z" />
<glyph unicode="&#x2011;" horiz-adv-x="907" d="M-104 623l45 213q10 8 12 8h704q9 0 17 -9.5t6 -15.5l-45 -213q-1 -2 -1 -5t-9 -3h-705q-9 0 -17.5 9.5t-6.5 15.5z" />
<glyph unicode="&#x2012;" horiz-adv-x="907" d="M-104 623l45 213q10 8 12 8h704q9 0 17 -9.5t6 -15.5l-45 -213q-1 -2 -1 -5t-9 -3h-705q-9 0 -17.5 9.5t-6.5 15.5z" />
<glyph unicode="&#x2013;" horiz-adv-x="1042" d="M-115 594l47 223q1 4 1 4.5t1.5 2t3.5 1.5h7h846q9 0 17.5 -9t6.5 -15l-47 -223q-7 -7 -10 -7h-846q-9 0 -19 9t-8 14z" />
<glyph unicode="&#x2014;" horiz-adv-x="1185" d="M-115 594l47 223q1 4 1 4.5t1.5 2t3.5 1.5h7h966q9 0 18 -9t7 -15l-47 -223q-7 -7 -10 -7h-967q-9 0 -19 9t-8 14z" />
<glyph unicode="&#x201a;" horiz-adv-x="411" d="M-233 139q10 52 54 88.5t95 36.5q90 0 125 -48.5t20 -123.5q-18 -76 -75 -161t-121 -126q-16 -3 -29.5 8.5t-11.5 22.5l43 148q-53 6 -82.5 51.5t-17.5 103.5z" />
<glyph unicode="&#x201e;" horiz-adv-x="804" d="M-233 139q10 52 54 88.5t95 36.5q90 0 125 -48.5t20 -123.5q-18 -76 -75 -161t-121 -126q-16 -3 -29.5 8.5t-11.5 22.5l43 148q-53 6 -82.5 51.5t-17.5 103.5zM141 139q10 52 54.5 88.5t95.5 36.5q90 0 125 -48.5t20 -123.5q-18 -76 -75 -161t-121 -126q-16 -3 -29.5 8.5 t-11.5 22.5l43 148q-53 6 -83 51.5t-18 103.5z" />
<glyph unicode="&#x2022;" horiz-adv-x="638" d="M-86 731q20 91 96.5 154t165.5 63q107 0 167 -72.5t38 -173.5q-19 -91 -94.5 -154t-167.5 -63q-103 0 -165 73.5t-40 172.5z" />
<glyph unicode="&#x2026;" horiz-adv-x="1138" d="M-236 143q12 54 55.5 91.5t94.5 37.5q70 0 109.5 -46.5t25.5 -110.5q-11 -54 -54.5 -90.5t-98.5 -36.5q-66 0 -105.5 46t-26.5 109zM125 143q12 54 55 91.5t94 37.5q70 0 110 -46.5t26 -110.5q-11 -54 -55 -90.5t-99 -36.5q-66 0 -105 46t-26 109zM485 143 q12 54 55.5 91.5t94.5 37.5q70 0 109.5 -46.5t25.5 -110.5q-11 -54 -55 -90.5t-99 -36.5q-66 0 -105 46t-26 109z" />
<glyph unicode="&#x202f;" horiz-adv-x="385" />
<glyph unicode="&#x2039;" horiz-adv-x="643" d="M-143 674l465 465q5 4 12.5 -0.5t9.5 -10.5l127 -116q20 -15 14 -25l-319 -330l178 -309q15 -15 6 -22l-178 -123q-5 -4 -12.5 1t-9.5 11l-285 438q-11 16 -8 21z" />
<glyph unicode="&#x203a;" horiz-adv-x="643" d="M-197 360l320 297l-164 342q-12 17 -8 23l182 119q4 4 12.5 -2.5t10.5 -12.5l268 -464q11 -16 8 -21l-465 -436q-9 -7 -24 8l-127 123q-18 18 -13 24z" />
<glyph unicode="&#x205f;" horiz-adv-x="482" />
<glyph unicode="&#x20ac;" horiz-adv-x="1214" d="M-203 485l35 172q2 8 4 8.5t8 0.5l105 8q4 30 16 82l-82 -8q-9 0 -18.5 8.5t-7.5 13.5l37 174q10 6 12 6l137 8q54 102 126.5 186t166 150.5t212 103t251.5 36.5q176 0 303 -93q13 0 21 -8t5 -14l-149 -205q-6 -4 -14.5 1.5t-6.5 10.5q-100 41 -176 41 q-142 0 -254.5 -60.5t-187.5 -162.5l303 6q9 0 18 -8.5t7 -13.5l-37 -174q0 -5 -0.5 -5.5t-9.5 -0.5l-383 -9q-17 -58 -19 -82l363 9q9 0 18.5 -9.5t7.5 -15.5l-37 -172q-10 -8 -12 -8l-319 -6q37 -88 115.5 -138.5t195.5 -50.5q128 0 229 53q14 0 24.5 -7t8.5 -13l37 -223 v-23q-154 -53 -315 -53q-138 0 -246 36t-176.5 101t-108.5 147.5t-53 182.5l-129 -6q-9 0 -18 9t-7 15z" />
<glyph unicode="&#x2122;" horiz-adv-x="1323" d="M33 1335l18 90q8 9 10 9h377q9 0 18 -9.5t7 -15.5l-19 -90q-10 -8 -12 -8h-127l-104 -496q-1 -4 -1 -4.5t-1.5 -2t-3.5 -1.5h-7h-100q-9 0 -18 9t-7 15l101 480h-109q-7 0 -15.5 9t-6.5 15zM418 821l131 613h119q2 0 11 -5t9 -6l123 -422l305 435q1 1 2 -0.5t2 -1.5h117 q3 0 9 -7t5 -10l-129 -612h-112q-4 0 -10.5 6.5t-6.5 9.5l78 344l-227 -338q-1 -1 -2 0.5t-2 1.5h-97q-3 0 -11.5 4.5t-8.5 6.5l-90 334l-82 -369h-117q-3 0 -9.5 6.5t-6.5 9.5zM546 1436q3 1 3 -2h-2q-3 0 -1 2zM551 805h2q5 0 1 -1q-2 0 -3 1zM1122 805h2q2 1 -2 0z" />
<glyph unicode="&#x25fc;" horiz-adv-x="1433" d="M0 0v1434h1434v-1434h-1434z" />
</font>
</defs>
</svg>
