<?xml version="1.0" standalone="no"?>
<!DOCTYPE svg PUBLIC "-//W3C//DTD SVG 1.1//EN" "http://www.w3.org/Graphics/SVG/1.1/DTD/svg11.dtd" >
<svg xmlns="http://www.w3.org/2000/svg">
<metadata></metadata>
<defs>
<font id="baron_neue_italicitalic" horiz-adv-x="1144" >
<font-face units-per-em="2048" ascent="1536" descent="-512" />
<missing-glyph horiz-adv-x="706" />
<glyph horiz-adv-x="0" />
<glyph horiz-adv-x="682" />
<glyph unicode=" "  horiz-adv-x="706" />
<glyph unicode="&#x09;" horiz-adv-x="706" />
<glyph unicode="&#xa0;" horiz-adv-x="706" />
<glyph unicode="!" horiz-adv-x="565" d="M-131 133q10 51 52 87t89 36q64 0 100.5 -45.5t24.5 -106.5q-11 -51 -51.5 -85.5t-89.5 -34.5q-63 0 -100 44.5t-25 104.5zM-53 418l215 1016h239l-215 -1016h-239z" />
<glyph unicode="&#x22;" horiz-adv-x="679" d="M-33 977l96 457h218l-97 -457h-217zM295 977l96 457h217l-96 -457h-217z" />
<glyph unicode="#" horiz-adv-x="1398" d="M-236 297l105 209h178l180 366h-180l100 203h181l176 359h241l-176 -359h236l176 359h242l-176 -359h180l-101 -203h-180l-180 -366h180l-104 -209h-180l-148 -299h-242l148 299h-236l-147 -299h-240l146 299h-179zM276 500h252l187 379h-252z" />
<glyph unicode="$" horiz-adv-x="1112" d="M-106 412l235 -17q-22 -125 88 -162l102 377q-80 12 -122 47q-110 50 -155 146t-17 227q36 166 156.5 275.5t279.5 138.5l45 164h178l-45 -168q149 -27 227.5 -140t48.5 -270l-233 17q20 127 -88 155l-100 -377q74 -12 120 -45q230 -106 170 -391q-38 -174 -155.5 -275 t-278.5 -124l-41 -142h-178l43 150q-156 26 -235.5 134.5t-44.5 279.5zM258 1001q-25 -119 90 -159l96 356q-67 -18 -118.5 -69.5t-67.5 -127.5zM369 236q66 15 117 61t67 121q16 78 -8 119t-80 57z" />
<glyph unicode="%" horiz-adv-x="1359" d="M-307 4l1415 1430h235l-1415 -1430h-235zM-16 1153q25 117 122 199t211 82q129 0 202.5 -92t47.5 -218q-25 -117 -122.5 -198.5t-211.5 -81.5q-129 0 -203 91.5t-46 217.5zM147 1124q-10 -47 13 -78.5t67 -31.5q60 0 112 41t64 98q9 48 -13 80.5t-66 32.5 q-60 0 -112.5 -42.5t-64.5 -99.5zM461 315q26 120 123.5 202.5t212.5 82.5q132 0 207 -92t47 -221q-25 -119 -123 -201t-215 -82q-131 0 -205.5 92t-46.5 219zM625 287q-10 -47 14 -80t68 -33q61 0 114.5 42t65.5 99q10 49 -14 82t-70 33q-60 0 -113 -42.5t-65 -100.5z" />
<glyph unicode="&#x26;" horiz-adv-x="1337" d="M-107.5 517q57.5 175 234.5 304q-45 48 -65.5 122t-2.5 157q31 142 151.5 243t260.5 101q156 0 243.5 -110t55.5 -263q-20 -96 -82.5 -175t-155.5 -126l162 -221l64 276h381l-45 -215h-181l-28 -131q-10 -51 -39 -98l174 -211l-201 -170l-135 164q-74 -74 -166 -117.5 t-182.5 -51t-174 11.5t-148 68.5t-97.5 121.5q-81 145 -23.5 320zM121 322q34 -55 107.5 -76t162 4.5t154.5 95.5l-256 311q-103 -62 -155.5 -155t-12.5 -180zM281 1071q-9 -50 15.5 -84.5t70.5 -34.5q61 0 115.5 44.5t66.5 103.5q10 49 -15 83t-71 34q-61 0 -115.5 -43.5 t-66.5 -102.5z" />
<glyph unicode="'" horiz-adv-x="339" d="M-33 977l96 457h218l-97 -457h-217z" />
<glyph unicode="(" horiz-adv-x="636" d="M-23 735q76 360 328 703l285 -13q-304 -354 -381 -716q-40 -185 -24.5 -369t87.5 -346l-264 12q-113 350 -31 729z" />
<glyph unicode=")" horiz-adv-x="630" d="M-260 6q304 353 381 717q31 149 31 313q-11 213 -95 402l265 -13q54 -167 59 -358q14 -176 -27 -369q-80 -366 -329 -704z" />
<glyph unicode="*" horiz-adv-x="784" d="M0 1069l23 105h190l-119 145l82 74l119 -146l43 187h104l-43 -187l170 146l66 -74l-172 -145h182l-22 -105h-191l119 -145l-80 -72l-117 143l-45 -186h-104l45 186l-174 -143l-66 72l172 145h-182z" />
<glyph unicode="+" horiz-adv-x="956" d="M-119 612l43 207h297l68 311h209l-68 -311h311l-43 -207h-311l-68 -315h-208l67 315h-297z" />
<glyph unicode="," horiz-adv-x="380" d="M-238 125q10 47 49 80t83 33q119 0 131 -97q10 -86 -61 -200q-61 -98 -134 -138l41 181q-53 0 -87 42.5t-22 98.5z" />
<glyph unicode="-" horiz-adv-x="907" d="M-90 612l45 217h721l-45 -217h-721z" />
<glyph unicode="." horiz-adv-x="368" d="M-223 129q9 49 47.5 83t83.5 34q62 0 97.5 -43.5t23.5 -102.5q-11 -47 -49.5 -79.5t-85.5 -32.5q-60 0 -94.5 42t-22.5 99z" />
<glyph unicode="/" horiz-adv-x="925" d="M-309 -2l971 1436h251l-976 -1436h-246z" />
<glyph unicode="0" horiz-adv-x="1157" d="M-57 408l135 636q43 201 207 312q138 93 303 87q158 -6 250 -101q113 -116 71 -314l-135 -637q-43 -201 -208 -311q-139 -94 -303 -88q-158 6 -250 102q-113 116 -70 314zM176 379q-22 -104 51 -148q62 -37 150 -9q93 30 137 114q14 27 21 59l143 668q21 102 -51 146 q-63 37 -151 10q-94 -30 -138 -114q-14 -28 -21 -58z" />
<glyph unicode="1" horiz-adv-x="679" d="M-45 1255l362 179h205l-305 -1434h-240l250 1161l-227 -78z" />
<glyph unicode="2" horiz-adv-x="1003" d="M-231 0l43 217l663 713q43 46 67 90.5t27 78.5t-8.5 60t-36.5 39.5t-59 13.5q-80 0 -149.5 -47t-88.5 -133l-221 17q39 182 158 292.5t311 110.5q89 0 165 -34t122.5 -96.5t60 -142t-25.5 -179.5t-131 -199l-551 -561h540l-51 -240h-835z" />
<glyph unicode="3" horiz-adv-x="1009" d="M-158 414l232 -17q-16 -80 28 -126t115 -46q105 0 173.5 57t90.5 162q19 84 -17 142.5t-138 58.5h-213l419 557h-475l49 232h848l-462 -600q137 -33 198.5 -144t24.5 -284q-23 -110 -74.5 -193t-121.5 -131t-148 -71t-164 -23q-90 0 -166 31t-127 85.5t-71 135t-1 174.5z " />
<glyph unicode="4" horiz-adv-x="1054" d="M-147 434l45 225l755 775h242l-305 -1434h-238l92 434h-591zM154 643h335l95 428z" />
<glyph unicode="5" horiz-adv-x="1026" d="M-134 229.5q-17 79.5 5 182.5l233 -17q-19 -89 15.5 -130.5t107.5 -41.5q57 0 111 22.5t98 72.5t58 118q49 226 -142 226h-418l164 772h770l-47 -226h-530l-70 -323h158q222 0 308.5 -126.5t39.5 -350.5q-27 -129 -107.5 -227t-185 -146.5t-215.5 -48.5q-91 0 -164.5 28 t-122.5 82t-66 133.5z" />
<glyph unicode="6" horiz-adv-x="966" d="M-164 347.5q4 104.5 55 211.5l498 875h258l-371 -635q35 16 99 16q115 0 191 -62t101 -159t1 -207q-35 -168 -176 -285.5t-306 -117.5q-113 0 -195.5 49.5t-120.5 129.5t-34 184.5zM68 385q-15 -72 22 -122t105 -50q85 0 158.5 59.5t90.5 141.5q15 72 -22.5 122 t-106.5 50q-64 0 -122.5 -36t-86.5 -91q-23 -13 -38 -74z" />
<glyph unicode="7" horiz-adv-x="892" d="M-209 0l709 1200h-512l49 232h860l-844 -1432h-262z" />
<glyph unicode="8" horiz-adv-x="997" d="M-137 434q19 83 76 162t139 133q-54 50 -80 132.5t-8 170.5q45 209 211 324q138 95 300 89q157 -6 249 -105q117 -123 71 -336q-18 -87 -75 -165.5t-146 -127.5q61 -56 87.5 -136t6.5 -169q-44 -208 -209 -324q-137 -96 -300 -91q-157 4 -250 102q-118 124 -72 341z M90 406q-23 -112 49 -160q62 -42 150 -15q97 30 148 121q21 38 30 82q15 72 -22 121t-107 49q-84 0 -156.5 -58t-91.5 -140zM211 1004q-15 -75 23.5 -127t109.5 -52q88 0 163.5 61t92.5 146q25 113 -49 163q-63 42 -154 16q-99 -29 -153 -121q-23 -39 -33 -86z" />
<glyph unicode="9" horiz-adv-x="995" d="M-16 1047q35 168 176.5 285.5t306.5 117.5q113 0 195 -49.5t120 -129.5t33.5 -185t-55.5 -212l-498 -874h-258l371 635q-35 -17 -99 -17q-114 0 -190.5 62.5t-101 159.5t-0.5 207zM207 1020q-15 -72 22.5 -122t106.5 -50q64 0 122.5 36t86.5 91q11 6 23 28t16 46 q15 72 -22 122t-105 50q-85 0 -159 -59.5t-91 -141.5z" />
<glyph unicode=":" horiz-adv-x="368" d="M-223 129q9 49 47.5 83t83.5 34q62 0 97.5 -43.5t23.5 -102.5q-11 -47 -49.5 -79.5t-85.5 -32.5q-60 0 -94.5 42t-22.5 99zM-100 713q10 49 48 82.5t83 33.5q63 0 98 -43t23 -102q-9 -47 -48 -80t-86 -33q-60 0 -95 42.5t-23 99.5z" />
<glyph unicode=";" horiz-adv-x="370" d="M-238 125q10 47 49 80t83 33q119 0 131 -97q10 -86 -61 -200q-61 -98 -134 -138l41 181q-53 0 -87 42.5t-22 98.5zM-100 713q10 49 48 82.5t83 33.5q63 0 98 -43t23 -102q-9 -47 -48 -80t-86 -33q-60 0 -95 42.5t-23 99.5z" />
<glyph unicode="&#x3c;" horiz-adv-x="714" d="M-113 700l543 478l117 -142l-389 -336l245 -331l-157 -144z" />
<glyph unicode="=" horiz-adv-x="874" d="M-164 309l45 207h717l-45 -207h-717zM-86 674l43 205h717l-43 -205h-717z" />
<glyph unicode="&#x3e;" horiz-adv-x="708" d="M-150 369l390 331l-246 336l158 142l358 -478l-543 -475z" />
<glyph unicode="?" horiz-adv-x="1003" d="M-18 1067q36 169 173.5 278t305.5 109q197 0 298.5 -117.5t57.5 -328.5q-29 -135 -140 -235t-259 -126l-64 -250h-217l82 432q71 -5 130.5 6.5t99 32.5t69 50.5t45 58.5t21.5 59q21 101 -17.5 139.5t-115.5 38.5q-84 0 -152.5 -45.5t-83.5 -117.5zM58 118q1 10 3 21 q17 80 91.5 109t135 -10.5t42.5 -126.5q-17 -76 -90 -107q-67 -27 -125 2q-66 32 -57 112z" />
<glyph unicode="@" horiz-adv-x="1832" d="M-187.5 536.5q-6.5 94.5 17.5 194.5q31 146 109.5 277t190.5 230t260.5 157.5t309.5 58.5q152 0 278.5 -51.5t210.5 -147.5t116 -234t-5 -312l-75 -351h-727q-150 0 -235.5 110t-53.5 263q31 143 151 243.5t261 100.5q155 0 243 -110.5t56 -262.5q-8 -46 -39 -110l155 6 l27 127q25 120 7 212t-71 154.5t-132 95t-175 32.5q-122 0 -231.5 -42.5t-189 -115t-134 -165t-76.5 -194.5q-14 -78 -11.5 -149.5t32 -133.5t77 -107t122.5 -71t168 -26h727l-50 -231h-706q-111 0 -206.5 27.5t-166 77t-124 118.5t-79 152t-32 177.5zM428 702 q-10 -51 15 -84.5t73 -33.5q63 0 117.5 43.5t66.5 103.5q10 51 -15.5 85t-72.5 34q-63 0 -117.5 -44t-66.5 -104z" />
<glyph unicode="A" d="M-309 0l882 1475l263 -1475h-250l-29 166h-506l-96 -166h-264zM174 373h348l-63 497z" />
<glyph unicode="B" horiz-adv-x="1234" d="M-143 0l305 1434h487q19 0 50 -2.5t106.5 -24.5t129 -61.5t85.5 -125.5q18 -49 19 -107q0 -45 -11 -97q-28 -128 -109.5 -203t-195.5 -102q70 -15 115 -53t61 -78q16 -42 20 -86q2 -25 2 -43q0 -14 -1 -24q-3 -23 -5 -30q-17 -79 -53 -143.5t-78.5 -105t-98 -70 t-101.5 -44t-100 -23t-82 -10t-58 -1.5h-487zM145 238h230q34 0 67.5 4.5t74 17.5t72.5 33.5t58.5 56.5t36.5 82q4 20 4 37q0 29 -11 51q-18 36 -51.5 50.5t-68.5 21t-61 5.5l-25 -1h-250zM272 836h250q9 0 25 2t57.5 13t75.5 29.5t67 57t44 90.5q5 23 5 42q0 14 -3 26 q-6 28 -23 46.5t-38.5 29.5t-45 16.5t-43.5 7.5q-12 1 -21 0h-12h-12h-250z" />
<glyph unicode="C" horiz-adv-x="1421" d="M-44 421q-13 62 -13 131q0 85 20 179q44 210 168 375t302.5 256.5t381.5 91.5q152 0 274 -57.5t203 -159.5l-192 -156q-51 64 -127.5 98.5t-167.5 34.5q-225 0 -390.5 -143.5t-213.5 -368.5q-14 -69 -14 -129q0 -133 69 -223q101 -132 297 -131q103 0 202 39.5t177 106.5 l145 -183q-117 -97 -255.5 -149.5t-278.5 -52.5q-152 0 -275.5 53t-202.5 151t-109 237z" />
<glyph unicode="D" horiz-adv-x="1355" d="M-143 0l305 1434h229q716 0 717 -522q0 -96 -25 -210q-27 -126 -76.5 -229.5t-110.5 -175t-140 -126t-156.5 -86.5t-167.5 -51.5t-166.5 -26.5t-159.5 -7h-249zM147 242q12 -2 33 -4q8 -1 22 0q23 0 62 2q63 2 122 14t135 45.5t136 84.5t113 140.5t78 206.5q16 78 16 141 q0 34 -5 63q-13 84 -54.5 136.5t-97 81.5t-116.5 39t-111 12q-14 0 -27 1q-33 0 -57 -3l-34 -4z" />
<glyph unicode="E" horiz-adv-x="1204" d="M-143 0l305 1434h956l-51 -240h-717l-76 -358h596l-51 -238h-596l-76 -358h717l-51 -240h-956z" />
<glyph unicode="F" horiz-adv-x="1187" d="M-143 0l305 1434h956l-51 -240h-717l-76 -358h596l-51 -238h-596l-127 -598h-239z" />
<glyph unicode="G" horiz-adv-x="1583" d="M-43 414q-10 56 -10 118q0 93 22 199q44 206 173 372.5t307.5 258.5t369.5 92q152 0 274 -57.5t203 -159.5l-192 -156q-51 64 -127.5 98.5t-167.5 34.5q-212 0 -384 -139.5t-222 -372.5q-16 -84 -16 -152q0 -36 5 -68q13 -92 65 -150.5t127 -85.5t173 -27q112 0 217.5 45 t190.5 123l49 201h-240l49 227h480l-175 -821h-208l22 129q-101 -79 -201 -111t-225 -32q-148 0 -266 50.5t-193 147t-100 236.5z" />
<glyph unicode="H" horiz-adv-x="1404" d="M-139 0l305 1434h240l-127 -594h595l127 594h240l-305 -1434h-240l127 598h-596l-127 -598h-239z" />
<glyph unicode="I" horiz-adv-x="716" d="M-238 0l48 219h167l211 995h-159l47 220h559l-47 -220h-160l-211 -995h168l-47 -219h-576z" />
<glyph unicode="J" horiz-adv-x="831" d="M-236 0l52 240h170q50 0 92.5 19t66.5 46.5t41 55t23 46.5l6 19l168 791h-258l47 219h498l-217 -1026q-18 -85 -55.5 -154t-82.5 -110.5t-95.5 -72t-97 -44t-84.5 -21t-60 -8.5h-23h-191z" />
<glyph unicode="K" horiz-adv-x="1323" d="M-143 0l305 1434h239l-157 -723l741 723h307l-751 -729l442 -705h-305l-322 545l-172 -152l-88 -393h-239z" />
<glyph unicode="L" horiz-adv-x="1026" d="M-143 0l305 1434h239l-254 -1194h531l-51 -240h-770z" />
<glyph unicode="M" horiz-adv-x="1875" d="M-145 0l305 1436h239l306 -1117l761 1117h248l-305 -1436h-240l193 881l-600 -881h-225l-246 899l-197 -899h-239z" />
<glyph unicode="N" horiz-adv-x="1519" d="M-143 0l305 1434h237l498 -1020l221 1020h238l-305 -1434h-238l-496 1020l-221 -1020h-239z" />
<glyph unicode="O" horiz-adv-x="1306" d="M-135 0l51 238h946l-51 -238h-946zM10 936q46 215 228.5 366.5t394.5 151.5q149 0 261 -74q110 -74 158 -200q29 -76 30 -160q0 -55 -13 -113q-29 -141 -122.5 -260.5t-226 -188.5t-271.5 -69q-149 0 -261.5 74t-160.5 200q-29 77 -29 161q0 54 12 112zM242 907 q-7 -34 -7 -65q0 -77 44 -134q62 -81 178 -81q131 0 243 91t138 218q8 35 8 66q0 76 -44 134q-62 82 -179 81q-130 0 -241.5 -91t-139.5 -219z" />
<glyph unicode="P" horiz-adv-x="1193" d="M-143 0l178 836h231l-151 358l47 240h487q19 0 50 -3.5t106 -28t128 -65.5t85 -129q18 -49 17 -108q0 -47 -11 -99q-18 -84 -58 -151.5t-90 -108.5t-106.5 -71t-109 -43.5t-95 -20.5t-68.5 -8h-26h-248l-127 -598h-239zM391 1194l141 -356q32 4 65.5 14t76.5 30 t75.5 58.5t43.5 89.5q4 18 4 35q0 25 -10 47q-16 34 -46.5 49.5t-63 24t-55.5 8.5h-24h-207z" />
<glyph unicode="Q" horiz-adv-x="1683" d="M-48 492q-3 34 -3 69q0 83 18 174q31 145 110.5 277t190.5 229.5t254.5 155t294.5 57.5q106 0 199 -27.5t163 -77t123.5 -118t80.5 -151.5t34 -178q2 -22 2 -44q0 -74 -18 -151q-26 -115 -81.5 -225t-135.5 -195l119 -156l-203 -164l-115 150q-210 -135 -440 -135 q-121 0 -226 37t-180.5 104.5t-125.5 161.5t-61 207zM201 707q-14 -66 -14 -125q0 -131 71 -225q103 -136 297 -136q145 0 291 80l-488 705q-56 -59 -98 -138.5t-59 -160.5zM575 1163l474 -684q84 112 116 256q11 52 11 102q0 71 -22 136q-38 110 -130 175.5t-217 65.5 q-114 0 -232 -51z" />
<glyph unicode="R" horiz-adv-x="1253" d="M-141 0l178 836h231l-151 358l47 240h487q19 0 50 -3.5t106.5 -28t128.5 -65.5t85 -129q18 -49 18 -109q0 -46 -11 -98q-63 -296 -389 -380l246 -621h-273l-245 598h-142l-127 -598h-239zM393 1194l142 -356q31 3 65.5 12.5t76.5 30t74.5 59t43.5 90.5q4 18 4 35 q0 25 -10 47q-16 34 -46.5 49.5t-63 24t-55.5 8.5h-24h-207z" />
<glyph unicode="S" horiz-adv-x="1112" d="M-109 406l238 -17q-4 -22 -4 -41q0 -54 33 -86q45 -43 123 -43q93 0 172.5 56t99.5 143q4 20 4 39q0 55 -36 92q-48 50 -118 53q-115 0 -206 53q-110 51 -155 147q-28 59 -28 133q0 45 11 95q27 128 109.5 226.5t189.5 148t219 49.5q195 0 303 -119q81 -90 80 -215 q0 -41 -8 -86l-236 17q4 23 4 42q0 51 -31 81q-43 40 -123 40q-97 0 -174.5 -56.5t-99.5 -156.5q-5 -22 -5 -42q0 -51 34 -81q47 -44 125 -44q18 0 43.5 -2.5t73.5 -16t85 -35.5q110 -50 154 -154q27 -64 27 -139q0 -47 -11 -98q-27 -129 -109 -224t-186.5 -140t-218.5 -45 q-200 5 -308 118q-80 84 -81 212q0 45 10 96z" />
<glyph unicode="T" horiz-adv-x="917" d="M-6 1214l47 220h840l-47 -220h-302l-258 -1214h-237l258 1214h-301z" />
<glyph unicode="U" horiz-adv-x="1515" d="M-26 534q4 36 8 50l180 850h1192l-185 -867q-2 -17 -11 -50.5t-40.5 -107t-75.5 -139.5q-106 -141 -253.5 -215.5t-319.5 -74.5q-188 0 -309.5 82.5t-159.5 236.5q-20 59 -25 129q-3 39 -3 67q0 23 2 39zM207 489q0 -8 -1 -17q0 -18 2 -40q2 -33 9 -61q60 -152 262 -152 q240 0 359 180q31 37 55.5 84t33.5 73t9 30l129 608h-717l-129 -610q-1 -5 -2.5 -13t-5 -33t-4.5 -49z" />
<glyph unicode="V" horiz-adv-x="1138" d="M4 1434h1145l-887 -1493zM299 1196l88 -610l352 610h-440z" />
<glyph unicode="W" horiz-adv-x="2050" d="M8 1434h252l129 -846l498 846h268l131 -846l498 846h266l-889 -1491l-196 1179l-701 -1179z" />
<glyph unicode="X" horiz-adv-x="1380" d="M-274 0l669 717l-356 717h285l254 -512l477 512h301l-668 -717l354 -717h-284l-252 512l-479 -512h-301z" />
<glyph unicode="Y" horiz-adv-x="1320" d="M4 1434h285l254 -512l477 512h301l-698 -756l-150 -678h-240l150 678z" />
<glyph unicode="Z" horiz-adv-x="972" d="M-242 0l734 1194h-478l52 240h837l-731 -1194h475l-51 -240h-838z" />
<glyph unicode="[" horiz-adv-x="704" d="M-145 0l305 1434h477l-51 -240h-238l-203 -954h238l-51 -240h-477z" />
<glyph unicode="\" horiz-adv-x="929" d="M4 1434h236l360 -1436h-235z" />
<glyph unicode="]" horiz-adv-x="720" d="M-223 0l51 240h240l202 954h-239l51 240h477l-305 -1434h-477z" />
<glyph unicode="^" horiz-adv-x="1216" d="M-88 1016l522 418l359 -418l-154 -125l-246 293l-368 -293z" />
<glyph unicode="_" horiz-adv-x="1103" d="M-264 -199l41 197h946l-41 -197h-946z" />
<glyph unicode="`" horiz-adv-x="542" d="M14 1325l142 174l329 -213l-131 -166z" />
<glyph unicode="a" d="M-309 0l882 1475l263 -1475h-250l-29 166h-506l-96 -166h-264zM174 373h348l-63 497z" />
<glyph unicode="b" horiz-adv-x="1234" d="M-143 0l305 1432h487q19 0 50 -2t106.5 -24t129 -61t85.5 -125q18 -49 19 -107q0 -45 -11 -97q-28 -128 -109.5 -203t-195.5 -102q70 -15 115 -53t61 -78q16 -42 20 -86q2 -25 2 -43q0 -14 -1 -24q-3 -23 -5 -30q-17 -79 -53 -143.5t-78.5 -105t-98 -70t-101.5 -44 t-100 -23t-82 -10t-58 -1.5h-487zM145 238h230q34 0 67.5 4.5t74 17.5t72.5 33.5t58.5 56.5t36.5 82q4 20 4 37q0 29 -11 51q-18 36 -51.5 50.5t-68.5 21t-61 5.5l-25 -1h-250zM272 836h250q9 0 25 2t57.5 13t75.5 29.5t67 57t44 90.5q5 23 5 42q0 14 -3 26q-6 28 -23 46.5 t-38.5 29t-45 15.5t-43.5 7q-12 1 -21 0h-12h-12h-250z" />
<glyph unicode="c" horiz-adv-x="1421" d="M-44 421q-13 62 -13 131q0 85 20 179q44 210 168 375t302.5 256.5t381.5 91.5q152 0 274 -57.5t203 -159.5l-192 -156q-51 64 -127.5 98.5t-167.5 34.5q-225 0 -390.5 -143.5t-213.5 -368.5q-14 -69 -14 -129q0 -133 69 -223q101 -132 297 -131q103 0 202 39.5t177 106.5 l145 -183q-117 -97 -255.5 -149.5t-278.5 -52.5q-152 0 -275.5 53t-202.5 151t-109 237z" />
<glyph unicode="d" horiz-adv-x="1355" d="M-143 0l305 1434h229q716 0 717 -522q0 -96 -25 -210q-27 -126 -76.5 -229.5t-110.5 -175t-140 -126t-156.5 -86.5t-167.5 -51.5t-166.5 -26.5t-159.5 -7h-249zM147 242q12 -2 33 -4q8 -1 22 0q23 0 62 2q63 2 122 14t135 45.5t136 84.5t113 140.5t78 206.5q16 78 16 141 q0 34 -5 63q-13 84 -54.5 136.5t-97 81.5t-116.5 39t-111 12q-14 0 -27 1q-33 0 -57 -3l-34 -4z" />
<glyph unicode="e" horiz-adv-x="1204" d="M-143 0l305 1434h956l-51 -240h-717l-76 -358h596l-51 -238h-596l-76 -358h717l-51 -240h-956z" />
<glyph unicode="f" horiz-adv-x="1187" d="M-143 0l305 1434h956l-51 -240h-717l-76 -358h596l-51 -238h-596l-127 -598h-239z" />
<glyph unicode="g" horiz-adv-x="1583" d="M-43 414q-10 56 -10 118q0 93 22 199q44 206 173 372.5t307.5 258.5t369.5 92q152 0 274 -57.5t203 -159.5l-192 -156q-51 64 -127.5 98.5t-167.5 34.5q-212 0 -384 -139.5t-222 -372.5q-16 -84 -16 -152q0 -36 5 -68q13 -92 65 -150.5t127 -85.5t173 -27q112 0 217.5 45 t190.5 123l53 217h-381l45 211h621l-175 -817h-208l22 125q-101 -79 -201 -111t-225 -32q-148 0 -266 50.5t-193 147t-100 236.5z" />
<glyph unicode="h" horiz-adv-x="1404" d="M-139 0l305 1434h240l-127 -594h595l127 594h240l-305 -1434h-240l127 598h-596l-127 -598h-239z" />
<glyph unicode="i" horiz-adv-x="573" d="M-137 0l305 1434h240l-306 -1434h-239z" />
<glyph unicode="j" horiz-adv-x="831" d="M-236 0l52 240h170q50 0 92.5 19t66.5 46.5t41 55t23 46.5l6 19l215 1010h240l-217 -1026q-18 -85 -55.5 -154t-82.5 -110.5t-95.5 -72t-97 -44t-84.5 -21t-60 -8.5h-23h-191z" />
<glyph unicode="k" horiz-adv-x="1323" d="M-143 0l305 1434h239l-157 -723l741 723h307l-751 -729l442 -705h-305l-322 545l-172 -152l-88 -393h-239z" />
<glyph unicode="l" horiz-adv-x="1026" d="M-143 0l305 1434h239l-254 -1194h531l-51 -240h-770z" />
<glyph unicode="m" horiz-adv-x="1875" d="M-145 0l305 1436h239l306 -1117l761 1117h248l-305 -1436h-240l193 881l-600 -881h-225l-246 899l-197 -899h-239z" />
<glyph unicode="n" horiz-adv-x="1519" d="M-143 0l305 1434h237l498 -1020l221 1020h238l-305 -1434h-238l-496 1020l-221 -1020h-239z" />
<glyph unicode="o" horiz-adv-x="1632" d="M-64 583q9 240 142 456q141 228 367 335q164 78 352 78q308 0 464 -195q121 -150 120 -374v-32q-8 -240 -141 -456q-140 -228 -365 -335q-164 -78 -351 -78q-310 0 -467 195q-121 152 -121 378v28zM198 726q-21 -82 -21 -155q0 -95 36 -174q69 -153 248 -179q34 -5 71 -5 q232 0 403 168q139 135 188 325q21 82 21 155q0 95 -36 174q-70 153 -249 179q-34 5 -71 5q-231 0 -402 -168q-139 -135 -188 -325z" />
<glyph unicode="p" horiz-adv-x="1187" d="M-143 -4l305 1438h489q6 0 16 -1t42 -5t59.5 -12t69 -23t70 -37.5t62.5 -54.5t46.5 -75t21.5 -100q4 -18 4 -37q0 -42 -14 -90q-18 -84 -58.5 -152t-90.5 -109.5t-106.5 -71.5t-109 -43t-95.5 -20.5t-69 -8.5h-26h-250l-127 -598h-239zM274 834h250q5 0 13.5 1t33 5.5 t48 11.5t53 22t53 34.5t43 50.5t27.5 69q4 19 4 36q0 15 -3 28q-7 27 -23.5 45t-38.5 29.5t-45.5 17t-43.5 8t-33 2.5h-12h-250z" />
<glyph unicode="q" horiz-adv-x="1693" d="M-54 498q-2 27 -2 55q0 86 17 178q31 146 107 277t185 230.5t254.5 157.5t303.5 58q107 0 200 -28t162.5 -78t122 -119.5t78.5 -153t32 -178.5q2 -20 2 -41q0 -75 -19 -154q-24 -115 -81 -228t-139 -198l121 -147l-198 -168l-121 148q-204 -129 -432 -129 q-130 0 -238 39.5t-181 109t-120 164t-54 205.5zM195 702q-13 -61 -13 -117q0 -64 17 -123q32 -110 123.5 -177.5t226.5 -67.5q133 0 274 74l-114 147l198 170l123 -145q43 54 77.5 126.5t49.5 141.5q13 73 13 140v9q-1 71 -27.5 132.5t-69.5 106t-113 70t-159 25.5 q-113 0 -217 -42t-181.5 -113t-132 -163t-75.5 -194z" />
<glyph unicode="r" horiz-adv-x="1226" d="M-145 0l305 1434h487q19 0 50 -3.5t106.5 -28t128.5 -65.5t85 -129q18 -49 18 -109q0 -46 -11 -98q-57 -272 -348 -368l147 -633h-256l-147 598h-199l-127 -598h-239zM272 836h248q5 0 13.5 1t33 5.5t48 11.5t53 22t53 34.5t43 50.5t27.5 69q4 18 4 35q0 25 -10 47 q-16 34 -46.5 49.5t-63 24t-55.5 8.5h-24h-248z" />
<glyph unicode="s" horiz-adv-x="1112" d="M-109 406l238 -17q-4 -22 -4 -41q0 -54 33 -86q45 -43 123 -43q94 0 173 55t97 142q4 20 4 39q-1 19 -5 37q-10 36 -32.5 59t-52.5 36t-62 15q-115 0 -206 53q-110 51 -155 147q-28 59 -28 133q0 45 11 95q27 128 109.5 226.5t189.5 148t219 49.5q195 0 303 -119 q81 -90 80 -215q0 -41 -8 -86l-236 17q4 23 4 42q0 51 -31 81q-43 40 -123 40q-97 0 -174.5 -56.5t-99.5 -156.5q-5 -22 -5 -42q0 -51 34 -81q47 -44 125 -44q18 0 43.5 -2.5t73.5 -16t85 -35.5q109 -52 153 -156q27 -63 26 -136q0 -48 -11 -101q-20 -97 -72 -176 t-122.5 -128.5t-152 -76t-165.5 -26.5q-200 5 -308 118q-80 84 -81 212q0 45 10 96z" />
<glyph unicode="t" horiz-adv-x="917" d="M-6 1214l47 220h840l-47 -220h-302l-258 -1214h-237l258 1214h-301z" />
<glyph unicode="u" horiz-adv-x="1398" d="M-43 467l205 967h239l-208 -983q-3 -23 -3 -44q0 -85 52 -131q64 -57 178 -57q128 0 238 67t135 181l204 967h240l-209 -983q-48 -222 -219 -346.5t-399 -124.5q-114 0 -208 35t-156 97q-64 63 -88 155q-13 47 -12 99q0 49 11 101z" />
<glyph unicode="v" horiz-adv-x="1146" d="M4 1434h252l129 -846l498 846h266l-885 -1471z" />
<glyph unicode="w" horiz-adv-x="2050" d="M8 1434h252l129 -846l498 846h268l131 -846l498 846h266l-889 -1491l-196 1179l-701 -1179z" />
<glyph unicode="x" horiz-adv-x="1380" d="M-274 0l669 717l-356 717h285l254 -512l477 512h301l-668 -717l354 -717h-284l-252 512l-479 -512h-301z" />
<glyph unicode="y" horiz-adv-x="1320" d="M4 1434h285l254 -512l477 512h301l-698 -756l-150 -678h-240l150 678z" />
<glyph unicode="z" horiz-adv-x="1193" d="M-309 0l989 1194h-670l51 240h1104l-987 -1194h729l-51 -240h-1165z" />
<glyph unicode="{" horiz-adv-x="708" d="M-182 717l291 133l127 584h399l-51 -240h-160l-203 -954h160l-51 -240h-400l127 584z" />
<glyph unicode="|" horiz-adv-x="575" d="M-158 0l305 1434h240l-305 -1434h-240z" />
<glyph unicode="}" horiz-adv-x="737" d="M-223 0l51 240h160l202 954h-159l51 240h399l-127 -584l242 -133l-293 -133l-127 -584h-399z" />
<glyph unicode="~" horiz-adv-x="950" d="M-123 600q40 109 116.5 163.5t166.5 51.5t182 -53l19.5 -6.5t22.5 -7l22 -5.5t24 -3t23 1.5t25.5 6t24 13t25.5 20.5t23 30l192 -72q-48 -90 -100.5 -140.5t-111.5 -61.5t-116.5 0.5t-131.5 44.5q-7 2 -25.5 8t-26 8t-23 6t-23.5 4.5t-21.5 0.5t-21.5 -3.5t-19.5 -9 t-19.5 -14.5t-17.5 -22t-17.5 -30z" />
<glyph unicode="&#xa1;" horiz-adv-x="565" d="M-147 -16l215 1015h239l-215 -1015h-239zM117 1313q10 51 51.5 86t91.5 35q63 0 100 -45t23 -105q-11 -51 -51.5 -87t-87.5 -36q-64 0 -101.5 45.5t-25.5 106.5z" />
<glyph unicode="&#xa2;" horiz-adv-x="1187" d="M-45 731q43 203 203 358.5t370 198.5l47 174h185l-45 -166q98 -10 181.5 -58.5t131.5 -119.5q8 0 13 -7t1 -11l-157 -131q-13 -11 -31 12h6q-65 74 -172 92l-172 -711q104 16 221 101l-4 2q14 10 25 -12l106 -134q9 -14 6 -30q-173 -134 -383 -154l-38 -137h-185l43 149 q-195 43 -295.5 207.5t-56.5 376.5zM188 702q-23 -112 16 -199.5t130 -125.5l164 676q-110 -39 -197 -135.5t-113 -215.5z" />
<glyph unicode="&#xa3;" horiz-adv-x="1212" d="M-186 498l53 250l211 6q50 82 72 125q183 242 417 393q82 46 168.5 79.5t146.5 48.5t120.5 23.5t79.5 9.5t34 1l-33 -250q-5 0 -22.5 -1.5t-60.5 -10t-89 -22.5t-109 -42.5t-120 -65.5q-191 -104 -328 -301l226 7l-54 -250l-311 -9q-59 -136 -88 -247l745 8l-53 -250 h-997l28 133q44 202 111 373z" />
<glyph unicode="&#xa5;" horiz-adv-x="1310" d="M4 1434h285l254 -512l477 512h301l-580 -625h166l-45 -211h-262l-20 -100h262l-45 -207h-262l-62 -291h-240l62 291h-270l45 207h270l20 100h-272l45 211h182z" />
<glyph unicode="&#xa7;" horiz-adv-x="851" d="M-150 285l170 -17q-9 -41 -2.5 -66t31.5 -44q35 -11 101 -11q13 0 46 13q18 7 31 16q89 26 107 115q17 72 -29 104q-40 13 -100 13l-15 2q-15 3 -32 7t-40.5 13t-41.5 21q-82 33 -116 108t-15 172q28 132 137 215q-75 86 -43 223q19 89 72.5 157t136.5 106q84 30 180 30 h4q3 -1 11 -2t17.5 -3t22 -5.5t25 -8t26 -10.5t25.5 -14q83 -33 117 -106t14 -166l-170 16q9 41 3 66.5t-31 44.5q-47 15 -97 8q-4 -1 -4 -2h-2q-2 0 -4 -0.5t-5.5 -0.5t-7.5 -1t-8.5 -2l-9 -2t-10 -2.5t-10.5 -4t-10.5 -5t-10.5 -5.5q-88 -29 -106 -116q-15 -74 29 -105 q35 -12 98 -12l12 -2q12 -1 24.5 -4t29 -7.5t34 -12t31.5 -17.5q82 -33 116 -108.5t15 -172.5q-28 -133 -137 -213q73 -96 43 -225q-40 -186 -209 -262q-85 -31 -182 -31q-22 0 -70 16q-33 11 -59 27q-83 33 -117.5 106.5t-14.5 166.5zM113 702q-14 -73 28 -104 q47 -12 101 -12h4q4 1 13 3t19 5t22 8.5t22 11.5q88 26 106 117q14 71 -29 103q-47 12 -100 12l-4 -1q-4 -1 -13 -3t-19 -5t-22 -8.5t-22 -11.5q-88 -26 -106 -115z" />
<glyph unicode="&#xa8;" horiz-adv-x="770" d="M10 1325q10 51 50.5 86t86.5 35q63 0 100 -45t25 -105q-10 -49 -51.5 -83.5t-89.5 -34.5q-61 0 -97 44t-24 103zM438 1325q10 51 50.5 86t86.5 35q63 0 100 -45t25 -105q-10 -49 -51.5 -83.5t-89.5 -34.5q-61 0 -97 44t-24 103z" />
<glyph unicode="&#xa9;" horiz-adv-x="1417" d="M-35 831q34 164 142 303t261.5 219.5t315.5 80.5q104 0 194.5 -32.5t155 -90t108 -137t53.5 -173t-9 -198.5q-27 -122 -97 -232.5t-166 -190t-216 -126.5t-242 -47q-172 0 -300 83.5t-182 227.5t-18 313zM117 803q-26 -119 11 -220t124.5 -159.5t204.5 -58.5 q129 0 252 63t209.5 170.5t113.5 232.5q38 185 -61.5 314t-280.5 129q-194 0 -363.5 -139t-209.5 -332zM305 834q25 115 120 195.5t204 80.5q123 0 205 -92l-72 -55q-39 51 -113 51q-86 0 -160.5 -61.5t-93.5 -147.5q-15 -74 23 -125t108 -51q90 0 162 61l70 -78 q-100 -80 -211 -80q-124 0 -196 90t-46 212z" />
<glyph unicode="&#xab;" horiz-adv-x="1021" d="M-127 655l471 478l133 -123l-332 -355l197 -319l-176 -129zM268 655l471 478l133 -123l-331 -355l196 -319l-176 -129z" />
<glyph unicode="&#xad;" horiz-adv-x="907" d="M-90 612l45 217h721l-45 -217h-721z" />
<glyph unicode="&#xae;" horiz-adv-x="1382" d="M-45 831q34 164 142 303t261.5 219.5t315.5 80.5q104 0 194.5 -32.5t155 -90t108 -137t53.5 -173t-9 -198.5q-27 -122 -97 -232.5t-166 -190t-216 -126.5t-242 -47q-172 0 -300 83.5t-182 227.5t-18 313zM123 803q-38 -174 59 -298t269 -124q190 0 352.5 132.5 t202.5 317.5q37 179 -57.5 302.5t-270.5 123.5q-123 0 -242 -61t-203.5 -165.5t-109.5 -227.5zM305 520l127 592h213q8 0 20.5 -2t44 -13t53 -28.5t34.5 -55t2 -87.5q-23 -111 -144 -146l60 -260h-103l-65 246h-86l-53 -246h-103zM481 866h111q4 0 10.5 1t23.5 7t31 14.5 t27.5 26t17.5 39.5q6 29 -13.5 43.5t-42.5 14.5h-23h-111z" />
<glyph unicode="&#xb0;" horiz-adv-x="747" d="M2 1165q26 124 130 211.5t226 87.5q137 0 215.5 -97t49.5 -230q-26 -124 -130.5 -211.5t-226.5 -87.5q-136 0 -214 96.5t-50 230.5zM160 1137q-12 -57 17 -96.5t83 -39.5q69 0 130 49t75 115q12 57 -17 97.5t-83 40.5q-69 0 -130 -50t-75 -116z" />
<glyph unicode="&#xb1;" horiz-adv-x="1060" d="M-199 59h844l45 211h-844zM-66 678l43 207h320l68 317h213l-68 -317h317l-43 -207h-317l-70 -324h-213l70 324h-320z" />
<glyph unicode="&#xb2;" horiz-adv-x="698" d="M-96 610l20 123l453 488q0 35 -18.5 55t-49.5 20q-49 0 -93.5 -34t-53.5 -76l-133 16q22 98 99.5 165t168.5 67q107 0 169 -74.5t40 -173.5v-15l-391 -423h299l-29 -138h-481z" />
<glyph unicode="&#xb3;" horiz-adv-x="681" d="M-31 860l135 -16q-9 -42 8.5 -68t53.5 -26q51 0 94.5 34.5t52.5 81.5q8 35 -7.5 58.5t-51.5 27.5l-70 2l31 138l49 2q41 6 77.5 39t45.5 75q8 38 -10 63t-53 25q-50 0 -94.5 -33.5t-53.5 -76.5l-133 16q22 98 99 165t169 67q106 0 167.5 -75.5t39.5 -178.5 q-24 -105 -108 -168q56 -75 34 -174q-20 -95 -97.5 -160.5t-168.5 -65.5q-107 0 -168 74t-41 174z" />
<glyph unicode="&#xb4;" horiz-adv-x="569" d="M12 1300l426 213l76 -172l-432 -208z" />
<glyph unicode="&#xb7;" horiz-adv-x="417" d="M-86 737q10 52 51.5 88.5t89.5 36.5q65 0 102 -45.5t25 -107.5q-11 -51 -52.5 -86t-92.5 -35q-63 0 -99.5 44.5t-23.5 104.5z" />
<glyph unicode="&#xb8;" horiz-adv-x="878" d="M-256 -137l190 -17q-12 -61 17.5 -101t83.5 -40q68 0 128 48.5t75 115.5q11 58 -19.5 95.5t-91.5 37.5l23 197q93 0 164 -48.5t102.5 -132t11.5 -178.5q-29 -138 -145 -235t-250 -97q-150 0 -235 106t-54 249z" />
<glyph unicode="&#xb9;" horiz-adv-x="546" d="M59 1360l197 74h119l-152 -709h-139l121 551l-119 -43z" />
<glyph unicode="&#xbb;" horiz-adv-x="1021" d="M-184 336l331 319l-180 355l174 123l279 -478l-469 -448zM211 336l332 319l-181 355l175 123l278 -478l-469 -448z" />
<glyph unicode="&#xbf;" horiz-adv-x="1003" d="M-139 426q29 135 140 234.5t259 125.5l64 250h217l-82 -432q-87 6 -156.5 -11.5t-111 -51t-65.5 -70t-32 -74.5q-21 -101 17.5 -139.5t115.5 -38.5q84 0 152.5 46t83.5 118l233 -16q-36 -169 -173.5 -278t-305.5 -109q-197 0 -298.5 117.5t-57.5 328.5zM350 1323 q17 80 91.5 109t134.5 -11t42 -127q-18 -80 -93 -109t-134.5 11t-40.5 127z" />
<glyph unicode="&#xc0;" d="M-309 0l882 1475l263 -1475h-250l-29 166h-506l-96 -166h-264zM174 373h348l-63 497zM401 1720l142 174l329 -213l-129 -165z" />
<glyph unicode="&#xc1;" d="M-309 0l882 1475l263 -1475h-250l-29 166h-506l-96 -166h-264zM174 373h348l-63 497zM379 1681l426 213l76 -172l-435 -209z" />
<glyph unicode="&#xc2;" d="M-309 0l882 1475l263 -1475h-250l-29 166h-506l-96 -166h-264zM174 373h348l-63 497zM266 1636l385 203l320 -190l-121 -158l-234 147l-278 -147z" />
<glyph unicode="&#xc3;" d="M-309 0l882 1475l263 -1475h-250l-29 166h-506l-96 -166h-264zM174 373h348l-63 497zM252 1587q34 100 99.5 149.5t141 47t150.5 -48.5q61 -22 90 -20q54 6 92 65l158 -66q-41 -83 -86.5 -129t-95.5 -56t-98 0.5t-109 41.5q-5 2 -26 9t-27 8.5t-23.5 5t-24.5 2t-21.5 -5 t-23 -12t-19 -22t-19.5 -32.5z" />
<glyph unicode="&#xc4;" d="M-309 0l882 1475l263 -1475h-250l-29 166h-506l-96 -166h-264zM174 373h348l-63 497zM272 1669q10 50 52 85.5t88 35.5q63 0 100 -45t23 -105q-9 -49 -50.5 -83.5t-89.5 -34.5q-61 0 -98 44t-25 103zM700 1669q10 50 52 85.5t88 35.5q63 0 100 -45t23 -105 q-9 -49 -50.5 -83.5t-89.5 -34.5q-61 0 -98 44t-25 103z" />
<glyph unicode="&#xc5;" d="M-309 0l745 1221q-73 30 -111 105t-18 165q23 109 114 185.5t197 76.5q121 0 191 -86t45 -205q-19 -85 -78 -150.5t-147 -94.5l207 -1217h-252l-27 166h-506l-96 -166h-264zM174 373h348l-63 497zM463 1462q-9 -43 12.5 -71.5t61.5 -28.5q55 0 102.5 38t58.5 91 q9 43 -11 72.5t-60 29.5q-55 0 -104 -39t-60 -92z" />
<glyph unicode="&#xc6;" horiz-adv-x="1617" d="M-313 0l1058 1427l7 7h4l-4 2l6 -2h745l-49 -234h-512l-78 -364h416l-49 -230h-416l-80 -375h537l-49 -231h-777l35 166h-387l-123 -166h-284zM250 391h280l70 318l84 319l-213 -338z" />
<glyph unicode="&#xc7;" horiz-adv-x="1421" d="M-49.5 538.5q-8.5 92.5 14.5 192.5q40 191 168 353t308.5 256t369.5 94q152 0 274 -57.5t201 -159.5l-190 -156q-51 64 -127.5 98.5t-167.5 34.5q-135 0 -263.5 -66t-219.5 -179.5t-119 -246.5q-27 -127 11 -233.5t130 -167.5t217 -61q103 0 202.5 39t176.5 106l145 -182 q-132 -109 -309 -172q57 -82 35 -191q-29 -138 -145 -235t-250 -97q-152 0 -238 94.5t-57 235.5l192 -16q-13 -58 17 -87.5t88 -29.5q68 0 127.5 48.5t74.5 115.5q10 52 -12 88.5t-65 44.5q-98 0 -187 26.5t-158 74.5t-123 114.5t-83 147.5t-37.5 173.5z" />
<glyph unicode="&#xc8;" horiz-adv-x="1204" d="M-143 0l305 1434h956l-51 -240h-717l-76 -358h596l-51 -238h-596l-76 -358h717l-51 -240h-956zM487 1745l142 174l329 -213l-129 -166z" />
<glyph unicode="&#xc9;" horiz-adv-x="1204" d="M-143 0l305 1434h956l-51 -240h-717l-76 -358h596l-51 -238h-596l-76 -358h717l-51 -240h-956zM475 1710l426 213l76 -172l-434 -209z" />
<glyph unicode="&#xca;" horiz-adv-x="1204" d="M-143 0l305 1434h956l-51 -240h-717l-76 -358h596l-51 -238h-596l-76 -358h717l-51 -240h-956zM369 1673l385 203l319 -190l-121 -158l-233 147l-279 -147z" />
<glyph unicode="&#xcb;" horiz-adv-x="1204" d="M-143 0l305 1434h956l-51 -240h-717l-76 -358h596l-51 -238h-596l-76 -358h717l-51 -240h-956zM387 1683q10 51 50.5 86t86.5 35q63 0 100 -44.5t25 -104.5q-10 -49 -51 -84t-88 -35q-61 0 -98 44t-25 103zM815 1683q10 51 50.5 86t86.5 35q63 0 100 -44.5t25 -104.5 q-10 -49 -51 -84t-88 -35q-61 0 -98 44t-25 103z" />
<glyph unicode="&#xcc;" horiz-adv-x="716" d="M-238 0l48 219h167l211 995h-159l47 220h559l-47 -220h-160l-211 -995h168l-47 -219h-576zM182 1735l142 174l329 -213l-129 -166z" />
<glyph unicode="&#xcd;" horiz-adv-x="716" d="M-238 0l48 219h167l211 995h-159l47 220h559l-47 -220h-160l-211 -995h168l-47 -219h-576zM166 1690l426 213l76 -172l-435 -209z" />
<glyph unicode="&#xce;" horiz-adv-x="716" d="M-238 0l48 219h167l211 995h-159l47 220h559l-47 -220h-160l-211 -995h168l-47 -219h-576zM63 1681l386 203l319 -190l-121 -158l-233 147l-279 -147z" />
<glyph unicode="&#xcf;" horiz-adv-x="716" d="M-238 0l48 219h167l211 995h-159l47 220h559l-47 -220h-160l-211 -995h168l-47 -219h-576zM68 1692q10 51 50.5 85.5t86.5 34.5q63 0 100 -44.5t25 -104.5q-10 -49 -52 -84t-90 -35q-61 0 -96.5 44.5t-23.5 103.5zM496 1692q10 51 50.5 85.5t86.5 34.5q63 0 100 -44.5 t25 -104.5q-10 -49 -52 -84t-90 -35q-61 0 -96.5 44.5t-23.5 103.5z" />
<glyph unicode="&#xd0;" horiz-adv-x="1355" d="M-172 598l47 217h156l131 619h229q848 0 692 -732q-27 -126 -76.5 -229.5t-110.5 -175t-140 -126t-156.5 -86.5t-167.5 -51.5t-166.5 -26.5t-159.5 -7h-249l127 598h-156zM147 242q12 -2 33 -3.5t84 1t122 14.5t135 45.5t136 84.5t113 140.5t78 206.5q24 120 11 204 t-54.5 136.5t-97 81.5t-116.5 39.5t-111.5 12t-83.5 -2.5l-34 -4l-92 -383h269l-47 -217h-269z" />
<glyph unicode="&#xd1;" horiz-adv-x="1519" d="M-143 0l305 1434h237l498 -1020l221 1020h238l-305 -1434h-238l-496 1020l-221 -1020h-239zM455 1638q35 100 100 149.5t140.5 47t152.5 -48.5q3 -1 8 -3q20 -8 31.5 -11.5t33 -5.5t37 3.5t34.5 20.5t36 41l158 -66q-41 -83 -86 -129t-94.5 -56t-97.5 0.5t-109 41.5 q-6 2 -26.5 8.5t-27.5 8.5t-24 5.5t-24.5 2t-21.5 -5t-22.5 -12t-19 -22t-19.5 -32.5z" />
<glyph unicode="&#xd2;" horiz-adv-x="1306" d="M-135 0l51 238h946l-51 -238h-946zM10 936q46 215 228.5 366.5t394.5 151.5q149 0 260.5 -74t159 -200t16.5 -273q-29 -141 -122.5 -260.5t-226 -188.5t-271.5 -69q-149 0 -261.5 74t-160.5 200t-17 273zM242 907q-25 -118 37 -199t178 -81q131 0 243 91t138 218 q26 118 -36.5 199.5t-178.5 81.5q-130 0 -241.5 -91t-139.5 -219zM477 1735l141 174l330 -213l-129 -166z" />
<glyph unicode="&#xd3;" horiz-adv-x="1306" d="M-135 0l51 238h946l-51 -238h-946zM10 936q46 215 228.5 366.5t394.5 151.5q149 0 260.5 -74t159 -200t16.5 -273q-29 -141 -122.5 -260.5t-226 -188.5t-271.5 -69q-149 0 -261.5 74t-160.5 200t-17 273zM242 907q-25 -118 37 -199t178 -81q131 0 243 91t138 218 q26 118 -36.5 199.5t-178.5 81.5q-130 0 -241.5 -91t-139.5 -219zM465 1710l426 213l76 -172l-435 -209z" />
<glyph unicode="&#xd4;" horiz-adv-x="1306" d="M-135 0l51 238h946l-51 -238h-946zM10 936q46 215 228.5 366.5t394.5 151.5q149 0 260.5 -74t159 -200t16.5 -273q-29 -141 -122.5 -260.5t-226 -188.5t-271.5 -69q-149 0 -261.5 74t-160.5 200t-17 273zM242 907q-25 -118 37 -199t178 -81q131 0 243 91t138 218 q26 118 -36.5 199.5t-178.5 81.5q-130 0 -241.5 -91t-139.5 -219zM352 1669l385 203l322 -191l-123 -157l-231 147l-281 -147z" />
<glyph unicode="&#xd5;" horiz-adv-x="1306" d="M-135 0l51 238h946l-51 -238h-946zM10 936q46 215 228.5 366.5t394.5 151.5q149 0 260.5 -74t159 -200t16.5 -273q-29 -141 -122.5 -260.5t-226 -188.5t-271.5 -69q-149 0 -261.5 74t-160.5 200t-17 273zM242 907q-25 -118 37 -199t178 -81q131 0 243 91t138 218 q26 118 -36.5 199.5t-178.5 81.5q-130 0 -241.5 -91t-139.5 -219zM340 1620q35 100 100.5 149.5t140.5 46.5t152 -49q3 -1 8 -3q20 -8 31.5 -11.5t33 -5.5t37 3.5t34.5 20.5t36 41l160 -65q-34 -67 -70.5 -109t-72.5 -61.5t-78 -20t-81 11.5t-87 36q-5 2 -26.5 8.5 t-27.5 8.5t-23.5 5.5t-24.5 1.5t-21 -5.5t-22.5 -12t-19 -22t-19.5 -32.5z" />
<glyph unicode="&#xd6;" horiz-adv-x="1306" d="M-135 0l51 238h946l-51 -238h-946zM10 936q46 215 228.5 366.5t394.5 151.5q149 0 260.5 -74t159 -200t16.5 -273q-29 -141 -122.5 -260.5t-226 -188.5t-271.5 -69q-149 0 -261.5 74t-160.5 200t-17 273zM242 907q-25 -118 37 -199t178 -81q131 0 243 91t138 218 q26 118 -36.5 199.5t-178.5 81.5q-130 0 -241.5 -91t-139.5 -219zM356 1673q10 51 51 86t87 35q63 0 99.5 -44.5t24.5 -104.5q-10 -49 -51 -84t-88 -35q-61 0 -98 44t-25 103zM784 1673q10 51 51 86t87 35q63 0 100 -44.5t25 -104.5q-10 -49 -51.5 -84t-88.5 -35 q-61 0 -98 44t-25 103z" />
<glyph unicode="&#xd7;" horiz-adv-x="825" d="M-166 483l258 213l-170 211l168 146l170 -215l258 213l119 -144l-258 -211l168 -213l-168 -143l-166 213l-260 -213z" />
<glyph unicode="&#xd8;" horiz-adv-x="1306" d="M-135 0l51 238h946l-51 -238h-946zM-92 326l186 198q-63 77 -87.5 177.5t-0.5 213.5q46 215 228.5 367t394.5 152q123 0 219 -54l102 107h258l-213 -230q53 -75 72 -166.5t-2 -203.5q-46 -215 -228.5 -366.5t-394.5 -151.5q-111 0 -198 41l-84 -84h-252zM238 887 q-20 -107 14 -174l440 473q-31 10 -74 10q-130 0 -241 -90.5t-139 -218.5zM403 610q18 -4 50 -4q131 0 243 91t138 218q17 73 -7 150z" />
<glyph unicode="&#xd9;" horiz-adv-x="1515" d="M-26 533.5q4 36.5 8 50.5l180 850h1192l-185 -867q-2 -17 -11 -50.5t-40.5 -107t-75.5 -139.5q-106 -141 -253.5 -215.5t-319.5 -74.5q-188 0 -309.5 82.5t-159.5 236.5q-20 59 -25 128.5t-1 106zM207 489q-1 -24 1 -57t9 -61q60 -152 262 -152q240 0 359 180 q31 37 55.5 84t33.5 73t9 30l129 608h-717l-129 -610q-1 -5 -2.5 -13t-5 -33t-4.5 -49zM582 1735l141 174l330 -213l-129 -166z" />
<glyph unicode="&#xda;" horiz-adv-x="1515" d="M-26 533.5q4 36.5 8 50.5l180 850h1192l-185 -867q-2 -17 -11 -50.5t-40.5 -107t-75.5 -139.5q-106 -141 -253.5 -215.5t-319.5 -74.5q-188 0 -309.5 82.5t-159.5 236.5q-20 59 -25 128.5t-1 106zM207 489q-1 -24 1 -57t9 -61q60 -152 262 -152q240 0 359 180 q31 37 55.5 84t33.5 73t9 30l129 608h-717l-129 -610q-1 -5 -2.5 -13t-5 -33t-4.5 -49zM569 1710l426 213l76 -172l-434 -209z" />
<glyph unicode="&#xdb;" horiz-adv-x="1515" d="M-26 533.5q4 36.5 8 50.5l180 850h1192l-185 -867q-2 -17 -11 -50.5t-40.5 -107t-75.5 -139.5q-106 -141 -253.5 -215.5t-319.5 -74.5q-188 0 -309.5 82.5t-159.5 236.5q-20 59 -25 128.5t-1 106zM207 489q-1 -24 1 -57t9 -61q60 -152 262 -152q240 0 359 180 q31 37 55.5 84t33.5 73t9 30l129 608h-717l-129 -610q-1 -5 -2.5 -13t-5 -33t-4.5 -49zM465 1700l385 203l319 -191l-120 -158l-234 148l-278 -148z" />
<glyph unicode="&#xdc;" horiz-adv-x="1515" d="M-26 533.5q4 36.5 8 50.5l180 850h1192l-185 -867q-2 -17 -11 -50.5t-40.5 -107t-75.5 -139.5q-106 -141 -253.5 -215.5t-319.5 -74.5q-188 0 -309.5 82.5t-159.5 236.5q-20 59 -25 128.5t-1 106zM207 489q-1 -24 1 -57t9 -61q60 -152 262 -152q240 0 359 180 q31 37 55.5 84t33.5 73t9 30l129 608h-717l-129 -610q-1 -5 -2.5 -13t-5 -33t-4.5 -49zM467 1704q10 50 51.5 85.5t87.5 35.5q63 0 99 -45t24 -105q-10 -49 -51 -84t-88 -35q-61 0 -98 44.5t-25 103.5zM895 1704q10 50 51.5 85.5t87.5 35.5q63 0 99 -45t24 -105 q-10 -49 -51 -84t-88 -35q-61 0 -98 44.5t-25 103.5z" />
<glyph unicode="&#xdd;" horiz-adv-x="1320" d="M4 1434h285l254 -512l477 512h301l-698 -756l-150 -678h-240l150 678zM467 1688l426 213l78 -172l-434 -209z" />
<glyph unicode="&#xde;" horiz-adv-x="1193" d="M-143 0l116 545h232l-152 358l109 533h239l-61 -293h248q19 0 50 -3t106 -27.5t128 -65.5t84.5 -129t6.5 -207q-14 -66 -42 -122t-63.5 -95t-77 -70.5t-84.5 -50.5t-84.5 -33t-78 -20t-64 -9.5t-43.5 -3.5h-16h-248l-66 -307h-239zM330 903l141 -356q24 3 49.5 9t61 20.5 t64 34.5t52.5 53.5t33 74.5q10 48 -6 82.5t-46.5 49.5t-62.5 23.5t-56 8.5h-23h-207z" />
<glyph unicode="&#xdf;" horiz-adv-x="1212" d="M-143 0l305 1432h487q19 0 50 -3.5t106 -28t128 -65.5t84.5 -129t6.5 -207q-12 -57 -35 -104t-48 -76t-56.5 -50.5t-56 -31.5t-50.5 -16t-36.5 -7t-16.5 -1q62 -10 104.5 -45.5t58.5 -77t22 -86t4.5 -70.5t-3.5 -31q-18 -84 -59 -151.5t-92 -108.5t-109 -71t-112 -43.5 t-98 -20.5t-71 -8h-26l39 229q5 0 14.5 1t37 6.5t53.5 13.5t58.5 24t58 36.5t46.5 52t29 69.5q10 48 -7.5 82.5t-50 49.5t-67 23.5t-59.5 8.5h-25l39 231q10 1 26.5 3t61 15t80 32.5t70 59t45.5 91.5q7 37 0.5 63.5t-24.5 45.5t-40.5 31t-47 19.5t-45 10.5t-33.5 5t-13 3 l-223 -8l-258 -1198h-252z" />
<glyph unicode="&#xe0;" d="M-309 0l882 1475l263 -1475h-250l-29 166h-506l-96 -166h-264zM174 373h348l-63 497zM401 1720l142 174l329 -213l-129 -165z" />
<glyph unicode="&#xe1;" d="M-309 0l882 1475l263 -1475h-250l-29 166h-506l-96 -166h-264zM174 373h348l-63 497zM379 1681l426 213l76 -172l-435 -209z" />
<glyph unicode="&#xe2;" d="M-309 0l882 1475l263 -1475h-250l-29 166h-506l-96 -166h-264zM174 373h348l-63 497zM266 1636l385 203l320 -190l-121 -158l-234 147l-278 -147z" />
<glyph unicode="&#xe3;" d="M-309 0l882 1475l263 -1475h-250l-29 166h-506l-96 -166h-264zM174 373h348l-63 497zM252 1587q34 100 99.5 149.5t141 47t150.5 -48.5q61 -22 90 -20q54 6 92 65l158 -66q-41 -83 -86.5 -129t-95.5 -56t-98 0.5t-109 41.5q-5 2 -26 9t-27 8.5t-23.5 5t-24.5 2t-21.5 -5 t-23 -12t-19 -22t-19.5 -32.5z" />
<glyph unicode="&#xe4;" d="M-309 0l882 1475l263 -1475h-250l-29 166h-506l-96 -166h-264zM174 373h348l-63 497zM272 1669q10 50 52 85.5t88 35.5q63 0 100 -45t23 -105q-9 -49 -50.5 -83.5t-89.5 -34.5q-61 0 -98 44t-25 103zM700 1669q10 50 52 85.5t88 35.5q63 0 100 -45t23 -105 q-9 -49 -50.5 -83.5t-89.5 -34.5q-61 0 -98 44t-25 103z" />
<glyph unicode="&#xe5;" d="M-309 0l745 1221q-73 30 -111 105t-18 165q23 109 114 185.5t197 76.5q121 0 191 -86t45 -205q-19 -85 -78 -150.5t-147 -94.5l207 -1217h-252l-27 166h-506l-96 -166h-264zM174 373h348l-63 497zM463 1462q-9 -43 12.5 -71.5t61.5 -28.5q55 0 102.5 38t58.5 91 q9 43 -11 72.5t-60 29.5q-55 0 -104 -39t-60 -92z" />
<glyph unicode="&#xe6;" horiz-adv-x="1617" d="M-313 0l1058 1427l7 7h4l-4 2l6 -2h745l-49 -234h-512l-78 -364h416l-49 -230h-416l-80 -375h537l-49 -231h-777l35 166h-387l-123 -166h-284zM250 391h280l70 318l84 319l-213 -338z" />
<glyph unicode="&#xe7;" horiz-adv-x="1421" d="M-49.5 538.5q-8.5 92.5 14.5 192.5q40 191 168 353t308.5 256t369.5 94q152 0 274 -57.5t201 -159.5l-190 -156q-51 64 -127.5 98.5t-167.5 34.5q-135 0 -263.5 -66t-219.5 -179.5t-119 -246.5q-27 -127 11 -233.5t130 -167.5t217 -61q103 0 202.5 39t176.5 106l145 -182 q-132 -109 -309 -172q57 -82 35 -191q-29 -138 -145 -235t-250 -97q-152 0 -238 94.5t-57 235.5l192 -16q-13 -58 17 -87.5t88 -29.5q68 0 127.5 48.5t74.5 115.5q10 52 -12 88.5t-65 44.5q-98 0 -187 26.5t-158 74.5t-123 114.5t-83 147.5t-37.5 173.5z" />
<glyph unicode="&#xe8;" horiz-adv-x="1204" d="M-143 0l305 1434h956l-51 -240h-717l-76 -358h596l-51 -238h-596l-76 -358h717l-51 -240h-956zM487 1745l142 174l329 -213l-129 -166z" />
<glyph unicode="&#xe9;" horiz-adv-x="1204" d="M-143 0l305 1434h956l-51 -240h-717l-76 -358h596l-51 -238h-596l-76 -358h717l-51 -240h-956zM475 1710l426 213l76 -172l-434 -209z" />
<glyph unicode="&#xea;" horiz-adv-x="1204" d="M-143 0l305 1434h956l-51 -240h-717l-76 -358h596l-51 -238h-596l-76 -358h717l-51 -240h-956zM369 1673l385 203l319 -190l-121 -158l-233 147l-279 -147z" />
<glyph unicode="&#xeb;" horiz-adv-x="1204" d="M-143 0l305 1434h956l-51 -240h-717l-76 -358h596l-51 -238h-596l-76 -358h717l-51 -240h-956zM387 1683q10 51 50.5 86t86.5 35q63 0 100 -44.5t25 -104.5q-10 -49 -51 -84t-88 -35q-61 0 -98 44t-25 103zM815 1683q10 51 50.5 86t86.5 35q63 0 100 -44.5t25 -104.5 q-10 -49 -51 -84t-88 -35q-61 0 -98 44t-25 103z" />
<glyph unicode="&#xec;" horiz-adv-x="573" d="M-137 0l305 1434h240l-306 -1434h-239zM106 1710l142 174l330 -213l-132 -166z" />
<glyph unicode="&#xed;" horiz-adv-x="573" d="M-137 0l305 1434h240l-306 -1434h-239zM94 1683l426 213l76 -172l-432 -208z" />
<glyph unicode="&#xee;" horiz-adv-x="573" d="M-137 0l305 1434h240l-306 -1434h-239zM-16 1647l385 202l319 -190l-121 -158l-233 148l-279 -148z" />
<glyph unicode="&#xef;" horiz-adv-x="573" d="M-137 0l305 1434h240l-306 -1434h-239zM-12 1669q10 50 51.5 85.5t87.5 35.5q63 0 100 -45t23 -105q-9 -49 -50 -83.5t-89 -34.5q-61 0 -98 44t-25 103zM416 1669q10 50 51.5 85.5t87.5 35.5q63 0 100 -45t23 -105q-9 -49 -50 -83.5t-89 -34.5q-61 0 -98 44t-25 103z" />
<glyph unicode="&#xf0;" horiz-adv-x="1355" d="M-172 598l47 217h156l131 619h229q848 0 692 -732q-27 -126 -76.5 -229.5t-110.5 -175t-140 -126t-156.5 -86.5t-167.5 -51.5t-166.5 -26.5t-159.5 -7h-249l127 598h-156zM147 242q12 -2 33 -3.5t84 1t122 14.5t135 45.5t136 84.5t113 140.5t78 206.5q24 120 11 204 t-54.5 136.5t-97 81.5t-116.5 39.5t-111.5 12t-83.5 -2.5l-34 -4l-92 -383h269l-47 -217h-269z" />
<glyph unicode="&#xf1;" horiz-adv-x="1519" d="M-143 0l305 1434h237l498 -1020l221 1020h238l-305 -1434h-238l-496 1020l-221 -1020h-239zM455 1638q35 100 100 149.5t140.5 47t152.5 -48.5q3 -1 8 -3q20 -8 31.5 -11.5t33 -5.5t37 3.5t34.5 20.5t36 41l158 -66q-41 -83 -86 -129t-94.5 -56t-97.5 0.5t-109 41.5 q-6 2 -26.5 8.5t-27.5 8.5t-24 5.5t-24.5 2t-21.5 -5t-22.5 -12t-19 -22t-19.5 -32.5z" />
<glyph unicode="&#xf2;" horiz-adv-x="1632" d="M-64 583q9 240 142 456q141 228 367 335q164 78 352 78q308 0 464 -195q129 -161 120 -406q-8 -240 -141 -456q-140 -228 -365 -335q-164 -78 -351 -78q-310 0 -467 195q-129 161 -121 406zM198 726q-49 -189 15 -329q69 -153 248 -179q34 -5 71 -5q232 0 403 168 q139 135 188 325q49 189 -15 329q-70 153 -249 179q-34 5 -71 5q-231 0 -402 -168q-139 -135 -188 -325zM639 1745l141 174l330 -213l-129 -166z" />
<glyph unicode="&#xf3;" horiz-adv-x="1632" d="M-64 583q9 240 142 456q141 228 367 335q164 78 352 78q308 0 464 -195q129 -161 120 -406q-8 -240 -141 -456q-140 -228 -365 -335q-164 -78 -351 -78q-310 0 -467 195q-129 161 -121 406zM198 726q-49 -189 15 -329q69 -153 248 -179q34 -5 71 -5q232 0 403 168 q139 135 188 325q49 189 -15 329q-70 153 -249 179q-34 5 -71 5q-231 0 -402 -168q-139 -135 -188 -325zM643 1710l426 213l76 -172l-434 -209z" />
<glyph unicode="&#xf4;" horiz-adv-x="1632" d="M-64 583q9 240 142 456q141 228 367 335q164 78 352 78q308 0 464 -195q129 -161 120 -406q-8 -240 -141 -456q-140 -228 -365 -335q-164 -78 -351 -78q-310 0 -467 195q-129 161 -121 406zM198 726q-49 -189 15 -329q69 -153 248 -179q34 -5 71 -5q232 0 403 168 q139 135 188 325q49 189 -15 329q-70 153 -249 179q-34 5 -71 5q-231 0 -402 -168q-139 -135 -188 -325zM518 1673l385 203l320 -190l-121 -158l-234 147l-278 -147z" />
<glyph unicode="&#xf5;" horiz-adv-x="1632" d="M-64 583q9 240 142 456q141 228 367 335q164 78 352 78q308 0 464 -195q129 -161 120 -406q-8 -240 -141 -456q-140 -228 -365 -335q-164 -78 -351 -78q-310 0 -467 195q-129 161 -121 406zM198 726q-49 -189 15 -329q69 -153 248 -179q34 -5 71 -5q232 0 403 168 q139 135 188 325q49 189 -15 329q-70 153 -249 179q-34 5 -71 5q-231 0 -402 -168q-139 -135 -188 -325zM518 1636q35 100 100.5 149.5t140.5 47t150 -48.5q62 -23 92 -20q53 5 91 65l157 -66q-41 -83 -86.5 -129t-95.5 -56t-98 0.5t-109 41.5q-5 2 -26 9t-27 8.5t-23.5 5 t-24.5 2t-21.5 -5t-23 -12t-19 -22t-19.5 -32.5z" />
<glyph unicode="&#xf6;" horiz-adv-x="1632" d="M-64 583q9 240 142 456q141 228 367 335q164 78 352 78q308 0 464 -195q129 -161 120 -406q-8 -240 -141 -456q-140 -228 -365 -335q-164 -78 -351 -78q-310 0 -467 195q-129 161 -121 406zM198 726q-49 -189 15 -329q69 -153 248 -179q34 -5 71 -5q232 0 403 168 q139 135 188 325q49 189 -15 329q-70 153 -249 179q-34 5 -71 5q-231 0 -402 -168q-139 -135 -188 -325zM522 1696q10 50 52 85.5t88 35.5q63 0 99.5 -45t22.5 -105q-10 -49 -51 -84t-88 -35q-61 0 -98 44.5t-25 103.5zM950 1696q10 50 52 85.5t88 35.5q63 0 99.5 -45 t22.5 -105q-10 -49 -51 -84t-88 -35q-61 0 -98 44.5t-25 103.5z" />
<glyph unicode="&#xf7;" horiz-adv-x="1003" d="M-104 590h870l45 211h-870zM143 362q10 54 53.5 90.5t94.5 36.5q67 0 106 -46t25 -109q-12 -54 -55 -90.5t-95 -36.5q-66 0 -104.5 46t-24.5 109zM289 1049q10 54 53 90.5t94 36.5q67 0 106 -46.5t25 -109.5q-10 -54 -53 -90.5t-96 -36.5q-66 0 -104.5 46.5t-24.5 109.5z " />
<glyph unicode="&#xf8;" horiz-adv-x="1632" d="M-127 -133l221 272q-69 69 -108 164t-46 199.5t15 216.5t69 217t123.5 199.5t171 164.5t218.5 111t260 41q141 0 258 -45l131 160h252l-217 -267q70 -68 109.5 -163t47.5 -199.5t-13.5 -217t-68 -217.5t-122.5 -199.5t-170.5 -164.5t-218 -111.5t-259.5 -41.5 q-156 0 -270 49l-137 -168h-246zM179.5 505q12.5 -92 60.5 -159l675 854q-65 19 -127 19q-117 0 -222.5 -46t-180 -120t-127 -169t-72 -191t-7 -188zM393 238q65 -21 142 -21q102 0 195.5 34.5t163 93t125 133.5t85 159t39.5 166.5t-7.5 159t-60.5 133.5z" />
<glyph unicode="&#xf9;" horiz-adv-x="1398" d="M-43 467l205 967h239l-208 -983q-16 -118 48.5 -175t178.5 -57q128 0 238 67t135 181l204 967h240l-209 -983q-48 -222 -219 -346.5t-399 -124.5q-114 0 -208 35t-156.5 97.5t-87 154.5t-1.5 200zM492 1720l141 174l330 -213l-129 -165z" />
<glyph unicode="&#xfa;" horiz-adv-x="1398" d="M-43 467l205 967h239l-208 -983q-16 -118 48.5 -175t178.5 -57q128 0 238 67t135 181l204 967h240l-209 -983q-48 -222 -219 -346.5t-399 -124.5q-114 0 -208 35t-156.5 97.5t-87 154.5t-1.5 200zM520 1677l426 213l78 -172l-434 -209z" />
<glyph unicode="&#xfb;" horiz-adv-x="1398" d="M-43 467l205 967h239l-208 -983q-16 -118 48.5 -175t178.5 -57q128 0 238 67t135 181l204 967h240l-209 -983q-48 -222 -219 -346.5t-399 -124.5q-114 0 -208 35t-156.5 97.5t-87 154.5t-1.5 200zM399 1669l385 203l322 -191l-123 -157l-231 147l-281 -147z" />
<glyph unicode="&#xfc;" horiz-adv-x="1398" d="M-43 467l205 967h239l-208 -983q-16 -118 48.5 -175t178.5 -57q128 0 238 67t135 181l204 967h240l-209 -983q-48 -222 -219 -346.5t-399 -124.5q-114 0 -208 35t-156.5 97.5t-87 154.5t-1.5 200zM403 1686q10 50 51.5 85t88.5 35q63 0 99 -44.5t24 -104.5 q-10 -49 -51.5 -84t-88.5 -35q-61 0 -98 44.5t-25 103.5zM831 1686q10 50 51.5 85t88.5 35q63 0 99 -44.5t24 -104.5q-10 -49 -51.5 -84t-88.5 -35q-61 0 -98 44.5t-25 103.5z" />
<glyph unicode="&#xfd;" horiz-adv-x="1320" d="M4 1434h285l254 -512l477 512h301l-698 -756l-150 -678h-240l150 678zM477 1694l426 213l76 -172l-432 -209z" />
<glyph unicode="&#xfe;" horiz-adv-x="1187" d="M-143 -4l305 1438h239l-59 -279h250q6 0 16 -1t42 -5t59.5 -12t69 -23t70 -37t62.5 -54t46.5 -75t22 -99.5t-10.5 -127.5q-18 -84 -58.5 -152.5t-90.5 -109.5t-106.5 -71.5t-109 -43.5t-95.5 -20.5t-69 -7.5l-26 -1h-250l-68 -319h-239zM215 555h250q9 0 25 2t58 13.5 t76 30t67 58t44 91.5q7 37 1 64t-23 45t-38.5 29t-45.5 16.5t-43.5 8t-31.5 2.5h-13h-250z" />
<glyph unicode="&#xff;" horiz-adv-x="1320" d="M4 1434h285l254 -512l477 512h301l-698 -756l-150 -678h-240l150 678zM365 1683q10 51 50.5 86t86.5 35q63 0 100 -44.5t25 -104.5q-10 -49 -51.5 -84t-88.5 -35q-61 0 -97.5 44t-24.5 103zM793 1683q10 51 50.5 86t86.5 35q63 0 100 -44.5t25 -104.5q-10 -49 -51.5 -84 t-88.5 -35q-61 0 -97.5 44t-24.5 103z" />
<glyph unicode="&#x152;" horiz-adv-x="1937" d="M-40 589q10 241 144 458q139 227 362 332q155 73 331 73q95 0 180 -20l813 2l-49 -230h-586l-78 -368h494l-49 -228h-494l-78 -372h615l-52 -236h-831q-74 -14 -156 -14q-300 0 -451 195q-125 161 -115 408zM233 723q-50 -200 11 -345q64 -155 231 -177q26 -4 55 -4 q88 0 181 28l229 989q-70 25 -147 25q-213 0 -375 -172q-134 -143 -185 -344z" />
<glyph unicode="&#x153;" horiz-adv-x="1937" d="M-40 589q10 241 144 458q139 227 362 332q155 73 331 73q95 0 180 -20l813 2l-49 -230h-586l-78 -368h494l-49 -228h-494l-78 -372h615l-52 -236h-831q-74 -14 -156 -14q-300 0 -451 195q-125 161 -115 408zM233 723q-50 -200 11 -345q64 -155 231 -177q26 -4 55 -4 q88 0 181 28l229 989q-70 25 -147 25q-213 0 -375 -172q-134 -143 -185 -344z" />
<glyph unicode="&#x178;" horiz-adv-x="1320" d="M4 1434h285l254 -512l477 512h301l-698 -756l-150 -678h-240l150 678zM365 1686q10 50 51.5 85t87.5 35q63 0 99 -44.5t24 -104.5q-10 -49 -51.5 -84t-88.5 -35q-61 0 -97.5 44.5t-24.5 103.5zM793 1686q10 50 51.5 85t87.5 35q63 0 99 -44.5t24 -104.5 q-10 -49 -51.5 -84t-88.5 -35q-61 0 -97.5 44.5t-24.5 103.5z" />
<glyph unicode="&#x2c6;" horiz-adv-x="802" d="M29 1290l385 203l319 -190l-121 -158l-233 147l-279 -147z" />
<glyph unicode="&#x2dc;" horiz-adv-x="802" d="M18 1255q34 100 99 149.5t140.5 47t152.5 -48.5q3 -1 8 -3q20 -8 31.5 -11.5t33 -5.5t37 3.5t34.5 20.5t36 41l160 -66q-42 -83 -87.5 -129t-95.5 -56t-98 0.5t-109 41.5q-7 2 -27 8.5t-27 8.5t-23.5 5.5t-24.5 2t-21.5 -5t-22 -12t-19 -22t-19.5 -32.5z" />
<glyph unicode="&#x2000;" horiz-adv-x="961" />
<glyph unicode="&#x2001;" horiz-adv-x="1923" />
<glyph unicode="&#x2002;" horiz-adv-x="961" />
<glyph unicode="&#x2003;" horiz-adv-x="1923" />
<glyph unicode="&#x2004;" horiz-adv-x="641" />
<glyph unicode="&#x2005;" horiz-adv-x="480" />
<glyph unicode="&#x2006;" horiz-adv-x="320" />
<glyph unicode="&#x2007;" horiz-adv-x="320" />
<glyph unicode="&#x2008;" horiz-adv-x="240" />
<glyph unicode="&#x2009;" horiz-adv-x="384" />
<glyph unicode="&#x200a;" horiz-adv-x="106" />
<glyph unicode="&#x2010;" horiz-adv-x="907" d="M-90 612l45 217h721l-45 -217h-721z" />
<glyph unicode="&#x2011;" horiz-adv-x="907" d="M-90 612l45 217h721l-45 -217h-721z" />
<glyph unicode="&#x2012;" horiz-adv-x="907" d="M-90 612l45 217h721l-45 -217h-721z" />
<glyph unicode="&#x2013;" horiz-adv-x="1042" d="M-100 584l47 227h866l-47 -227h-866z" />
<glyph unicode="&#x2014;" horiz-adv-x="1185" d="M-100 584l47 227h989l-47 -227h-989z" />
<glyph unicode="&#x201a;" horiz-adv-x="411" d="M-219 125q10 47 48.5 80t82.5 33q119 0 131 -97q10 -86 -61 -200q-61 -98 -134 -138l41 181q-53 0 -86.5 42.5t-21.5 98.5z" />
<glyph unicode="&#x201e;" horiz-adv-x="804" d="M-219 125q10 47 48.5 80t82.5 33q119 0 131 -97q10 -86 -61 -200q-61 -98 -134 -138l41 181q-53 0 -86.5 42.5t-21.5 98.5zM156 125q10 47 48.5 80t82.5 33q119 0 131 -97q10 -86 -61 -200q-61 -98 -134 -138l41 181q-53 0 -86.5 42.5t-21.5 98.5z" />
<glyph unicode="&#x2022;" horiz-adv-x="638" d="M-68 731q19 87 90.5 147t155.5 60q100 0 156.5 -69.5t34.5 -166.5q-19 -87 -89.5 -146.5t-154.5 -59.5q-98 0 -155.5 70t-37.5 165z" />
<glyph unicode="&#x2026;" horiz-adv-x="1138" d="M-223 129q9 49 47.5 83t83.5 34q62 0 97.5 -43.5t23.5 -102.5q-11 -47 -49.5 -79.5t-85.5 -32.5q-60 0 -94.5 42t-22.5 99zM145 129q9 49 47.5 83t83.5 34q62 0 97.5 -43.5t23.5 -102.5q-11 -47 -49.5 -79.5t-85.5 -32.5q-60 0 -94.5 42t-22.5 99zM514 129q9 49 47.5 83 t83.5 34q62 0 97.5 -43.5t23.5 -102.5q-11 -47 -49.5 -79.5t-85.5 -32.5q-60 0 -94.5 42t-22.5 99z" />
<glyph unicode="&#x202f;" horiz-adv-x="384" />
<glyph unicode="&#x2039;" horiz-adv-x="643" d="M-127 655l471 478l133 -123l-332 -355l197 -319l-176 -129z" />
<glyph unicode="&#x203a;" horiz-adv-x="643" d="M-182 336l332 319l-181 355l174 123l279 -478l-469 -448z" />
<glyph unicode="&#x205f;" horiz-adv-x="480" />
<glyph unicode="&#x20ac;" horiz-adv-x="1214" d="M-193 471l37 176l121 8q6 59 21 117l-117 -8l39 176l145 8q53 105 125.5 190.5t166 153t213 105t253.5 37.5q93 0 165 -22t148 -66l-139 -203q-89 51 -184 51q-157 0 -284 -72.5t-206 -187.5l351 6l-39 -176l-396 -8q-24 -78 -26 -117l397 8l-37 -176l-346 -6 q35 -105 120.5 -165t221.5 -60q133 0 250 55l49 -236q-141 -59 -309 -59q-138 0 -246 37.5t-176.5 104t-108 150.5t-51.5 185z" />
<glyph unicode="&#x2122;" horiz-adv-x="1323" d="M63 1333l21 101h385l-20 -101h-142l-108 -508h-103l109 508h-142zM422 825h100l76 381l107 -381h94l254 373l-76 -373h102l129 609h-100l-320 -473l-131 473h-106z" />
<glyph unicode="&#x25fc;" horiz-adv-x="1433" d="M0 0v1434h1434v-1434h-1434z" />
</font>
</defs>
</svg>
