<?xml version="1.0" standalone="no"?>
<!DOCTYPE svg PUBLIC "-//W3C//DTD SVG 1.1//EN" "http://www.w3.org/Graphics/SVG/1.1/DTD/svg11.dtd" >
<svg xmlns="http://www.w3.org/2000/svg">
<metadata></metadata>
<defs>
<font id="baron_neueblack_italic" horiz-adv-x="1144" >
<font-face units-per-em="2048" ascent="1536" descent="-512" />
<missing-glyph horiz-adv-x="706" />
<glyph horiz-adv-x="0" />
<glyph horiz-adv-x="682" />
<glyph unicode=" "  horiz-adv-x="706" />
<glyph unicode="&#x09;" horiz-adv-x="706" />
<glyph unicode="&#xa0;" horiz-adv-x="706" />
<glyph unicode="!" horiz-adv-x="565" d="M-168 164q14 62 67.5 106.5t114.5 44.5q82 0 127.5 -54t30.5 -126q-12 -63 -65.5 -107t-120.5 -44q-77 0 -123 54t-31 126zM-94 440l205 965q6 29 41 29h227q18 0 32 -15.5t11 -29.5l-205 -965q-6 -29 -39 -29h-227q-19 0 -33.5 15.5t-11.5 29.5z" />
<glyph unicode="&#x22;" horiz-adv-x="651" d="M-74 973l92 432q6 29 39 29h168q18 0 32 -15.5t11 -29.5l-92 -433q-3 -28 -39 -28h-168q-18 0 -32 15.5t-11 29.5zM260 973l92 432q6 29 39 29h164q19 0 33.5 -15.5t11.5 -29.5l-92 -433q-3 -28 -41 -28h-164q-19 0 -32.5 15.5t-10.5 29.5z" />
<glyph unicode="#" horiz-adv-x="1339" d="M-254 328l94 204q15 19 41 19l162 8q75 151 100 203l39 65h-125q-25 0 -39.5 19t-1.5 37l-2 -9l92 199q10 21 41 21l164 8q6 13 65.5 133.5t88.5 185.5q19 13 41 13h205q24 0 40.5 -18.5t2.5 -35.5l2 9l-146 -295l135 8q6 13 65.5 133.5t88.5 185.5q19 13 41 13h205 q24 0 40.5 -18.5t2.5 -35.5l2 9l-146 -295h105q24 0 40 -19t3 -37l2 9l-98 -201q-8 -19 -37 -19l-141 -6q-42 -76 -50 -96q-69 -123 -94 -182l107 8q24 0 40.5 -17.5t4.5 -35.5h2q-8 -17 -31 -61t-39 -77t-29 -65q-12 -12 -38 -12h-144l-133 -267q-10 -18 -35 -18h-207 q-22 0 -37 17.5t-12 33.5l121 234l-133 -9q-14 -29 -40.5 -82t-48 -97t-40.5 -85q-12 -12 -37 -12h-205q-23 0 -39 18.5t-2 34.5l-2 -8l113 240h-121q-22 0 -38 18.5t-3 34.5zM311 526h172l166 328h-172z" />
<glyph unicode="$" horiz-adv-x="1112" d="M-137 426q6 20 39 20h225q18 0 31.5 -15t9.5 -34q-9 -60 21.5 -89t86.5 -29q72 0 132 42t75 109q12 61 -22 99.5t-82 41.5q-118 0 -211 54q-115 54 -161.5 153.5t-18.5 233.5q34 160 147 271t264 149l41 145q6 29 39 29h191q18 0 32 -15.5t11 -29.5l-39 -134 q134 -41 201.5 -152.5t37.5 -262.5q-3 -25 -39 -25h-221q-19 0 -34 16t-11 37q9 56 -20.5 84.5t-83.5 28.5q-74 0 -133.5 -44.5t-77.5 -125.5q-11 -58 20.5 -89.5t87.5 -31.5q118 0 207 -53q116 -54 162 -163t18 -245q-34 -159 -141 -262.5t-256 -140.5l-39 -135 q-8 -27 -39 -27h-190q-18 0 -32 16t-11 27l35 121q-142 35 -214 146.5t-38 279.5z" />
<glyph unicode="%" horiz-adv-x="1359" d="M-316 26.5q-13 22.5 1 47.5q536 529 1343 1358q6 -1 21 0.5t16 1.5h215q26 0 39 -23.5t0 -46.5q-642 -633 -1344 -1358q-6 1 -20.5 -0.5t-15.5 -1.5h-215q-27 0 -40 22.5zM-47 1151q26 127 134 215t235 88q140 0 221.5 -98t52.5 -234q-26 -123 -134 -211t-233 -88 q-141 0 -223 98t-53 230zM186 1122q-7 -33 8 -55.5t42 -22.5q42 0 81 32.5t48 74.5q7 34 -8 58t-42 24q-42 0 -81 -33.5t-48 -77.5zM416 315q28 128 134.5 215.5t235.5 87.5q144 0 225 -97t52 -234q-28 -129 -135 -217t-236 -88q-144 0 -224.5 97.5t-51.5 235.5zM651 287 q-7 -34 7 -57t42 -23q43 0 82.5 32.5t48.5 75.5q7 33 -8 55.5t-43 22.5q-43 0 -81.5 -31.5t-47.5 -74.5z" />
<glyph unicode="&#x26;" horiz-adv-x="1337" d="M-154 465q45 197 228 350q-38 50 -52 120.5t1 145.5q32 149 161.5 256t278.5 107q110 0 192 -53.5t116.5 -143.5t12.5 -194q-36 -174 -213 -297q72 -105 88 -125l48 198q7 27 38 27h345q18 0 32.5 -15t12.5 -28l-41 -186q-6 -27 -39 -27h-140l-22 -108q-8 -49 -31 -86 l146 -189q7 -12 9 -27t-5 -24l-201 -162q-16 -8 -29 -4t-20 14l-111 117q-174 -147 -383 -147q-143 0 -242.5 56t-144.5 155q-65 123 -35 270zM152 455q-14 -71 25.5 -120.5t123.5 -49.5q90 0 180 69l-213 267q-93 -67 -116 -166zM293 1053q-9 -44 10 -74.5t55 -30.5 q53 0 99.5 39.5t56.5 93.5q10 44 -9 74.5t-56 30.5q-51 0 -97.5 -39.5t-58.5 -93.5z" />
<glyph unicode="'" horiz-adv-x="339" d="M-78 973l92 432q6 29 39 29h207q19 0 33.5 -15.5t11.5 -29.5l-92 -433q-3 -28 -41 -28h-207q-18 0 -32 15.5t-11 29.5z" />
<glyph unicode="(" horiz-adv-x="636" d="M-63 735q72 354 323 684l-4 -2q9 15 37 15h264q26 0 39.5 -21.5t-0.5 -44.5q-280 -309 -352 -657q-38 -172 -24 -344t79 -318l-4 2q14 -20 7.5 -34.5t-32.5 -14.5h-278l-25 20q-109 345 -30 715z" />
<glyph unicode=")" horiz-adv-x="630" d="M-285 20.5q-12 20.5 11 40.5h-5q279 321 351 662q27 129 24 289q-3 65 -14 131.5t-19 100t-23.5 89t-16.5 58.5q-18 13 -12 27t34 14h277l26 -21q55 -186 64 -348l-2 2q7 -187 -31 -367q-77 -360 -324 -686l6 2q-11 -14 -41 -14h-262q-31 0 -43 20.5z" />
<glyph unicode="*" horiz-adv-x="784" d="M-41 1059l23 100q3 27 38 27h103l-55 80q-13 8 -15.5 27t8.5 30l86 68q15 6 29 3t23 -12l61 -61l23 84q6 29 36 29h101q18 0 32 -15.5t11 -29.5l-19 -68l78 70q14 6 29 2t20 -13l58 -67q13 -12 17.5 -29.5t-7.5 -26.5l-100 -71h71q20 0 35 -14.5t12 -28.5l-22 -101 q-3 -26 -39 -26h-100l55 -78q10 -12 13 -29.5t-7 -27.5l-86 -66q-13 -8 -28 -4t-23 14l-60 58l-22 -86q-6 -29 -39 -29h-100q-18 0 -31 15.5t-10 29.5l18 70l-78 -68q-14 -8 -29.5 -4t-23.5 14l-57 66q-11 10 -14 28t8 29l96 68h-72q-19 0 -34.5 15t-12.5 28z" />
<glyph unicode="+" horiz-adv-x="956" d="M-152 625l43 198q3 27 37 27h250l58 268q7 27 38 27h199q18 0 32.5 -15t12.5 -28l-55 -252h242q19 0 34.5 -15t12.5 -28l-43 -199q-3 -26 -39 -26h-262l-58 -271q-6 -28 -39 -28h-198q-18 0 -33 15.5t-12 29.5l55 254h-229q-18 0 -33.5 15.5t-12.5 27.5z" />
<glyph unicode="," horiz-adv-x="380" d="M-272 156q12 58 63 99.5t111 41.5q100 0 139 -53.5t20 -134.5q-15 -76 -75.5 -164t-126.5 -133q-31 -9 -54 8t-18 41l37 129q-52 12 -80 59t-16 107z" />
<glyph unicode="-" horiz-adv-x="907" d="M-125 625l45 206q3 29 39 29h684q21 0 34.5 -15.5t10.5 -29.5l-45 -207q-2 -13 -9.5 -19.5t-27.5 -6.5h-684q-19 0 -34.5 15t-12.5 28z" />
<glyph unicode="." horiz-adv-x="368" d="M-258 160q12 60 63 102.5t111 42.5q77 0 120.5 -52t29.5 -122q-14 -62 -64 -102.5t-113 -40.5q-75 0 -118.5 51t-28.5 121z" />
<glyph unicode="/" horiz-adv-x="925" d="M-324 61q511 745 918 1364q36 9 39 9h233q24 0 36.5 -20.5t2.5 -43.5q-482 -698 -923 -1364q-3 0 -17 -4t-22 -4h-228q-23 0 -35.5 20.5t-3.5 42.5z" />
<glyph unicode="0" horiz-adv-x="1157" d="M-100.5 257.5q-10.5 68.5 6.5 152.5l133 630q21 101 74 182t123.5 130.5t150 75.5t160.5 26q87 0 162.5 -28.5t129.5 -81t75.5 -136t0.5 -184.5l-133 -631q-21 -101 -74 -182t-124 -130.5t-150.5 -75t-159.5 -25.5q-70 0 -132.5 17.5t-113.5 52.5t-84.5 87t-44 120.5z M215 385q-13 -62 11.5 -94.5t66.5 -32.5q58 0 110.5 40t65.5 103l139 654q13 62 -11.5 93.5t-66.5 31.5q-59 0 -111 -39.5t-65 -102.5z" />
<glyph unicode="1" horiz-adv-x="679" d="M-86 1246q2 12 20 16l-4 2q48 23 171 83t188 91l205 -4q19 0 31.5 -15.5t9.5 -29.5l-289 -1362q-3 -14 -10.5 -20.5t-26.5 -6.5h-229q-20 0 -32 15t-9 28l231 1042q-41 -12 -109 -38l-6 2l-45 -21q-18 -3 -34.5 7.5t-16.5 23.5l-43 162q-4 13 -2 25z" />
<glyph unicode="2" horiz-adv-x="1003" d="M-256 43l39 207l641 692q62 65 76 121q7 41 -9.5 65.5t-50.5 24.5q-58 0 -111 -38t-67 -105q-5 -21 -37 -21h-213q-19 0 -32.5 16.5t-10.5 32.5q39 184 165.5 299t328.5 115q114 0 204.5 -51.5t134 -145t19.5 -206.5q-26 -132 -151 -275l-473 -475h428q19 0 34 -15.5 t13 -29.5l-49 -227q-7 -27 -41 -27h-795q-18 0 -32 15t-11 28z" />
<glyph unicode="3" horiz-adv-x="1009" d="M-190.5 242.5q-21.5 82.5 0.5 183.5q8 23 40 23h224q19 0 32 -16.5t9 -35.5q-11 -56 18 -88.5t78 -32.5q81 0 142 57.5t75 131.5q17 79 -13 127.5t-104 54.5h-184q-29 0 -44 21t5 41v-9l352 443h-377q-19 0 -34 15.5t-13 29.5l47 217q6 29 41 29h801q28 0 42 -21t-5 -41 v8l-397 -497q127 -47 177 -169t13 -294q-25 -114 -81.5 -201t-132.5 -138t-160 -76t-173 -25q-94 0 -173.5 31.5t-131.5 90t-73.5 141z" />
<glyph unicode="4" horiz-adv-x="1054" d="M-176 457l41 217l721 743q21 17 39 17h227q19 0 33.5 -15.5t11.5 -29.5l-289 -1362q-7 -27 -41 -27h-227q-17 0 -30.5 15.5t-10.5 27.5l78 369h-510q-18 0 -32 15.5t-11 29.5zM207 682h229l66 293z" />
<glyph unicode="5" horiz-adv-x="1026" d="M-160 432q4 23 37 23h225q20 0 34 -16.5t9 -35.5q-13 -61 11.5 -90.5t72.5 -29.5q75 0 133 54.5t72 127.5q18 81 -5 130.5t-93 53.5h-385q-19 0 -33.5 15t-11.5 28l151 713q6 29 39 29h731q19 0 32.5 -15.5t10.5 -29.5l-45 -211q-3 -27 -37 -27h-471l-49 -229h107 q231 0 321 -134t41 -366q-43 -199 -196.5 -317.5t-333.5 -118.5q-200 0 -305.5 118t-61.5 328z" />
<glyph unicode="6" horiz-adv-x="966" d="M-184 436q17 76 45 142l475 837q13 19 37 19h243q19 0 33.5 -19t7.5 -37l-307 -532h27q71 0 129.5 -24.5t96.5 -67t63 -99.5t27.5 -121.5t-9.5 -132.5q-37 -173 -186.5 -295t-323.5 -122q-132 0 -223.5 62t-126 165t-8.5 225zM104 399q-12 -57 14.5 -96t76.5 -39 q66 0 124.5 49t73.5 115q12 58 -15.5 97.5t-78.5 39.5q-65 0 -123.5 -49.5t-71.5 -116.5z" />
<glyph unicode="7" horiz-adv-x="892" d="M-231 57l645 1086h-418q-19 0 -34 15.5t-13 29.5l47 217q6 29 41 29h813q23 0 37.5 -19.5t5.5 -38.5l-805 -1353v-7q-9 -16 -35 -16h-241q-20 0 -35 20t-8 37z" />
<glyph unicode="8" horiz-adv-x="997" d="M-173.5 238.5q-19.5 85.5 3.5 199.5q15 73 67 152.5t123 138.5q-43 57 -63 136t-4 159q22 104 76 187.5t125 135t151 78.5t160 27q88 0 164 -29.5t131 -87t75.5 -143t-1.5 -197.5q-18 -80 -68.5 -156t-130.5 -132q47 -59 68.5 -137.5t5.5 -159.5q-22 -105 -76 -189 t-126 -135.5t-152.5 -78.5t-161.5 -27q-88 0 -163 29t-129.5 86.5t-74 143zM133 410q-14 -68 10.5 -104t69.5 -36q61 0 116.5 45t73.5 123q11 56 -13 95.5t-71 39.5q-61 0 -116.5 -49t-69.5 -114zM252 995q-12 -57 13 -95t75 -38q65 0 122 48t70 114q14 68 -13 105.5 t-75 37.5q-63 0 -119 -47t-73 -125z" />
<glyph unicode="9" horiz-adv-x="995" d="M-55 1032q37 173 186.5 295.5t323.5 122.5q132 0 223.5 -62.5t126 -165.5t8.5 -225q-14 -70 -49 -143l-475 -838q-9 -16 -35 -16h-242q-23 0 -37 18t-6 37l307 533h-26q-116 0 -195 64.5t-106.5 165t-3.5 214.5zM242 1006q-12 -57 13.5 -95.5t74.5 -38.5q63 0 120 48 t72 114q10 55 -16 93t-74 38q-64 0 -120 -47t-70 -112z" />
<glyph unicode=":" horiz-adv-x="368" d="M-258 160q12 60 63 102.5t111 42.5q77 0 120.5 -52t29.5 -122q-14 -62 -64 -102.5t-113 -40.5q-75 0 -118.5 51t-28.5 121zM-135 743q14 60 64 103t110 43q77 0 120.5 -52t28.5 -122q-12 -62 -61.5 -103t-112.5 -41q-75 0 -119 50.5t-30 121.5z" />
<glyph unicode=";" horiz-adv-x="370" d="M-272 156q12 58 63 99.5t111 41.5q100 0 139 -53.5t20 -134.5q-15 -76 -75.5 -164t-126.5 -133q-31 -9 -54 8t-18 41l37 129q-52 12 -80 59t-16 107zM-135 743q14 60 64 103t110 43q77 0 120.5 -52t28.5 -122q-12 -62 -61.5 -103t-112.5 -41q-75 0 -119 50.5t-30 121.5z " />
<glyph unicode="&#x3c;" horiz-adv-x="714" d="M-146.5 706.5q-3.5 16.5 5.5 26.5l522 449q34 19 65 -8l97 -132q39 -30 4 -51l2 6l-346 -297l215 -290l-8 -2q34 -34 4 -54l2 6l-158 -141q-26 -13 -55 8l-336 453q-10 10 -13.5 26.5z" />
<glyph unicode="=" horiz-adv-x="874" d="M-195 336l43 199q3 26 39 26h680q20 0 34 -15t11 -28l-43 -199q-4 -24 -37 -24h-679q-19 0 -34.5 15.5t-13.5 25.5zM-121 684l41 195q6 26 41 26h680q21 0 34.5 -14.5t10.5 -28.5l-41 -194q-8 -27 -39 -27h-680q-19 0 -34 15.5t-13 27.5z" />
<glyph unicode="&#x3e;" horiz-adv-x="708" d="M-172 360l8 2q-34 34 -4 54v-6l344 290l-213 297l8 2q-35 35 -6 52l2 -7l158 142q27 16 59 -12l334 -453q17 -40 4 -51l-526 -449q-30 -12 -57 6z" />
<glyph unicode="?" horiz-adv-x="1003" d="M-55 1055q36 175 180.5 287t323.5 112q100 0 179.5 -30t131.5 -88.5t70 -144.5t-5 -198q-26 -123 -135 -225.5t-250 -144.5l-57 -220q-3 -24 -37 -24h-207q-18 0 -33 15t-12 26l88 411q5 29 29 29q140 -8 216 43t89 119q17 76 -9.5 104.5t-80.5 28.5q-62 0 -112 -36 t-62 -93q-4 -20 -39 -20h-225q-19 0 -33 16t-10 33zM18 168q14 71 68.5 110t118.5 39q79 0 126 -48t29 -130q-16 -70 -70 -108.5t-118 -38.5q-78 0 -125 47t-29 129z" />
<glyph unicode="@" horiz-adv-x="1677" d="M-111 536.5q-7 94.5 17 194.5q31 145 110.5 276.5t193 230.5t263.5 157.5t311 58.5q154 0 282 -51.5t213 -147.5t118 -234t-4 -312l-72 -334q-6 -29 -41 -29h-700q-161 0 -250.5 112t-55.5 273q33 151 157 255t276 104q165 0 256 -114.5t57 -273.5q-11 -64 -39 -114l82 6 l27 131q22 106 6 188.5t-63 139.5t-115.5 86.5t-151.5 29.5q-212 0 -372 -136t-201 -331q-39 -186 55 -311t295 -125h682q18 0 32 -14.5t11 -28.5l-45 -211q-3 -28 -37 -28h-682q-111 0 -207.5 27.5t-168 77t-125.5 118.5t-80.5 152t-33.5 177.5zM539 702q-9 -43 9 -72.5 t54 -29.5q53 0 100.5 39.5t57.5 91.5q9 43 -10 73t-56 30q-52 0 -98 -39.5t-57 -92.5z" />
<glyph unicode="A" horiz-adv-x="1167" d="M-301 63q443 719 836 1393q13 12 31 12q6 0 14 -2q26 -7 32 -30l250 -1393q1 -6 1 -12q0 -31 -34 -31h-247q-12 0 -25 10t-16 21v-8l-25 141h-412l-81 -141v-7q-9 -16 -39 -16h-244q-26 0 -38 20q-7 11 -7 23q0 10 4 20zM242 412h243l-24 221q-8 82 -8 141q0 27 2 49 q-46 -111 -95 -207z" />
<glyph unicode="B" horiz-adv-x="1234" d="M-168 43l289 1362q6 29 39 29h475q20 0 52 -2.5t110.5 -26t134.5 -63.5q54 -41 88 -130q19 -50 20 -111q0 -47 -12 -100q-43 -205 -229 -288q48 -25 78.5 -65.5t40.5 -77.5t12 -75.5t-1 -57.5t-5 -25q-14 -65 -40.5 -120t-58 -94t-72.5 -71t-80 -52t-84.5 -35 t-80.5 -22.5t-74.5 -11.5t-60.5 -5t-43 -1h-455q-19 0 -33 15q-11 12 -11 23q0 3 1 5zM197 295h176q33 0 67.5 6.5t72 22t65.5 47.5t38 75q3 14 3 26q0 22 -9 38q-14 26 -39.5 37t-52.5 15.5t-47 3.5l-20 -1h-197zM317 866h197q7 0 19 1.5t43 10.5t56.5 23.5t50 44 t32.5 68.5q4 18 4 33q0 11 -2 19q-4 22 -16.5 36t-28.5 23t-33.5 13t-32 5.5t-24.5 1.5h-9h-196z" />
<glyph unicode="C" horiz-adv-x="1421" d="M-74 421q-14 63 -14 132q0 84 20 178q44 210 169.5 375t306 256.5t385.5 91.5q151 0 275.5 -61t197.5 -162q10 -6 13 -23q1 -5 1 -9q0 -11 -6 -17l-195 -156q-15 -9 -31.5 -3.5t-19.5 19.5q-104 113 -258 113q-196 0 -340 -127.5t-186 -325.5q-13 -61 -12 -114 q0 -115 58 -194q86 -115 253 -115q90 0 175.5 36t151.5 99q17 4 36 -3t28 -20l129 -155q6 -45 -2 -60q-118 -90 -261.5 -143t-279.5 -53q-154 0 -279.5 53t-205 151t-109.5 237z" />
<glyph unicode="D" horiz-adv-x="1355" d="M-168 43l289 1362q6 29 39 29h227q720 0 720 -523q0 -96 -24 -209q-27 -126 -77 -229.5t-111.5 -175t-140.5 -126t-156.5 -86.5t-168 -51.5t-167 -26.5t-160.5 -7h-227q-18 0 -32 15q-12 12 -12 23q0 3 1 5zM190 301h27q27 0 53 1q40 2 92.5 12t99.5 27.5t97 50.5 t89.5 77.5t72.5 111.5t51 150q12 63 12 115q0 40 -7 74q-16 78 -71 126q-56 47 -134 68q-72 19 -165 19h-18z" />
<glyph unicode="E" horiz-adv-x="1204" d="M-168 43l289 1362q6 29 39 29h891q18 0 32 -16q12 -13 12 -24q0 -3 -1 -5l-45 -220q-6 -28 -39 -28h-631l-60 -275h515q18 0 30.5 -15.5t9.5 -29.5l-47 -221q-3 -27 -34 -27h-535l-59 -274h626q19 0 34 -15.5t13 -29.5l-49 -227q-7 -27 -41 -27h-907q-19 0 -33 15 q-11 12 -11 23q0 3 1 5z" />
<glyph unicode="F" horiz-adv-x="1187" d="M-168 43l289 1362q6 29 39 29h907q19 0 33 -16q12 -13 13 -24q0 -2 -1 -5l-47 -226q-6 -28 -41 -28h-647l-60 -275h514q18 0 32 -15.5t11 -29.5l-47 -219q-6 -29 -36 -29h-535l-115 -540q-7 -27 -39 -27h-227q-19 0 -33 15q-11 12 -11 23q0 3 1 5z" />
<glyph unicode="G" horiz-adv-x="1583" d="M-72 414q-11 57 -11 121q0 91 22 196q33 154 117.5 289.5t199.5 230t256 149t285 54.5q152 0 277 -61t196 -162q11 -6 14 -23t-6 -26l-195 -156q-15 -10 -32 -3t-17 21q-105 111 -260 111q-183 0 -333 -123.5t-193 -329.5q-14 -74 -14 -134q0 -32 4 -59q11 -80 55 -131 t107.5 -75t146.5 -24q179 0 342 139l37 147h-191q-20 0 -35 14t-12 29l45 211q7 27 41 27h473q18 0 31.5 -15t11.5 -28l-166 -780q-6 -29 -37 -29h-198q-19 0 -34 15t-11 34q1 10 1.5 18.5t1 11.5t3 10t8.5 21q-152 -124 -364 -124q-150 0 -269 51t-195.5 147.5 t-101.5 235.5z" />
<glyph unicode="H" horiz-adv-x="1404" d="M-164 43l289 1362q6 29 39 29h227q19 0 33.5 -15.5t11.5 -29.5l-110 -521h479l115 537q6 29 38 29h228q20 0 34 -16q12 -13 12 -24q0 -2 -1 -5l-289 -1362q-7 -27 -41 -27h-227q-18 0 -32 15t-11 28l110 524h-479l-115 -540q-7 -27 -41 -27h-227q-18 0 -32 15 q-12 12 -12 23q0 3 1 5z" />
<glyph unicode="I" horiz-adv-x="716" d="M-266 43l43 209q7 27 39 27h129l186 876h-100q-18 0 -32 15t-11 28l43 207q6 29 39 29h532q18 0 32 -16q11 -13 12 -24q0 -3 -1 -5l-43 -207q-7 -27 -39 -27h-119l-186 -876h107q18 0 32.5 -15t12.5 -28l-45 -209q-7 -27 -39 -27h-549q-18 0 -32 15q-12 12 -12 23 q0 3 1 5z" />
<glyph unicode="J" horiz-adv-x="831" d="M-264 43l47 227q6 29 39 29h172q36 0 67 14.5t49 35.5t31 41.5t18 35.5l5 14l151 717h-192q-19 0 -32.5 15t-10.5 28l43 207q6 29 39 29h475q19 0 32 -15t11 -30l-207 -967q-19 -88 -58 -159t-86 -114t-100 -75t-102 -45.5t-88.5 -21.5t-63.5 -9h-24h-172q-18 0 -32 15 q-12 12 -12 23q0 3 1 5z" />
<glyph unicode="K" horiz-adv-x="1323" d="M-168 43l289 1362q6 29 41 29h227q18 0 32 -15.5t11 -29.5l-123 -555q59 58 188.5 185.5t227.5 224.5t186 188q6 -1 21 0.5t16 1.5h285q29 0 43 -22q6 -10 7 -19q0 -12 -11 -23l-697 -665l406 -654q14 -20 6 -35.5t-35 -15.5h-299q-4 0 -13 5t-16 10.5t-6 7.5l-284 471 l-29 -23l4 -4q-12 -10 -38.5 -35t-43.5 -39l-84 -366q-7 -27 -39 -27h-227q-19 0 -33 15q-12 12 -13 23q0 3 1 5z" />
<glyph unicode="L" horiz-adv-x="1026" d="M-172 43l289 1362q6 29 39 29h229q18 0 32 -15.5t11 -29.5l-231 -1090h450q19 0 34 -15.5t13 -29.5l-49 -227q-7 -27 -41 -27h-733q-18 0 -32 15q-12 12 -12 23q0 3 1 5z" />
<glyph unicode="M" horiz-adv-x="1875" d="M-162 43l289 1364q2 11 5 16t10.5 9t21.5 4h233q10 0 25.5 -12.5t13.5 -18.5l273 -967l665 981q10 17 37 17h229q19 0 34.5 -15.5t13.5 -29.5l-291 -1364q-7 -27 -41 -27h-226q-19 0 -33.5 15t-11.5 28l142 649q-49 -70 -138.5 -196t-164 -232t-138.5 -201q-24 -8 -34 -8 h-215q-8 0 -22 10.5t-19 18.5l-2 -8l-195 645l-152 -694q-7 -27 -38 -27h-230q-20 0 -32 15q-10 12 -10 23q0 2 1 5z" />
<glyph unicode="N" horiz-adv-x="1519" d="M-166 43l289 1362q6 29 39 29h231q8 0 20.5 -9t12.5 -20q40 -80 131 -261.5t158 -316.5t131 -268l186 846q6 29 39 29h225q18 0 32 -16q11 -13 12 -24q0 -3 -1 -5l-288 -1362q-7 -27 -39 -27h-230q-8 0 -20 9t-12 20q-116 230 -418 848l-187 -850q-7 -27 -39 -27h-229 q-18 0 -32 15q-12 12 -12 23q0 3 1 5z" />
<glyph unicode="O" horiz-adv-x="1306" d="M-160 43l47 225q6 29 39 29h897q19 0 33.5 -15.5t11.5 -29.5l-47 -225q-7 -27 -41 -27h-897q-19 0 -33 15q-11 12 -11 23q0 3 1 5zM-27 926q30 142 127 263t234.5 191t281.5 70q153 0 268.5 -75t165.5 -203q30 -77 30 -162q0 -55 -13 -113q-46 -217 -233 -368.5 t-406 -151.5q-115 0 -211.5 43.5t-157.5 117.5q-61 72 -85 174q-12 52 -12 107q0 52 11 107zM281 897q-6 -28 -6 -53q0 -62 35 -107q49 -63 141 -63q106 0 196 72.5t113 179.5q7 30 7 57q1 59 -33 105q-48 66 -140 65q-106 0 -198 -75t-115 -181z" />
<glyph unicode="P" horiz-adv-x="1193" d="M-168 43l168 795q6 28 39 28l164 6q-45 91 -66 172q-38 56 -61 127l45 234q6 29 39 29h475q20 0 52 -3.5t110 -28.5t133 -68q54 -42 88 -133q19 -51 19 -113q0 -48 -11 -101q-19 -87 -60.5 -157.5t-93.5 -113t-110.5 -74t-113.5 -45.5t-99 -21.5t-71 -7.5l-27 -1h-195 l-115 -540q-7 -27 -39 -27h-227q-19 0 -33 15q-11 12 -11 23q0 3 1 5zM420 1135l104 -267q36 5 74.5 20.5t75 49.5t45.5 78q3 16 3 30q0 89 -136 89h-3h-6h-6h-151z" />
<glyph unicode="Q" horiz-adv-x="1683" d="M-74 492q-3 34 -3 69q0 83 18 174q31 145 110.5 276.5t191 229t256.5 155.5t298 58q107 0 201.5 -27.5t164.5 -77t124 -118.5t81 -152t34 -177q2 -23 2 -45q0 -73 -18 -150q-23 -105 -73 -209.5t-121 -186.5l88 -133q9 -12 11 -26.5t-7 -22.5l-203 -158q-8 -5 -17 -5 q-7 0 -14 3q-18 6 -28 19l-90 106q-194 -112 -408 -112q-122 0 -228 37t-182.5 104.5t-126.5 161.5t-61 207zM248 707q-12 -57 -12 -108q0 -61 17 -114q32 -98 109.5 -151t184.5 -53q92 0 211 51l-199 299l-215 293q-76 -108 -96 -217zM614 1122q59 -89 120 -176.5 t147.5 -210.5t122.5 -174q53 79 75 174q10 47 10 91q0 61 -19 118q-32 96 -111 153.5t-185 57.5q-76 0 -160 -33z" />
<glyph unicode="R" horiz-adv-x="1253" d="M-166 43l168 795q6 28 39 28l164 6q-6 16 -26 61t-29 71l-74 161l47 240q6 29 39 29h475q20 0 52 -3.5t110.5 -28.5t134.5 -68q54 -42 88 -133q19 -51 19 -113q0 -48 -11 -101q-63 -290 -358 -383l219 -551l-6 -4q11 -20 4 -34.5t-31 -14.5h-268q-9 0 -22.5 9.5 t-16.5 17.5l-2 -9l-225 549h-66l-115 -540q-7 -27 -39 -27h-227q-18 0 -32 15q-12 12 -12 23q0 3 1 5zM430 1135l105 -267q61 4 115.5 40t70.5 108q3 15 3 29q0 15 -4 29q-8 24 -23 36t-41.5 18t-40 6.5t-35.5 0.5h-7h-143z" />
<glyph unicode="S" horiz-adv-x="1112" d="M-139 426q8 23 39 23h227q18 0 31.5 -17t9.5 -35q-2 -13 -2 -24q0 -40 25 -64q32 -30 88 -30q72 0 133.5 43.5t74.5 109.5q4 17 4 32q-1 39 -25 65q-34 37 -83 42q-20 0 -47 3t-77.5 16.5t-90.5 36.5q-114 55 -162 155q-29 62 -29 137q0 46 11 97q27 132 113.5 234 t198.5 153t228 51q202 0 316 -124q85 -93 86 -225q0 -44 -10 -93q-5 -21 -39 -21h-224q-17 0 -32.5 17t-12.5 32q2 13 2 25q0 39 -22 61q-30 29 -86 29q-74 0 -134 -45t-77 -123q-4 -17 -4 -32q0 -37 23 -59q32 -32 89 -32q19 0 45.5 -2.5t77 -16t88.5 -36.5 q117 -53 164 -161q29 -66 29 -142q0 -49 -12 -103q-27 -132 -113 -230t-197 -145.5t-229 -47.5q-101 2 -182.5 33t-136 86.5t-75.5 139.5q-11 43 -11 91q0 46 10 96z" />
<glyph unicode="T" horiz-adv-x="917" d="M-43 1198l43 207q6 29 39 29h799q20 0 34 -16q12 -13 11 -24v-5l-43 -207q-7 -27 -41 -27h-252l-240 -1128q-7 -27 -41 -27h-225q-18 0 -32 15t-11 28l235 1112h-233q-18 0 -32 15q-12 12 -12 23q0 3 1 5z" />
<glyph unicode="U" horiz-adv-x="1515" d="M-57 540q4 38 8 52l172 813q6 29 39 29h1132q18 0 32 -16q11 -13 12 -24q0 -3 -1 -5l-172 -814q0 -1 -3 -13.5t-7 -27t-11 -37t-17 -48t-22.5 -53.5t-29.5 -60t-37 -62q-110 -142 -260 -218t-327 -76q-187 0 -313.5 87t-168.5 238q-20 58 -25 128q-3 39 -3 68q0 22 2 39z M252 495q-1 -15 -1 -28q0 -34 7 -61q58 -127 215 -127q193 0 297 155q28 32 50 72t30 62.5t8 25.5l119 561h-594l-119 -563q-3 -11 -5.5 -28t-6.5 -69z" />
<glyph unicode="V" horiz-adv-x="1177" d="M-8 1391q-2 6 -2 12q0 11 6 19q10 12 31 12h1087q20 0 36 -20q10 -13 10 -25q0 -7 -3 -13l-846 -1417q-11 -18 -31 -18q-6 -1 -12 1q-28 6 -30 31zM338 1163l70 -524l299 524h-369z" />
<glyph unicode="W" horiz-adv-x="2076" d="M12 1391q-2 6 -2 12q0 11 6 19q9 12 29 12h246q15 0 28.5 -12.5t10.5 -26.5q15 -96 102 -713l436 729l-2 6q10 17 35 17h227q13 0 27 -11t16 -22l5 10l110 -727l418 733q10 17 37 17h244q26 0 40 -20q9 -12 9 -23q0 -8 -4 -15l-850 -1415q-9 -15 -26 -17t-30.5 7 t-13.5 24l-180 1000q-68 -116 -189 -320t-222.5 -376.5t-190.5 -325.5q-9 -12 -27 -12q-8 0 -17 2q-31 8 -34 32v-8z" />
<glyph unicode="X" horiz-adv-x="1380" d="M-286 22q-5 9 -6 17q0 13 13 24l-2 -6l619 666q-82 161 -156 321l-178 332l10 6q-14 19 -7 35.5t32 16.5h278q8 0 21 -7t14 -14l219 -430l408 442q11 9 35 9h278q28 0 42 -22q5 -9 6 -18q0 -13 -13 -24l2 6l-622 -665q127 -252 180 -381q34 -51 90 -159t63 -120h-4 q13 -19 6 -35t-34 -16h-279q-7 0 -20.5 6.5t-14.5 13.5l-219 431l-407 -443q-10 -8 -35 -8h-279q-26 0 -40 22z" />
<glyph unicode="Y" horiz-adv-x="1320" d="M-28 1418q7 16 34 16h277q9 0 21.5 -9t12.5 -20q167 -315 220 -426l409 446q11 9 33 9h278q29 0 43 -22q5 -9 5 -18q0 -12 -13 -24l2 6l-653 -706l-141 -643q-7 -27 -39 -27h-228q-18 0 -32 15t-11 28l140 633q-14 30 -85 172t-104 221q-27 45 -166 313h5q-10 13 -10 25 q0 5 2 11z" />
<glyph unicode="Z" horiz-adv-x="972" d="M-262 57l665 1078h-383q-18 0 -32 15.5t-11 29.5l48 225q6 29 38 29h793q26 0 40 -20q8 -11 8 -24q0 -10 -5 -20q-487 -783 -666 -1077l383 6q19 0 34.5 -15.5t13.5 -29.5l-50 -227q-7 -27 -41 -27h-792q-25 0 -38 18q-8 11 -8 24q0 7 3 15z" />
<glyph unicode="[" horiz-adv-x="704" d="M-176 43l289 1362q6 29 37 29h454q19 0 33.5 -15.5t11.5 -29.5l-47 -226q-6 -28 -41 -28h-190l-178 -836h169q19 0 34.5 -15.5t13.5 -29.5l-50 -227q-7 -27 -41 -27h-454q-17 0 -30.5 15.5t-10.5 27.5z" />
<glyph unicode="\" horiz-adv-x="929" d="M-31 1391q-11 43 31 43h233q10 0 25.5 -12.5t13.5 -18.5l340 -1362q10 -43 -30 -43h-234q-9 0 -24.5 12t-14.5 19z" />
<glyph unicode="]" horiz-adv-x="720" d="M-252 43l47 227q6 29 39 29h193l178 836h-172q-19 0 -32.5 15.5t-10.5 29.5l47 225q6 29 39 29h454q19 0 31.5 -15.5t9.5 -29.5l-288 -1362q-3 -14 -10.5 -20.5t-26.5 -6.5h-455q-19 0 -32.5 15t-10.5 28z" />
<glyph unicode="^" horiz-adv-x="915" d="M-120.5 1005.5q-2.5 16.5 14.5 28.5v-6l495 399q16 7 32 3t23 -13l347 -389l-9 -2q11 -11 13.5 -29.5t-7.5 -29.5l-155 -117q-14 -8 -29.5 -4t-23.5 14l-211 250l-148 -121l-174 -139q-15 -8 -28.5 -4t-22.5 14l-100 117q-14 12 -16.5 28.5z" />
<glyph unicode="_" horiz-adv-x="1103" d="M-289 -145l41 188q3 27 39 27h899q19 0 33.5 -15t11.5 -28l-41 -189q-2 -14 -9.5 -20t-27.5 -6h-899q-20 0 -35 14.5t-12 28.5z" />
<glyph unicode="`" horiz-adv-x="542" d="M-29.5 1288.5q-7.5 17.5 6.5 32.5v-8l146 182q2 2 4.5 3t6 0.5t6.5 -1t8 -2.5t8.5 -3.5t10 -4.5t9.5 -4l309 -193l-12 -2q20 -9 28.5 -23.5t-7.5 -29.5v6l-132 -172q-12 -12 -57 8l-307 189q-20 5 -27.5 22.5z" />
<glyph unicode="a" horiz-adv-x="1169" d="M-301 63q420 689 829 1387q12 12 30 12q8 0 16 -2q28 -7 32 -30l244 -1387q1 -6 1 -12q0 -31 -34 -31h-244q-12 0 -25 10t-16 21v-8l-24 141h-408l-82 -141v-7q-9 -16 -36 -16h-242q-26 0 -38 20q-7 11 -7 23q0 10 4 20zM238 410h239l-22 221q-9 106 -9 167v21 q-26 -66 -92 -205z" />
<glyph unicode="b" horiz-adv-x="1234" d="M-164 43l287 1348q2 14 9.5 20t25.5 6h465q20 0 51.5 -2t109.5 -24.5t133 -62.5t88 -128q18 -49 18 -108q0 -47 -11 -99q-39 -189 -224 -276q46 -25 74.5 -66.5t37.5 -80t10 -78.5t-2 -60t-5 -26q-17 -81 -54 -146.5t-80 -107t-99.5 -72t-103.5 -45.5t-101.5 -23.5 t-83 -10t-59.5 -1.5h-445q-18 0 -31 15q-11 12 -11 23q0 3 1 5zM195 291h167q33 0 68 7t72.5 22.5t65 47t36.5 74.5q4 16 4 31q0 37 -24 59q-34 32 -63.5 35.5t-70.5 3.5h-6h-188zM313 850h168q19 0 47 6t67 21t70.5 50t41.5 83q3 16 3 29q0 11 -2 20q-5 20 -17.5 33 t-29 20.5t-34 10.5t-32.5 3q-5 0 -9 1q-9 0 -16 -1h-9h-188z" />
<glyph unicode="c" horiz-adv-x="1421" d="M-73 414q-13 61 -13 128q0 83 20 175q33 155 112 288.5t189.5 229t251 149.5t291.5 54q150 0 272 -58.5t195 -158.5q10 -6 13 -22q1 -4 1 -8q0 -10 -6 -17l-190 -154q-14 -9 -30 -3.5t-19 19.5q-105 111 -256 111q-190 0 -332.5 -131.5t-183.5 -327.5q-13 -61 -12 -114 q0 -112 56 -188q84 -112 246 -112q180 0 322 132q35 9 57 -17l123 -156q9 -9 11 -29t-5 -34q-118 -89 -255.5 -139.5t-274.5 -50.5q-150 0 -273 52.5t-201.5 149t-108.5 232.5z" />
<glyph unicode="d" horiz-adv-x="1355" d="M-164 43l287 1348q3 26 37 26h223q62 0 118 -3.5t121 -14.5t120 -28t110 -46t96.5 -67t74.5 -93t49 -121q16 -63 16 -145v-10q-1 -88 -23 -191q-26 -124 -75 -225.5t-109.5 -172.5t-138 -125.5t-154 -87t-165 -53t-164.5 -27.5t-157 -7h-223q-18 0 -32 15q-12 12 -12 23 q0 3 1 5zM186 285h13q50 1 102 7q58 8 133 35.5t136 73.5t114.5 130t77.5 196q15 79 16 141v6q0 56 -17 100q-18 46 -46.5 77t-73 50t-94.5 27.5t-113 8.5h-47z" />
<glyph unicode="e" horiz-adv-x="1204" d="M-164 43l287 1348q2 14 9.5 20t25.5 6h891q20 -1 35 -15q12 -12 12 -23v-5l-47 -219q-7 -27 -41 -27h-635l-60 -280h504q19 0 32.5 -14.5t10.5 -28.5l-47 -215q-3 -27 -35 -27h-524l-59 -276h614q19 0 34 -14.5t13 -28.5l-47 -217q-7 -27 -41 -27h-891q-18 0 -31 15 q-11 12 -11 23q0 3 1 5z" />
<glyph unicode="f" horiz-adv-x="1187" d="M-164 43l283 1335q6 29 37 29h891q19 0 34 -15.5t13 -29.5l-47 -221q-6 -29 -41 -29h-635l-58 -264h504q19 0 32.5 -14.5t10.5 -28.5l-47 -221q-3 -14 -10.5 -20.5t-26.5 -6.5h-524l-113 -530q-3 -14 -11 -20.5t-28 -6.5h-223q-18 0 -31 15q-11 12 -11 23q0 3 1 5z" />
<glyph unicode="g" horiz-adv-x="1583" d="M-69 408q-10 55 -10 117q0 92 22 198q43 204 170.5 368.5t305 255.5t369.5 91q150 0 272.5 -59t196.5 -160q11 -6 14.5 -22.5t-5.5 -25.5l-193 -155q-15 -9 -30.5 -3.5t-18.5 19.5q-102 113 -256 113q-117 0 -224.5 -53t-187 -157t-108.5 -241q-14 -75 -14 -135 q0 -30 4 -57q10 -79 54 -130t106.5 -74.5t144.5 -23.5q180 0 342 138l39 155h-310q-18 0 -32 15t-11 28l41 199q6 29 39 29h582q18 0 32 -16q12 -12 12 -24q0 -3 -1 -5l-162 -770q-7 -27 -39 -27h-196q-19 0 -33 14.5t-10 32.5q1 8 1.5 16t0.5 10.5t1.5 7.5t3.5 10t7 15 q-88 -68 -171.5 -96.5t-186.5 -28.5q-148 0 -266.5 50.5t-194 146t-100.5 234.5z" />
<glyph unicode="h" horiz-adv-x="1404" d="M-160 43l287 1348q3 26 37 26h223q18 0 33 -14.5t12 -28.5l-108 -510h469l112 527q3 26 37 26h225q17 -1 31 -15q12 -12 13 -23q0 -2 -1 -5l-286 -1347q-7 -27 -37 -27h-225q-18 0 -32.5 15t-11.5 28l113 532h-469l-117 -548q-7 -27 -39 -27h-223q-18 0 -32 15 q-12 12 -12 23q0 3 1 5z" />
<glyph unicode="i" horiz-adv-x="573" d="M-172 43l287 1348q3 26 37 26h223q20 -1 34 -15q12 -12 11 -23v-5l-287 -1347q-7 -27 -39 -27h-223q-18 0 -32 15q-12 12 -12 23q0 3 1 5z" />
<glyph unicode="j" horiz-adv-x="831" d="M-260 43l47 223q6 27 39 27h168q35 0 65 14.5t47.5 34.5t29.5 40.5t17 35.5l5 14l204 959q2 14 9 20t26 6h226q18 0 32 -15q12 -11 12 -23q0 -3 -1 -5l-205 -958q-14 -68 -41 -126t-60 -98t-71.5 -72.5t-77.5 -52t-77 -33.5t-71 -20.5t-58 -10t-39 -3.5h-15h-168 q-18 0 -32 15q-12 12 -12 23q0 3 1 5z" />
<glyph unicode="k" horiz-adv-x="1323" d="M-164 43l287 1348q3 26 39 26h223q20 0 34 -14.5t11 -28.5l-125 -567l598 602q24 8 33 8h281q29 -1 44 -21q7 -9 7 -18q0 -12 -11 -24l-688 -658l400 -645q14 -22 6 -36.5t-35 -14.5h-293q-4 0 -13 5t-16 10.5t-6 7.5l-286 458q-4 -3 -10.5 -9.5t-14.5 -12.5 q-45 -45 -74 -70l-84 -362q-7 -27 -39 -27h-223q-19 0 -33 15q-12 12 -13 23q0 3 1 5z" />
<glyph unicode="l" horiz-adv-x="1026" d="M-168 43l287 1348q2 14 9.5 20t27.5 6h223q18 0 33 -14.5t12 -28.5l-229 -1081h440q18 -1 32 -15q12 -12 11 -23v-5l-47 -223q-7 -27 -39 -27h-717q-19 0 -33 15q-11 12 -11 23q0 3 1 5z" />
<glyph unicode="m" horiz-adv-x="1875" d="M-158 43l287 1348q3 26 37 26h227q10 0 25.5 -11t13.5 -17l264 -961l656 975q8 14 37 14h225q20 -1 34 -15q12 -12 12 -23q0 -2 -1 -5l-287 -1347q-7 -27 -39 -27h-221q-19 0 -33.5 15t-11.5 28l145 664l-438 -637q-3 -6 -14 -11.5t-21 -5.5h-211q-10 0 -24 11.5 t-12 19.5l-191 647l-154 -704q-7 -27 -38 -27h-224q-18 0 -32 15q-12 12 -12 23q0 3 1 5z" />
<glyph unicode="n" horiz-adv-x="1519" d="M-160 43l287 1350q3 15 10 20.5t27 5.5h225q8 0 20.5 -7t12.5 -13l409 -856l185 850q6 26 39 26h221q18 -1 32 -15q11 -12 12 -23q0 -3 -1 -5l-287 -1349q-7 -27 -39 -27h-223q-7 0 -20.5 6.5t-14.5 13.5l-409 848l-183 -841q-7 -27 -39 -27h-223q-20 0 -32 15 q-10 12 -10 23q0 2 1 5z" />
<glyph unicode="o" horiz-adv-x="1632" d="M-88 568q2 78 18 157q23 108 71.5 210.5t123.5 194t169 160t216.5 108.5t257.5 40q100 0 185.5 -21.5t149.5 -61t113.5 -93.5t79.5 -119t45 -139q13 -65 13 -133v-18q-2 -78 -19 -157q-23 -108 -71.5 -211t-124 -194.5t-169.5 -160t-215.5 -108.5t-254.5 -40 q-101 0 -187.5 22t-150.5 61t-113.5 93.5t-79.5 119.5q-31 64 -45 138q-13 67 -13 137q1 8 1 15zM227 563q0 -59 20 -111q20 -54 53.5 -94.5t90 -64t129.5 -23.5q97 0 185 38.5t152.5 102.5t108.5 144t62 166q12 65 12 127t-20 116.5t-53.5 95.5t-90 65t-128.5 24 q-98 0 -186 -39t-151.5 -104.5t-107.5 -146t-63 -167.5q-13 -68 -13 -129z" />
<glyph unicode="p" horiz-adv-x="1187" d="M-166 39l289 1352q2 14 9.5 20t25.5 6h446q33 0 74.5 -4.5t117.5 -30t129 -68.5t82 -133q15 -47 15 -104q0 -50 -12 -108q-18 -86 -58.5 -155t-86.5 -111.5t-106.5 -73.5t-106 -45t-99.5 -22t-72.5 -8.5t-38.5 -0.5h-190l-113 -530q-3 -14 -11 -20.5t-28 -6.5h-223 q-18 0 -31.5 15t-11.5 28zM313 846h170q14 0 33 2t51 11.5t58.5 24.5t50.5 44.5t33 68.5q3 17 3 31q0 24 -9 42q-15 29 -48 39t-51.5 12.5t-40.5 2.5h-190z" />
<glyph unicode="q" horiz-adv-x="1693" d="M-80 534q-1 20 -1 41q0 74 18 150q31 143 106.5 272t183.5 227t251.5 156t299.5 58q106 0 198.5 -27.5t161.5 -77.5t121.5 -119t78.5 -151t32 -175q2 -21 2 -42q0 -74 -18 -150q-21 -100 -73 -207.5t-124 -193.5l82 -117q10 -10 13 -28t-7 -29l-190 -152q-8 -5 -17 -5 q-5 0 -10 2q-15 4 -22 14l-99 106q-195 -106 -397 -106q-107 0 -199.5 28t-161 78t-120.5 119t-77 152t-32 177zM240 696q-11 -54 -11 -104q0 -54 13 -104q25 -95 100 -155.5t188 -60.5q86 0 189 39l-21 49q-40 51 -51 62l4 -2q-13 11 -15 28.5t9 28.5l193 156q25 14 51 -8 l88 -90q60 107 76 190q14 55 14 107q0 27 -4 53q-11 76 -44.5 134.5t-101 93t-159.5 34.5q-96 0 -184.5 -37t-155 -100t-113 -144t-65.5 -170z" />
<glyph unicode="r" horiz-adv-x="1226" d="M-166 43l287 1348q2 14 9.5 20t25.5 6h444q17 0 34 -1t49.5 -4t59 -9.5t64 -17.5t63.5 -28t58 -41t48 -56t32 -74q13 -34 14 -74q0 -10 -1 -20q-4 -52 -13 -117q-31 -147 -114 -236.5t-212 -140.5q8 -47 61 -283l72 -272q1 -6 1 -12q0 -31 -34 -31h-245q-9 0 -24.5 12 t-14.5 19l-136 536h-108l-115 -540q-7 -27 -41 -27h-223q-18 0 -31 15q-11 12 -11 23q0 3 1 5zM311 840h166q19 0 40.5 3t52.5 12.5t56.5 25.5t47.5 46.5t31 69.5q4 16 4 30q1 17 -5 31q-10 26 -27.5 39t-43 20.5t-42 9t-32.5 1.5h-186z" />
<glyph unicode="s" horiz-adv-x="1112" d="M-135 235q-10 42 -10 88t10 97q2 11 9.5 14.5t27.5 3.5h223q17 0 32 -14t11 -33q-2 -15 -3 -28q0 -39 23 -60q30 -29 86 -29q70 0 130 42.5t73 107.5q4 16 4 30q-1 36 -25 64q-34 38 -81 43q-118 0 -209 53q-113 54 -159 158q-28 63 -28 138q0 47 11 98 q28 129 111.5 228.5t193 149.5t225.5 50q199 0 310 -122q83 -91 83 -218q0 -44 -10 -92q-3 -21 -37 -21h-221q-18 0 -32 15.5t-11 33.5q2 13 2 25q0 37 -22 59q-29 28 -82 29q-74 0 -132 -43.5t-75 -122.5q-4 -18 -4 -35q0 -37 21 -62q30 -36 85 -36q118 0 205 -53 q114 -53 161 -159q29 -65 29 -139q0 -48 -12 -100q-21 -99 -74.5 -179t-126 -131t-156 -78t-169.5 -27q-100 2 -180 32.5t-133.5 85t-73.5 137.5z" />
<glyph unicode="t" horiz-adv-x="917" d="M-45 1174l43 204q6 29 39 29h782q19 0 33 -15t12 -30l-45 -205q-3 -14 -10 -19t-27 -5h-247l-236 -1106q-3 -14 -10.5 -20.5t-26.5 -6.5h-223q-20 0 -32 15t-9 28l231 1090h-229q-20 -1 -34 13q-12 11 -12 23q0 3 1 5z" />
<glyph unicode="u" horiz-adv-x="1398" d="M-74 471l193 907q6 29 39 29h223q18 0 32.5 -15.5t12.5 -29.5l-195 -903q-1 -9 -1 -18q0 -74 46 -118q52 -49 134 -49q65 0 126.5 22t108.5 68t60 107l192 907q6 29 39 29h225q17 0 31 -15.5t12 -29.5l-194 -907q-46 -222 -219.5 -348.5t-403.5 -126.5q-116 0 -212 35.5 t-159 98.5q-63 64 -88 156q-13 48 -13 100q0 49 11 101z" />
<glyph unicode="v" horiz-adv-x="1169" d="M-4 1374q-2 8 -2 15q0 28 33 28h239q15 0 29 -12t10 -25q13 -84 34 -221t38 -249.5t33 -221.5q51 90 192 337t217 384q8 8 35 8h240q24 -1 38 -19q8 -11 9 -22q0 -8 -4 -16l-830 -1380q-12 -16 -31 -16q-4 0 -10 2q-26 6 -33 26z" />
<glyph unicode="w" horiz-adv-x="2058" d="M10 1374q-2 8 -2 15q0 28 35 28h240q15 0 29 -12t10 -25q60 -397 102 -698l412 719q8 16 32 16h248q14 0 27 -12t10 -25q10 -66 33.5 -216.5t39.5 -259.5t31 -222l412 719q8 16 35 16h242q26 0 38 -18q7 -10 7 -22q0 -8 -4 -17l-834 -1397q-14 -24 -41 -17.5t-29 31.5 l-172 994q-46 -79 -144 -246.5t-156 -266.5t-139 -241t-148 -262q-12 -12 -30 -13h-4q-16 0 -29 9q-14 10 -15 26z" />
<glyph unicode="x" horiz-adv-x="1380" d="M-281 22q-5 8 -5 16q0 13 12 25l-2 -6l610 652l-326 657h6q-12 20 -5.5 35.5t34.5 15.5h270q9 0 22.5 -8t14.5 -18q105 -206 209 -435l406 455q6 6 30 6h275q26 1 40 -21q8 -11 7 -23q0 -10 -6 -19l-619 -658q68 -126 133 -280q110 -192 189 -371q14 -15 6.5 -30 t-31.5 -15h-274q-8 0 -22 9t-11 20q-44 83 -118.5 240.5t-88.5 185.5q-159 -171 -403 -453q-14 -2 -39 -2h-271q-30 0 -43 22z" />
<glyph unicode="y" horiz-adv-x="1341" d="M-10 1360l10 6q-12 20 -5.5 35.5t34.5 15.5h272q6 0 20 -8.5t15 -17.5q120 -235 211 -430l401 448q16 8 33 8h274q29 0 43 -21q5 -9 5 -18q0 -12 -11 -24v6l-643 -703l-137 -630q-7 -27 -39 -27h-223q-19 0 -32.5 15t-10.5 28l133 614l-115 244z" />
<glyph unicode="z" horiz-adv-x="1193" d="M-316 20q-6 8 -6 16q0 12 13 25l-2 -8l878 1071h-547q-16 0 -30.5 15t-12.5 28l50 224q3 26 34 26h1026q26 -1 42 -17q11 -11 11 -22q0 -6 -3 -12l-889 -1073h602q21 0 32.5 -14t8.5 -29l-47 -223q-2 -10 -5 -14.5t-10.5 -8.5t-21.5 -4h-1083q-26 0 -40 20z" />
<glyph unicode="{" horiz-adv-x="708" d="M-216.5 719q-4.5 22 23.5 33l7 -2l247 110l119 545q6 29 41 29h381q19 0 31.5 -15.5t9.5 -29.5l-47 -226q-3 -15 -10.5 -21.5t-26.5 -6.5h-121l-178 -836h100q19 0 32 -15t11 -30l-49 -227q-3 -14 -10.5 -20.5t-26.5 -6.5h-380q-19 0 -34 15t-12 28l115 528l-67 45 q-97 56 -129 70h4q-26 11 -30.5 33z" />
<glyph unicode="|" horiz-adv-x="575" d="M-193 43l289 1362q6 29 41 29h228q18 0 32 -15.5t11 -29.5l-289 -1362q-7 -27 -39 -27h-227q-19 0 -34 15t-12 28z" />
<glyph unicode="}" horiz-adv-x="737" d="M-250 43l47 227q3 15 11 22t28 7h119l178 836h-98q-21 0 -33.5 15t-9.5 30l47 225q3 15 11 22t28 7h379q19 0 33.5 -15.5t11.5 -29.5l-121 -533q7 -4 23 -13t27 -16t18 -14q25 -10 69 -32.5t68 -32.5h-4q25 -11 28.5 -33t-22.5 -33l-6 2l-250 -111l-119 -546 q-7 -27 -41 -27h-379q-20 0 -33 15t-10 28z" />
<glyph unicode="~" horiz-adv-x="950" d="M-154 618q46 112 128.5 170t181.5 58q104 0 202 -55l15 -3q32 -16 49 -16q44 0 70 59q37 6 51 3l176 -54q19 -2 32.5 -20.5t0.5 -30.5h2q-66 -122 -140 -173.5t-165 -51.5q-103 0 -207 49l-31 8l-21 10q-7 2 -25.5 6t-21.5 5q0 -1 -5 -8t-12 -20.5t-11 -27.5 q-25 -18 -56 -12l-178 51q-15 3 -26.5 19t-8.5 34z" />
<glyph unicode="&#xa1;" horiz-adv-x="565" d="M-184 29l204 964q6 29 41 29h228q18 0 33 -15.5t12 -29.5l-207 -965q-3 -28 -37 -28h-227q-20 0 -35 15.5t-12 29.5zM68 1284q14 62 66.5 106t117.5 44q79 0 125.5 -54t32.5 -125q-14 -62 -68.5 -106.5t-118.5 -44.5q-80 0 -124.5 54t-30.5 126z" />
<glyph unicode="&#xa2;" horiz-adv-x="1187" d="M-80 731q43 198 194 350t357 205l41 148q6 28 39 28h176q19 0 32.5 -15.5t10.5 -29.5l-35 -119q182 -33 285 -178q13 -12 16.5 -31t-8.5 -34l-156 -125q-29 -21 -53 -15t-37 33q-43 43 -88 60l-143 -580q78 29 125 82q51 28 84 -14l106 -134q18 -45 0 -77 q-156 -112 -358 -154l-33 -104q-6 -29 -39 -29h-176q-18 0 -32 15.5t-11 29.5l33 107q-185 53 -279.5 215t-50.5 366zM229 702q-37 -171 66 -249l127 516q-70 -43 -122.5 -114t-70.5 -153z" />
<glyph unicode="&#xa3;" horiz-adv-x="1212" d="M-213 516l51 240q3 14 11 19t28 5h182l13 19l-2 4q5 8 13 22.5t12.5 23t11 18t12.5 14.5l-4 -2q166 235 409 395q79 42 164.5 74t147.5 47.5t119 25t80 11.5t30 2q25 0 40.5 -15t12.5 -30l-49 -236q-6 -29 -29 -29q-8 0 -25 -1.5t-56 -9t-80 -20t-96.5 -38t-106.5 -58.5 q-142 -74 -260 -223l137 6q20 0 35 -13.5t12 -27.5l-51 -239q-5 -27 -41 -27l-268 -8q-8 -22 -30.5 -79.5t-31.5 -84.5l656 8q18 0 33 -15.5t12 -29.5l-52 -237q-7 -27 -39 -27h-948q-19 0 -32.5 15t-10.5 28l25 119q42 192 88 319l-78 -8q-20 0 -34 14t-11 29z" />
<glyph unicode="&#xa5;" horiz-adv-x="1310" d="M-31 1376l11 6q-15 19 -8 35.5t34 16.5h277q9 0 21.5 -9t12.5 -20q63 -124 213 -449l416 469q11 9 33 9h278q29 0 42.5 -22.5t-7.5 -41.5l2 6l-516 -555h86q18 0 33 -15.5t12 -29.5l-35 -160q-6 -28 -38 -28h-218l-18 -84h197q18 0 33 -15.5t12 -29.5l-33 -154 q-6 -29 -39 -29h-217l-53 -249q-7 -27 -39 -27h-228q-18 0 -32 15t-11 28l50 233h-203q-19 0 -33.5 16t-11.5 30l33 153q3 29 38 29h224l18 84h-205q-19 0 -33.5 15.5t-11.5 29.5l33 160q6 28 41 28h115z" />
<glyph unicode="&#xa7;" horiz-adv-x="851" d="M-182 313q4 21 39 21h163q20 0 34.5 -15t11.5 -34q-7 -26 -5 -41t15 -27q38 -11 76 -6q1 1 3 1q34 9 54 24q56 13 70 77q9 48 -11 70q-25 6 -78 6q-1 0 -12.5 2t-26 5t-33 8t-39 13.5t-38.5 18.5q-80 41 -117.5 120t-17.5 175q26 122 119 205q-57 84 -31 211 q20 89 81 163t148 117q102 35 195 35q82 -8 139 -49q87 -38 126 -117.5t17 -177.5q-3 -20 -36 -20h-166q-20 0 -33 15t-10 34q10 46 -11 67q-52 10 -53 11q-4 -2 -33 -2l4 -2q-14 -2 -33 -9.5t-26 -17.5q-46 -10 -61 -76q-10 -49 10 -69q29 -7 78 -7q1 0 10 -1.5t18.5 -3 t24 -5t28 -8t29.5 -11t29 -14.5q90 -41 126.5 -119.5t16.5 -179.5q-26 -125 -114 -202q52 -81 26 -213q-20 -89 -80.5 -163.5t-148.5 -117.5q-92 -35 -195 -35q-19 0 -69 16q-40 13 -70 31q-86 40 -125 120t-18 177zM154 702q-9 -49 18 -65l-2 2q27 -12 70 -12q1 1 9.5 3.5 t22.5 8t25 12.5q27 6 45.5 27t24.5 53q9 42 -19 64q-33 10 -67 10q0 -1 -9.5 -3.5t-26.5 -7t-30 -8.5l4 -2q-53 -22 -65 -82zM330 1042z" />
<glyph unicode="&#xa8;" horiz-adv-x="770" d="M-31 1296q12 61 65.5 105.5t112.5 44.5q77 0 125 -54t33 -124q-13 -61 -68.5 -105.5t-117.5 -44.5q-74 0 -119.5 54t-30.5 124zM395 1296q12 61 66.5 105.5t116.5 44.5q75 0 121.5 -54t31.5 -124q-13 -61 -67.5 -105.5t-114.5 -44.5q-76 0 -122.5 53.5t-31.5 124.5z" />
<glyph unicode="&#xa9;" horiz-adv-x="1417" d="M-68 827q36 165 145.5 304.5t266 221t322.5 81.5q132 0 242.5 -50.5t177.5 -137t95.5 -202t-1.5 -245.5q-35 -165 -145 -303.5t-267 -218.5t-324 -80q-176 0 -307 84.5t-186 229.5t-19 316zM164 799q-34 -158 51 -269.5t236 -111.5q110 0 216 55.5t181 149.5t98 204 q34 160 -49.5 271.5t-237.5 111.5q-166 0 -313 -121.5t-182 -289.5zM254 829q26 121 133 209t227 88q73 0 129 -27.5t84 -74.5q13 -6 18 -22t-3 -25l-88 -64q-14 -9 -28 -3t-17 20q-44 35 -88 35q-64 0 -121.5 -49t-71.5 -115q-11 -56 15 -93.5t75 -37.5q69 0 119 53 q34 9 55 -16l62 -64q19 -33 4 -57q-113 -80 -234 -80q-135 0 -216.5 97t-53.5 226z" />
<glyph unicode="&#xab;" horiz-adv-x="1032" d="M-160 694q187 171 447 451q15 5 34.5 1.5t26.5 -13.5l125 -115q22 -31 10 -51l-315 -305l190 -283l-10 -6q24 -33 -2 -51l-2 4l-170 -125q-14 -8 -30 -2t-23 16l-277 428q-11 22 -4 51zM307 686l449 453q12 9 29.5 7t25.5 -13l123 -113q14 -12 17.5 -26.5t-9.5 -28.5l4 8 l-299 -316l168 -286q17 -33 -4 -49l-2 4l-172 -125q-15 -7 -29.5 -2t-21.5 16l-273 428q-20 29 -6 43z" />
<glyph unicode="&#xad;" horiz-adv-x="907" d="M-125 625l45 206q3 29 39 29h684q21 0 34.5 -15.5t10.5 -29.5l-45 -207q-2 -13 -9.5 -19.5t-27.5 -6.5h-684q-19 0 -34.5 15t-12.5 28z" />
<glyph unicode="&#xae;" horiz-adv-x="1382" d="M-149 609q-11 103 10 218q38 181 158.5 334.5t293 243.5t355.5 90q97 0 184.5 -25t155 -71t120 -110t80.5 -141t36.5 -165.5t-13.5 -183.5q-29 -136 -107.5 -259t-186.5 -212t-243.5 -141t-273.5 -52q-116 0 -217 35.5t-173 98.5t-120 150t-59 190zM106 799 q-25 -117 9.5 -216t117.5 -156.5t195 -57.5q124 0 243 62t203.5 167.5t110.5 228.5q38 180 -56.5 305t-269.5 125q-187 0 -350 -135t-203 -323zM260 539l119 557q3 15 10 20.5t27 5.5h192q110 0 167.5 -61t37.5 -154q-18 -92 -131 -151l49 -219q7 -43 -37 -43h-100 q-14 0 -25.5 11.5t-13.5 24.5l-47 205h-23l-47 -213q-6 -28 -39 -28h-98q-20 0 -32 15t-9 30zM502 874h53q50 0 78 38q23 32 3 51q-13 12 -40 12h-74z" />
<glyph unicode="&#xb0;" horiz-adv-x="747" d="M-39 1143q28 132 141.5 226.5t245.5 94.5q148 0 233 -104t56 -246q-28 -131 -142 -224t-247 -93q-147 0 -232.5 103t-54.5 243zM197 1114q-8 -38 8.5 -64t48.5 -26q49 0 92.5 35.5t54.5 83.5q8 40 -9 68t-50 28q-47 0 -90.5 -37.5t-54.5 -87.5z" />
<glyph unicode="&#xb1;" horiz-adv-x="1060" d="M-158 0h715l53 244h-714zM-98 688l41 197q3 14 11.5 20t27.5 6h270l57 277q3 14 11 20t28 6h203q19 0 33 -15t12 -28l-55 -260h250q18 0 30.5 -14.5t9.5 -28.5l-40 -196q-8 -27 -37 -27h-271l-59 -280q-6 -29 -39 -29h-203q-21 0 -33.5 15t-9.5 30l56 264h-250 q-19 0 -32.5 15.5t-10.5 27.5z" />
<glyph unicode="&#xb2;" horiz-adv-x="698" d="M-133 625l20 118l359 394q46 50 51 80q8 32 -10 32q-28 0 -52.5 -17t-31.5 -48q-4 -21 -39 -21h-129q-20 0 -33 15.5t-10 33.5q22 104 105 171t196 67q120 0 185.5 -73t43.5 -179q-23 -92 -90 -170l-237 -248h196q17 0 31.5 -13.5t11.5 -27.5l-28 -131q-3 -26 -35 -26 h-459q-19 0 -33.5 15t-11.5 28z" />
<glyph unicode="&#xb3;" horiz-adv-x="681" d="M-70 860q5 21 39 21h129q19 0 33.5 -17t11.5 -33q-10 -49 21 -49q33 0 63.5 24t36.5 54q14 64 -26 64h-56q-19 0 -33 14t-10 29l23 108q6 29 39 29h57q22 0 44 26.5t28 55.5q4 20 -5 33.5t-24 13.5q-31 0 -59.5 -23.5t-34.5 -52.5q-4 -22 -39 -22h-125q-20 0 -33 16 t-10 35q22 102 110 175t193 73q121 0 192.5 -79.5t45.5 -197.5q-18 -87 -101 -153q26 -31 37 -78.5t2 -94.5q-18 -80 -67.5 -137.5t-113.5 -84.5t-134 -27q-121 0 -189 81t-45 197z" />
<glyph unicode="&#xb4;" horiz-adv-x="569" d="M-34 1287q1 15 14 24q234 103 399 194q28 4 50 1t22 -11l79 -180q4 -30 -20 -41l-2 4l-397 -193q-15 -5 -31 -5t-26.5 3.5t-10.5 8.5l-76 161l8 7q-10 12 -9 27z" />
<glyph unicode="&#xb7;" horiz-adv-x="417" d="M-127 737q12 63 67 108.5t117 45.5q81 0 126 -54.5t30 -127.5q-14 -62 -67.5 -106t-118.5 -44q-76 0 -122.5 53.5t-31.5 124.5z" />
<glyph unicode="&#xb8;" horiz-adv-x="878" d="M-283 -90q4 22 37 22h185q20 0 34 -16t11 -35q-8 -39 9 -64.5t50 -25.5q46 0 88 36t53 83q9 40 -8 66t-49 26q-25 0 -40.5 15t-12.5 28l39 188q7 25 28 25q160 0 252 -111.5t60 -265.5q-31 -143 -155.5 -245.5t-268.5 -102.5q-162 0 -253 112t-59 265z" />
<glyph unicode="&#xb9;" horiz-adv-x="546" d="M13.5 1343.5q2.5 11.5 23.5 18.5l4 -2l197 74h112q19 0 33.5 -15.5t11.5 -29.5l-141 -672q-6 -29 -41 -29h-131q-18 0 -33 15.5t-12 29.5l106 455q-8 -3 -26 -8t-21 -6v2q-16 -6 -33 2t-22 18l-23 125q-7 11 -4.5 22.5z" />
<glyph unicode="&#xbb;" horiz-adv-x="1095" d="M-215 373l311 286l-162 314l11 4q-11 12 -11 27.5t11 25.5l174 113q16 8 31 1.5t20 -18.5l264 -452q6 -8 8 -22t-4 -27q-254 -226 -448 -426q-38 -11 -58 12l-127 119q-8 9 -14.5 24t-5.5 19zM276 389q57 52 165 152.5t132 122.5l-157 309l10 4q-28 32 0 51l174 117 q15 8 30 0t21 -19l264 -452q7 -8 8.5 -22t-3.5 -27q-280 -250 -449 -426q-39 -9 -61 10l-125 121q-24 29 -9 59z" />
<glyph unicode="&#xbf;" horiz-adv-x="1003" d="M-175.5 242q-17.5 86 5.5 198q27 124 135.5 226.5t247.5 144.5l57 219q7 25 39 25h207q19 0 32.5 -14.5t10.5 -26.5l-88 -414q-5 -27 -31 -27q-74 4 -132 -9.5t-92 -39t-53 -54t-26 -58.5q-17 -76 9.5 -104.5t80.5 -28.5q62 0 112.5 36t63.5 93q4 20 37 20h228 q21 0 32.5 -15.5t8.5 -33.5q-38 -175 -181.5 -287t-322.5 -112q-100 0 -179.5 30t-131.5 88t-69.5 144zM295 1294q14 69 68 108.5t116 39.5q77 0 124.5 -47t31.5 -129q-16 -71 -70 -110.5t-116 -39.5q-77 0 -124.5 48t-29.5 130z" />
<glyph unicode="&#xc0;" d="M-319 63q423 687 835 1393q19 17 46.5 10t31.5 -30l250 -1393q7 -43 -33 -43h-248q-12 0 -25 10t-16 21v-8l-24 141h-412l-82 -141v-7q-9 -16 -39 -16h-244q-26 0 -37.5 19.5t-2.5 43.5zM223 412h244l-25 221q-11 119 -6 190q-51 -122 -94 -207zM362 1702q-7 18 7 33v-9 l145 183q2 3 6 3.5t10 -1t10 -3.5t13.5 -6t13.5 -6l310 -192l-13 -2q20 -9 28.5 -23.5t-7.5 -29.5v6l-131 -172q-12 -12 -58 8l-307 188q-20 5 -27 23z" />
<glyph unicode="&#xc1;" d="M-319 63q423 687 835 1393q19 17 46.5 10t31.5 -30l250 -1393q7 -43 -33 -43h-248q-12 0 -25 10t-16 21v-8l-24 141h-412l-82 -141v-7q-9 -16 -39 -16h-244q-26 0 -37.5 19.5t-2.5 43.5zM223 412h244l-25 221q-11 119 -6 190q-51 -122 -94 -207zM336 1688q1 15 14 24 q244 109 400 195q28 4 49.5 0.5t21.5 -11.5l78 -180q8 -29 -18 -41l-2 4l-398 -192q-25 -7 -46 -4.5t-23 10.5l-74 162l8 6q-11 12 -10 27z" />
<glyph unicode="&#xc2;" d="M-319 63q423 687 835 1393q19 17 46.5 10t31.5 -30l250 -1393q7 -43 -33 -43h-248q-12 0 -25 10t-16 21v-8l-24 141h-412l-82 -141v-7q-9 -16 -39 -16h-244q-26 0 -37.5 19.5t-2.5 43.5zM223 412h244l-25 221q-11 119 -6 190q-51 -122 -94 -207zM231 1612l7 4 q-19 38 12 49l4 -2l367 195q4 3 18 -1t18 -8l310 -176l-13 -2q20 -9 28.5 -24t-5.5 -31v8l-117 -156q-18 -14 -53 -6l-207 123q-110 -56 -227 -127q-20 -1 -41 7t-29 20z" />
<glyph unicode="&#xc3;" d="M-319 63q423 687 835 1393q19 17 46.5 10t31.5 -30l250 -1393q7 -43 -33 -43h-248q-12 0 -25 10t-16 21v-8l-24 141h-412l-82 -141v-7q-9 -16 -39 -16h-244q-26 0 -37.5 19.5t-2.5 43.5zM223 412h244l-25 221q-11 119 -6 190q-51 -122 -94 -207zM223 1612q38 105 110 159 t159 54q101 0 174 -51l2 2q38 -17 49 -17q34 0 55 49q17 8 57 2l148 -45l-14 -2q21 -5 33.5 -20t0.5 -31h2q-56 -113 -120.5 -160t-145.5 -47q-76 0 -172 45l-29 9q-36 18 -38 18q-9 -2 -20 -14.5t-15 -32.5q-24 -20 -56 -14l-159 40l12 3q-15 3 -25.5 19.5t-7.5 33.5z" />
<glyph unicode="&#xc4;" d="M-319 63q423 687 835 1393q19 17 46.5 10t31.5 -30l250 -1393q7 -43 -33 -43h-248q-12 0 -25 10t-16 21v-8l-24 141h-412l-82 -141v-7q-9 -16 -39 -16h-244q-26 0 -37.5 19.5t-2.5 43.5zM223 412h244l-25 221q-11 119 -6 190q-51 -122 -94 -207zM240 1671 q12 61 65.5 105.5t112.5 44.5q76 0 123.5 -54t33.5 -125q-13 -61 -68.5 -105t-117.5 -44q-74 0 -119 54t-30 124zM666 1671q12 61 66 105.5t116 44.5q75 0 121 -54t32 -125q-13 -61 -67.5 -105t-114.5 -44q-76 0 -122 53.5t-31 124.5z" />
<glyph unicode="&#xc5;" horiz-adv-x="1167" d="M-303 57l766 1239q-89 27 -136 102t-22 185q31 146 161 221q114 65 241 46q123 -18 179 -107q48 -78 25 -189q-24 -106 -93 -173t-167 -91l211 -1247q7 -43 -33 -43h-247q-12 0 -25.5 11.5t-13.5 21.5l-4 -10l-23 141h-412l-81 -141v-7q-9 -16 -39 -16h-244 q-25 0 -38 18.5t-5 38.5zM242 412h243l-24 221q-11 119 -6 190q-46 -111 -95 -207zM512 1554q-13 -60 34 -79q45 -17 96 16q51 31 65 92q12 58 -35 76q-46 17 -97 -14q-50 -32 -63 -91z" />
<glyph unicode="&#xc6;" horiz-adv-x="1619" d="M-284.5 20.5q-14.5 20.5 5.5 40.5l-2 -8l914 1358q7 10 13 14.5t11.5 6t18.5 2.5h778q19 0 32.5 -15.5t10.5 -29.5l-45 -215q-7 -27 -39 -27h-455l-59 -281h342q19 0 33.5 -15.5t11.5 -29.5l-43 -211q-7 -26 -41 -26h-362l-64 -301h457q18 0 32 -15t11 -28l-45 -213 q-7 -27 -39 -27h-715q-19 0 -32.5 15t-10.5 28l29 135l-301 -6q-20 -26 -53.5 -80t-53.5 -80l6 2q-11 -14 -41 -14h-262q-28 0 -42.5 20.5zM340 446l180 9q15 66 123 485z" />
<glyph unicode="&#xc7;" horiz-adv-x="1421" d="M-82.5 505.5q-12.5 108.5 10.5 229.5q30 144 114 276.5t200 229t261 154t292 57.5q157 0 281.5 -58t201.5 -161l-2 4q29 -34 6 -57l-199 -160q-14 -6 -29.5 -0.5t-17.5 16.5q-110 113 -266 113q-118 0 -231.5 -59.5t-193.5 -161.5t-105 -221q-37 -171 53.5 -290.5 t255.5 -119.5q88 0 174 35.5t154 99.5q17 3 35 -1.5t28 -12.5l133 -164l-8 -2q13 -11 15.5 -27.5t-7.5 -34.5q-182 -127 -309 -170q77 -63 53 -188q-32 -145 -149.5 -228t-276.5 -83q-173 0 -262 99t-57 257q5 19 39 19h188q21 0 34 -14t9 -34q-7 -36 11 -53.5t53 -17.5 q48 0 92.5 38t54.5 89q7 34 -3.5 59t-31.5 33q-120 3 -225.5 42t-182.5 106.5t-128.5 160t-64 201z" />
<glyph unicode="&#xc8;" horiz-adv-x="1204" d="M-168 43l289 1362q6 29 39 29h891q18 0 32 -15.5t11 -29.5l-45 -220q-6 -28 -39 -28h-631l-60 -275h515q18 0 30.5 -15.5t9.5 -29.5l-47 -221q-3 -27 -34 -27h-535l-59 -274h626q19 0 34 -15.5t13 -29.5l-49 -227q-7 -27 -41 -27h-907q-19 0 -32.5 15t-10.5 28z M437.5 1745q-7.5 18 6.5 33v-9l146 183q2 3 6 3.5t10 -1t10 -3.5t13.5 -6t13.5 -6l309 -192l-14 -2q21 -9 29.5 -23.5t-6.5 -29.5l-3 6l-129 -172q-14 -12 -59 8l-307 188q-18 5 -25.5 23z" />
<glyph unicode="&#xc9;" horiz-adv-x="1204" d="M-168 43l289 1362q6 29 39 29h891q18 0 32 -15.5t11 -29.5l-45 -220q-6 -28 -39 -28h-631l-60 -275h515q18 0 30.5 -15.5t9.5 -29.5l-47 -221q-3 -27 -34 -27h-535l-59 -274h626q19 0 34 -15.5t13 -29.5l-49 -227q-7 -27 -41 -27h-907q-19 0 -32.5 15t-10.5 28z M430.5 1710.5q0.5 15.5 13.5 24.5q239 105 400 194q28 4 49.5 1t21.5 -11l80 -180q4 -30 -20 -41l-2 4l-398 -193q-15 -5 -31 -5t-26 3.5t-10 8.5l-76 161l8 6q-10 12 -9.5 27.5z" />
<glyph unicode="&#xca;" horiz-adv-x="1204" d="M-168 43l289 1362q6 29 39 29h891q18 0 32 -15.5t11 -29.5l-45 -220q-6 -28 -39 -28h-631l-60 -275h515q18 0 30.5 -15.5t9.5 -29.5l-47 -221q-3 -27 -34 -27h-535l-59 -274h626q19 0 34 -15.5t13 -29.5l-49 -227q-7 -27 -41 -27h-907q-19 0 -32.5 15t-10.5 28zM317 1683 l5 5q-19 38 12 49l4 -2l367 194q5 3 18.5 -0.5t19.5 -7.5l308 -176l-13 -2q20 -9 28.5 -24t-5.5 -31v8l-117 -156q-16 -14 -53 -6l-207 123q-110 -56 -227 -127q-19 -2 -40.5 6t-27.5 20z" />
<glyph unicode="&#xcb;" horiz-adv-x="1204" d="M-168 43l289 1362q6 29 39 29h891q18 0 32 -15.5t11 -29.5l-45 -220q-6 -28 -39 -28h-631l-60 -275h515q18 0 30.5 -15.5t9.5 -29.5l-47 -221q-3 -27 -34 -27h-535l-59 -274h626q19 0 34 -15.5t13 -29.5l-49 -227q-7 -27 -41 -27h-907q-19 0 -32.5 15t-10.5 28zM324 1700 q12 61 65.5 105t112.5 44q76 0 123.5 -53.5t33.5 -124.5q-13 -61 -68.5 -105t-117.5 -44q-74 0 -119 54t-30 124zM750 1700q12 61 66 105t116 44q75 0 121 -53.5t32 -124.5q-13 -61 -67.5 -105t-114.5 -44q-76 0 -122 53.5t-31 124.5z" />
<glyph unicode="&#xcc;" horiz-adv-x="716" d="M-266 43l43 209q7 27 39 27h129l186 876h-100q-18 0 -32 15t-11 28l43 207q6 29 39 29h532q19 0 32.5 -15.5t10.5 -29.5l-43 -207q-7 -27 -39 -27h-119l-186 -876h107q18 0 32.5 -15t12.5 -28l-45 -209q-7 -27 -39 -27h-549q-18 0 -32 15t-11 28zM151 1745q-7 18 7 33v-9 l145 183q2 3 6 3.5t10 -1t10 -3.5t13.5 -6t13.5 -6l310 -192l-15 -2q21 -9 29.5 -23.5t-6.5 -29.5l-2 6l-129 -172q-14 -12 -60 8l-307 188q-18 5 -25 23z" />
<glyph unicode="&#xcd;" horiz-adv-x="716" d="M-266 43l43 209q7 27 39 27h129l186 876h-100q-18 0 -32 15t-11 28l43 207q6 29 39 29h532q19 0 32.5 -15.5t10.5 -29.5l-43 -207q-7 -27 -39 -27h-119l-186 -876h107q18 0 32.5 -15t12.5 -28l-45 -209q-7 -27 -39 -27h-549q-18 0 -32 15t-11 28zM129 1727q1 15 14 24 q230 101 400 195q28 4 49.5 0.5t21.5 -11.5l78 -180q8 -29 -18 -41l-2 4l-398 -192q-23 -7 -45 -4.5t-24 10.5l-74 162l8 6q-11 12 -10 27z" />
<glyph unicode="&#xce;" horiz-adv-x="716" d="M-266 43l43 209q7 27 39 27h129l186 876h-100q-18 0 -32 15t-11 28l43 207q6 29 39 29h532q19 0 32.5 -15.5t10.5 -29.5l-43 -207q-7 -27 -39 -27h-119l-186 -876h107q18 0 32.5 -15t12.5 -28l-45 -209q-7 -27 -39 -27h-549q-18 0 -32 15t-11 28zM35 1681l4 5 q-19 38 12 49l4 -2l367 194q5 3 19 -0.5t18 -7.5l309 -176l-12 -2q20 -9 28.5 -24t-6.5 -31v8l-116 -156q-18 -14 -54 -6l-207 123q-110 -56 -227 -127q-19 -2 -40.5 6t-27.5 20z" />
<glyph unicode="&#xcf;" horiz-adv-x="716" d="M-266 43l43 209q7 27 39 27h129l186 876h-100q-18 0 -32 15t-11 28l43 207q6 29 39 29h532q19 0 32.5 -15.5t10.5 -29.5l-43 -207q-7 -27 -39 -27h-119l-186 -876h107q18 0 32.5 -15t12.5 -28l-45 -209q-7 -27 -39 -27h-549q-18 0 -32 15t-11 28zM35 1700q12 61 65.5 105 t112.5 44q76 0 124 -53.5t34 -124.5q-13 -61 -69 -105t-118 -44q-74 0 -119 54t-30 124zM461 1700q12 61 66 105t116 44q75 0 121.5 -53.5t32.5 -124.5q-13 -61 -68 -105t-115 -44q-76 0 -122 53.5t-31 124.5z" />
<glyph unicode="&#xd0;" horiz-adv-x="1355" d="M-193 621l41 198q2 10 5 14.5t10.5 8.5t21.5 4h117l119 559q6 29 39 29h227q63 0 120 -4t123 -14.5t122 -28t112 -47t98.5 -68.5t76.5 -94.5t50.5 -123.5t15 -157.5t-23.5 -194.5q-27 -126 -76.5 -229.5t-111 -175t-140.5 -126t-156.5 -86.5t-167.5 -51.5t-167 -26.5 t-160 -7h-227q-19 0 -32.5 15t-10.5 28l113 535h-97q-20 0 -32 15t-9 28zM186 289q52 0 96 3.5t98.5 14.5t99.5 30t92 52.5t83.5 79t67 112.5t47.5 150q46 217 -50 316.5t-331 99.5l-74 -301h201q19 0 34 -15t13 -28l-43 -199q-6 -26 -41 -26h-221z" />
<glyph unicode="&#xd1;" horiz-adv-x="1519" d="M-166 43l289 1362q6 29 39 29h231q8 0 20.5 -9t12.5 -20q40 -80 131 -261.5t158 -316.5t131 -268l186 846q6 29 39 29h225q19 0 32.5 -15.5t10.5 -29.5l-288 -1362q-7 -27 -39 -27h-230q-8 0 -20 9t-12 20q-116 230 -418 848l-187 -850q-7 -27 -39 -27h-229q-18 0 -32 15 t-11 28zM422 1632q37 105 108 159t158 54q101 0 174 -51l4 2q32 -16 47 -16t31.5 13t24.5 36q17 8 57 2l150 -45l-17 -2q22 -5 34.5 -20t0.5 -31h2q-56 -113 -119.5 -160t-144.5 -47q-78 0 -174 45l-29 8q-36 18 -39 18q-9 -2 -20 -14.5t-15 -32.5q-24 -20 -55 -14l-160 41 l13 2q-14 3 -24.5 19.5t-6.5 33.5z" />
<glyph unicode="&#xd2;" horiz-adv-x="1306" d="M-160 43l47 225q6 29 39 29h897q19 0 33.5 -15.5t11.5 -29.5l-47 -225q-7 -27 -41 -27h-897q-19 0 -32.5 15t-10.5 28zM-27 926q30 142 127 263t234.5 191t281.5 70q153 0 268.5 -75t165 -202.5t17.5 -275.5q-46 -217 -233 -368.5t-406 -151.5q-115 0 -211.5 43.5 t-157.5 117t-85 175t-1 213.5zM281 897q-20 -97 29 -160t141 -63q106 0 196 72.5t113 179.5q22 96 -26.5 161.5t-139.5 65.5q-106 0 -198 -75t-115 -181zM442 1732.5q-7 17.5 7 32.5l2 -8l145 182q2 2 4 3t5.5 0.5t6.5 -1t8 -2.5t8.5 -3.5t9 -4t9.5 -4.5l309 -192l-12 -2 q20 -9 29 -24t-6 -30l-2 7l-131 -173q-11 -11 -58 9l-307 188q-20 5 -27 22.5z" />
<glyph unicode="&#xd3;" horiz-adv-x="1306" d="M-160 43l47 225q6 29 39 29h897q19 0 33.5 -15.5t11.5 -29.5l-47 -225q-7 -27 -41 -27h-897q-19 0 -32.5 15t-10.5 28zM-27 926q30 142 127 263t234.5 191t281.5 70q153 0 268.5 -75t165 -202.5t17.5 -275.5q-46 -217 -233 -368.5t-406 -151.5q-115 0 -211.5 43.5 t-157.5 117t-85 175t-1 213.5zM281 897q-20 -97 29 -160t141 -63q106 0 196 72.5t113 179.5q22 96 -26.5 161.5t-139.5 65.5q-106 0 -198 -75t-115 -181zM423 1723q1 16 15 24q230 103 400 195q26 4 48.5 0.5t22.5 -11.5l78 -180q4 -31 -18 -41l-4 4l-398 -192 q-23 -7 -44 -4.5t-23 10.5l-74 162l6 6q-10 11 -9 27z" />
<glyph unicode="&#xd4;" horiz-adv-x="1306" d="M-160 43l47 225q6 29 39 29h897q19 0 33.5 -15.5t11.5 -29.5l-47 -225q-7 -27 -41 -27h-897q-19 0 -32.5 15t-10.5 28zM-27 926q30 142 127 263t234.5 191t281.5 70q153 0 268.5 -75t165 -202.5t17.5 -275.5q-46 -217 -233 -368.5t-406 -151.5q-115 0 -211.5 43.5 t-157.5 117t-85 175t-1 213.5zM281 897q-20 -97 29 -160t141 -63q106 0 196 72.5t113 179.5q22 96 -26.5 161.5t-139.5 65.5q-106 0 -198 -75t-115 -181zM326 1671l4 4q-19 38 12 49l4 -2l367 195q5 3 19 -0.5t18 -7.5l309 -176l-12 -2q20 -9 28.5 -24.5t-6.5 -31.5v8 l-117 -155q-18 -14 -53 -6l-207 123q-110 -56 -227 -127q-19 -2 -41 6t-29 20z" />
<glyph unicode="&#xd5;" horiz-adv-x="1306" d="M-160 43l47 225q6 29 39 29h897q19 0 33.5 -15.5t11.5 -29.5l-47 -225q-7 -27 -41 -27h-897q-19 0 -32.5 15t-10.5 28zM-27 926q30 142 127 263t234.5 191t281.5 70q153 0 268.5 -75t165 -202.5t17.5 -275.5q-46 -217 -233 -368.5t-406 -151.5q-115 0 -211.5 43.5 t-157.5 117t-85 175t-1 213.5zM281 897q-20 -97 29 -160t141 -63q106 0 196 72.5t113 179.5q22 96 -26.5 161.5t-139.5 65.5q-106 0 -198 -75t-115 -181zM311 1640q38 105 110 159t159 54q101 0 174 -51l2 2q36 -16 49 -16q34 0 55 49q17 9 58 2l147 -45l-14 -2 q21 -5 33.5 -20t0.5 -31h2q-56 -113 -120.5 -160t-145.5 -47q-76 0 -172 45l-28 8q-38 19 -39 19q-9 -2 -20 -14.5t-15 -32.5q-24 -21 -58 -15l-157 41l12 2q-15 3 -25.5 19.5t-7.5 33.5z" />
<glyph unicode="&#xd6;" horiz-adv-x="1306" d="M-160 43l47 225q6 29 39 29h897q19 0 33.5 -15.5t11.5 -29.5l-47 -225q-7 -27 -41 -27h-897q-19 0 -32.5 15t-10.5 28zM-27 926q30 142 127 263t234.5 191t281.5 70q153 0 268.5 -75t165 -202.5t17.5 -275.5q-46 -217 -233 -368.5t-406 -151.5q-115 0 -211.5 43.5 t-157.5 117t-85 175t-1 213.5zM281 897q-20 -97 29 -160t141 -63q106 0 196 72.5t113 179.5q22 96 -26.5 161.5t-139.5 65.5q-106 0 -198 -75t-115 -181zM326 1690q12 61 65.5 105t112.5 44q76 0 124 -53.5t34 -124.5q-13 -61 -69 -105.5t-118 -44.5q-74 0 -119 54.5 t-30 124.5zM752 1690q12 61 66 105t116 44q75 0 121 -53.5t32 -124.5q-13 -61 -67.5 -105.5t-114.5 -44.5q-76 0 -122 54t-31 125z" />
<glyph unicode="&#xd7;" horiz-adv-x="825" d="M-195 499.5q-3 14.5 9 28.5l221 168l-137 176l6 2q-13 11 -15 29t9 29l170 135q13 8 28 4t23 -14l141 -170l213 178q26 17 49 -10l117 -131l-6 -2q11 -11 14 -29t-8 -29l-221 -168l129 -178q14 -14 16.5 -28.5t-10.5 -28.5l-170 -135q-25 -14 -47 8l-143 172l-211 -180 q-14 -7 -32 -1t-26 17l-110 127l6 2q-12 14 -15 28.5z" />
<glyph unicode="&#xd8;" horiz-adv-x="1269" d="M-164 23l47 225q6 28 39 28h897q19 0 33.5 -15.5t11.5 -29.5l-47 -225q-7 -26 -41 -26h-897q-19 0 -32.5 15t-10.5 28zM-86 361.5q-14 19.5 8 41.5l-2 -6l135 146q-129 163 -82 383q30 142 127 263t234.5 191t281.5 70q111 0 201 -41l57 59q11 15 37 15h238q28 0 41 -22 t-4 -44l-174 -176q96 -160 55 -344q-46 -217 -233 -368.5t-406 -151.5q-90 0 -158 22l-47 -51q-4 -4 -7 -5.5t-4.5 -1.5t-5 0.5t-5.5 0.5h-242q-31 0 -45 19.5zM281 897q-20 -97 29 -160t141 -63q106 0 196 72.5t113 179.5q22 96 -26.5 161.5t-139.5 65.5q-106 0 -198 -75 t-115 -181z" />
<glyph unicode="&#xd9;" horiz-adv-x="1515" d="M-57 540.5q4 37.5 8 51.5l172 813q6 29 39 29h1132q19 0 32.5 -15.5t10.5 -29.5l-172 -814q0 -1 -3 -13.5t-7 -27t-11 -37t-17 -48t-22.5 -53.5t-29.5 -60t-37 -62q-110 -142 -260 -218t-327 -76q-187 0 -313.5 87t-168.5 238q-20 58 -25 128t-1 107.5zM252 495 q-4 -52 6 -89q58 -127 215 -127q193 0 297 155q28 32 50 72t30 62.5t8 25.5l119 561h-594l-119 -563q-3 -11 -5.5 -28t-6.5 -69zM548 1736.5q-7 17.5 7 32.5v-8l145 183q2 2 4.5 3t6 0.5t7 -1.5t8.5 -3t8.5 -3.5t9.5 -4t10 -4.5l309 -192l-14 -2q20 -9 29 -24t-7 -30v7 l-131 -172q-5 -4 -10.5 -5.5t-15.5 1.5t-13.5 4.5l-17.5 7.5l-310 188q-18 5 -25 22.5z" />
<glyph unicode="&#xda;" horiz-adv-x="1515" d="M-57 540.5q4 37.5 8 51.5l172 813q6 29 39 29h1132q19 0 32.5 -15.5t10.5 -29.5l-172 -814q0 -1 -3 -13.5t-7 -27t-11 -37t-17 -48t-22.5 -53.5t-29.5 -60t-37 -62q-110 -142 -260 -218t-327 -76q-187 0 -313.5 87t-168.5 238q-20 58 -25 128t-1 107.5zM252 495 q-4 -52 6 -89q58 -127 215 -127q193 0 297 155q28 32 50 72t30 62.5t8 25.5l119 561h-594l-119 -563q-3 -11 -5.5 -28t-6.5 -69zM529.5 1731q0.5 15 13.5 24q221 98 401 195q26 4 49 0.5t23 -11.5l78 -180q4 -29 -19 -41l-4 4l-397 -192q-23 -7 -44.5 -4.5t-23.5 10.5 l-76 162l9 6q-10 12 -9.5 27z" />
<glyph unicode="&#xdb;" horiz-adv-x="1515" d="M-57 540.5q4 37.5 8 51.5l172 813q6 29 39 29h1132q19 0 32.5 -15.5t10.5 -29.5l-172 -814q0 -1 -3 -13.5t-7 -27t-11 -37t-17 -48t-22.5 -53.5t-29.5 -60t-37 -62q-110 -142 -260 -218t-327 -76q-187 0 -313.5 87t-168.5 238q-20 58 -25 128t-1 107.5zM252 495 q-4 -52 6 -89q58 -127 215 -127q193 0 297 155q28 32 50 72t30 62.5t8 25.5l119 561h-594l-119 -563q-3 -11 -5.5 -28t-6.5 -69zM432 1688l6 4q-22 36 13 49l4 -2l366 194q4 3 18 -0.5t19 -7.5l309 -176l-12 -2q11 -6 20 -14.5t12 -19.5t-9 -21v8l-119 -156q-17 -15 -51 -6 l-207 123q-106 -55 -230 -127q-19 -2 -40 6.5t-27 20.5z" />
<glyph unicode="&#xdc;" horiz-adv-x="1515" d="M-57 540.5q4 37.5 8 51.5l172 813q6 29 39 29h1132q19 0 32.5 -15.5t10.5 -29.5l-172 -814q0 -1 -3 -13.5t-7 -27t-11 -37t-17 -48t-22.5 -53.5t-29.5 -60t-37 -62q-110 -142 -260 -218t-327 -76q-187 0 -313.5 87t-168.5 238q-20 58 -25 128t-1 107.5zM252 495 q-4 -52 6 -89q58 -127 215 -127q193 0 297 155q28 32 50 72t30 62.5t8 25.5l119 561h-594l-119 -563q-3 -11 -5.5 -28t-6.5 -69zM434 1710q12 61 65.5 105.5t112.5 44.5q76 0 124 -54t34 -125q-13 -61 -68.5 -105t-117.5 -44q-74 0 -119.5 54t-30.5 124zM860 1710 q12 61 66 105.5t116 44.5q75 0 121.5 -54t32.5 -125q-13 -61 -67.5 -105t-114.5 -44q-76 0 -122.5 53.5t-31.5 124.5z" />
<glyph unicode="&#xdd;" horiz-adv-x="1320" d="M-28 1417.5q7 16.5 34 16.5h277q9 0 21.5 -9t12.5 -20q167 -315 220 -426l409 446q11 9 33 9h278q29 0 42.5 -22.5t-7.5 -41.5l2 6l-653 -706l-141 -643q-7 -27 -39 -27h-228q-18 0 -32 15t-11 28l140 633q-14 30 -85 172t-104 221q-27 45 -166 313h5q-15 19 -8 35.5z M430 1719q1 15 14 24q239 105 400 194q28 4 49.5 1t21.5 -11l80 -180q4 -30 -20 -41l-2 4l-398 -192q-23 -7 -45 -4.5t-24 10.5l-74 162l8 6q-11 12 -10 27z" />
<glyph unicode="&#xde;" horiz-adv-x="1193" d="M-168 43l109 518q6 29 39 29l163 6q-27 60 -125 299l103 512q6 29 39 29h227q18 0 32.5 -15.5t12.5 -29.5l-51 -234h174q9 0 22.5 -1t48 -5t65.5 -12.5t74 -23.5t74.5 -38t66 -56t49 -77t23.5 -102t-11 -131q-18 -86 -56.5 -154.5t-82 -111.5t-102 -74t-103.5 -45.5 t-100 -22.5t-78.5 -9t-51.5 -1h-194l-58 -266q-7 -27 -39 -27h-227q-19 0 -32.5 15t-10.5 28zM360 858l107 -264q61 4 119.5 40.5t72.5 104.5q7 32 -1.5 55.5t-24 35.5t-40.5 18.5t-42.5 8t-38.5 1.5h-152z" />
<glyph unicode="&#xdf;" horiz-adv-x="1212" d="M-164 43l287 1348q2 14 9.5 20t25.5 6h465q6 0 16 -1t43 -5t61.5 -12t70.5 -23t71.5 -37.5t64 -55t48 -76t23 -100.5t-10.5 -128q-24 -110 -85.5 -181.5t-138.5 -107.5q24 -13 43.5 -31t32 -37t21.5 -39.5t13 -41t6 -39t1.5 -35.5t-1.5 -28.5t-2 -20.5l-1 -8 q-54 -251 -313 -355q-136 -54 -275 -55q-12 0 -22.5 15.5t-7.5 27.5l47 221q3 15 11 21t34 6q8 0 24.5 1.5t50 10.5t62.5 23t55 43.5t35 68.5q19 85 -97 110q-34 7 -73 7q-12 0 -23.5 15.5t-9.5 27.5l47 223q6 27 27 27q19 0 39.5 2t54 11.5t60 25t51 47.5t33.5 74 q9 45 -13 74t-56.5 38.5t-78.5 9.5h-174l-237 -1103q-7 -27 -37 -27h-236q-18 0 -31 15t-10 28z" />
<glyph unicode="&#xe0;" d="M-319 63q423 687 835 1393q19 17 46.5 10t31.5 -30l250 -1393q7 -43 -33 -43h-248q-12 0 -25 10t-16 21v-8l-24 141h-412l-82 -141v-7q-9 -16 -39 -16h-244q-26 0 -37.5 19.5t-2.5 43.5zM223 412h244l-25 221q-11 119 -6 190q-51 -122 -94 -207zM364 1710.5 q-7 17.5 7 32.5v-8l145 182q2 2 4.5 3t6 0.5t6.5 -1t8 -2.5t8.5 -3.5t10 -4.5t9.5 -4l310 -193l-13 -2q20 -9 28.5 -23.5t-7.5 -29.5v6l-131 -172q-12 -12 -58 8l-309 189q-18 5 -25 22.5z" />
<glyph unicode="&#xe1;" d="M-319 63q423 687 835 1393q19 17 46.5 10t31.5 -30l250 -1393q7 -43 -33 -43h-248q-12 0 -25 10t-16 21v-8l-24 141h-412l-82 -141v-7q-9 -16 -39 -16h-244q-26 0 -37.5 19.5t-2.5 43.5zM223 412h244l-25 221q-11 119 -6 190q-51 -122 -94 -207zM342.5 1721 q0.5 15 13.5 24q236 104 402 194q18 3 34 2.5t26 -4t9 -8.5l80 -180q4 -30 -20 -41l-2 4l-398 -192q-23 -7 -44 -4.5t-23 10.5l-76 162l8 6q-10 12 -9.5 27z" />
<glyph unicode="&#xe2;" d="M-319 63q423 687 835 1393q19 17 46.5 10t31.5 -30l250 -1393q7 -43 -33 -43h-248q-12 0 -25 10t-16 21v-8l-24 141h-412l-82 -141v-7q-9 -16 -39 -16h-244q-26 0 -37.5 19.5t-2.5 43.5zM223 412h244l-25 221q-11 119 -6 190q-51 -122 -94 -207zM240 1642l4 5 q-19 38 12 49l4 -2l367 194q5 3 19 -0.5t18 -7.5l309 -176l-12 -2q20 -9 28.5 -24t-6.5 -31v8l-117 -156q-18 -14 -53 -6l-207 123q-110 -56 -227 -127q-19 -2 -40.5 6.5t-27.5 20.5z" />
<glyph unicode="&#xe3;" d="M-319 63q423 687 835 1393q19 17 46.5 10t31.5 -30l250 -1393q7 -43 -33 -43h-248q-12 0 -25 10t-16 21v-8l-24 141h-412l-82 -141v-7q-9 -16 -39 -16h-244q-26 0 -37.5 19.5t-2.5 43.5zM223 412h244l-25 221q-11 119 -6 190q-51 -122 -94 -207zM225 1620 q37 105 108.5 159t158.5 54q103 0 176 -51l2 2q34 -17 49 -17q14 0 29.5 13t25.5 37q16 8 57 2l148 -45l-14 -2q20 -5 33 -20.5t1 -31.5h2q-57 -114 -121 -160.5t-145 -46.5q-74 0 -172 46l-28 8q-36 18 -39 18q-9 -2 -20 -14.5t-15 -32.5q-23 -20 -58 -14l-157 41l12 2 q-15 3 -25.5 19.5t-7.5 33.5z" />
<glyph unicode="&#xe4;" d="M-319 63q423 687 835 1393q19 17 46.5 10t31.5 -30l250 -1393q7 -43 -33 -43h-248q-12 0 -25 10t-16 21v-8l-24 141h-412l-82 -141v-7q-9 -16 -39 -16h-244q-26 0 -37.5 19.5t-2.5 43.5zM223 412h244l-25 221q-11 119 -6 190q-51 -122 -94 -207zM244 1694q12 61 66.5 105 t113.5 44q77 0 124 -54t32 -124q-12 -61 -67.5 -105t-117.5 -44q-74 0 -120 54t-31 124zM670 1694q12 61 67 105t117 44q75 0 121 -54t31 -124q-12 -61 -66 -105t-115 -44q-76 0 -123 53.5t-32 124.5z" />
<glyph unicode="&#xe5;" horiz-adv-x="1167" d="M-303 57l766 1239q-89 27 -136 102t-22 185q31 146 161 221q114 65 241 46q123 -18 179 -107q48 -78 25 -189q-24 -106 -93 -173t-167 -91l211 -1247q7 -43 -33 -43h-247q-12 0 -25.5 11.5t-13.5 21.5l-4 -10l-23 141h-412l-81 -141v-7q-9 -16 -39 -16h-244 q-25 0 -38 18.5t-5 38.5zM242 412h243l-24 221q-11 119 -6 190q-46 -111 -95 -207zM512 1554q-13 -60 34 -79q45 -17 96 16q51 31 65 92q12 58 -35 76q-46 17 -97 -14q-50 -32 -63 -91z" />
<glyph unicode="&#xe6;" horiz-adv-x="1619" d="M-284.5 20.5q-14.5 20.5 5.5 40.5l-2 -8l914 1358q7 10 13 14.5t11.5 6t18.5 2.5h778q19 0 32.5 -15.5t10.5 -29.5l-45 -215q-7 -27 -39 -27h-455l-59 -281h342q19 0 33.5 -15.5t11.5 -29.5l-43 -211q-7 -26 -41 -26h-362l-64 -301h457q18 0 32 -15t11 -28l-45 -213 q-7 -27 -39 -27h-715q-19 0 -32.5 15t-10.5 28l29 135l-301 -6q-20 -26 -53.5 -80t-53.5 -80l6 2q-11 -14 -41 -14h-262q-28 0 -42.5 20.5zM340 446l180 9q15 66 123 485z" />
<glyph unicode="&#xe7;" horiz-adv-x="1421" d="M-82.5 505.5q-12.5 108.5 10.5 229.5q30 144 114 276.5t200 229t261 154t292 57.5q157 0 281.5 -58t201.5 -161l-2 4q29 -34 6 -57l-199 -160q-14 -6 -29.5 -0.5t-17.5 16.5q-110 113 -266 113q-118 0 -231.5 -59.5t-193.5 -161.5t-105 -221q-37 -171 53.5 -290.5 t255.5 -119.5q88 0 174 35.5t154 99.5q17 3 35 -1.5t28 -12.5l133 -164l-8 -2q13 -11 15.5 -27.5t-7.5 -34.5q-182 -127 -309 -170q77 -63 53 -188q-32 -145 -149.5 -228t-276.5 -83q-173 0 -262 99t-57 257q5 19 39 19h188q21 0 34 -14t9 -34q-7 -36 11 -53.5t53 -17.5 q48 0 92.5 38t54.5 89q7 34 -3.5 59t-31.5 33q-120 3 -225.5 42t-182.5 106.5t-128.5 160t-64 201z" />
<glyph unicode="&#xe8;" horiz-adv-x="1204" d="M-168 43l289 1362q6 29 39 29h891q18 0 32 -15.5t11 -29.5l-45 -220q-6 -28 -39 -28h-631l-60 -275h515q18 0 30.5 -15.5t9.5 -29.5l-47 -221q-3 -27 -34 -27h-535l-59 -274h626q19 0 34 -15.5t13 -29.5l-49 -227q-7 -27 -41 -27h-907q-19 0 -32.5 15t-10.5 28z M431.5 1728.5q-7.5 17.5 6.5 32.5v-8l146 182q2 2 4.5 3t6 0.5t6.5 -1t8 -2.5t8.5 -3.5t10 -4.5t9.5 -4l309 -192l-12 -2q20 -9 28 -24t-8 -30v6l-131 -172q-11 -11 -57 9l-309 188q-18 5 -25.5 22.5z" />
<glyph unicode="&#xe9;" horiz-adv-x="1204" d="M-168 43l289 1362q6 29 39 29h891q18 0 32 -15.5t11 -29.5l-45 -220q-6 -28 -39 -28h-631l-60 -275h515q18 0 30.5 -15.5t9.5 -29.5l-47 -221q-3 -27 -34 -27h-535l-59 -274h626q19 0 34 -15.5t13 -29.5l-49 -227q-7 -27 -41 -27h-907q-19 0 -32.5 15t-10.5 28zM435 1731 q1 15 14 24q221 98 401 195q26 4 49 0.5t23 -11.5l77 -180q4 -30 -18 -41l-4 4l-397 -192q-23 -7 -44.5 -4.5t-23.5 10.5l-76 162l8 6q-10 12 -9 27z" />
<glyph unicode="&#xea;" horiz-adv-x="1204" d="M-168 43l289 1362q6 29 39 29h891q18 0 32 -15.5t11 -29.5l-45 -220q-6 -28 -39 -28h-631l-60 -275h515q18 0 30.5 -15.5t9.5 -29.5l-47 -221q-3 -27 -34 -27h-535l-59 -274h626q19 0 34 -15.5t13 -29.5l-49 -227q-7 -27 -41 -27h-907q-19 0 -32.5 15t-10.5 28zM338 1690 l4 4q-19 38 12 49l4 -2l367 194q5 3 19 -0.5t18 -7.5l309 -176l-12 -2q20 -9 28.5 -24t-6.5 -31v8l-116 -156q-18 -14 -54 -6l-206 123q-117 -60 -228 -127q-20 -1 -40.5 7t-28.5 20z" />
<glyph unicode="&#xeb;" horiz-adv-x="1204" d="M-168 43l289 1362q6 29 39 29h891q18 0 32 -15.5t11 -29.5l-45 -220q-6 -28 -39 -28h-631l-60 -275h515q18 0 30.5 -15.5t9.5 -29.5l-47 -221q-3 -27 -34 -27h-535l-59 -274h626q19 0 34 -15.5t13 -29.5l-49 -227q-7 -27 -41 -27h-907q-19 0 -32.5 15t-10.5 28zM311 1708 q13 61 67.5 105.5t113.5 44.5q76 0 123.5 -54t33.5 -125q-13 -61 -68.5 -105t-117.5 -44q-74 0 -119.5 54t-32.5 124zM737 1708q13 61 68 105.5t117 44.5q75 0 121 -54t32 -125q-13 -61 -67.5 -105t-114.5 -44q-76 0 -123 53.5t-33 124.5z" />
<glyph unicode="&#xec;" horiz-adv-x="573" d="M-172 43l287 1348q3 26 37 26h223q20 0 34 -14.5t11 -28.5l-287 -1347q-7 -27 -39 -27h-223q-18 0 -32 15t-11 28zM79 1745q-7 18 7 33v-9l145 183q2 2 4.5 3t6 0.5t7 -1.5t8.5 -3t8.5 -3.5t9.5 -4t10 -4.5l309 -192l-14 -2q20 -9 29 -23.5t-7 -29.5l-2 6l-129 -172 q-14 -12 -59 8l-308 188q-18 5 -25 23z" />
<glyph unicode="&#xed;" horiz-adv-x="573" d="M-172 43l287 1348q3 26 37 26h223q20 0 34 -14.5t11 -28.5l-287 -1347q-7 -27 -39 -27h-223q-18 0 -32 15t-11 28zM59 1725q1 16 15 24q239 107 399 195q28 4 50 0.5t22 -11.5l78 -180q8 -29 -19 -41l-4 4l-397 -192q-23 -7 -44.5 -4.5t-23.5 10.5l-74 162l7 6 q-10 11 -9 27z" />
<glyph unicode="&#xee;" horiz-adv-x="573" d="M-172 43l287 1348q3 26 37 26h223q20 0 34 -14.5t11 -28.5l-287 -1347q-7 -27 -39 -27h-223q-18 0 -32 15t-11 28zM-43 1659l6 4q-19 38 12 49l5 -2l366 195q4 3 17.5 -1t19.5 -8l309 -176l-12 -2q19 -9 27.5 -23.5t-5.5 -31.5v8l-116 -155q-20 -16 -54 -7l-206 123 q-106 -55 -230 -127q-19 -1 -39 7t-28 20z" />
<glyph unicode="&#xef;" horiz-adv-x="573" d="M-172 43l287 1348q3 26 37 26h223q20 0 34 -14.5t11 -28.5l-287 -1347q-7 -27 -39 -27h-223q-18 0 -32 15t-11 28zM-41 1692q12 61 65.5 105t112.5 44q77 0 125 -54t33 -124q-13 -61 -68.5 -105.5t-117.5 -44.5q-74 0 -119.5 54.5t-30.5 124.5zM385 1692q12 61 66 105 t116 44q75 0 122 -54t32 -124q-13 -61 -67.5 -105.5t-114.5 -44.5q-76 0 -122.5 54t-31.5 125z" />
<glyph unicode="&#xf0;" horiz-adv-x="1355" d="M-188 621l36 180q6 28 39 28h113l117 549q3 15 11 22t28 7h223q62 0 118 -3.5t121 -14.5t120 -28t110 -46t96.5 -67t74.5 -93t49.5 -121.5t15.5 -154.5t-23 -191q-147 -688 -961 -688h-223q-20 0 -33 15t-10 28l113 535h-92q-18 0 -32 14.5t-11 28.5zM193 283h18 q50 0 102 8t124.5 35.5t131.5 72t111.5 127t75.5 191.5q13 60 13.5 111.5t-8 89.5t-26.5 69.5t-40 52t-51 36.5t-56.5 25t-59.5 14.5t-56.5 7t-51.5 1.5h-49l-64 -295h199q18 0 33 -15.5t12 -29.5l-39 -180q-6 -26 -39 -26h-219z" />
<glyph unicode="&#xf1;" horiz-adv-x="1519" d="M-166 43l289 1362q6 29 39 29h231q8 0 20.5 -9t12.5 -20q40 -80 131 -261.5t158 -316.5t131 -268l186 846q6 29 39 29h225q19 0 32.5 -15.5t10.5 -29.5l-288 -1362q-7 -27 -39 -27h-230q-8 0 -20 9t-12 20q-116 230 -418 848l-187 -850q-7 -27 -39 -27h-229q-18 0 -32 15 t-11 28zM420 1622q37 105 108 159t158 54q101 0 174 -51l4 2q34 -17 47 -17q15 0 31.5 13.5t24.5 36.5q17 8 57 2l147 -45l-14 -2q21 -5 34 -20.5t1 -31.5h2q-56 -113 -119.5 -159.5t-144.5 -46.5q-78 0 -174 45l-29 8q-36 18 -39 18q-9 -2 -20 -14.5t-15 -32.5 q-24 -20 -55 -14l-160 41l13 2q-15 3 -25 19.5t-6 33.5z" />
<glyph unicode="&#xf2;" horiz-adv-x="1632" d="M-88.5 567.5q1.5 77.5 18.5 157.5q23 108 71.5 210.5t123.5 194t169 160t216.5 108.5t257.5 40q100 0 185.5 -21.5t149.5 -61t113.5 -93.5t79.5 -119t45 -138.5t13 -151.5t-19 -157q-23 -108 -71.5 -211t-124 -194.5t-169.5 -160t-215.5 -108.5t-254.5 -40 q-101 0 -187.5 22t-150.5 61t-113.5 93.5t-79.5 119.5t-44.5 138.5t-13 151zM227.5 566q-0.5 -61 19.5 -114.5t53.5 -94t90 -64t129.5 -23.5q97 0 185 38.5t152.5 102.5t108.5 144t62 166q12 65 12 127t-20 116.5t-53.5 95.5t-90 65t-128.5 24q-98 0 -186 -39t-151.5 -104.5 t-107.5 -146t-63 -167.5q-12 -65 -12.5 -126zM605.5 1745q-7.5 18 6.5 33v-9l146 183q2 3 6 3.5t10 -1t10 -3.5t13.5 -6t13.5 -6l309 -192l-14 -2q20 -9 29 -23.5t-7 -29.5l-2 6l-129 -172q-14 -12 -59 8l-307 188q-18 5 -25.5 23z" />
<glyph unicode="&#xf3;" horiz-adv-x="1632" d="M-88.5 567.5q1.5 77.5 18.5 157.5q23 108 71.5 210.5t123.5 194t169 160t216.5 108.5t257.5 40q100 0 185.5 -21.5t149.5 -61t113.5 -93.5t79.5 -119t45 -138.5t13 -151.5t-19 -157q-23 -108 -71.5 -211t-124 -194.5t-169.5 -160t-215.5 -108.5t-254.5 -40 q-101 0 -187.5 22t-150.5 61t-113.5 93.5t-79.5 119.5t-44.5 138.5t-13 151zM227.5 566q-0.5 -61 19.5 -114.5t53.5 -94t90 -64t129.5 -23.5q97 0 185 38.5t152.5 102.5t108.5 144t62 166q12 65 12 127t-20 116.5t-53.5 95.5t-90 65t-128.5 24q-98 0 -186 -39t-151.5 -104.5 t-107.5 -146t-63 -167.5q-12 -65 -12.5 -126zM602 1727q1 15 14 24q230 101 400 195q28 4 49.5 0.5t21.5 -11.5l78 -180q8 -29 -18 -41l-2 4l-397 -192q-23 -7 -45.5 -4.5t-24.5 10.5l-74 162l8 6q-11 12 -10 27z" />
<glyph unicode="&#xf4;" horiz-adv-x="1632" d="M-88.5 567.5q1.5 77.5 18.5 157.5q23 108 71.5 210.5t123.5 194t169 160t216.5 108.5t257.5 40q100 0 185.5 -21.5t149.5 -61t113.5 -93.5t79.5 -119t45 -138.5t13 -151.5t-19 -157q-23 -108 -71.5 -211t-124 -194.5t-169.5 -160t-215.5 -108.5t-254.5 -40 q-101 0 -187.5 22t-150.5 61t-113.5 93.5t-79.5 119.5t-44.5 138.5t-13 151zM227.5 566q-0.5 -61 19.5 -114.5t53.5 -94t90 -64t129.5 -23.5q97 0 185 38.5t152.5 102.5t108.5 144t62 166q12 65 12 127t-20 116.5t-53.5 95.5t-90 65t-128.5 24q-98 0 -186 -39t-151.5 -104.5 t-107.5 -146t-63 -167.5q-12 -65 -12.5 -126zM487 1667l7 4q-23 36 12 49l4 -2l367 195q4 3 17 -0.5t19 -7.5l310 -176l-15 -3q20 -9 29.5 -24t-4.5 -31v8l-119 -155q-17 -15 -51 -6l-209 122q-82 -42 -227 -127q-19 -2 -40.5 6.5t-27.5 20.5z" />
<glyph unicode="&#xf5;" horiz-adv-x="1632" d="M-88.5 567.5q1.5 77.5 18.5 157.5q23 108 71.5 210.5t123.5 194t169 160t216.5 108.5t257.5 40q100 0 185.5 -21.5t149.5 -61t113.5 -93.5t79.5 -119t45 -138.5t13 -151.5t-19 -157q-23 -108 -71.5 -211t-124 -194.5t-169.5 -160t-215.5 -108.5t-254.5 -40 q-101 0 -187.5 22t-150.5 61t-113.5 93.5t-79.5 119.5t-44.5 138.5t-13 151zM227.5 566q-0.5 -61 19.5 -114.5t53.5 -94t90 -64t129.5 -23.5q97 0 185 38.5t152.5 102.5t108.5 144t62 166q12 65 12 127t-20 116.5t-53.5 95.5t-90 65t-128.5 24q-98 0 -186 -39t-151.5 -104.5 t-107.5 -146t-63 -167.5q-12 -65 -12.5 -126zM467 1634q37 105 108 159t158 54q100 0 176 -51l2 2q32 -16 47 -16t31.5 13t24.5 36q20 8 57 2l150 -45l-15 -2q21 -5 34 -20t-1 -31h2q-56 -113 -119.5 -160t-144.5 -47q-78 0 -174 45l-29 8q-36 18 -39 18q-9 -2 -20 -14.5 t-15 -32.5q-24 -20 -55 -14l-160 41l13 2q-14 3 -24.5 19.5t-6.5 33.5z" />
<glyph unicode="&#xf6;" horiz-adv-x="1632" d="M-88.5 567.5q1.5 77.5 18.5 157.5q23 108 71.5 210.5t123.5 194t169 160t216.5 108.5t257.5 40q100 0 185.5 -21.5t149.5 -61t113.5 -93.5t79.5 -119t45 -138.5t13 -151.5t-19 -157q-23 -108 -71.5 -211t-124 -194.5t-169.5 -160t-215.5 -108.5t-254.5 -40 q-101 0 -187.5 22t-150.5 61t-113.5 93.5t-79.5 119.5t-44.5 138.5t-13 151zM227.5 566q-0.5 -61 19.5 -114.5t53.5 -94t90 -64t129.5 -23.5q97 0 185 38.5t152.5 102.5t108.5 144t62 166q12 65 12 127t-20 116.5t-53.5 95.5t-90 65t-128.5 24q-98 0 -186 -39t-151.5 -104.5 t-107.5 -146t-63 -167.5q-12 -65 -12.5 -126zM483 1677q13 61 67.5 105.5t113.5 44.5q76 0 123 -53.5t32 -124.5q-12 -61 -67 -105.5t-117 -44.5q-74 0 -119.5 54t-32.5 124zM909 1677q13 61 68 105.5t117 44.5q75 0 120.5 -53.5t30.5 -124.5q-12 -61 -66 -105.5t-114 -44.5 q-76 0 -123 53.5t-33 124.5z" />
<glyph unicode="&#xf7;" horiz-adv-x="1003" d="M-117 594h875l57 272h-874zM98 381q14 65 69 110.5t122 45.5q82 0 128.5 -55t31.5 -130q-14 -65 -69 -110t-122 -45q-82 0 -128.5 55t-31.5 129zM254 1116q14 64 68.5 109t121.5 45q82 0 128.5 -55t31.5 -128q-13 -67 -67.5 -112t-122.5 -45q-83 0 -130 54.5t-30 131.5z " />
<glyph unicode="&#xf8;" horiz-adv-x="1597" d="M-140 -104q-14 21 5 41l-4 -3q56 75 184 230q-90 99 -120 250t5 311q23 108 71.5 210.5t123.5 194t169 160t216.5 108.5t257.5 40q115 0 223 -33l94 113q9 12 35 12h228q24 0 37 -20.5t4 -41.5l-175 -206q94 -103 125.5 -255t-4.5 -311q-23 -108 -71.5 -211t-124 -194.5 t-169.5 -160t-215.5 -108.5t-254.5 -40q-139 0 -238 36l-102 -129q-10 -14 -37 -14h-221q-28 0 -42 21zM240 692q-34 -165 16 -274l571 723q-39 8 -79 8q-98 0 -186 -39t-151.5 -104.5t-107.5 -146t-63 -167.5zM428 281q43 -11 92 -11q97 0 185 38.5t152.5 102.5t108.5 144 t62 166q34 171 -22 289z" />
<glyph unicode="&#xf9;" horiz-adv-x="1398" d="M-74 471l193 907q6 29 39 29h223q18 0 32.5 -15.5t12.5 -29.5l-195 -903q-6 -87 45.5 -136t133.5 -49q65 0 126.5 22t108.5 68t60 107l192 907q6 29 39 29h225q17 0 31 -15.5t12 -29.5l-194 -907q-46 -222 -219.5 -348.5t-403.5 -126.5q-116 0 -212 35.5t-159 98.5 t-88 155.5t-2 201.5zM448 1683.5q-7 17.5 7 32.5v-8l145 182q2 2 4.5 3t6 0.5t6.5 -1t8 -2.5t8.5 -3.5t10 -4.5t9.5 -4l310 -192l-13 -3q20 -9 28.5 -23.5t-7.5 -29.5v6l-131 -172q-11 -11 -58 9l-307 188q-20 5 -27 22.5z" />
<glyph unicode="&#xfa;" horiz-adv-x="1398" d="M-74 471l193 907q6 29 39 29h223q18 0 32.5 -15.5t12.5 -29.5l-195 -903q-6 -87 45.5 -136t133.5 -49q65 0 126.5 22t108.5 68t60 107l192 907q6 29 39 29h225q17 0 31 -15.5t12 -29.5l-194 -907q-46 -222 -219.5 -348.5t-403.5 -126.5q-116 0 -212 35.5t-159 98.5 t-88 155.5t-2 201.5zM473.5 1663.5q0.5 15.5 13.5 24.5q236 104 402 194q18 3 34 2.5t26 -4t9 -8.5l80 -180q4 -30 -18 -41l-4 4l-398 -193q-23 -7 -44 -4.5t-23 10.5l-76 162l8 6q-10 12 -9.5 27.5z" />
<glyph unicode="&#xfb;" horiz-adv-x="1398" d="M-74 471l193 907q6 29 39 29h223q18 0 32.5 -15.5t12.5 -29.5l-195 -903q-6 -87 45.5 -136t133.5 -49q65 0 126.5 22t108.5 68t60 107l192 907q6 29 39 29h225q17 0 31 -15.5t12 -29.5l-194 -907q-46 -222 -219.5 -348.5t-403.5 -126.5q-116 0 -212 35.5t-159 98.5 t-88 155.5t-2 201.5zM362 1622l5 4q-19 38 12 49l4 -2l367 195q4 3 18.5 -1t17.5 -7l310 -177l-13 -2q20 -9 28.5 -24t-5.5 -31v8l-117 -155q-18 -14 -53 -6l-207 122q-110 -56 -227 -127q-20 -1 -41 7t-29 20z" />
<glyph unicode="&#xfc;" horiz-adv-x="1398" d="M-74 471l193 907q6 29 39 29h223q18 0 32.5 -15.5t12.5 -29.5l-195 -903q-6 -87 45.5 -136t133.5 -49q65 0 126.5 22t108.5 68t60 107l192 907q6 29 39 29h225q17 0 31 -15.5t12 -29.5l-194 -907q-46 -222 -219.5 -348.5t-403.5 -126.5q-116 0 -212 35.5t-159 98.5 t-88 155.5t-2 201.5zM362 1657q13 61 67.5 105t113.5 44q76 0 123 -53.5t32 -124.5q-12 -61 -67 -105t-117 -44q-74 0 -120.5 54t-31.5 124zM788 1657q13 61 68 105t117 44q75 0 120.5 -53.5t30.5 -124.5q-12 -61 -65.5 -105t-114.5 -44q-77 0 -124 54t-32 124z" />
<glyph unicode="&#xfd;" horiz-adv-x="1320" d="M-31 1360l11 6q-12 20 -6 35.5t34 15.5h273q6 0 19.5 -8.5t14.5 -17.5q120 -235 211 -430l402 448q16 8 33 8h274q29 0 42.5 -21.5t-5.5 -41.5v6l-643 -703l-137 -630q-7 -27 -39 -27h-224q-19 0 -32.5 15t-10.5 28l133 614l-114 244zM430 1680q1 15 14 24 q239 105 400 194q28 4 49.5 1t21.5 -11l78 -180q8 -29 -18 -41l-2 4l-398 -192q-23 -7 -45 -4.5t-24 10.5l-74 162l8 6q-11 12 -10 27z" />
<glyph unicode="&#xfe;" horiz-adv-x="1187" d="M-166 39l285 1339q6 29 37 29h223q20 0 33.5 -15t11.5 -30l-47 -215h190q6 0 16 -1t43 -5t61.5 -12t70.5 -23t71.5 -37.5t64 -55.5t48 -76.5t23 -100.5t-10.5 -129q-18 -86 -59.5 -155.5t-92.5 -111.5t-108.5 -73t-111.5 -44.5t-98 -21t-70 -7.5l-27 -1h-190l-58 -270 q-3 -14 -11 -20.5t-28 -6.5h-223q-18 0 -31.5 15t-11.5 28zM258 588h191q7 0 19 1.5t43.5 10.5t57 23t50.5 43.5t34 68.5q7 35 -5.5 60t-35.5 35.5t-47 16t-41 5.5h-18h-191z" />
<glyph unicode="&#xff;" horiz-adv-x="1320" d="M-31 1360l11 6q-12 20 -6 35.5t34 15.5h273q6 0 19.5 -8.5t14.5 -17.5q120 -235 211 -430l402 448q16 8 33 8h274q29 0 42.5 -21.5t-5.5 -41.5v6l-643 -703l-137 -630q-7 -27 -39 -27h-224q-19 0 -32.5 15t-10.5 28l133 614l-114 244zM324 1655q12 61 65.5 105t112.5 44 q77 0 124.5 -54t32.5 -124q-13 -61 -68.5 -105t-117.5 -44q-74 0 -119 54t-30 124zM750 1655q12 61 66 105t116 44q75 0 121.5 -54t31.5 -124q-13 -61 -67.5 -105t-114.5 -44q-76 0 -122 53.5t-31 124.5z" />
<glyph unicode="&#x152;" horiz-adv-x="1937" d="M-67.5 574.5q1.5 78.5 18.5 158.5q24 110 72.5 213t123 195.5t167.5 161.5t213.5 109t252.5 40q88 0 178 -20l758 2q18 0 32 -15.5t11 -29.5l-45 -215q-6 -29 -39 -29h-524l-59 -279h415q18 0 32 -15.5t11 -29.5l-45 -217q-7 -26 -39 -26h-436l-59 -283h528 q19 0 33.5 -15.5t11.5 -29.5l-47 -223q-7 -27 -41 -27h-790q-69 -14 -156 -14q-99 0 -183.5 22t-148 61t-111.5 93.5t-77.5 120t-44 139.5t-13 152.5zM261.5 570q-0.5 -64 15.5 -121.5t46.5 -100t82.5 -67.5t120 -25q70 0 125 16l211 891q-53 15 -100 15q-92 0 -175.5 -41 t-144.5 -109t-103.5 -152t-62.5 -174q-14 -68 -14.5 -132z" />
<glyph unicode="&#x153;" horiz-adv-x="1937" d="M-62 563.5q2 76.5 19 155.5q23 107 70 208.5t120 191.5t164.5 157.5t209.5 107t247 39.5q75 0 176 -18l739 2q19 0 33.5 -15.5t12.5 -29.5l-48 -213q-3 -27 -36 -27h-512l-60 -274h408q17 0 31.5 -14.5t11.5 -28.5l-45 -211q-7 -27 -37 -27h-428l-60 -278h521 q18 0 33 -14.5t12 -28.5l-47 -219q-7 -27 -39 -27h-777q-69 -14 -153 -14q-97 0 -180.5 21.5t-145 60t-109 92t-76.5 117.5t-43 137t-12 149.5zM260 559.5q-2 -62.5 15 -118t47 -97t81 -66t117 -24.5q58 0 123 14l207 875q-44 10 -98 10q-90 0 -172 -40t-142.5 -106 t-102.5 -148.5t-61 -170.5q-12 -66 -14 -128.5z" />
<glyph unicode="&#x178;" horiz-adv-x="1320" d="M-28 1417.5q7 16.5 34 16.5h277q9 0 21.5 -9t12.5 -20q167 -315 220 -426l409 446q11 9 33 9h278q29 0 42.5 -22.5t-7.5 -41.5l2 6l-653 -706l-141 -643q-7 -27 -39 -27h-228q-18 0 -32 15t-11 28l140 633q-14 30 -85 172t-104 221q-27 45 -166 313h5q-15 19 -8 35.5z M334 1706q13 61 67 105t113 44q77 0 124 -54t32 -124q-12 -61 -67.5 -105t-117.5 -44q-74 0 -120 54t-31 124zM760 1706q13 61 67.5 105t116.5 44q75 0 121 -54t31 -124q-12 -61 -66 -105t-115 -44q-76 0 -123 53.5t-32 124.5z" />
<glyph unicode="&#x2c6;" horiz-adv-x="802" d="M-10 1243l6 4q-23 36 12 49l4 -2l367 195q4 3 18 -0.5t19 -7.5l309 -176l-14 -2q20 -9 29 -24.5t-5 -31.5v8l-119 -155q-17 -15 -51 -6l-209 123q-82 -42 -227 -127q-19 -2 -40.5 6t-27.5 20z" />
<glyph unicode="&#x2dc;" horiz-adv-x="802" d="M-18 1239q37 105 108 159t158 54q100 0 176 -51l2 2q34 -17 47 -17q15 0 31 13.5t24 36.5q20 8 58 2l149 -45l-14 -2q21 -5 34 -20.5t-1 -31.5h2q-56 -113 -119.5 -159.5t-144.5 -46.5q-79 0 -175 45l-28 8q-36 18 -39 18q-9 -2 -20 -14.5t-15 -32.5q-24 -20 -55 -14 l-160 41l12 2q-14 3 -24 19.5t-6 33.5z" />
<glyph unicode="&#x2000;" horiz-adv-x="977" />
<glyph unicode="&#x2001;" horiz-adv-x="1955" />
<glyph unicode="&#x2002;" horiz-adv-x="977" />
<glyph unicode="&#x2003;" horiz-adv-x="1955" />
<glyph unicode="&#x2004;" horiz-adv-x="651" />
<glyph unicode="&#x2005;" horiz-adv-x="488" />
<glyph unicode="&#x2006;" horiz-adv-x="325" />
<glyph unicode="&#x2007;" horiz-adv-x="325" />
<glyph unicode="&#x2008;" horiz-adv-x="244" />
<glyph unicode="&#x2009;" horiz-adv-x="391" />
<glyph unicode="&#x200a;" horiz-adv-x="108" />
<glyph unicode="&#x2010;" horiz-adv-x="907" d="M-125 625l45 206q3 29 39 29h684q21 0 34.5 -15.5t10.5 -29.5l-45 -207q-2 -13 -9.5 -19.5t-27.5 -6.5h-684q-19 0 -34.5 15t-12.5 28z" />
<glyph unicode="&#x2011;" horiz-adv-x="907" d="M-125 625l45 206q3 29 39 29h684q21 0 34.5 -15.5t10.5 -29.5l-45 -207q-2 -13 -9.5 -19.5t-27.5 -6.5h-684q-19 0 -34.5 15t-12.5 28z" />
<glyph unicode="&#x2012;" horiz-adv-x="907" d="M-125 625l45 206q3 29 39 29h684q21 0 34.5 -15.5t10.5 -29.5l-45 -207q-2 -13 -9.5 -19.5t-27.5 -6.5h-684q-19 0 -34.5 15t-12.5 28z" />
<glyph unicode="&#x2013;" horiz-adv-x="1042" d="M-133 598l47 217q7 27 39 27h823q18 0 32 -15t11 -28l-45 -217q-8 -27 -39 -27h-823q-18 0 -32.5 15.5t-12.5 27.5z" />
<glyph unicode="&#x2014;" horiz-adv-x="1185" d="M-133 598l47 217q7 27 41 27h940q18 0 32 -15t11 -28l-45 -217q-8 -27 -39 -27h-940q-19 0 -34 15.5t-13 27.5z" />
<glyph unicode="&#x201a;" horiz-adv-x="411" d="M-254 156q12 58 63 99.5t111 41.5q100 0 139.5 -53.5t20.5 -134.5q-15 -76 -75.5 -164t-127.5 -133q-31 -9 -54 8t-18 41l37 129q-52 12 -80 59t-16 107z" />
<glyph unicode="&#x201e;" horiz-adv-x="806" d="M-254 156q12 58 63 99.5t111 41.5q100 0 139.5 -53.5t20.5 -134.5q-15 -76 -75.5 -164t-127.5 -133q-31 -9 -54 8t-18 41l37 129q-52 12 -80 59t-16 107zM147 156q12 58 63.5 99.5t111.5 41.5q100 0 139 -53.5t20 -134.5q-15 -76 -75.5 -164t-126.5 -133q-31 -9 -54 8 t-18 41l37 129q-52 12 -80.5 59t-16.5 107z" />
<glyph unicode="&#x2022;" horiz-adv-x="638" d="M-109 731q22 97 105 164.5t178 67.5q115 0 178.5 -76.5t40.5 -184.5q-20 -96 -101.5 -163.5t-180.5 -67.5q-109 0 -175.5 78t-44.5 182z" />
<glyph unicode="&#x2026;" horiz-adv-x="1173" d="M-250 160q12 60 63 102.5t111 42.5q78 0 122 -52t30 -122q-14 -62 -64 -102.5t-114 -40.5q-75 0 -119 51t-29 121zM143 160q12 60 62.5 102.5t109.5 42.5q78 0 122 -52t30 -122q-14 -62 -64 -102.5t-114 -40.5q-74 0 -117.5 51t-28.5 121zM539 160q12 60 62.5 102.5 t109.5 42.5q78 0 121.5 -52t29.5 -122q-14 -62 -64 -102.5t-114 -40.5q-74 0 -117 51t-28 121z" />
<glyph unicode="&#x202f;" horiz-adv-x="391" />
<glyph unicode="&#x2039;" horiz-adv-x="643" d="M-158 686l455 453q12 9 29.5 7t25.5 -13l123 -113q14 -12 17.5 -26.5t-9.5 -28.5l4 8l-299 -316l168 -286q17 -33 -4 -49l-2 4l-172 -125q-15 -7 -29.5 -2t-21.5 16l-279 428q-20 29 -6 43z" />
<glyph unicode="&#x203a;" horiz-adv-x="643" d="M-209 383l303 276l-162 314l11 4q-11 12 -11 27.5t11 25.5l174 113q11 6 28.5 -0.5t22.5 -16.5l264 -452q6 -8 8 -22t-4 -27q-245 -214 -448 -426q-41 -12 -58 12l-127 119q-28 32 -12 53z" />
<glyph unicode="&#x205f;" horiz-adv-x="488" />
<glyph unicode="&#x20ac;" horiz-adv-x="1214" d="M-217 492l33 153q6 27 41 27h88l14 65h-68q-19 0 -34 15.5t-13 25.5l35 160q4 27 39 27l111 6q114 208 306.5 335.5t448.5 127.5q172 0 318 -88h-2q16 -9 22.5 -24t-6.5 -30l2 8l-141 -202q-16 -12 -31 -11.5t-20 9.5q-107 39 -164 39q-117 0 -214 -48.5t-167 -128.5 l252 7q18 0 32.5 -15.5t12.5 -27.5l-35 -160q-4 -25 -37 -25l-362 -8q-15 -53 -15 -65l342 8q18 0 32 -14.5t11 -28.5l-30 -154q-6 -26 -39 -26l-273 -7q36 -66 106.5 -104.5t164.5 -38.5q115 0 207 47q63 9 67 -20l37 -240q0 -7 -0.5 -9.5t-5.5 -7t-17 -8.5v-2 q-138 -59 -311 -59q-137 0 -245 35t-177.5 98t-110.5 143.5t-55 178.5l-102 -6q-20 0 -35 14.5t-12 28.5z" />
<glyph unicode="&#x2122;" horiz-adv-x="1323" d="M12 1319l19 86q6 29 37 29h366q19 0 33.5 -15.5t11.5 -29.5l-18 -86q-6 -29 -41 -29h-98l-97 -461q-6 -29 -41 -29h-96q-20 0 -35 15.5t-12 29.5l94 445h-82q-17 0 -30.5 15.5t-10.5 29.5zM387 819l127 594q3 21 27 21h116q4 0 14 -9.5t13 -15.5l121 -365l266 379 q11 11 27 11h114q11 0 23.5 -13.5t9.5 -23.5l-125 -594q-6 -21 -26 -21h-113q-17 0 -26 12.5t-7 24.5l53 228l-155 -230q-12 -10 -29 -10h-92q-10 0 -18.5 7.5t-10.5 14.5l-73 230l-58 -256q-3 -11 -3.5 -12.5t-6.5 -5t-18 -3.5h-115q-12 0 -24.5 13t-10.5 24z" />
<glyph unicode="&#x25fc;" horiz-adv-x="1413" d="M0 0v1413h1413v-1413h-1413z" />
</font>
</defs>
</svg>
