<?xml version="1.0" encoding="utf-8"?>
<!-- Generator: Adobe Illustrator 18.0.0, SVG Export Plug-In . SVG Version: 6.00 Build 0)  -->
<!DOCTYPE svg PUBLIC "-//W3C//DTD SVG 1.1//EN" "http://www.w3.org/Graphics/SVG/1.1/DTD/svg11.dtd">
<svg version="1.1" id="Layer_1" xmlns="http://www.w3.org/2000/svg" xmlns:xlink="http://www.w3.org/1999/xlink" x="0px" y="0px"
	 viewBox="0 0 472.2 261.3" enable-background="new 0 0 472.2 261.3" xml:space="preserve">
<g>
	<path fill="#FFFFFF" d="M472.2,261.3H0V5.1C0,2.3,2.3,0,5.1,0h462c2.8,0,5.1,2.3,5.1,5.1V261.3z"/>
</g>
<path fill="#F15959" d="M28.5,84.7h31.1c1.9,0,3.5-1.6,3.5-3.5V41.9c0-1.9-1.6-3.5-3.5-3.5H28.5c-1.9,0-3.5,1.6-3.5,3.5v39.4
	C25.1,83.2,26.6,84.7,28.5,84.7z M28.5,41.9l31.2,0.1v39.4c0,0,0,0.1-0.1,0.1l-31.2-0.1L28.5,41.9z M39.7,49.7h-8.8v-1.2h8.8V49.7z
	 M41.5,51.9H30.9v-1.2h10.6V51.9z M40.3,47.6h-9.4v-1.2h9.4V47.6z M41.5,45.4H30.9v-1.2h10.6V45.4z M35.6,59.4
	c-0.2-0.2-0.5-0.4-0.8-0.6c-0.3-0.1-0.7-0.2-1.1-0.2H32v5.8h1.7c0.4,0,0.8-0.1,1.1-0.2c0.3-0.1,0.6-0.3,0.8-0.6
	c0.2-0.2,0.4-0.5,0.5-0.9c0.1-0.3,0.2-0.7,0.2-1.1v-0.3c0-0.4-0.1-0.8-0.2-1.1C36,60,35.9,59.7,35.6,59.4z M35.3,61.7
	c0,0.3,0,0.6-0.1,0.8c-0.1,0.2-0.2,0.4-0.3,0.6c-0.1,0.2-0.3,0.3-0.5,0.4c-0.2,0.1-0.5,0.1-0.7,0.1H33v-4.2h0.7
	c0.5,0,0.9,0.2,1.2,0.5c0.3,0.3,0.4,0.8,0.4,1.5V61.7z M41.3,61.4c0.2-0.3,0.3-0.6,0.3-1c0-0.3,0-0.5-0.1-0.8
	c-0.1-0.2-0.2-0.4-0.4-0.6c-0.2-0.1-0.4-0.3-0.7-0.3c-0.3-0.1-0.6-0.1-0.9-0.1h-2.1v5.8h1v-2.3h1.1l1.2,2.3h1.1v-0.1L40.5,62
	C40.8,61.9,41.1,61.7,41.3,61.4z M40.2,61.2c-0.1,0.1-0.2,0.2-0.3,0.2c-0.1,0-0.3,0.1-0.5,0.1h-1v-2h1c0.2,0,0.4,0,0.5,0.1
	c0.1,0,0.3,0.1,0.3,0.2c0.1,0.1,0.2,0.2,0.2,0.3c0,0.1,0.1,0.3,0.1,0.4c0,0.1,0,0.3-0.1,0.4C40.4,61,40.3,61.1,40.2,61.2z
	 M44.2,58.7L42,64.5H43l0.5-1.4h2.3l0.5,1.4h1.1l-2.2-5.8H44.2z M43.8,62.3l0.8-2.4l0.8,2.4H43.8z M48,58.7h3.7v0.8H49v1.7h2.4V62
	H49v2.5h-1V58.7z M52.2,58.7h4.6v0.8H55v5h-1v-5h-1.8V58.7z M195.8,84.7c12.8,0,23.1-10.4,23.1-23.1c0-12.8-10.4-23.1-23.1-23.1
	s-23.1,10.4-23.1,23.1C172.6,74.4,183,84.7,195.8,84.7z M195.8,41.9c10.9,0,19.7,8.9,19.7,19.7c0,10.9-8.9,19.7-19.7,19.7
	S176,72.5,176,61.6C176,50.7,184.9,41.9,195.8,41.9z M207.2,62.5h-12.3V44.9h1.2v16.4h11.2V62.5z M177,61.3h2.9v0.6H177V61.3z
	 M214.6,61.9h-2.9v-0.6h2.9V61.9z M184.3,50.6l-2.1-2.1l0.4-0.4l2.1,2.1L184.3,50.6z M207.2,72.6l2.1,2.1l-0.4,0.4l-2.1-2.1
	L207.2,72.6z M182.7,75.1l-0.4-0.4l2.1-2.1l0.4,0.4L182.7,75.1z M207.2,50.6l-0.4-0.4l2.1-2.1l0.4,0.4L207.2,50.6z M195.5,77.5h0.6
	v2.9h-0.6V77.5z M326.1,83.6h2.9v-4.7h3.6v4.7h2.9v-4.7h6.5V60.7h-6.5v-13h6.5v-2.9h-6.5v-5.3h-2.9v5.3H329v-5.3h-2.9v5.3h-6.5v18.8
	h6.5V76h-6.5v2.9h6.5V83.6z M326.1,47.8v13h-3.6v-13H326.1z M329,60.7v-13h3.6v13H329z M329,76V63.6h3.6V76H329z M335.5,76V63.6h3.6
	V76H335.5z M81.4,67.2c0.4-0.4,0.6-0.9,0.6-1.5c0-0.3,0-0.5-0.1-0.8c-0.1-0.2-0.2-0.4-0.4-0.6S81,64,80.7,63.8s-0.7-0.3-1.1-0.5
	c-0.6-0.2-1.2-0.5-1.7-0.7s-1-0.6-1.3-0.9c-0.4-0.4-0.6-0.8-0.8-1.2c-0.2-0.5-0.3-1-0.3-1.6c0-0.6,0.1-1.1,0.3-1.5
	c0.2-0.5,0.4-0.9,0.8-1.2c0.3-0.3,0.7-0.6,1.2-0.8c0.5-0.2,1-0.4,1.5-0.4v-2.2h1.6v2.2c0.6,0.1,1.1,0.2,1.5,0.5
	c0.4,0.2,0.8,0.6,1.1,1c0.3,0.4,0.6,0.9,0.7,1.4c0.2,0.5,0.2,1.1,0.2,1.8h-2.4c0-0.4,0-0.8-0.1-1.1c-0.1-0.3-0.2-0.6-0.4-0.8
	c-0.2-0.2-0.4-0.4-0.7-0.5c-0.3-0.1-0.6-0.2-0.9-0.2c-0.4,0-0.7,0-0.9,0.1s-0.5,0.2-0.6,0.4c-0.2,0.2-0.3,0.4-0.4,0.6
	c-0.1,0.2-0.1,0.5-0.1,0.8c0,0.3,0,0.5,0.1,0.8s0.2,0.4,0.4,0.6s0.4,0.4,0.8,0.5c0.3,0.2,0.7,0.3,1.2,0.5c0.6,0.2,1.2,0.5,1.7,0.7
	s0.9,0.6,1.3,0.9c0.4,0.3,0.6,0.8,0.8,1.2c0.2,0.5,0.3,1,0.3,1.6c0,0.6-0.1,1.1-0.3,1.6c-0.2,0.5-0.4,0.9-0.8,1.2s-0.8,0.6-1.2,0.8
	c-0.5,0.2-1,0.3-1.6,0.4v1.9h-1.6v-1.9c-0.5-0.1-1-0.2-1.5-0.4c-0.5-0.2-0.9-0.5-1.3-0.8s-0.7-0.8-0.9-1.4c-0.2-0.6-0.3-1.2-0.3-2
	h2.4c0,0.5,0.1,0.9,0.2,1.3c0.1,0.3,0.3,0.6,0.6,0.8c0.2,0.2,0.5,0.3,0.8,0.4s0.6,0.1,0.9,0.1C80.4,67.7,81,67.6,81.4,67.2z
	 M87.9,62.7c0.3-0.2,0.6-0.4,1-0.6c-0.6-0.3-1.1-0.8-1.5-1.3c-0.4-0.6-0.5-1.2-0.5-1.9c0-0.6,0.1-1.2,0.3-1.7s0.5-0.9,0.9-1.3
	c0.4-0.3,0.9-0.6,1.4-0.8c0.5-0.2,1.1-0.3,1.8-0.3c0.6,0,1.2,0.1,1.8,0.3c0.5,0.2,1,0.4,1.4,0.8c0.4,0.3,0.7,0.8,0.9,1.3
	s0.3,1.1,0.3,1.7c0,0.7-0.2,1.3-0.5,1.9c-0.4,0.6-0.9,1-1.5,1.3c0.4,0.2,0.7,0.4,1,0.6c0.3,0.2,0.5,0.5,0.7,0.8
	c0.2,0.3,0.4,0.6,0.5,1c0.1,0.4,0.2,0.7,0.2,1.1c0,0.7-0.1,1.3-0.4,1.8s-0.6,0.9-1,1.3c-0.4,0.4-0.9,0.6-1.5,0.8s-1.2,0.3-1.9,0.3
	s-1.3-0.1-1.9-0.3s-1.1-0.4-1.5-0.8c-0.4-0.4-0.8-0.8-1-1.3c-0.2-0.5-0.4-1.1-0.4-1.8c0-0.4,0.1-0.8,0.2-1.1c0.1-0.4,0.3-0.7,0.5-1
	C87.3,63.2,87.6,62.9,87.9,62.7z M89.2,58.9c0,0.3,0,0.6,0.1,0.9c0.1,0.3,0.2,0.5,0.4,0.7s0.4,0.3,0.6,0.4c0.2,0.1,0.5,0.2,0.8,0.2
	s0.6-0.1,0.8-0.2c0.2-0.1,0.5-0.2,0.6-0.4s0.3-0.4,0.4-0.7c0.1-0.3,0.1-0.6,0.1-0.9c0-0.3,0-0.6-0.1-0.9c-0.1-0.3-0.2-0.5-0.4-0.7
	c-0.2-0.2-0.4-0.3-0.6-0.4c-0.3-0.1-0.5-0.2-0.8-0.2c-0.6,0-1.1,0.2-1.5,0.6C89.4,57.7,89.2,58.3,89.2,58.9z M88.9,65.5
	c0,0.4,0.1,0.7,0.2,1c0.1,0.3,0.3,0.5,0.5,0.7c0.2,0.2,0.4,0.4,0.7,0.5c0.3,0.1,0.6,0.2,1,0.2c0.7,0,1.3-0.2,1.7-0.6
	c0.4-0.4,0.6-1,0.6-1.7c0-0.4-0.1-0.7-0.2-1c-0.1-0.3-0.3-0.5-0.5-0.8c-0.2-0.2-0.4-0.4-0.7-0.5s-0.6-0.2-1-0.2
	c-0.4,0-0.7,0.1-1,0.2s-0.5,0.3-0.7,0.5c-0.2,0.2-0.4,0.5-0.5,0.8C89,64.8,88.9,65.1,88.9,65.5z M99.4,68.3c-0.4-0.5-0.7-1.2-1-2
	c-0.2-0.8-0.3-1.8-0.3-2.9v-2.3c0-1.2,0.1-2.1,0.3-2.9c0.2-0.8,0.5-1.4,1-1.9c0.4-0.5,0.9-0.9,1.5-1.1c0.6-0.2,1.2-0.3,1.9-0.3
	c0.7,0,1.4,0.1,2,0.3s1.1,0.6,1.5,1.1c0.4,0.5,0.7,1.1,1,1.9c0.2,0.8,0.3,1.8,0.3,2.9v2.3c0,1.2-0.1,2.1-0.3,2.9
	c-0.2,0.8-0.5,1.5-1,2s-0.9,0.9-1.5,1.1c-0.6,0.2-1.2,0.3-2,0.3c-0.7,0-1.4-0.1-1.9-0.3S99.8,68.8,99.4,68.3z M100.5,63.8
	c0,0.7,0.1,1.4,0.2,1.9c0.1,0.5,0.3,0.9,0.5,1.2c0.2,0.3,0.4,0.6,0.7,0.7c0.3,0.1,0.6,0.2,1,0.2c0.4,0,0.7-0.1,1-0.2
	c0.3-0.1,0.5-0.4,0.7-0.7c0.2-0.3,0.3-0.7,0.4-1.2c0.1-0.5,0.1-1.1,0.1-1.9v-3.1c0-0.7-0.1-1.4-0.2-1.9c-0.1-0.5-0.3-0.9-0.5-1.2
	c-0.2-0.3-0.4-0.5-0.7-0.7s-0.6-0.2-1-0.2c-0.4,0-0.7,0.1-1,0.2s-0.5,0.4-0.7,0.7c-0.2,0.3-0.4,0.7-0.5,1.2
	c-0.1,0.5-0.2,1.1-0.2,1.9V63.8z M111,68.3c-0.4-0.5-0.7-1.2-1-2c-0.2-0.8-0.3-1.8-0.3-2.9v-2.3c0-1.2,0.1-2.1,0.3-2.9
	c0.2-0.8,0.5-1.4,1-1.9c0.4-0.5,0.9-0.9,1.5-1.1c0.6-0.2,1.2-0.3,1.9-0.3c0.7,0,1.4,0.1,2,0.3s1.1,0.6,1.5,1.1
	c0.4,0.5,0.7,1.1,1,1.9c0.2,0.8,0.3,1.8,0.3,2.9v2.3c0,1.2-0.1,2.1-0.3,2.9c-0.2,0.8-0.5,1.5-1,2s-0.9,0.9-1.5,1.1
	c-0.6,0.2-1.2,0.3-2,0.3c-0.7,0-1.4-0.1-1.9-0.3S111.4,68.8,111,68.3z M112.1,63.8c0,0.7,0.1,1.4,0.2,1.9c0.1,0.5,0.3,0.9,0.5,1.2
	c0.2,0.3,0.4,0.6,0.7,0.7c0.3,0.1,0.6,0.2,1,0.2c0.4,0,0.7-0.1,1-0.2c0.3-0.1,0.5-0.4,0.7-0.7c0.2-0.3,0.3-0.7,0.4-1.2
	c0.1-0.5,0.1-1.1,0.1-1.9v-3.1c0-0.7-0.1-1.4-0.2-1.9c-0.1-0.5-0.3-0.9-0.5-1.2c-0.2-0.3-0.4-0.5-0.7-0.7s-0.6-0.2-1-0.2
	c-0.4,0-0.7,0.1-1,0.2s-0.5,0.4-0.7,0.7c-0.2,0.3-0.4,0.7-0.5,1.2c-0.1,0.5-0.2,1.1-0.2,1.9V63.8z M236.1,67.2
	c0.4-0.4,0.6-0.9,0.6-1.5c0-0.3,0-0.5-0.1-0.8c-0.1-0.2-0.2-0.4-0.4-0.6s-0.4-0.4-0.7-0.5s-0.7-0.3-1.1-0.5
	c-0.6-0.2-1.2-0.5-1.7-0.7s-1-0.6-1.3-0.9c-0.4-0.4-0.6-0.8-0.8-1.2c-0.2-0.5-0.3-1-0.3-1.6c0-0.6,0.1-1.1,0.3-1.5
	c0.2-0.5,0.4-0.9,0.8-1.2c0.3-0.3,0.7-0.6,1.2-0.8c0.5-0.2,1-0.4,1.5-0.4v-2.2h1.6v2.2c0.6,0.1,1.1,0.2,1.5,0.5
	c0.4,0.2,0.8,0.6,1.1,1c0.3,0.4,0.6,0.9,0.7,1.4c0.2,0.5,0.2,1.1,0.2,1.8h-2.4c0-0.4,0-0.8-0.1-1.1c-0.1-0.3-0.2-0.6-0.4-0.8
	c-0.2-0.2-0.4-0.4-0.7-0.5c-0.3-0.1-0.6-0.2-0.9-0.2c-0.4,0-0.7,0-0.9,0.1s-0.5,0.2-0.6,0.4c-0.2,0.2-0.3,0.4-0.4,0.6
	c-0.1,0.2-0.1,0.5-0.1,0.8c0,0.3,0,0.5,0.1,0.8s0.2,0.4,0.4,0.6s0.4,0.4,0.8,0.5c0.3,0.2,0.7,0.3,1.2,0.5c0.6,0.2,1.2,0.5,1.7,0.7
	s0.9,0.6,1.3,0.9c0.4,0.3,0.6,0.8,0.8,1.2c0.2,0.5,0.3,1,0.3,1.6c0,0.6-0.1,1.1-0.3,1.6c-0.2,0.5-0.4,0.9-0.8,1.2s-0.8,0.6-1.2,0.8
	c-0.5,0.2-1,0.3-1.6,0.4v1.9h-1.6v-1.9c-0.5-0.1-1-0.2-1.5-0.4c-0.5-0.2-0.9-0.5-1.3-0.8s-0.7-0.8-0.9-1.4c-0.2-0.6-0.3-1.2-0.3-2
	h2.4c0,0.5,0.1,0.9,0.2,1.3c0.1,0.3,0.3,0.6,0.6,0.8c0.2,0.2,0.5,0.3,0.8,0.4s0.6,0.1,0.9,0.1C235.2,67.7,235.7,67.6,236.1,67.2z
	 M247.8,69.5V55h-0.3l-5.7,2.1v2l3.6-1.2v11.7H247.8z M254.7,71c0.2-0.3,0.3-0.7,0.4-1.1c0.1-0.4,0.1-0.7,0.1-1l0-1.7h-2.2V69
	c0,0.3,0,0.6-0.1,0.9c-0.1,0.3-0.1,0.5-0.2,0.8s-0.2,0.5-0.3,0.7c-0.1,0.2-0.3,0.5-0.4,0.7l1.3,0.8c0.3-0.2,0.5-0.5,0.8-0.8
	S254.6,71.3,254.7,71z M261.2,69.5l5.8-13.2V55H257V57h7.5l-5.8,12.6H261.2z M270.2,68.3c-0.4-0.5-0.7-1.2-1-2
	c-0.2-0.8-0.3-1.8-0.3-2.9v-2.3c0-1.2,0.1-2.1,0.3-2.9c0.2-0.8,0.5-1.4,1-1.9c0.4-0.5,0.9-0.9,1.5-1.1c0.6-0.2,1.2-0.3,1.9-0.3
	c0.7,0,1.4,0.1,2,0.3s1.1,0.6,1.5,1.1c0.4,0.5,0.7,1.1,1,1.9c0.2,0.8,0.3,1.8,0.3,2.9v2.3c0,1.2-0.1,2.1-0.3,2.9
	c-0.2,0.8-0.5,1.5-1,2s-0.9,0.9-1.5,1.1c-0.6,0.2-1.2,0.3-2,0.3c-0.7,0-1.4-0.1-1.9-0.3S270.7,68.8,270.2,68.3z M271.3,63.8
	c0,0.7,0.1,1.4,0.2,1.9c0.1,0.5,0.3,0.9,0.5,1.2c0.2,0.3,0.4,0.6,0.7,0.7c0.3,0.1,0.6,0.2,1,0.2c0.4,0,0.7-0.1,1-0.2
	c0.3-0.1,0.5-0.4,0.7-0.7c0.2-0.3,0.3-0.7,0.4-1.2c0.1-0.5,0.1-1.1,0.1-1.9v-3.1c0-0.7-0.1-1.4-0.2-1.9c-0.1-0.5-0.3-0.9-0.5-1.2
	c-0.2-0.3-0.4-0.5-0.7-0.7s-0.6-0.2-1-0.2c-0.4,0-0.7,0.1-1,0.2s-0.5,0.4-0.7,0.7c-0.2,0.3-0.4,0.7-0.5,1.2
	c-0.1,0.5-0.2,1.1-0.2,1.9V63.8z M287.1,69.5V55h-0.3l-5.7,2.1v2l3.6-1.2v11.7H287.1z M360.3,67.2c0.4-0.4,0.6-0.9,0.6-1.5
	c0-0.3,0-0.5-0.1-0.8c-0.1-0.2-0.2-0.4-0.4-0.6s-0.4-0.4-0.7-0.5s-0.7-0.3-1.1-0.5c-0.6-0.2-1.2-0.5-1.7-0.7s-1-0.6-1.3-0.9
	c-0.4-0.4-0.6-0.8-0.8-1.2c-0.2-0.5-0.3-1-0.3-1.6c0-0.6,0.1-1.1,0.3-1.5c0.2-0.5,0.4-0.9,0.8-1.2c0.3-0.3,0.7-0.6,1.2-0.8
	c0.5-0.2,1-0.4,1.5-0.4v-2.2h1.6v2.2c0.6,0.1,1.1,0.2,1.5,0.5c0.4,0.2,0.8,0.6,1.1,1c0.3,0.4,0.6,0.9,0.7,1.4
	c0.2,0.5,0.2,1.1,0.2,1.8h-2.4c0-0.4,0-0.8-0.1-1.1c-0.1-0.3-0.2-0.6-0.4-0.8c-0.2-0.2-0.4-0.4-0.7-0.5c-0.3-0.1-0.6-0.2-0.9-0.2
	c-0.4,0-0.7,0-0.9,0.1s-0.5,0.2-0.6,0.4c-0.2,0.2-0.3,0.4-0.4,0.6c-0.1,0.2-0.1,0.5-0.1,0.8c0,0.3,0,0.5,0.1,0.8s0.2,0.4,0.4,0.6
	s0.4,0.4,0.8,0.5c0.3,0.2,0.7,0.3,1.2,0.5c0.6,0.2,1.2,0.5,1.7,0.7s0.9,0.6,1.3,0.9c0.4,0.3,0.6,0.8,0.8,1.2c0.2,0.5,0.3,1,0.3,1.6
	c0,0.6-0.1,1.1-0.3,1.6c-0.2,0.5-0.4,0.9-0.8,1.2s-0.8,0.6-1.2,0.8c-0.5,0.2-1,0.3-1.6,0.4v1.9h-1.6v-1.9c-0.5-0.1-1-0.2-1.5-0.4
	c-0.5-0.2-0.9-0.5-1.3-0.8s-0.7-0.8-0.9-1.4c-0.2-0.6-0.3-1.2-0.3-2h2.4c0,0.5,0.1,0.9,0.2,1.3c0.1,0.3,0.3,0.6,0.6,0.8
	c0.2,0.2,0.5,0.3,0.8,0.4s0.6,0.1,0.9,0.1C359.3,67.7,359.9,67.6,360.3,67.2z M372.8,62.8c0.4-0.4,0.7-0.9,0.9-1.3
	c0.3-0.4,0.5-0.9,0.6-1.3c0.1-0.4,0.2-0.9,0.2-1.3c0-0.6-0.1-1.2-0.3-1.7c-0.2-0.5-0.5-0.9-0.9-1.3c-0.4-0.3-0.9-0.6-1.4-0.8
	c-0.6-0.2-1.2-0.3-1.9-0.3c-0.8,0-1.5,0.1-2.1,0.4s-1.1,0.6-1.5,1c-0.4,0.4-0.7,0.9-1,1.5c-0.2,0.6-0.3,1.2-0.3,1.8h2.4
	c0-0.4,0.1-0.8,0.2-1.1c0.1-0.3,0.3-0.6,0.5-0.8c0.2-0.2,0.5-0.4,0.8-0.6c0.3-0.1,0.7-0.2,1.1-0.2c0.3,0,0.7,0.1,0.9,0.2
	c0.3,0.1,0.5,0.3,0.7,0.5c0.2,0.2,0.3,0.5,0.4,0.7c0.1,0.3,0.1,0.6,0.1,0.9c0,0.2,0,0.5-0.1,0.7c-0.1,0.2-0.2,0.5-0.3,0.8
	c-0.2,0.3-0.4,0.6-0.6,0.9c-0.3,0.3-0.6,0.7-1,1.2l-4.7,5.2v1.7h9.8v-1.9h-6.7l3.2-3.5C372.1,63.7,372.5,63.2,372.8,62.8z M378.9,71
	c0.2-0.3,0.3-0.7,0.4-1.1c0.1-0.4,0.1-0.7,0.1-1l0-1.7h-2.2V69c0,0.3,0,0.6-0.1,0.9c-0.1,0.3-0.1,0.5-0.2,0.8s-0.2,0.5-0.3,0.7
	c-0.1,0.2-0.3,0.5-0.4,0.7l1.3,0.8c0.3-0.2,0.5-0.5,0.8-0.8S378.7,71.3,378.9,71z M386,67.8c-0.4,0-0.7-0.1-1-0.2
	c-0.3-0.1-0.5-0.2-0.7-0.4s-0.4-0.4-0.5-0.7c-0.1-0.3-0.2-0.6-0.2-0.9h-2.4c0,0.7,0.1,1.3,0.4,1.8c0.3,0.5,0.6,0.9,1,1.3
	s0.9,0.6,1.5,0.8c0.6,0.2,1.2,0.3,1.8,0.3c0.7,0,1.3-0.1,1.9-0.3c0.6-0.2,1.1-0.5,1.5-0.8c0.4-0.4,0.8-0.8,1-1.3
	c0.2-0.5,0.4-1.1,0.4-1.8c0-0.4,0-0.7-0.1-1c-0.1-0.3-0.2-0.7-0.4-1c-0.2-0.3-0.4-0.6-0.8-0.8c-0.3-0.2-0.7-0.4-1.1-0.6
	c0.4-0.2,0.7-0.4,1-0.6s0.5-0.5,0.7-0.8c0.2-0.3,0.3-0.6,0.4-0.9c0.1-0.3,0.1-0.6,0.1-0.9c0-0.7-0.1-1.3-0.3-1.8
	c-0.2-0.5-0.5-0.9-1-1.3s-0.9-0.6-1.5-0.8c-0.6-0.2-1.2-0.3-1.9-0.3c-0.7,0-1.3,0.1-1.9,0.3c-0.6,0.2-1.1,0.5-1.5,0.8
	c-0.4,0.4-0.7,0.8-1,1.3s-0.3,1-0.3,1.6h2.4c0-0.3,0.1-0.6,0.2-0.8c0.1-0.2,0.3-0.5,0.5-0.6c0.2-0.2,0.4-0.3,0.7-0.4
	c0.3-0.1,0.6-0.1,0.9-0.1c0.7,0,1.3,0.2,1.7,0.6c0.4,0.4,0.5,0.9,0.5,1.6c0,0.3,0,0.6-0.1,0.9c-0.1,0.3-0.3,0.5-0.5,0.7
	s-0.5,0.3-0.8,0.5c-0.3,0.1-0.7,0.2-1.1,0.2h-1.4v1.9h1.4c0.4,0,0.8,0,1.1,0.1c0.3,0.1,0.6,0.2,0.8,0.4s0.4,0.4,0.5,0.7
	c0.1,0.3,0.2,0.7,0.2,1.1c0,0.8-0.2,1.3-0.6,1.7C387.3,67.6,386.7,67.8,386,67.8z M401.3,55v9.3h1.8v1.9h-1.8v3.2h-2.4v-3.2h-6.3
	l-0.1-1.5l6.3-9.8H401.3z M398.9,58.3l-0.2,0.3l-3.6,5.7h3.8V58.3z M411.4,67c-0.2,0.3-0.4,0.5-0.7,0.6c-0.3,0.1-0.6,0.2-1,0.2
	c-0.7,0-1.2-0.2-1.6-0.6s-0.7-0.9-0.8-1.6h-2.3c0,0.7,0.2,1.3,0.5,1.8c0.3,0.5,0.6,0.9,1.1,1.3c0.4,0.3,0.9,0.6,1.5,0.8
	c0.6,0.2,1.1,0.3,1.7,0.3c0.8,0,1.5-0.1,2.1-0.4c0.6-0.3,1.1-0.6,1.5-1s0.7-0.9,0.9-1.5c0.2-0.6,0.3-1.2,0.3-1.9
	c0-0.8-0.1-1.4-0.3-2c-0.2-0.6-0.5-1.1-0.9-1.5s-0.8-0.8-1.4-1c-0.5-0.2-1.2-0.3-1.8-0.3c-0.5,0-1,0.1-1.3,0.2
	c-0.4,0.1-0.7,0.3-0.9,0.4l0.4-3.5h5.8V55h-7.8l-0.8,7.3l1.9,0.5c0.1-0.1,0.3-0.2,0.4-0.3s0.3-0.2,0.4-0.3c0.2-0.1,0.3-0.1,0.6-0.2
	c0.2,0,0.5-0.1,0.7-0.1c0.4,0,0.8,0.1,1.1,0.2s0.6,0.3,0.8,0.6c0.2,0.3,0.4,0.6,0.5,0.9c0.1,0.4,0.2,0.7,0.2,1.1
	c0,0.4,0,0.8-0.1,1.2C411.7,66.4,411.6,66.7,411.4,67z M417.6,68.3c-0.4-0.5-0.7-1.2-1-2c-0.2-0.8-0.3-1.8-0.3-2.9v-2.3
	c0-1.2,0.1-2.1,0.3-2.9c0.2-0.8,0.5-1.4,1-1.9c0.4-0.5,0.9-0.9,1.5-1.1c0.6-0.2,1.2-0.3,1.9-0.3c0.7,0,1.4,0.1,2,0.3
	s1.1,0.6,1.5,1.1c0.4,0.5,0.7,1.1,1,1.9c0.2,0.8,0.3,1.8,0.3,2.9v2.3c0,1.2-0.1,2.1-0.3,2.9c-0.2,0.8-0.5,1.5-1,2s-0.9,0.9-1.5,1.1
	c-0.6,0.2-1.2,0.3-2,0.3c-0.7,0-1.4-0.1-1.9-0.3S418,68.8,417.6,68.3z M418.7,63.8c0,0.7,0.1,1.4,0.2,1.9c0.1,0.5,0.3,0.9,0.5,1.2
	c0.2,0.3,0.4,0.6,0.7,0.7c0.3,0.1,0.6,0.2,1,0.2c0.4,0,0.7-0.1,1-0.2c0.3-0.1,0.5-0.4,0.7-0.7c0.2-0.3,0.3-0.7,0.4-1.2
	c0.1-0.5,0.1-1.1,0.1-1.9v-3.1c0-0.7-0.1-1.4-0.2-1.9c-0.1-0.5-0.3-0.9-0.5-1.2c-0.2-0.3-0.4-0.5-0.7-0.7s-0.6-0.2-1-0.2
	c-0.4,0-0.7,0.1-1,0.2s-0.5,0.4-0.7,0.7c-0.2,0.3-0.4,0.7-0.5,1.2c-0.1,0.5-0.2,1.1-0.2,1.9V63.8z M149.1,27.3h-124v-1h124V27.3z
	 M25.1,98.3h124v1h-124V98.3z M25.1,157.3h419v1h-419V157.3z M444.1,182.3h-419v-1h419V182.3z M25.1,216.3h419v1h-419V216.3z
	 M298.1,27.3h-124v-1h124V27.3z M174.1,98.3h124v1h-124V98.3z M444.1,27.3h-124v-1h124V27.3z M149.1,16.3h-124v-1h124V16.3z
	 M298.1,16.3h-124v-1h124V16.3z M444.1,16.3h-124v-1h124V16.3z M320.1,98.3h124v1h-124V98.3z M36.4,142.7c0.4-0.5,0.5-1.1,0.5-1.9
	c0-0.6-0.1-1-0.3-1.5c-0.2-0.4-0.4-0.8-0.8-1.1c-0.3-0.3-0.8-0.5-1.3-0.7s-1.1-0.2-1.7-0.2h-4v11.3h2v-4.4H33l2.3,4.4h2.1v-0.1
	l-2.5-4.7C35.5,143.6,36,143.2,36.4,142.7z M34.8,141.7c-0.1,0.2-0.2,0.4-0.4,0.6c-0.2,0.2-0.4,0.3-0.7,0.4
	c-0.3,0.1-0.6,0.1-0.9,0.1h-2V139h2c0.4,0,0.7,0,1,0.1c0.3,0.1,0.5,0.2,0.7,0.4s0.3,0.4,0.4,0.6s0.1,0.5,0.1,0.8
	C35,141.2,34.9,141.4,34.8,141.7z M40.7,139v3.1h4.6v1.6h-4.6v3.5h5.4v1.6h-7.4v-11.3h7.3v1.6H40.7z M49.4,142.6v0.9
	c0,0.6,0,1.1,0.1,1.5c0.1,0.5,0.3,0.9,0.5,1.2c0.2,0.3,0.5,0.6,0.8,0.8c0.3,0.2,0.7,0.3,1.2,0.3c0.4,0,0.8,0,1.1-0.1
	c0.3-0.1,0.5-0.2,0.7-0.4s0.3-0.4,0.4-0.7c0.1-0.3,0.2-0.6,0.2-1h2c-0.1,0.6-0.2,1.1-0.4,1.5s-0.5,0.9-0.9,1.2
	c-0.4,0.3-0.8,0.6-1.3,0.8c-0.5,0.2-1.1,0.3-1.8,0.3c-0.7,0-1.3-0.1-1.9-0.4c-0.6-0.3-1-0.6-1.4-1.1s-0.7-1-0.9-1.7
	c-0.2-0.7-0.3-1.4-0.3-2.2v-0.9c0-0.8,0.1-1.5,0.3-2.2c0.2-0.7,0.5-1.2,0.9-1.7c0.4-0.5,0.9-0.8,1.5-1.1c0.6-0.3,1.2-0.4,1.9-0.4
	c0.7,0,1.3,0.1,1.8,0.3c0.5,0.2,1,0.5,1.3,0.8s0.6,0.8,0.8,1.2s0.3,1,0.4,1.6h-2c0-0.4-0.1-0.7-0.2-1c-0.1-0.3-0.2-0.5-0.4-0.7
	c-0.2-0.2-0.4-0.4-0.7-0.5s-0.6-0.2-1-0.2c-0.4,0-0.8,0.1-1.2,0.3c-0.3,0.2-0.6,0.4-0.8,0.7c-0.2,0.3-0.4,0.7-0.5,1.2
	C49.4,141.5,49.4,142,49.4,142.6z M60.1,139v3.1h4.6v1.6h-4.6v3.5h5.4v1.6h-7.4v-11.3h7.3v1.6H60.1z M74.1,145.5v-8h1.9v11.3h-2
	l-5-8v8h-2v-11.3h2L74.1,145.5z M80.9,148.7V139h-3.5v-1.6h9v1.6h-3.5v9.7H80.9z M91.4,148.7v-11.3h2v11.3H91.4z M102.8,145.5v-8
	h1.9v11.3h-2l-5-8v8h-2v-11.3h2L102.8,145.5z M111,146.3l2.9-8.8h2.2l-4.1,11.3h-1.9l-4-11.3h2.1L111,146.3z M123.5,137.6
	c-0.6-0.3-1.2-0.4-1.9-0.4c-0.7,0-1.3,0.1-1.9,0.4c-0.6,0.3-1.1,0.6-1.5,1.1s-0.7,1.1-1,1.7c-0.2,0.7-0.3,1.5-0.3,2.3v0.6
	c0,0.9,0.1,1.6,0.3,2.3c0.2,0.7,0.6,1.3,1,1.7c0.4,0.5,0.9,0.8,1.5,1.1c0.6,0.3,1.2,0.4,1.9,0.4c0.7,0,1.3-0.1,1.9-0.4
	c0.6-0.3,1.1-0.6,1.5-1.1c0.4-0.5,0.7-1,1-1.7c0.2-0.7,0.3-1.4,0.3-2.3v-0.6c0-0.9-0.1-1.6-0.3-2.3c-0.2-0.7-0.5-1.3-1-1.7
	S124,137.9,123.5,137.6z M124.3,143.4c0,1.3-0.2,2.2-0.7,2.9c-0.5,0.7-1.1,1-2,1c-0.4,0-0.8-0.1-1.1-0.3c-0.3-0.2-0.6-0.4-0.9-0.7
	c-0.2-0.3-0.4-0.7-0.5-1.2c-0.1-0.5-0.2-1-0.2-1.7v-0.6c0-0.6,0.1-1.2,0.2-1.7s0.3-0.9,0.5-1.2c0.2-0.3,0.5-0.6,0.9-0.7
	c0.3-0.2,0.7-0.3,1.1-0.3c0.4,0,0.8,0.1,1.2,0.3c0.3,0.2,0.6,0.4,0.9,0.7c0.2,0.3,0.4,0.7,0.5,1.2c0.1,0.5,0.2,1,0.2,1.7V143.4z
	 M128.3,148.7v-11.3h2v11.3H128.3z M134.3,142.6v0.9c0,0.6,0,1.1,0.1,1.5c0.1,0.5,0.3,0.9,0.5,1.2c0.2,0.3,0.5,0.6,0.8,0.8
	c0.3,0.2,0.7,0.3,1.2,0.3c0.4,0,0.8,0,1.1-0.1c0.3-0.1,0.5-0.2,0.7-0.4s0.3-0.4,0.4-0.7c0.1-0.3,0.2-0.6,0.2-1h2
	c-0.1,0.6-0.2,1.1-0.4,1.5s-0.5,0.9-0.9,1.2c-0.4,0.3-0.8,0.6-1.3,0.8c-0.5,0.2-1.1,0.3-1.8,0.3c-0.7,0-1.3-0.1-1.9-0.4
	c-0.6-0.3-1-0.6-1.4-1.1s-0.7-1-0.9-1.7c-0.2-0.7-0.3-1.4-0.3-2.2v-0.9c0-0.8,0.1-1.5,0.3-2.2c0.2-0.7,0.5-1.2,0.9-1.7
	c0.4-0.5,0.9-0.8,1.5-1.1c0.6-0.3,1.2-0.4,1.9-0.4c0.7,0,1.3,0.1,1.8,0.3c0.5,0.2,1,0.5,1.3,0.8s0.6,0.8,0.8,1.2s0.3,1,0.4,1.6h-2
	c0-0.4-0.1-0.7-0.2-1c-0.1-0.3-0.2-0.5-0.4-0.7c-0.2-0.2-0.4-0.4-0.7-0.5s-0.6-0.2-1-0.2c-0.4,0-0.8,0.1-1.2,0.3
	c-0.3,0.2-0.6,0.4-0.8,0.7c-0.2,0.3-0.4,0.7-0.5,1.2C134.3,141.5,134.3,142,134.3,142.6z M145,139v3.1h4.6v1.6H145v3.5h5.4v1.6H143
	v-11.3h7.3v1.6H145z M157.9,145.8c0-0.2,0-0.4-0.1-0.6c-0.1-0.2-0.2-0.3-0.4-0.5s-0.4-0.3-0.7-0.4c-0.3-0.1-0.7-0.3-1.2-0.4
	c-0.5-0.2-1-0.3-1.5-0.6c-0.5-0.2-0.8-0.4-1.2-0.7s-0.6-0.6-0.8-0.9s-0.3-0.8-0.3-1.2c0-0.5,0.1-0.9,0.3-1.3s0.5-0.7,0.8-1
	c0.4-0.3,0.8-0.5,1.3-0.7c0.5-0.2,1-0.2,1.6-0.2c0.6,0,1.2,0.1,1.7,0.3c0.5,0.2,0.9,0.4,1.3,0.7c0.3,0.3,0.6,0.7,0.8,1.1
	c0.2,0.4,0.3,0.9,0.3,1.3h-2c0-0.3,0-0.5-0.1-0.8c-0.1-0.2-0.2-0.4-0.4-0.6c-0.2-0.2-0.4-0.3-0.7-0.4c-0.3-0.1-0.6-0.1-1-0.1
	c-0.3,0-0.6,0-0.9,0.1c-0.3,0.1-0.5,0.2-0.6,0.3s-0.3,0.3-0.4,0.5c-0.1,0.2-0.1,0.4-0.1,0.6c0,0.4,0.2,0.8,0.6,1s1,0.5,1.8,0.8
	c0.6,0.2,1.2,0.4,1.7,0.6c0.5,0.2,0.9,0.5,1.2,0.8c0.3,0.3,0.5,0.6,0.7,1c0.2,0.4,0.2,0.8,0.2,1.2c0,0.5-0.1,0.9-0.3,1.3
	s-0.5,0.7-0.8,1s-0.8,0.5-1.3,0.6c-0.5,0.1-1,0.2-1.7,0.2c-0.5,0-1.1-0.1-1.6-0.2c-0.5-0.1-1-0.4-1.4-0.7c-0.4-0.3-0.8-0.7-1-1.1
	c-0.3-0.4-0.4-1-0.4-1.6h2c0,0.4,0.1,0.7,0.2,0.9c0.1,0.3,0.3,0.5,0.5,0.6s0.5,0.3,0.8,0.4c0.3,0.1,0.6,0.1,1,0.1
	c0.7,0,1.2-0.1,1.5-0.4C157.8,146.6,157.9,146.3,157.9,145.8z M29.2,18.3v3.8c0,0.2,0,0.4,0.1,0.5s0.1,0.3,0.2,0.4s0.2,0.2,0.4,0.2
	s0.3,0.1,0.5,0.1s0.3,0,0.5-0.1s0.3-0.1,0.4-0.2s0.2-0.2,0.2-0.4s0.1-0.3,0.1-0.5v-3.8h1v3.8c0,0.3-0.1,0.6-0.2,0.9
	s-0.3,0.4-0.5,0.6c-0.2,0.2-0.4,0.3-0.7,0.4s-0.5,0.1-0.8,0.1c-0.3,0-0.6,0-0.8-0.1s-0.5-0.2-0.7-0.4s-0.3-0.4-0.4-0.6
	s-0.2-0.5-0.2-0.9v-3.8H29.2z M34.5,18.3h-1V24h1v-4l2.5,4h1v-5.7h-1v4.1L34.5,18.3z M40.2,24v-5.7h-1V24H40.2z M42.4,18.3h-1V24h1
	v-4l2.5,4h1v-5.7h-1v4.1L42.4,18.3z M47.7,18.3h-1.1l2,5.7h1l2-5.7h-1.1l-1.4,4.4L47.7,18.3z M56.1,19c0.2,0.2,0.4,0.5,0.5,0.9
	s0.2,0.7,0.2,1.2v0.3c0,0.4-0.1,0.8-0.2,1.2s-0.3,0.6-0.5,0.9s-0.5,0.4-0.7,0.5s-0.6,0.2-1,0.2c-0.3,0-0.7-0.1-1-0.2
	s-0.5-0.3-0.7-0.5s-0.4-0.5-0.5-0.9s-0.2-0.7-0.2-1.2V21c0-0.4,0.1-0.8,0.2-1.2s0.3-0.6,0.5-0.9s0.5-0.4,0.7-0.6s0.6-0.2,1-0.2
	c0.4,0,0.7,0.1,1,0.2S55.9,18.7,56.1,19z M55.8,21c0-0.3,0-0.6-0.1-0.8s-0.2-0.4-0.3-0.6s-0.3-0.3-0.4-0.4S54.6,19,54.4,19
	c-0.2,0-0.4,0-0.6,0.1s-0.3,0.2-0.4,0.4s-0.2,0.4-0.3,0.6s-0.1,0.5-0.1,0.8v0.3c0,0.3,0,0.6,0.1,0.8s0.2,0.4,0.3,0.6
	s0.3,0.3,0.4,0.4s0.4,0.1,0.6,0.1c0.4,0,0.8-0.2,1-0.5s0.4-0.8,0.4-1.5V21z M58.8,24v-5.7h-1V24H58.8z M60.9,20.1
	c0.1-0.2,0.1-0.4,0.3-0.6s0.3-0.3,0.4-0.4S62,19,62.2,19c0.2,0,0.4,0,0.5,0.1s0.3,0.1,0.4,0.2s0.2,0.2,0.2,0.4s0.1,0.3,0.1,0.5h1
	c0-0.3-0.1-0.5-0.2-0.8s-0.2-0.4-0.4-0.6s-0.4-0.3-0.7-0.4s-0.6-0.1-0.9-0.1c-0.4,0-0.7,0.1-1,0.2s-0.5,0.3-0.7,0.5
	s-0.4,0.5-0.5,0.8s-0.2,0.7-0.2,1.1v0.5c0,0.4,0.1,0.8,0.2,1.1s0.3,0.6,0.5,0.8s0.4,0.4,0.7,0.5s0.6,0.2,0.9,0.2s0.7,0,0.9-0.1
	s0.5-0.2,0.7-0.4s0.3-0.4,0.4-0.6s0.2-0.5,0.2-0.8h-1c0,0.2-0.1,0.3-0.1,0.5S63.1,22.9,63,23s-0.2,0.2-0.4,0.2s-0.3,0.1-0.5,0.1
	c-0.2,0-0.4,0-0.6-0.1s-0.3-0.2-0.4-0.4s-0.2-0.4-0.2-0.6s-0.1-0.5-0.1-0.8v-0.5C60.8,20.6,60.9,20.3,60.9,20.1z M68.9,19.1v-0.8
	h-3.7V24H69v-0.8h-2.7v-1.8h2.3v-0.8h-2.3v-1.6H68.9z M73.3,19c0.2,0.2,0.4,0.5,0.5,0.9S74,20.6,74,21v0.3c0,0.4-0.1,0.8-0.2,1.1
	s-0.3,0.6-0.5,0.8s-0.5,0.4-0.8,0.5S71.8,24,71.4,24h-1.6v-5.7h1.7c0.4,0,0.7,0.1,1,0.2S73.1,18.8,73.3,19z M73,21
	c0-0.6-0.1-1.1-0.4-1.4s-0.7-0.5-1.2-0.5h-0.7v4.1h0.6c0.3,0,0.5,0,0.7-0.1s0.4-0.2,0.5-0.4s0.2-0.4,0.3-0.6s0.1-0.5,0.1-0.8V21z
	 M36.3,199.6v-0.7h-0.9l0.3-1.6H35l-0.3,1.6h-0.8l0.3-1.6h-0.7l-0.3,1.6h-1v0.7h0.9l-0.2,1.1h-1v0.7h0.9l-0.3,1.6h0.7l0.3-1.6h0.8
	L34,203h0.7l0.3-1.6h1v-0.7h-0.9l0.2-1.1H36.3z M34.4,200.7h-0.8l0.2-1.1h0.8L34.4,200.7z M38.5,203v-4.4l-1.3,0.4v-0.9l2.4-0.8h0.1
	v5.7H38.5z M41.9,203l2.2-4.8h-2.8v-0.9h4v0.6l-2.2,5.1H41.9z M46.5,203l2.2-4.8h-2.8v-0.9h4v0.6l-2.2,5.1H46.5z M81.7,203H83
	l0.4-1.2h2.1l0.4,1.2h1.2l-2.1-5.7h-1.1L81.7,203z M85.1,200.9h-1.4l0.7-2.1L85.1,200.9z M88.6,198.8v2.7c0,0.1,0,0.2,0,0.3
	c0,0.1,0.1,0.2,0.1,0.2s0.1,0.1,0.2,0.1s0.2,0,0.2,0c0.2,0,0.4,0,0.5-0.1s0.2-0.2,0.3-0.3v-3h1.1v4.2h-1.1l0-0.4
	c-0.1,0.2-0.3,0.3-0.5,0.4c-0.2,0.1-0.4,0.1-0.7,0.1c-0.2,0-0.4,0-0.6-0.1s-0.3-0.2-0.4-0.3c-0.1-0.1-0.2-0.3-0.3-0.5
	s-0.1-0.4-0.1-0.7v-2.7H88.6z M94.3,203.5c-0.2,0.2-0.4,0.2-0.7,0.2c-0.2,0-0.4,0-0.6-0.1c-0.2-0.1-0.3-0.2-0.5-0.3l-0.5,0.7
	c0.1,0.1,0.2,0.2,0.3,0.3c0.1,0.1,0.3,0.2,0.4,0.2s0.3,0.1,0.4,0.1c0.1,0,0.3,0,0.4,0c0.3,0,0.6,0,0.8-0.1c0.2-0.1,0.5-0.2,0.6-0.4
	c0.2-0.2,0.3-0.3,0.4-0.6c0.1-0.2,0.1-0.5,0.1-0.8v-4.1h-1l0,0.4c-0.1-0.2-0.3-0.3-0.4-0.4c-0.2-0.1-0.4-0.1-0.6-0.1
	c-0.3,0-0.5,0.1-0.7,0.2c-0.2,0.1-0.4,0.3-0.5,0.4c-0.1,0.2-0.3,0.4-0.3,0.7s-0.1,0.6-0.1,0.9v0.1c0,0.3,0,0.6,0.1,0.9
	s0.2,0.5,0.3,0.7c0.1,0.2,0.3,0.3,0.5,0.4c0.2,0.1,0.4,0.2,0.7,0.2c0.2,0,0.4,0,0.6-0.1c0.2-0.1,0.3-0.2,0.4-0.3v0.2
	C94.5,203.1,94.4,203.4,94.3,203.5z M94.2,202c-0.1,0.1-0.3,0.1-0.5,0.1c-0.1,0-0.3,0-0.4-0.1c-0.1-0.1-0.2-0.2-0.3-0.3
	c-0.1-0.1-0.1-0.2-0.2-0.4s-0.1-0.3-0.1-0.5v-0.1c0-0.2,0-0.3,0.1-0.5c0-0.2,0.1-0.3,0.2-0.4c0.1-0.1,0.2-0.2,0.3-0.3
	c0.1-0.1,0.2-0.1,0.4-0.1c0.2,0,0.3,0,0.4,0.1s0.2,0.2,0.3,0.3v1.8C94.5,201.9,94.4,202,94.2,202z M100.1,203v-4.4l-1.3,0.4v-0.9
	l2.4-0.8h0.1v5.7H100.1z M105.8,201.5c0-0.1,0-0.3,0-0.4s0-0.3-0.1-0.4c0-0.1-0.1-0.2-0.2-0.3c-0.1-0.1-0.2-0.2-0.3-0.2
	c-0.1,0-0.2-0.1-0.4-0.1c-0.1,0-0.2,0-0.3,0c-0.1,0-0.1,0-0.2,0.1c-0.1,0-0.1,0.1-0.2,0.1c0,0-0.1,0.1-0.1,0.1l-0.9-0.2l0.3-2.9h3.2
	v0.9h-2.3l-0.1,1.2c0,0,0.1,0,0.1-0.1c0.1,0,0.1,0,0.2-0.1c0.1,0,0.2,0,0.2-0.1c0.1,0,0.2,0,0.3,0c0.3,0,0.5,0,0.7,0.1
	c0.2,0.1,0.4,0.2,0.5,0.4s0.3,0.4,0.3,0.6c0.1,0.2,0.1,0.5,0.1,0.8c0,0.3,0,0.5-0.1,0.7c-0.1,0.2-0.2,0.4-0.4,0.6
	c-0.2,0.2-0.4,0.3-0.6,0.4c-0.2,0.1-0.5,0.2-0.8,0.2c-0.2,0-0.5,0-0.7-0.1s-0.4-0.2-0.6-0.3c-0.2-0.1-0.3-0.3-0.4-0.5
	c-0.1-0.2-0.2-0.4-0.2-0.7h1.1c0,0.2,0.1,0.4,0.2,0.6c0.1,0.1,0.3,0.2,0.6,0.2c0.1,0,0.3,0,0.4-0.1s0.2-0.1,0.2-0.2
	S105.7,201.6,105.8,201.5z M107.8,202.8V202h1l0,0.8c0,0.1,0,0.3-0.1,0.4c0,0.2-0.1,0.3-0.2,0.4c-0.1,0.1-0.2,0.3-0.2,0.4
	s-0.2,0.2-0.3,0.3l-0.6-0.3c0-0.1,0.1-0.2,0.1-0.3c0-0.1,0.1-0.2,0.1-0.3c0-0.1,0.1-0.2,0.1-0.3C107.8,203.1,107.8,203,107.8,202.8z
	 M114.1,199.2c0-0.1,0-0.2,0-0.3c0-0.3-0.1-0.5-0.2-0.6s-0.3-0.2-0.5-0.2c-0.1,0-0.3,0-0.4,0.1c-0.1,0-0.2,0.1-0.3,0.2
	c-0.1,0.1-0.1,0.2-0.2,0.3s-0.1,0.2-0.1,0.4h-1.1c0-0.3,0-0.5,0.1-0.7s0.2-0.4,0.4-0.6c0.2-0.2,0.4-0.3,0.6-0.4
	c0.2-0.1,0.5-0.1,0.8-0.1c0.3,0,0.6,0,0.8,0.1s0.4,0.2,0.6,0.3c0.2,0.1,0.3,0.3,0.4,0.5c0.1,0.2,0.1,0.4,0.1,0.7
	c0,0.2,0,0.4-0.1,0.6c-0.1,0.2-0.1,0.4-0.3,0.5c-0.1,0.2-0.2,0.4-0.4,0.5c-0.2,0.2-0.3,0.4-0.5,0.6l-1,1.1h2.4v0.9h-3.9v-0.8l1.8-2
	c0.1-0.2,0.3-0.3,0.3-0.4s0.2-0.2,0.2-0.3C114.1,199.4,114.1,199.3,114.1,199.2z M118.9,197.4c-0.2-0.1-0.5-0.1-0.8-0.1
	s-0.5,0-0.8,0.1c-0.2,0.1-0.4,0.2-0.6,0.4c-0.2,0.2-0.3,0.4-0.4,0.8c-0.1,0.3-0.1,0.7-0.1,1.1v1c0,0.4,0,0.8,0.1,1.1
	c0.1,0.3,0.2,0.6,0.4,0.8c0.2,0.2,0.4,0.3,0.6,0.4c0.2,0.1,0.5,0.1,0.8,0.1s0.5,0,0.8-0.1c0.2-0.1,0.4-0.2,0.6-0.4
	c0.2-0.2,0.3-0.4,0.4-0.8c0.1-0.3,0.1-0.7,0.1-1.1v-1c0-0.4,0-0.8-0.1-1.1c-0.1-0.3-0.2-0.6-0.4-0.8
	C119.3,197.6,119.1,197.4,118.9,197.4z M118.9,200.8c0,0.3,0,0.5-0.1,0.6c0,0.2-0.1,0.3-0.2,0.4c-0.1,0.1-0.1,0.2-0.2,0.2
	s-0.2,0.1-0.3,0.1s-0.2,0-0.3-0.1s-0.2-0.1-0.2-0.2c-0.1-0.1-0.1-0.2-0.2-0.4c0-0.2-0.1-0.4-0.1-0.6v-1.3c0-0.3,0-0.5,0.1-0.6
	s0.1-0.3,0.2-0.4s0.2-0.2,0.2-0.2s0.2-0.1,0.3-0.1s0.2,0,0.3,0.1s0.2,0.1,0.3,0.2s0.1,0.2,0.2,0.4s0.1,0.4,0.1,0.6V200.8z
	 M122.4,203v-4.4L121,199v-0.9l2.4-0.8h0.1v5.7H122.4z M128.7,203v-1.2h0.6v-0.9h-0.6v-3.5h-1.1l-2.4,3.7l0.1,0.7h2.3v1.2H128.7z
	 M126.3,200.8l1.2-1.9l0.1-0.1v2H126.3z M163.2,199.9v0.4c0,0.3,0,0.6,0.1,0.8c0,0.2,0.1,0.4,0.2,0.6s0.2,0.3,0.4,0.3
	s0.3,0.1,0.5,0.1c0.2,0,0.3,0,0.5-0.1c0.1,0,0.2-0.1,0.3-0.2c0.1-0.1,0.2-0.2,0.2-0.3c0-0.1,0.1-0.3,0.1-0.4h1.2
	c0,0.3-0.1,0.6-0.2,0.8s-0.3,0.5-0.5,0.6c-0.2,0.2-0.4,0.3-0.7,0.4s-0.6,0.1-0.9,0.1c-0.4,0-0.7-0.1-1-0.2c-0.3-0.1-0.5-0.3-0.7-0.5
	c-0.2-0.2-0.4-0.5-0.5-0.9c-0.1-0.3-0.2-0.7-0.2-1.1V200c0-0.4,0.1-0.8,0.2-1.1c0.1-0.3,0.3-0.6,0.5-0.9c0.2-0.2,0.5-0.4,0.7-0.5
	c0.3-0.1,0.6-0.2,1-0.2c0.4,0,0.7,0.1,0.9,0.2c0.3,0.1,0.5,0.2,0.7,0.4c0.2,0.2,0.3,0.4,0.4,0.6s0.2,0.5,0.2,0.8h-1.2
	c0-0.2,0-0.3-0.1-0.4c0-0.1-0.1-0.2-0.2-0.3c-0.1-0.1-0.2-0.2-0.3-0.2c-0.1,0-0.3-0.1-0.5-0.1c-0.4,0-0.7,0.1-0.9,0.4
	C163.3,198.9,163.2,199.3,163.2,199.9z M169.9,203v-2.7c0-0.1,0-0.2,0-0.3c0-0.1-0.1-0.2-0.1-0.2c-0.1-0.1-0.1-0.1-0.2-0.1
	s-0.2,0-0.3,0c-0.2,0-0.3,0-0.4,0.1c-0.1,0.1-0.2,0.2-0.3,0.3v3h-1.1v-6h1.1v2.2c0.1-0.2,0.3-0.3,0.5-0.4c0.2-0.1,0.4-0.1,0.6-0.1
	c0.2,0,0.4,0,0.6,0.1s0.3,0.2,0.4,0.3c0.1,0.1,0.2,0.3,0.3,0.5c0.1,0.2,0.1,0.5,0.1,0.8v2.7H169.9z M173.6,200.4
	c-0.3,0-0.6,0-0.8,0.1s-0.4,0.2-0.6,0.3c-0.2,0.1-0.3,0.3-0.4,0.4s-0.1,0.4-0.1,0.6c0,0.2,0,0.4,0.1,0.5c0.1,0.2,0.2,0.3,0.3,0.4
	c0.1,0.1,0.3,0.2,0.5,0.3s0.4,0.1,0.6,0.1c0.2,0,0.5,0,0.6-0.1c0.2-0.1,0.3-0.2,0.4-0.3c0,0.2,0.1,0.3,0.1,0.4h1.1v-0.1
	c0-0.1-0.1-0.1-0.1-0.2c0-0.1,0-0.1-0.1-0.2c0-0.1,0-0.2,0-0.3c0-0.1,0-0.2,0-0.3v-1.8c0-0.2,0-0.5-0.1-0.7
	c-0.1-0.2-0.2-0.3-0.4-0.5c-0.2-0.1-0.3-0.2-0.5-0.3s-0.4-0.1-0.7-0.1c-0.3,0-0.5,0-0.7,0.1c-0.2,0.1-0.4,0.2-0.6,0.3
	c-0.2,0.1-0.3,0.3-0.4,0.4s-0.1,0.3-0.1,0.5h1.1c0-0.2,0.1-0.3,0.2-0.4c0.1-0.1,0.3-0.1,0.4-0.1c0.2,0,0.4,0.1,0.5,0.2
	s0.2,0.3,0.2,0.5v0.2H173.6z M174.1,201.8c0,0.1-0.1,0.1-0.1,0.2c0,0-0.1,0.1-0.2,0.1c-0.1,0-0.1,0.1-0.2,0.1s-0.2,0-0.3,0
	c-0.2,0-0.3,0-0.4-0.1c-0.1-0.1-0.1-0.2-0.1-0.3c0-0.1,0-0.2,0.1-0.3c0-0.1,0.1-0.1,0.2-0.2s0.2-0.1,0.3-0.1c0.1,0,0.2,0,0.4,0h0.5
	V201.8z M181.1,203v-2.7c0-0.1,0-0.3,0-0.3c0-0.1-0.1-0.2-0.1-0.2s-0.1-0.1-0.2-0.1s-0.2,0-0.3,0c-0.2,0-0.3,0-0.4,0.1
	c-0.1,0.1-0.2,0.2-0.3,0.4c0,0,0,0,0,0s0,0,0,0v2.8h-1.1v-2.7c0-0.1,0-0.3,0-0.3c0-0.1-0.1-0.2-0.1-0.2c-0.1-0.1-0.1-0.1-0.2-0.1
	c-0.1,0-0.2,0-0.3,0c-0.2,0-0.3,0-0.4,0.1s-0.2,0.2-0.3,0.3v3h-1.1v-4.2h1.1l0,0.5c0.1-0.2,0.3-0.3,0.5-0.4s0.4-0.1,0.7-0.1
	c0.3,0,0.5,0.1,0.7,0.2s0.3,0.3,0.5,0.5c0.1-0.2,0.3-0.4,0.5-0.5c0.2-0.1,0.5-0.2,0.7-0.2c0.2,0,0.4,0,0.6,0.1
	c0.2,0.1,0.3,0.2,0.4,0.3c0.1,0.1,0.2,0.3,0.3,0.5c0.1,0.2,0.1,0.5,0.1,0.8v2.7H181.1z M185.9,198.8c-0.2-0.1-0.4-0.2-0.7-0.2
	c-0.2,0-0.4,0-0.6,0.1s-0.3,0.2-0.5,0.4l0-0.4h-1v5.9h1.1v-2c0.1,0.1,0.3,0.2,0.4,0.3s0.4,0.1,0.6,0.1c0.3,0,0.5-0.1,0.7-0.2
	s0.4-0.3,0.5-0.5s0.2-0.4,0.3-0.7c0.1-0.3,0.1-0.5,0.1-0.9v-0.1c0-0.3,0-0.6-0.1-0.9c-0.1-0.3-0.2-0.5-0.3-0.7
	C186.3,199.1,186.1,198.9,185.9,198.8z M185.8,200.9c0,0.2,0,0.3,0,0.5c0,0.2-0.1,0.3-0.1,0.4s-0.1,0.2-0.2,0.3
	c-0.1,0.1-0.2,0.1-0.4,0.1c-0.2,0-0.3,0-0.5-0.1s-0.2-0.2-0.3-0.3V200c0.1-0.1,0.2-0.2,0.3-0.3c0.1-0.1,0.3-0.1,0.5-0.1
	c0.1,0,0.3,0,0.4,0.1s0.2,0.1,0.3,0.3c0.1,0.1,0.1,0.2,0.1,0.4C185.7,200.5,185.8,200.7,185.8,200.9L185.8,200.9z M188.8,197.9
	c0,0.1-0.1,0.1-0.1,0.2c-0.1,0.1-0.1,0.1-0.2,0.1c-0.1,0-0.2,0-0.3,0s-0.2,0-0.3,0c-0.1,0-0.1-0.1-0.2-0.1c-0.1-0.1-0.1-0.1-0.1-0.2
	c0-0.1,0-0.2,0-0.2c0-0.2,0.1-0.3,0.2-0.4s0.3-0.2,0.5-0.2c0.1,0,0.2,0,0.3,0c0.1,0,0.1,0.1,0.2,0.1c0.1,0.1,0.1,0.1,0.1,0.2
	c0,0.1,0,0.1,0,0.2C188.8,197.7,188.8,197.8,188.8,197.9z M187.6,198.8h1.1v4.2h-1.1V198.8z M192.4,198.8c-0.2-0.1-0.5-0.2-0.9-0.2
	c-0.3,0-0.6,0.1-0.8,0.2s-0.5,0.3-0.6,0.5s-0.3,0.4-0.4,0.7c-0.1,0.3-0.1,0.5-0.1,0.9v0.1c0,0.3,0,0.6,0.1,0.9s0.2,0.5,0.4,0.7
	s0.4,0.3,0.6,0.4c0.2,0.1,0.5,0.2,0.9,0.2s0.6-0.1,0.9-0.2c0.2-0.1,0.5-0.3,0.6-0.4s0.3-0.4,0.4-0.7s0.1-0.5,0.1-0.9v-0.1
	c0-0.3,0-0.6-0.1-0.9c-0.1-0.3-0.2-0.5-0.4-0.7S192.6,198.9,192.4,198.8z M192.4,200.9c0,0.2,0,0.3,0,0.5c0,0.2-0.1,0.3-0.2,0.4
	c-0.1,0.1-0.2,0.2-0.3,0.3c-0.1,0.1-0.2,0.1-0.4,0.1c-0.2,0-0.3,0-0.4-0.1c-0.1-0.1-0.2-0.2-0.3-0.3c-0.1-0.1-0.1-0.2-0.2-0.4
	c0-0.2,0-0.3,0-0.5v-0.1c0-0.2,0-0.3,0-0.5c0-0.1,0.1-0.3,0.2-0.4s0.2-0.2,0.3-0.3s0.2-0.1,0.4-0.1c0.2,0,0.3,0,0.4,0.1
	s0.2,0.2,0.3,0.3s0.1,0.2,0.2,0.4C192.4,200.5,192.4,200.7,192.4,200.9L192.4,200.9z M196.7,203v-2.7c0-0.1,0-0.2,0-0.3
	c0-0.1-0.1-0.2-0.1-0.2c-0.1-0.1-0.1-0.1-0.2-0.1c-0.1,0-0.2,0-0.3,0c-0.2,0-0.3,0-0.4,0.1c-0.1,0.1-0.2,0.2-0.3,0.3v3h-1.1v-4.2
	h1.1l0,0.5c0.1-0.2,0.3-0.3,0.5-0.4s0.4-0.1,0.7-0.1c0.2,0,0.4,0,0.5,0.1c0.2,0.1,0.3,0.1,0.4,0.3c0.1,0.1,0.2,0.3,0.3,0.5
	c0.1,0.2,0.1,0.5,0.1,0.8v2.7H196.7z M204.7,199.6c0.1-0.1,0.1-0.2,0.1-0.3c0-0.1,0-0.2,0-0.4c0-0.3,0-0.5-0.1-0.7s-0.2-0.4-0.4-0.5
	s-0.4-0.2-0.7-0.3s-0.6-0.1-0.9-0.1h-2v5.7h2.2c0.7,0,1.2-0.1,1.5-0.4s0.5-0.7,0.5-1.2c0-0.1,0-0.3-0.1-0.4c0-0.1-0.1-0.3-0.2-0.4
	c-0.1-0.1-0.2-0.2-0.3-0.3c-0.1-0.1-0.3-0.1-0.4-0.2c0.1-0.1,0.3-0.1,0.4-0.2C204.5,199.8,204.6,199.7,204.7,199.6z M201.9,198.2
	h0.8c0.3,0,0.6,0.1,0.7,0.2s0.2,0.3,0.2,0.6c0,0.2-0.1,0.4-0.2,0.5s-0.4,0.2-0.7,0.2h-0.9V198.2z M203.8,201.6
	c0,0.1-0.1,0.2-0.2,0.2s-0.2,0.1-0.3,0.2c-0.1,0-0.2,0.1-0.4,0.1h-1v-1.5h1c0.1,0,0.3,0,0.4,0.1c0.1,0,0.2,0.1,0.3,0.2
	c0.1,0.1,0.1,0.2,0.1,0.2s0,0.2,0,0.3C203.8,201.4,203.8,201.5,203.8,201.6z M207.8,198.7c0.1,0,0.1,0,0.2,0c0.1,0,0.1,0,0.2,0
	l0,1.1c-0.1,0-0.1,0-0.2,0c-0.1,0-0.1,0-0.2,0c-0.2,0-0.4,0-0.5,0.1s-0.2,0.2-0.3,0.3v2.8h-1.1v-4.2h1.1l0,0.5
	c0.1-0.2,0.2-0.3,0.4-0.4C207.4,198.7,207.6,198.7,207.8,198.7z M210.4,200.4c-0.3,0-0.6,0-0.8,0.1s-0.4,0.2-0.6,0.3
	c-0.2,0.1-0.3,0.3-0.4,0.4s-0.1,0.4-0.1,0.6c0,0.2,0,0.4,0.1,0.5c0.1,0.2,0.2,0.3,0.3,0.4c0.1,0.1,0.3,0.2,0.5,0.3s0.4,0.1,0.6,0.1
	c0.2,0,0.5,0,0.6-0.1c0.2-0.1,0.3-0.2,0.4-0.3c0,0.2,0.1,0.3,0.1,0.4h1.1v-0.1c0-0.1-0.1-0.1-0.1-0.2c0-0.1,0-0.1-0.1-0.2
	c0-0.1,0-0.2,0-0.3c0-0.1,0-0.2,0-0.3v-1.8c0-0.2,0-0.5-0.1-0.7c-0.1-0.2-0.2-0.3-0.4-0.5c-0.2-0.1-0.3-0.2-0.5-0.3
	s-0.4-0.1-0.7-0.1c-0.3,0-0.5,0-0.7,0.1c-0.2,0.1-0.4,0.2-0.6,0.3c-0.2,0.1-0.3,0.3-0.4,0.4s-0.1,0.3-0.1,0.5h1.1
	c0-0.2,0.1-0.3,0.2-0.4c0.1-0.1,0.3-0.1,0.4-0.1c0.2,0,0.4,0.1,0.5,0.2s0.2,0.3,0.2,0.5v0.2H210.4z M210.9,201.8
	c0,0.1-0.1,0.1-0.1,0.2c0,0-0.1,0.1-0.2,0.1c-0.1,0-0.1,0.1-0.2,0.1s-0.2,0-0.3,0c-0.2,0-0.3,0-0.4-0.1c-0.1-0.1-0.1-0.2-0.1-0.3
	c0-0.1,0-0.2,0.1-0.3c0-0.1,0.1-0.1,0.2-0.2s0.2-0.1,0.3-0.1c0.1,0,0.2,0,0.4,0h0.5V201.8z M215.4,203v-2.7c0-0.1,0-0.2,0-0.3
	c0-0.1-0.1-0.2-0.1-0.2c-0.1-0.1-0.1-0.1-0.2-0.1c-0.1,0-0.2,0-0.3,0c-0.2,0-0.3,0-0.4,0.1c-0.1,0.1-0.2,0.2-0.3,0.3v3h-1.1v-4.2
	h1.1l0,0.5c0.1-0.2,0.3-0.3,0.5-0.4s0.4-0.1,0.7-0.1c0.2,0,0.4,0,0.5,0.1c0.2,0.1,0.3,0.1,0.4,0.3c0.1,0.1,0.2,0.3,0.3,0.5
	c0.1,0.2,0.1,0.5,0.1,0.8v2.7H215.4z M219.4,198.8c-0.2-0.1-0.4-0.1-0.6-0.1c-0.3,0-0.5,0.1-0.7,0.2c-0.2,0.1-0.4,0.3-0.5,0.4
	c-0.1,0.2-0.2,0.4-0.3,0.7s-0.1,0.6-0.1,0.9v0.1c0,0.3,0,0.6,0.1,0.9s0.2,0.5,0.3,0.7c0.1,0.2,0.3,0.3,0.5,0.4
	c0.2,0.1,0.4,0.2,0.7,0.2c0.2,0,0.4,0,0.6-0.1c0.2-0.1,0.3-0.2,0.5-0.4l0.1,0.4h1v-6h-1.1v2.2C219.7,199,219.6,198.9,219.4,198.8z
	 M219.9,201.7c-0.1,0.1-0.2,0.2-0.3,0.3s-0.3,0.1-0.5,0.1c-0.1,0-0.3,0-0.4-0.1c-0.1-0.1-0.2-0.2-0.2-0.3c-0.1-0.1-0.1-0.2-0.1-0.4
	s0-0.3,0-0.5v-0.1c0-0.2,0-0.3,0-0.5c0-0.2,0.1-0.3,0.1-0.4c0.1-0.1,0.1-0.2,0.3-0.3c0.1-0.1,0.2-0.1,0.4-0.1c0.2,0,0.3,0,0.4,0.1
	c0.1,0.1,0.2,0.2,0.3,0.3V201.7z M323.7,198.5c0,0.1,0,0.2,0,0.3c0,0.1,0,0.2,0,0.3c0,0.1,0.1,0.2,0.1,0.2c0.1,0.1,0.1,0.1,0.3,0.2
	s0.2,0.1,0.4,0.2c0.3,0.1,0.5,0.2,0.7,0.3c0.2,0.1,0.4,0.2,0.5,0.4c0.1,0.1,0.3,0.3,0.3,0.5c0.1,0.2,0.1,0.4,0.1,0.7
	c0,0.2,0,0.4-0.1,0.6c-0.1,0.2-0.2,0.3-0.3,0.5c-0.1,0.1-0.3,0.2-0.5,0.3c-0.2,0.1-0.4,0.1-0.6,0.2v0.8H324V203
	c-0.2,0-0.4-0.1-0.6-0.2c-0.2-0.1-0.4-0.2-0.5-0.3c-0.2-0.1-0.3-0.3-0.4-0.6c-0.1-0.2-0.1-0.5-0.1-0.8h1.1c0,0.2,0,0.3,0.1,0.5
	c0,0.1,0.1,0.2,0.2,0.3c0.1,0.1,0.2,0.1,0.3,0.2c0.1,0,0.2,0,0.3,0c0.1,0,0.2,0,0.3-0.1c0.1,0,0.2-0.1,0.2-0.1
	c0.1-0.1,0.1-0.1,0.1-0.2s0-0.2,0-0.3c0-0.1,0-0.2,0-0.3c0-0.1-0.1-0.2-0.1-0.2c-0.1-0.1-0.2-0.1-0.3-0.2c-0.1-0.1-0.2-0.1-0.4-0.2
	c-0.3-0.1-0.5-0.2-0.7-0.3c-0.2-0.1-0.4-0.2-0.5-0.4c-0.1-0.1-0.3-0.3-0.3-0.5c-0.1-0.2-0.1-0.4-0.1-0.7c0-0.2,0-0.4,0.1-0.6
	c0.1-0.2,0.2-0.3,0.3-0.5c0.1-0.1,0.3-0.2,0.5-0.3c0.2-0.1,0.4-0.1,0.6-0.2v-0.8h0.6v0.8c0.2,0,0.4,0.1,0.6,0.2
	c0.2,0.1,0.3,0.2,0.5,0.4c0.1,0.2,0.2,0.3,0.3,0.5c0.1,0.2,0.1,0.4,0.1,0.7H325c0-0.3-0.1-0.5-0.2-0.7c-0.1-0.2-0.3-0.2-0.5-0.2
	c-0.1,0-0.2,0-0.3,0.1c-0.1,0-0.2,0.1-0.2,0.1C323.7,198.4,323.7,198.5,323.7,198.5z M329.4,199.2c0-0.1,0-0.2,0-0.3
	c0-0.3-0.1-0.5-0.2-0.6c-0.1-0.1-0.3-0.2-0.5-0.2c-0.1,0-0.3,0-0.4,0.1c-0.1,0-0.2,0.1-0.3,0.2c-0.1,0.1-0.1,0.2-0.2,0.3
	c0,0.1-0.1,0.2-0.1,0.4h-1.1c0-0.3,0-0.5,0.1-0.7c0.1-0.2,0.2-0.4,0.4-0.6c0.2-0.2,0.4-0.3,0.6-0.4c0.2-0.1,0.5-0.1,0.8-0.1
	c0.3,0,0.6,0,0.8,0.1s0.4,0.2,0.6,0.3c0.2,0.1,0.3,0.3,0.4,0.5c0.1,0.2,0.1,0.4,0.1,0.7c0,0.2,0,0.4-0.1,0.6
	c-0.1,0.2-0.1,0.4-0.3,0.5c-0.1,0.2-0.2,0.4-0.4,0.5c-0.2,0.2-0.3,0.4-0.5,0.6l-1,1.1h2.4v0.9h-3.9v-0.8l1.8-2
	c0.1-0.2,0.3-0.3,0.3-0.4c0.1-0.1,0.2-0.2,0.2-0.3C329.4,199.4,329.4,199.3,329.4,199.2z M334.2,197.4c-0.2-0.1-0.5-0.1-0.8-0.1
	c-0.3,0-0.5,0-0.8,0.1c-0.2,0.1-0.4,0.2-0.6,0.4c-0.2,0.2-0.3,0.4-0.4,0.8c-0.1,0.3-0.1,0.7-0.1,1.1v1c0,0.4,0,0.8,0.1,1.1
	c0.1,0.3,0.2,0.6,0.4,0.8c0.2,0.2,0.4,0.3,0.6,0.4c0.2,0.1,0.5,0.1,0.8,0.1c0.3,0,0.5,0,0.8-0.1c0.2-0.1,0.4-0.2,0.6-0.4
	c0.2-0.2,0.3-0.4,0.4-0.8c0.1-0.3,0.1-0.7,0.1-1.1v-1c0-0.4,0-0.8-0.1-1.1c-0.1-0.3-0.2-0.6-0.4-0.8
	C334.6,197.6,334.4,197.4,334.2,197.4z M334.2,200.8c0,0.3,0,0.5-0.1,0.6c0,0.2-0.1,0.3-0.2,0.4c-0.1,0.1-0.2,0.2-0.2,0.2
	c-0.1,0-0.2,0.1-0.3,0.1s-0.2,0-0.3-0.1c-0.1,0-0.2-0.1-0.2-0.2c-0.1-0.1-0.1-0.2-0.2-0.4c0-0.2-0.1-0.4-0.1-0.6v-1.3
	c0-0.3,0-0.5,0.1-0.6s0.1-0.3,0.2-0.4c0.1-0.1,0.2-0.2,0.2-0.2s0.2-0.1,0.3-0.1s0.2,0,0.3,0.1c0.1,0,0.2,0.1,0.3,0.2
	c0.1,0.1,0.1,0.2,0.2,0.4s0.1,0.4,0.1,0.6V200.8z M338.8,197.4c-0.2-0.1-0.5-0.1-0.8-0.1c-0.3,0-0.5,0-0.8,0.1
	c-0.2,0.1-0.4,0.2-0.6,0.4c-0.2,0.2-0.3,0.4-0.4,0.8c-0.1,0.3-0.1,0.7-0.1,1.1v1c0,0.4,0,0.8,0.1,1.1c0.1,0.3,0.2,0.6,0.4,0.8
	c0.2,0.2,0.4,0.3,0.6,0.4c0.2,0.1,0.5,0.1,0.8,0.1c0.3,0,0.5,0,0.8-0.1c0.2-0.1,0.4-0.2,0.6-0.4c0.2-0.2,0.3-0.4,0.4-0.8
	c0.1-0.3,0.1-0.7,0.1-1.1v-1c0-0.4,0-0.8-0.1-1.1c-0.1-0.3-0.2-0.6-0.4-0.8C339.2,197.6,339,197.4,338.8,197.4z M338.8,200.8
	c0,0.3,0,0.5-0.1,0.6c0,0.2-0.1,0.3-0.2,0.4c-0.1,0.1-0.2,0.2-0.2,0.2c-0.1,0-0.2,0.1-0.3,0.1s-0.2,0-0.3-0.1
	c-0.1,0-0.2-0.1-0.2-0.2c-0.1-0.1-0.1-0.2-0.2-0.4c0-0.2-0.1-0.4-0.1-0.6v-1.3c0-0.3,0-0.5,0.1-0.6s0.1-0.3,0.2-0.4
	c0.1-0.1,0.2-0.2,0.2-0.2s0.2-0.1,0.3-0.1s0.2,0,0.3,0.1c0.1,0,0.2,0.1,0.3,0.2c0.1,0.1,0.1,0.2,0.2,0.4s0.1,0.4,0.1,0.6V200.8z
	 M341.9,202c0.1,0.1,0.1,0.1,0.1,0.2c0,0.1,0,0.2,0,0.2s0,0.2,0,0.2c0,0.1-0.1,0.1-0.1,0.2c-0.1,0.1-0.1,0.1-0.2,0.1
	c-0.1,0-0.2,0-0.3,0c-0.1,0-0.2,0-0.3,0c-0.1,0-0.1-0.1-0.2-0.1c-0.1-0.1-0.1-0.1-0.1-0.2c0-0.1,0-0.2,0-0.2s0-0.2,0-0.2
	c0-0.1,0.1-0.1,0.1-0.2c0.1-0.1,0.1-0.1,0.2-0.1s0.2,0,0.3,0c0.1,0,0.2,0,0.3,0C341.8,201.9,341.8,201.9,341.9,202z M345.7,197.4
	c-0.2-0.1-0.5-0.1-0.8-0.1c-0.3,0-0.5,0-0.8,0.1c-0.2,0.1-0.4,0.2-0.6,0.4c-0.2,0.2-0.3,0.4-0.4,0.8c-0.1,0.3-0.1,0.7-0.1,1.1v1
	c0,0.4,0,0.8,0.1,1.1c0.1,0.3,0.2,0.6,0.4,0.8c0.2,0.2,0.4,0.3,0.6,0.4c0.2,0.1,0.5,0.1,0.8,0.1c0.3,0,0.5,0,0.8-0.1
	c0.2-0.1,0.4-0.2,0.6-0.4c0.2-0.2,0.3-0.4,0.4-0.8c0.1-0.3,0.1-0.7,0.1-1.1v-1c0-0.4,0-0.8-0.1-1.1c-0.1-0.3-0.2-0.6-0.4-0.8
	C346.1,197.6,345.9,197.4,345.7,197.4z M345.7,200.8c0,0.3,0,0.5-0.1,0.6c0,0.2-0.1,0.3-0.2,0.4c-0.1,0.1-0.2,0.2-0.2,0.2
	c-0.1,0-0.2,0.1-0.3,0.1s-0.2,0-0.3-0.1c-0.1,0-0.2-0.1-0.2-0.2c-0.1-0.1-0.1-0.2-0.2-0.4c0-0.2-0.1-0.4-0.1-0.6v-1.3
	c0-0.3,0-0.5,0.1-0.6s0.1-0.3,0.2-0.4c0.1-0.1,0.2-0.2,0.2-0.2s0.2-0.1,0.3-0.1s0.2,0,0.3,0.1c0.1,0,0.2,0.1,0.3,0.2
	c0.1,0.1,0.1,0.2,0.2,0.4s0.1,0.4,0.1,0.6V200.8z M350.3,197.4c-0.2-0.1-0.5-0.1-0.8-0.1c-0.3,0-0.5,0-0.8,0.1
	c-0.2,0.1-0.4,0.2-0.6,0.4c-0.2,0.2-0.3,0.4-0.4,0.8c-0.1,0.3-0.1,0.7-0.1,1.1v1c0,0.4,0,0.8,0.1,1.1c0.1,0.3,0.2,0.6,0.4,0.8
	c0.2,0.2,0.4,0.3,0.6,0.4c0.2,0.1,0.5,0.1,0.8,0.1c0.3,0,0.5,0,0.8-0.1c0.2-0.1,0.4-0.2,0.6-0.4c0.2-0.2,0.3-0.4,0.4-0.8
	c0.1-0.3,0.1-0.7,0.1-1.1v-1c0-0.4,0-0.8-0.1-1.1c-0.1-0.3-0.2-0.6-0.4-0.8C350.7,197.6,350.5,197.4,350.3,197.4z M350.3,200.8
	c0,0.3,0,0.5-0.1,0.6c0,0.2-0.1,0.3-0.2,0.4c-0.1,0.1-0.2,0.2-0.2,0.2c-0.1,0-0.2,0.1-0.3,0.1s-0.2,0-0.3-0.1
	c-0.1,0-0.2-0.1-0.2-0.2c-0.1-0.1-0.1-0.2-0.2-0.4c0-0.2-0.1-0.4-0.1-0.6v-1.3c0-0.3,0-0.5,0.1-0.6s0.1-0.3,0.2-0.4
	c0.1-0.1,0.2-0.2,0.2-0.2s0.2-0.1,0.3-0.1s0.2,0,0.3,0.1c0.1,0,0.2,0.1,0.3,0.2c0.1,0.1,0.1,0.2,0.2,0.4s0.1,0.4,0.1,0.6V200.8z
	 M32.3,173v-5.7h1.2v5.7H32.3z M38.2,168c0.2,0.2,0.4,0.5,0.5,0.9c0.1,0.3,0.2,0.7,0.2,1.1v0.3c0,0.4-0.1,0.8-0.2,1.1
	s-0.3,0.6-0.5,0.9s-0.5,0.4-0.8,0.6c-0.3,0.1-0.7,0.2-1.1,0.2h-1.7v-5.7h1.8c0.4,0,0.7,0.1,1.1,0.2C37.7,167.6,38,167.8,38.2,168z
	 M37.7,170c0-0.6-0.1-1-0.4-1.3c-0.2-0.3-0.6-0.4-1.1-0.4h-0.6v3.8h0.6c0.5,0,0.8-0.2,1.1-0.5c0.2-0.3,0.4-0.7,0.4-1.3V170z
	 M83.5,168.6c0.2-0.3,0.5-0.4,0.9-0.4c0.2,0,0.4,0,0.5,0.1c0.1,0,0.2,0.1,0.3,0.2c0.1,0.1,0.2,0.2,0.2,0.3c0,0.1,0.1,0.3,0.1,0.4
	h1.2c0-0.3-0.1-0.6-0.2-0.8s-0.3-0.5-0.4-0.6c-0.2-0.2-0.4-0.3-0.7-0.4c-0.3-0.1-0.6-0.2-0.9-0.2c-0.4,0-0.7,0.1-1,0.2
	c-0.3,0.1-0.5,0.3-0.7,0.5c-0.2,0.2-0.4,0.5-0.5,0.9c-0.1,0.3-0.2,0.7-0.2,1.1v0.4c0,0.4,0.1,0.8,0.2,1.1c0.1,0.3,0.3,0.6,0.5,0.9
	c0.2,0.2,0.4,0.4,0.7,0.5c0.3,0.1,0.6,0.2,1,0.2c0.4,0,0.7,0,0.9-0.1s0.5-0.2,0.7-0.4c0.2-0.2,0.3-0.4,0.5-0.6s0.2-0.5,0.2-0.8h-1.2
	c0,0.2,0,0.3-0.1,0.4c0,0.1-0.1,0.2-0.2,0.3c-0.1,0.1-0.2,0.1-0.3,0.2c-0.1,0-0.3,0.1-0.5,0.1c-0.2,0-0.4,0-0.5-0.1
	s-0.3-0.2-0.4-0.3s-0.2-0.3-0.2-0.6c0-0.2-0.1-0.5-0.1-0.8v-0.4C83.2,169.3,83.3,168.9,83.5,168.6z M91.1,170.4
	c-0.1,0.1-0.3,0.2-0.4,0.2l1.2,2.3v0.1h-1.3l-1.1-2.1h-0.9v2.1h-1.2v-5.7h2.1c0.3,0,0.6,0,0.9,0.1s0.5,0.2,0.7,0.3s0.3,0.3,0.4,0.5
	c0.1,0.2,0.1,0.5,0.1,0.7c0,0.2,0,0.4-0.1,0.6c0,0.2-0.1,0.3-0.2,0.4S91.2,170.3,91.1,170.4z M90.5,169.1c0-0.3-0.1-0.5-0.2-0.6
	c-0.2-0.2-0.4-0.2-0.7-0.2h-0.9v1.7h0.9c0.2,0,0.3,0,0.4-0.1c0.1,0,0.2-0.1,0.3-0.2s0.1-0.2,0.2-0.3
	C90.5,169.3,90.5,169.2,90.5,169.1z M96.4,168.2v-0.9h-3.8v5.7h3.8V172h-2.6v-1.5H96v-0.9h-2.2v-1.4H96.4z M99.8,167.3l2.1,5.7h-1.2
	l-0.4-1.2h-2.1l-0.4,1.2h-1.2l2.1-5.7H99.8z M100,170.9l-0.7-2.1l-0.7,2.1H100z M104.5,173v-4.7h1.7v-0.9h-4.6v0.9h1.7v4.7H104.5z
	 M110.7,168.2v-0.9h-3.8v5.7h3.8V172h-2.6v-1.5h2.2v-0.9h-2.2v-1.4H110.7z M115,168c0.2,0.2,0.4,0.5,0.5,0.9
	c0.1,0.3,0.2,0.7,0.2,1.1v0.3c0,0.4-0.1,0.8-0.2,1.1s-0.3,0.6-0.5,0.9s-0.5,0.4-0.8,0.6c-0.3,0.1-0.7,0.2-1.1,0.2h-1.7v-5.7h1.8
	c0.4,0,0.7,0.1,1.1,0.2C114.5,167.6,114.8,167.8,115,168z M114.6,170c0-0.6-0.1-1-0.4-1.3c-0.2-0.3-0.6-0.4-1.1-0.4h-0.6v3.8h0.6
	c0.5,0,0.8-0.2,1.1-0.5c0.2-0.3,0.4-0.7,0.4-1.3V170z M163.5,168.6c0.2-0.3,0.5-0.4,0.9-0.4c0.2,0,0.4,0,0.5,0.1
	c0.1,0,0.2,0.1,0.3,0.2c0.1,0.1,0.2,0.2,0.2,0.3c0,0.1,0.1,0.3,0.1,0.4h1.2c0-0.3-0.1-0.6-0.2-0.8s-0.3-0.5-0.4-0.6
	c-0.2-0.2-0.4-0.3-0.7-0.4c-0.3-0.1-0.6-0.2-0.9-0.2c-0.4,0-0.7,0.1-1,0.2c-0.3,0.1-0.5,0.3-0.7,0.5c-0.2,0.2-0.4,0.5-0.5,0.9
	c-0.1,0.3-0.2,0.7-0.2,1.1v0.4c0,0.4,0.1,0.8,0.2,1.1c0.1,0.3,0.3,0.6,0.5,0.9c0.2,0.2,0.4,0.4,0.7,0.5c0.3,0.1,0.6,0.2,1,0.2
	c0.4,0,0.7,0,0.9-0.1s0.5-0.2,0.7-0.4c0.2-0.2,0.3-0.4,0.5-0.6s0.2-0.5,0.2-0.8h-1.2c0,0.2,0,0.3-0.1,0.4c0,0.1-0.1,0.2-0.2,0.3
	c-0.1,0.1-0.2,0.1-0.3,0.2c-0.1,0-0.3,0.1-0.5,0.1c-0.2,0-0.4,0-0.5-0.1s-0.3-0.2-0.4-0.3s-0.2-0.3-0.2-0.6c0-0.2-0.1-0.5-0.1-0.8
	v-0.4C163.2,169.3,163.3,168.9,163.5,168.6z M167.5,167.3v5.7h3.7V172h-2.5v-4.7H167.5z M173,173v-5.7h-1.2v5.7H173z M177.9,168.2
	v-0.9h-3.8v5.7h3.8V172h-2.6v-1.5h2.2v-0.9h-2.2v-1.4H177.9z M179.8,167.3h-1.2v5.7h1.2v-3.7l2.3,3.7h1.2v-5.7h-1.2v3.8L179.8,167.3
	z M186.7,173v-4.7h1.7v-0.9h-4.6v0.9h1.7v4.7H186.7z M320.4,167.3h1.1l2.1,5.7h-1.2l-0.4-1.2h-2.1l-0.4,1.2h-1.2L320.4,167.3z
	 M321,168.7l-0.7,2.1h1.4L321,168.7z M329,173h1.2v-5.7h-1.5l-1.5,4.1l-1.5-4.1h-1.5v5.7h1.2v-1.6l-0.1-2.7l1.5,4.2h0.8l1.5-4.2
	l-0.1,2.7V173z M335.2,168c0.2,0.2,0.4,0.5,0.5,0.9c0.1,0.3,0.2,0.7,0.2,1.2v0.2c0,0.4-0.1,0.8-0.2,1.2c-0.1,0.3-0.3,0.6-0.5,0.9
	c-0.2,0.2-0.5,0.4-0.8,0.6s-0.6,0.2-1,0.2c-0.4,0-0.7-0.1-1-0.2s-0.6-0.3-0.8-0.6c-0.2-0.2-0.4-0.5-0.5-0.9
	c-0.1-0.3-0.2-0.7-0.2-1.2V170c0-0.4,0.1-0.8,0.2-1.2c0.1-0.3,0.3-0.6,0.5-0.9c0.2-0.2,0.5-0.4,0.8-0.6s0.6-0.2,1-0.2
	c0.4,0,0.7,0.1,1,0.2S335,167.7,335.2,168z M334.7,170c0-0.6-0.1-1-0.3-1.4c-0.2-0.3-0.5-0.5-0.9-0.5c-0.4,0-0.7,0.2-0.9,0.5
	c-0.2,0.3-0.3,0.8-0.3,1.4v0.3c0,0.3,0,0.6,0.1,0.8c0.1,0.2,0.1,0.4,0.2,0.6c0.1,0.2,0.2,0.3,0.4,0.4c0.2,0.1,0.3,0.1,0.5,0.1
	c0.4,0,0.7-0.2,0.9-0.5s0.3-0.8,0.3-1.4V170z M336.7,167.3v3.8c0,0.3,0.1,0.6,0.2,0.9c0.1,0.3,0.3,0.5,0.5,0.6
	c0.2,0.2,0.4,0.3,0.7,0.4c0.3,0.1,0.6,0.1,0.9,0.1c0.3,0,0.6,0,0.9-0.1c0.3-0.1,0.5-0.2,0.7-0.4c0.2-0.2,0.3-0.4,0.5-0.6
	c0.1-0.3,0.2-0.5,0.2-0.9v-3.8h-1.2v3.8c0,0.4-0.1,0.6-0.3,0.8c-0.2,0.2-0.4,0.3-0.7,0.3s-0.6-0.1-0.7-0.3c-0.2-0.2-0.3-0.4-0.3-0.8
	v-3.8H336.7z M343.1,167.3H342v5.7h1.2v-3.7l2.3,3.7h1.2v-5.7h-1.2v3.8L343.1,167.3z M350,173v-4.7h1.7v-0.9h-4.6v0.9h1.7v4.7H350z
	 M393.5,168.3c0.1-0.1,0.2-0.1,0.3-0.1c0.1,0,0.2-0.1,0.4-0.1c0.2,0,0.3,0,0.4,0.1c0.1,0,0.2,0.1,0.3,0.2c0.1,0.1,0.1,0.2,0.2,0.3
	s0.1,0.2,0.1,0.3h1.2c0-0.3,0-0.5-0.1-0.7s-0.2-0.4-0.4-0.6s-0.4-0.3-0.7-0.4c-0.3-0.1-0.5-0.1-0.9-0.1c-0.3,0-0.6,0-0.8,0.1
	c-0.3,0.1-0.5,0.2-0.7,0.3c-0.2,0.1-0.3,0.3-0.4,0.5c-0.1,0.2-0.2,0.4-0.2,0.7c0,0.2,0,0.5,0.2,0.6c0.1,0.2,0.2,0.3,0.4,0.5
	c0.2,0.1,0.4,0.3,0.6,0.4c0.2,0.1,0.5,0.2,0.7,0.3c0.2,0.1,0.4,0.1,0.6,0.2c0.1,0.1,0.3,0.1,0.3,0.2c0.1,0.1,0.1,0.1,0.2,0.2
	c0,0.1,0,0.2,0,0.3c0,0.1,0,0.2-0.1,0.3c0,0.1-0.1,0.1-0.2,0.2c-0.1,0.1-0.2,0.1-0.3,0.1c-0.1,0-0.2,0-0.4,0c-0.2,0-0.3,0-0.5-0.1
	c-0.1,0-0.3-0.1-0.4-0.2s-0.2-0.2-0.2-0.3c-0.1-0.1-0.1-0.3-0.1-0.4H392c0,0.2,0,0.4,0.1,0.6s0.1,0.3,0.3,0.5
	c0.1,0.1,0.2,0.3,0.4,0.4s0.3,0.2,0.5,0.3c0.2,0.1,0.3,0.1,0.5,0.2c0.2,0,0.4,0,0.6,0c0.3,0,0.6,0,0.8-0.1c0.3-0.1,0.5-0.2,0.7-0.3
	c0.2-0.1,0.3-0.3,0.4-0.5s0.1-0.4,0.1-0.7c0-0.2,0-0.4-0.1-0.6c-0.1-0.2-0.2-0.4-0.4-0.5s-0.4-0.3-0.6-0.4s-0.5-0.2-0.8-0.3
	c-0.4-0.1-0.7-0.2-0.8-0.4c-0.2-0.1-0.3-0.3-0.3-0.5c0-0.1,0-0.2,0.1-0.3C393.4,168.5,393.4,168.4,393.5,168.3z M399.6,173v-4.7h1.7
	v-0.9h-4.6v0.9h1.7v4.7H399.6z M402.4,173h-1.2l2.1-5.7h1.1l2.1,5.7h-1.2l-0.4-1.2h-2.1L402.4,173z M403.1,170.9h1.4l-0.7-2.1
	L403.1,170.9z M409,173v-4.7h1.7v-0.9h-4.6v0.9h1.7v4.7H409z M411.4,167.3v3.8c0,0.3,0.1,0.6,0.2,0.9c0.1,0.3,0.3,0.5,0.5,0.6
	c0.2,0.2,0.4,0.3,0.7,0.4s0.6,0.1,0.9,0.1c0.3,0,0.6,0,0.9-0.1s0.5-0.2,0.7-0.4c0.2-0.2,0.3-0.4,0.5-0.6c0.1-0.3,0.2-0.5,0.2-0.9
	v-3.8h-1.2v3.8c0,0.4-0.1,0.6-0.3,0.8c-0.2,0.2-0.4,0.3-0.7,0.3c-0.3,0-0.6-0.1-0.7-0.3c-0.2-0.2-0.3-0.4-0.3-0.8v-3.8H411.4z
	 M418.1,168.3c0.1-0.1,0.2-0.1,0.3-0.1c0.1,0,0.2-0.1,0.4-0.1c0.2,0,0.3,0,0.4,0.1c0.1,0,0.2,0.1,0.3,0.2c0.1,0.1,0.1,0.2,0.2,0.3
	s0.1,0.2,0.1,0.3h1.2c0-0.3,0-0.5-0.1-0.7s-0.2-0.4-0.4-0.6s-0.4-0.3-0.7-0.4c-0.3-0.1-0.5-0.1-0.9-0.1c-0.3,0-0.6,0-0.8,0.1
	c-0.3,0.1-0.5,0.2-0.7,0.3c-0.2,0.1-0.3,0.3-0.4,0.5c-0.1,0.2-0.2,0.4-0.2,0.7c0,0.2,0,0.5,0.2,0.6c0.1,0.2,0.2,0.3,0.4,0.5
	c0.2,0.1,0.4,0.3,0.6,0.4c0.2,0.1,0.5,0.2,0.7,0.3c0.2,0.1,0.4,0.1,0.6,0.2c0.1,0.1,0.3,0.1,0.3,0.2c0.1,0.1,0.1,0.1,0.2,0.2
	c0,0.1,0,0.2,0,0.3c0,0.1,0,0.2-0.1,0.3c0,0.1-0.1,0.1-0.2,0.2c-0.1,0.1-0.2,0.1-0.3,0.1c-0.1,0-0.2,0-0.4,0c-0.2,0-0.3,0-0.5-0.1
	c-0.1,0-0.3-0.1-0.4-0.2s-0.2-0.2-0.2-0.3c-0.1-0.1-0.1-0.3-0.1-0.4h-1.2c0,0.2,0,0.4,0.1,0.6s0.1,0.3,0.3,0.5
	c0.1,0.1,0.2,0.3,0.4,0.4s0.3,0.2,0.5,0.3c0.2,0.1,0.3,0.1,0.5,0.2c0.2,0,0.4,0,0.6,0c0.3,0,0.6,0,0.8-0.1c0.3-0.1,0.5-0.2,0.7-0.3
	c0.2-0.1,0.3-0.3,0.4-0.5s0.1-0.4,0.1-0.7c0-0.2,0-0.4-0.1-0.6c-0.1-0.2-0.2-0.4-0.4-0.5s-0.4-0.3-0.6-0.4s-0.5-0.2-0.8-0.3
	c-0.4-0.1-0.7-0.2-0.8-0.4c-0.2-0.1-0.3-0.3-0.3-0.5c0-0.1,0-0.2,0.1-0.3C417.9,168.5,418,168.4,418.1,168.3z M178.4,24v-5.7h1V24
	H178.4z M181.5,18.3h-1V24h1v-4l2.5,4h1v-5.7h-1v4.1L181.5,18.3z M186.8,18.3h-1.1l2,5.7h1l2-5.7h-1.1l-1.4,4.4L186.8,18.3z
	 M195.2,19c0.2,0.2,0.4,0.5,0.5,0.9s0.2,0.7,0.2,1.2v0.3c0,0.4-0.1,0.8-0.2,1.2s-0.3,0.6-0.5,0.9s-0.5,0.4-0.7,0.5s-0.6,0.2-1,0.2
	c-0.3,0-0.7-0.1-1-0.2s-0.5-0.3-0.7-0.5s-0.4-0.5-0.5-0.9s-0.2-0.7-0.2-1.2V21c0-0.4,0.1-0.8,0.2-1.2s0.3-0.6,0.5-0.9
	s0.5-0.4,0.7-0.6s0.6-0.2,1-0.2c0.4,0,0.7,0.1,1,0.2S195,18.7,195.2,19z M194.9,21c0-0.3,0-0.6-0.1-0.8s-0.2-0.4-0.3-0.6
	s-0.3-0.3-0.4-0.4s-0.4-0.1-0.6-0.1c-0.2,0-0.4,0-0.6,0.1s-0.3,0.2-0.4,0.4s-0.2,0.4-0.3,0.6s-0.1,0.5-0.1,0.8v0.3
	c0,0.3,0,0.6,0.1,0.8s0.2,0.4,0.3,0.6s0.3,0.3,0.4,0.4s0.4,0.1,0.6,0.1c0.4,0,0.8-0.2,1-0.5s0.4-0.8,0.4-1.5V21z M197.9,24v-5.7h-1
	V24H197.9z M200,20.1c0.1-0.2,0.1-0.4,0.3-0.6s0.3-0.3,0.4-0.4s0.4-0.1,0.6-0.1c0.2,0,0.4,0,0.5,0.1s0.3,0.1,0.4,0.2
	s0.2,0.2,0.2,0.4s0.1,0.3,0.1,0.5h1c0-0.3-0.1-0.5-0.2-0.8s-0.2-0.4-0.4-0.6s-0.4-0.3-0.7-0.4s-0.6-0.1-0.9-0.1
	c-0.4,0-0.7,0.1-1,0.2s-0.5,0.3-0.7,0.5s-0.4,0.5-0.5,0.8s-0.2,0.7-0.2,1.1v0.5c0,0.4,0.1,0.8,0.2,1.1s0.3,0.6,0.5,0.8
	s0.4,0.4,0.7,0.5s0.6,0.2,0.9,0.2s0.7,0,0.9-0.1s0.5-0.2,0.7-0.4s0.3-0.4,0.4-0.6s0.2-0.5,0.2-0.8h-1c0,0.2-0.1,0.3-0.1,0.5
	s-0.1,0.3-0.2,0.4s-0.2,0.2-0.4,0.2s-0.3,0.1-0.5,0.1c-0.2,0-0.4,0-0.6-0.1s-0.3-0.2-0.4-0.4s-0.2-0.4-0.2-0.6s-0.1-0.5-0.1-0.8
	v-0.5C199.9,20.6,200,20.3,200,20.1z M208.1,19.1v-0.8h-3.7V24h3.7v-0.8h-2.7v-1.8h2.3v-0.8h-2.3v-1.6H208.1z M210.8,23.3
	c-0.2,0-0.3,0-0.5-0.1s-0.3-0.1-0.4-0.2s-0.2-0.2-0.3-0.3s-0.1-0.3-0.1-0.5h-1c0,0.3,0.1,0.6,0.2,0.8s0.3,0.4,0.5,0.6
	s0.4,0.3,0.7,0.3s0.5,0.1,0.8,0.1c0.3,0,0.6,0,0.8-0.1s0.5-0.2,0.6-0.3s0.3-0.3,0.4-0.5s0.1-0.4,0.1-0.6c0-0.2,0-0.4-0.1-0.6
	s-0.2-0.3-0.3-0.5s-0.3-0.3-0.6-0.4s-0.5-0.2-0.8-0.3c-0.4-0.1-0.7-0.2-0.9-0.4s-0.3-0.3-0.3-0.5c0-0.1,0-0.2,0.1-0.3
	s0.1-0.2,0.2-0.2s0.2-0.1,0.3-0.2s0.3-0.1,0.5-0.1c0.2,0,0.3,0,0.5,0.1s0.2,0.1,0.3,0.2s0.2,0.2,0.2,0.3s0.1,0.2,0.1,0.4h1
	c0-0.2,0-0.5-0.1-0.7s-0.2-0.4-0.4-0.6s-0.4-0.3-0.6-0.4s-0.5-0.1-0.9-0.1c-0.3,0-0.6,0-0.8,0.1s-0.5,0.2-0.6,0.3s-0.3,0.3-0.4,0.5
	s-0.1,0.4-0.1,0.6c0,0.2,0,0.4,0.1,0.6s0.2,0.3,0.4,0.5s0.4,0.3,0.6,0.4s0.5,0.2,0.8,0.3c0.2,0.1,0.5,0.1,0.6,0.2s0.3,0.1,0.4,0.2
	s0.2,0.2,0.2,0.2s0.1,0.2,0.1,0.3c0,0.2-0.1,0.4-0.3,0.6S211.2,23.3,210.8,23.3z M219.2,19c0.2,0.2,0.4,0.5,0.5,0.9s0.2,0.7,0.2,1.1
	v0.3c0,0.4-0.1,0.8-0.2,1.1s-0.3,0.6-0.5,0.8s-0.5,0.4-0.8,0.5s-0.7,0.2-1.1,0.2h-1.6v-5.7h1.7c0.4,0,0.7,0.1,1,0.2
	S219,18.8,219.2,19z M219,21c0-0.6-0.1-1.1-0.4-1.4s-0.7-0.5-1.2-0.5h-0.7v4.1h0.6c0.3,0,0.5,0,0.7-0.1s0.4-0.2,0.5-0.4
	s0.2-0.4,0.3-0.6s0.1-0.5,0.1-0.8V21z M220.8,18.3v3.8c0,0.3,0.1,0.6,0.2,0.9s0.3,0.4,0.4,0.6s0.4,0.3,0.7,0.4s0.5,0.1,0.8,0.1
	c0.3,0,0.6,0,0.8-0.1s0.5-0.2,0.7-0.4s0.3-0.4,0.5-0.6s0.2-0.5,0.2-0.9v-3.8h-1v3.8c0,0.2,0,0.4-0.1,0.5s-0.1,0.3-0.2,0.4
	s-0.2,0.2-0.4,0.2s-0.3,0.1-0.5,0.1s-0.3,0-0.5-0.1s-0.3-0.1-0.4-0.2s-0.2-0.2-0.2-0.4s-0.1-0.3-0.1-0.5v-3.8H220.8z M229.8,19.1
	v-0.8h-3.7V24h3.7v-0.8h-2.7v-1.8h2.3v-0.8h-2.3v-1.6H229.8z M323.4,24v-5.7h1V24H323.4z M326.5,18.3h-1V24h1v-4l2.5,4h1v-5.7h-1
	v4.1L326.5,18.3z M331.8,18.3h-1.1l2,5.7h1l2-5.7h-1.1l-1.4,4.4L331.8,18.3z M340.2,19c0.2,0.2,0.4,0.5,0.5,0.9s0.2,0.7,0.2,1.2v0.3
	c0,0.4-0.1,0.8-0.2,1.2s-0.3,0.6-0.5,0.9c-0.2,0.2-0.5,0.4-0.7,0.5s-0.6,0.2-1,0.2c-0.3,0-0.7-0.1-1-0.2s-0.5-0.3-0.7-0.5
	c-0.2-0.2-0.4-0.5-0.5-0.9c-0.1-0.3-0.2-0.7-0.2-1.2V21c0-0.4,0.1-0.8,0.2-1.2c0.1-0.3,0.3-0.6,0.5-0.9s0.5-0.4,0.7-0.6
	s0.6-0.2,1-0.2c0.4,0,0.7,0.1,1,0.2C339.8,18.5,340,18.7,340.2,19z M339.9,21c0-0.3,0-0.6-0.1-0.8c-0.1-0.2-0.2-0.4-0.3-0.6
	s-0.3-0.3-0.4-0.4c-0.2-0.1-0.4-0.1-0.6-0.1c-0.2,0-0.4,0-0.6,0.1c-0.2,0.1-0.3,0.2-0.4,0.4c-0.1,0.2-0.2,0.4-0.3,0.6
	c-0.1,0.2-0.1,0.5-0.1,0.8v0.3c0,0.3,0,0.6,0.1,0.8c0.1,0.2,0.2,0.4,0.3,0.6c0.1,0.2,0.3,0.3,0.4,0.4c0.2,0.1,0.4,0.1,0.6,0.1
	c0.4,0,0.8-0.2,1-0.5c0.2-0.3,0.4-0.8,0.4-1.5V21z M342.9,24v-5.7h-1V24H342.9z M345,20.1c0.1-0.2,0.1-0.4,0.3-0.6
	c0.1-0.2,0.3-0.3,0.4-0.4s0.4-0.1,0.6-0.1c0.2,0,0.4,0,0.5,0.1c0.1,0.1,0.3,0.1,0.4,0.2s0.2,0.2,0.2,0.4s0.1,0.3,0.1,0.5h1
	c0-0.3-0.1-0.5-0.2-0.8c-0.1-0.2-0.2-0.4-0.4-0.6c-0.2-0.2-0.4-0.3-0.7-0.4c-0.3-0.1-0.6-0.1-0.9-0.1c-0.4,0-0.7,0.1-1,0.2
	c-0.3,0.1-0.5,0.3-0.7,0.5s-0.4,0.5-0.5,0.8s-0.2,0.7-0.2,1.1v0.5c0,0.4,0.1,0.8,0.2,1.1c0.1,0.3,0.3,0.6,0.5,0.8s0.4,0.4,0.7,0.5
	c0.3,0.1,0.6,0.2,0.9,0.2c0.3,0,0.7,0,0.9-0.1c0.3-0.1,0.5-0.2,0.7-0.4c0.2-0.2,0.3-0.4,0.4-0.6c0.1-0.2,0.2-0.5,0.2-0.8h-1
	c0,0.2-0.1,0.3-0.1,0.5c-0.1,0.1-0.1,0.3-0.2,0.4c-0.1,0.1-0.2,0.2-0.4,0.2c-0.1,0-0.3,0.1-0.5,0.1c-0.2,0-0.4,0-0.6-0.1
	s-0.3-0.2-0.4-0.4c-0.1-0.2-0.2-0.4-0.2-0.6c-0.1-0.2-0.1-0.5-0.1-0.8v-0.5C344.9,20.6,345,20.3,345,20.1z M353.1,19.1v-0.8h-3.7V24
	h3.7v-0.8h-2.7v-1.8h2.3v-0.8h-2.3v-1.6H353.1z M355.8,23.3c-0.2,0-0.3,0-0.5-0.1c-0.2,0-0.3-0.1-0.4-0.2c-0.1-0.1-0.2-0.2-0.3-0.3
	c-0.1-0.1-0.1-0.3-0.1-0.5h-1c0,0.3,0.1,0.6,0.2,0.8s0.3,0.4,0.5,0.6s0.4,0.3,0.7,0.3s0.5,0.1,0.8,0.1c0.3,0,0.6,0,0.8-0.1
	s0.5-0.2,0.6-0.3s0.3-0.3,0.4-0.5c0.1-0.2,0.1-0.4,0.1-0.6c0-0.2,0-0.4-0.1-0.6c-0.1-0.2-0.2-0.3-0.3-0.5c-0.2-0.1-0.3-0.3-0.6-0.4
	s-0.5-0.2-0.8-0.3c-0.4-0.1-0.7-0.2-0.9-0.4s-0.3-0.3-0.3-0.5c0-0.1,0-0.2,0.1-0.3c0-0.1,0.1-0.2,0.2-0.2c0.1-0.1,0.2-0.1,0.3-0.2
	c0.1,0,0.3-0.1,0.5-0.1c0.2,0,0.3,0,0.5,0.1c0.1,0,0.2,0.1,0.3,0.2c0.1,0.1,0.2,0.2,0.2,0.3s0.1,0.2,0.1,0.4h1c0-0.2,0-0.5-0.1-0.7
	s-0.2-0.4-0.4-0.6s-0.4-0.3-0.6-0.4c-0.3-0.1-0.5-0.1-0.9-0.1c-0.3,0-0.6,0-0.8,0.1c-0.2,0.1-0.5,0.2-0.6,0.3
	c-0.2,0.1-0.3,0.3-0.4,0.5s-0.1,0.4-0.1,0.6c0,0.2,0,0.4,0.1,0.6s0.2,0.3,0.4,0.5c0.2,0.1,0.4,0.3,0.6,0.4c0.2,0.1,0.5,0.2,0.8,0.3
	c0.2,0.1,0.4,0.1,0.6,0.2c0.2,0.1,0.3,0.1,0.4,0.2s0.2,0.2,0.2,0.2c0,0.1,0.1,0.2,0.1,0.3c0,0.2-0.1,0.4-0.3,0.6
	C356.4,23.2,356.2,23.3,355.8,23.3z M365,20.1c0,0.3,0,0.5-0.1,0.7c-0.1,0.2-0.2,0.4-0.4,0.6c-0.2,0.2-0.4,0.3-0.7,0.3
	c-0.3,0.1-0.6,0.1-0.9,0.1h-1.2V24h-1v-5.7h2.2c0.3,0,0.6,0,0.9,0.1c0.3,0.1,0.5,0.2,0.7,0.4c0.2,0.2,0.3,0.4,0.4,0.6
	C364.9,19.6,365,19.8,365,20.1z M364,20.1c0-0.1,0-0.3-0.1-0.4c0-0.1-0.1-0.2-0.2-0.3c-0.1-0.1-0.2-0.2-0.3-0.2s-0.3-0.1-0.5-0.1
	h-1.2v2h1.2c0.2,0,0.4,0,0.5-0.1s0.2-0.1,0.3-0.2c0.1-0.1,0.2-0.2,0.2-0.3C363.9,20.4,364,20.3,364,20.1z M365.6,24h-1l2.1-5.7h0.9
	l2.2,5.7h-1l-0.5-1.3h-2.2L365.6,24z M366.4,21.9h1.6l-0.8-2.4L366.4,21.9z M371.5,24v-5.7h-1V24H371.5z M376.2,19
	c0.2,0.2,0.4,0.5,0.5,0.9s0.2,0.7,0.2,1.1v0.3c0,0.4-0.1,0.8-0.2,1.1c-0.1,0.3-0.3,0.6-0.5,0.8c-0.2,0.2-0.5,0.4-0.8,0.5
	c-0.3,0.1-0.7,0.2-1.1,0.2h-1.6v-5.7h1.7c0.4,0,0.7,0.1,1,0.2C375.7,18.6,376,18.8,376.2,19z M376,21c0-0.6-0.1-1.1-0.4-1.4
	c-0.3-0.3-0.7-0.5-1.2-0.5h-0.7v4.1h0.6c0.3,0,0.5,0,0.7-0.1s0.4-0.2,0.5-0.4c0.1-0.2,0.2-0.4,0.3-0.6c0.1-0.2,0.1-0.5,0.1-0.8V21z
	 M374.4,205.7h64.1c3.4,0,6.1-2.7,6.1-6.1s-2.7-6.1-6.1-6.1h-64.1c-3.4,0-6.1,2.7-6.1,6.1S371,205.7,374.4,205.7z M374.4,194.5h64.1
	c2.8,0,5.1,2.3,5.1,5.1s-2.3,5.1-5.1,5.1h-64.1c-2.8,0-5.1-2.3-5.1-5.1S371.5,194.5,374.4,194.5z M398.4,202.1
	c0.3-0.1,0.5-0.3,0.7-0.5c0.2-0.2,0.4-0.5,0.5-0.7c0.1-0.3,0.2-0.6,0.2-1v-0.2c0-0.4-0.1-0.7-0.2-1c-0.1-0.3-0.3-0.5-0.5-0.8
	c-0.2-0.2-0.4-0.4-0.7-0.5c-0.3-0.1-0.6-0.2-0.9-0.2H396v5h1.5C397.8,202.3,398.1,202.2,398.4,202.1z M397,198.1h0.5
	c0.4,0,0.7,0.1,0.9,0.4c0.2,0.3,0.3,0.6,0.3,1.2v0.2c0,0.5-0.1,0.9-0.3,1.1c-0.2,0.3-0.5,0.4-0.9,0.4H397V198.1z M401.5,200.4h0.8
	l0.9,1.8h1.1v0l-1.1-2c0.1-0.1,0.3-0.1,0.4-0.2c0.1-0.1,0.2-0.2,0.3-0.3c0.1-0.1,0.1-0.2,0.2-0.4c0-0.1,0.1-0.3,0.1-0.5
	c0-0.2,0-0.5-0.1-0.6c-0.1-0.2-0.2-0.3-0.4-0.5c-0.2-0.1-0.3-0.2-0.6-0.3c-0.2-0.1-0.5-0.1-0.8-0.1h-1.8v5h1V200.4z M401.5,198.1
	h0.8c0.3,0,0.5,0.1,0.6,0.2c0.1,0.1,0.2,0.3,0.2,0.6c0,0.1,0,0.2-0.1,0.3c0,0.1-0.1,0.2-0.2,0.2c-0.1,0.1-0.2,0.1-0.3,0.2
	c-0.1,0-0.2,0.1-0.4,0.1h-0.8V198.1z M406,201.2h1.8l0.3,1h1.1l-1.9-5h-1l-1.9,5h1.1L406,201.2z M406.9,198.6l0.6,1.9h-1.2
	L406.9,198.6z M410.7,202.3h-1v-5h3.2v0.8h-2.2v1.3h2v0.8h-2V202.3z M414.8,198.1h-1.5v-0.8h4.1v0.8h-1.5v4.1h-1V198.1z M25.1,249.3
	h419v1h-419V249.3z M31.9,233.7v0.7h0.9l-0.3,1.6h0.7l0.3-1.6h0.8L34,236h0.7l0.3-1.6h1v-0.7h-0.9l0.2-1.1h1v-0.7h-0.9l0.3-1.6H35
	l-0.3,1.6h-0.8l0.3-1.6h-0.7l-0.3,1.6h-1v0.7h0.9l-0.2,1.1H31.9z M33.8,232.6h0.8l-0.2,1.1h-0.8L33.8,232.6z M38.5,236v-4.4
	l-1.3,0.4v-0.9l2.4-0.8h0.1v5.7H38.5z M41.9,236l2.2-4.8h-2.8v-0.9h4v0.6l-2.2,5.1H41.9z M47.2,235.9c0.2,0.1,0.5,0.1,0.8,0.1
	s0.5,0,0.8-0.1c0.2-0.1,0.4-0.2,0.6-0.4c0.2-0.2,0.3-0.4,0.4-0.8c0.1-0.3,0.1-0.7,0.1-1.1v-1c0-0.4,0-0.8-0.1-1.1
	c-0.1-0.3-0.2-0.6-0.4-0.8c-0.2-0.2-0.4-0.3-0.6-0.4c-0.2-0.1-0.5-0.1-0.8-0.1s-0.5,0-0.8,0.1c-0.2,0.1-0.4,0.2-0.6,0.4
	c-0.2,0.2-0.3,0.4-0.4,0.8c-0.1,0.3-0.1,0.7-0.1,1.1v1c0,0.4,0,0.8,0.1,1.1c0.1,0.3,0.2,0.6,0.4,0.8
	C46.7,235.7,46.9,235.8,47.2,235.9z M47.2,232.5c0-0.3,0-0.5,0.1-0.6s0.1-0.3,0.2-0.4s0.2-0.2,0.2-0.2s0.2-0.1,0.3-0.1
	s0.2,0,0.3,0.1s0.2,0.1,0.3,0.2s0.1,0.2,0.2,0.4s0.1,0.4,0.1,0.6v1.3c0,0.3,0,0.5-0.1,0.6c0,0.2-0.1,0.3-0.2,0.4
	c-0.1,0.1-0.1,0.2-0.2,0.2s-0.2,0.1-0.3,0.1s-0.2,0-0.3-0.1s-0.2-0.1-0.2-0.2c-0.1-0.1-0.1-0.2-0.2-0.4c0-0.2-0.1-0.4-0.1-0.6V232.5
	z M85.4,234.8l0.4,1.2h1.2l-2.1-5.7h-1.1l-2.1,5.7H83l0.4-1.2H85.4z M84.4,231.7l0.7,2.1h-1.4L84.4,231.7z M88.6,231.8v2.7
	c0,0.1,0,0.2,0,0.3c0,0.1,0.1,0.2,0.1,0.2s0.1,0.1,0.2,0.1s0.2,0,0.2,0c0.2,0,0.4,0,0.5-0.1s0.2-0.2,0.3-0.3v-3h1.1v4.2h-1.1l0-0.4
	c-0.1,0.2-0.3,0.3-0.5,0.4c-0.2,0.1-0.4,0.1-0.7,0.1c-0.2,0-0.4,0-0.6-0.1s-0.3-0.2-0.4-0.3c-0.1-0.1-0.2-0.3-0.3-0.5
	s-0.1-0.4-0.1-0.7v-2.7H88.6z M94.3,236.5c-0.2,0.2-0.4,0.2-0.7,0.2c-0.2,0-0.4,0-0.6-0.1c-0.2-0.1-0.3-0.2-0.5-0.3l-0.5,0.7
	c0.1,0.1,0.2,0.2,0.3,0.3c0.1,0.1,0.3,0.2,0.4,0.2s0.3,0.1,0.4,0.1c0.1,0,0.3,0,0.4,0c0.3,0,0.6,0,0.8-0.1c0.2-0.1,0.5-0.2,0.6-0.4
	c0.2-0.2,0.3-0.3,0.4-0.6c0.1-0.2,0.1-0.5,0.1-0.8v-4.1h-1l0,0.4c-0.1-0.2-0.3-0.3-0.4-0.4c-0.2-0.1-0.4-0.1-0.6-0.1
	c-0.3,0-0.5,0.1-0.7,0.2c-0.2,0.1-0.4,0.3-0.5,0.4c-0.1,0.2-0.3,0.4-0.3,0.7s-0.1,0.6-0.1,0.9v0.1c0,0.3,0,0.6,0.1,0.9
	s0.2,0.5,0.3,0.7c0.1,0.2,0.3,0.3,0.5,0.4c0.2,0.1,0.4,0.2,0.7,0.2c0.2,0,0.4,0,0.6-0.1c0.2-0.1,0.3-0.2,0.4-0.3v0.2
	C94.5,236.1,94.4,236.4,94.3,236.5z M94.2,235c-0.1,0.1-0.3,0.1-0.5,0.1c-0.1,0-0.3,0-0.4-0.1c-0.1-0.1-0.2-0.2-0.3-0.3
	c-0.1-0.1-0.1-0.2-0.2-0.4s-0.1-0.3-0.1-0.5v-0.1c0-0.2,0-0.3,0.1-0.5c0-0.2,0.1-0.3,0.2-0.4c0.1-0.1,0.2-0.2,0.3-0.3
	c0.1-0.1,0.2-0.1,0.4-0.1c0.2,0,0.3,0,0.4,0.1s0.2,0.2,0.3,0.3v1.8C94.5,234.9,94.4,235,94.2,235z M99.6,235.9
	c0.2,0.1,0.5,0.1,0.8,0.1s0.5,0,0.8-0.1c0.2-0.1,0.4-0.2,0.6-0.4c0.2-0.2,0.3-0.4,0.4-0.8c0.1-0.3,0.1-0.7,0.1-1.1v-1
	c0-0.4,0-0.8-0.1-1.1c-0.1-0.3-0.2-0.6-0.4-0.8c-0.2-0.2-0.4-0.3-0.6-0.4c-0.2-0.1-0.5-0.1-0.8-0.1s-0.5,0-0.8,0.1
	c-0.2,0.1-0.4,0.2-0.6,0.4c-0.2,0.2-0.3,0.4-0.4,0.8c-0.1,0.3-0.1,0.7-0.1,1.1v1c0,0.4,0,0.8,0.1,1.1c0.1,0.3,0.2,0.6,0.4,0.8
	C99.2,235.7,99.4,235.8,99.6,235.9z M99.6,232.5c0-0.3,0-0.5,0.1-0.6s0.1-0.3,0.2-0.4s0.2-0.2,0.2-0.2s0.2-0.1,0.3-0.1
	s0.2,0,0.3,0.1s0.2,0.1,0.3,0.2s0.1,0.2,0.2,0.4s0.1,0.4,0.1,0.6v1.3c0,0.3,0,0.5-0.1,0.6c0,0.2-0.1,0.3-0.2,0.4
	c-0.1,0.1-0.1,0.2-0.2,0.2s-0.2,0.1-0.3,0.1s-0.2,0-0.3-0.1s-0.2-0.1-0.2-0.2c-0.1-0.1-0.1-0.2-0.2-0.4c0-0.2-0.1-0.4-0.1-0.6V232.5
	z M105.5,234l-1,1.1h2.4v0.9h-3.9v-0.8l1.8-2c0.1-0.2,0.3-0.3,0.3-0.4s0.2-0.2,0.2-0.3c0.1-0.1,0.1-0.2,0.1-0.3s0-0.2,0-0.3
	c0-0.3-0.1-0.5-0.2-0.6s-0.3-0.2-0.5-0.2c-0.1,0-0.3,0-0.4,0.1c-0.1,0-0.2,0.1-0.3,0.2c-0.1,0.1-0.1,0.2-0.2,0.3s-0.1,0.2-0.1,0.4
	H103c0-0.3,0-0.5,0.1-0.7s0.2-0.4,0.4-0.6c0.2-0.2,0.4-0.3,0.6-0.4c0.2-0.1,0.5-0.1,0.8-0.1c0.3,0,0.6,0,0.8,0.1s0.4,0.2,0.6,0.3
	c0.2,0.1,0.3,0.3,0.4,0.5c0.1,0.2,0.1,0.4,0.1,0.7c0,0.2,0,0.4-0.1,0.6c-0.1,0.2-0.1,0.4-0.3,0.5c-0.1,0.2-0.2,0.4-0.4,0.5
	C105.9,233.6,105.7,233.8,105.5,234z M108.3,237.1c-0.1,0.1-0.2,0.2-0.3,0.3l-0.6-0.3c0-0.1,0.1-0.2,0.1-0.3c0-0.1,0.1-0.2,0.1-0.3
	c0-0.1,0.1-0.2,0.1-0.3c0-0.1,0-0.2,0-0.4V235h1l0,0.8c0,0.1,0,0.3-0.1,0.4c0,0.2-0.1,0.3-0.2,0.4
	C108.5,236.8,108.4,236.9,108.3,237.1z M114.1,234l-1,1.1h2.4v0.9h-3.9v-0.8l1.8-2c0.1-0.2,0.3-0.3,0.3-0.4s0.2-0.2,0.2-0.3
	c0.1-0.1,0.1-0.2,0.1-0.3s0-0.2,0-0.3c0-0.3-0.1-0.5-0.2-0.6s-0.3-0.2-0.5-0.2c-0.1,0-0.3,0-0.4,0.1c-0.1,0-0.2,0.1-0.3,0.2
	c-0.1,0.1-0.1,0.2-0.2,0.3s-0.1,0.2-0.1,0.4h-1.1c0-0.3,0-0.5,0.1-0.7s0.2-0.4,0.4-0.6c0.2-0.2,0.4-0.3,0.6-0.4
	c0.2-0.1,0.5-0.1,0.8-0.1c0.3,0,0.6,0,0.8,0.1s0.4,0.2,0.6,0.3c0.2,0.1,0.3,0.3,0.4,0.5c0.1,0.2,0.1,0.4,0.1,0.7
	c0,0.2,0,0.4-0.1,0.6c-0.1,0.2-0.1,0.4-0.3,0.5c-0.1,0.2-0.2,0.4-0.4,0.5C114.4,233.6,114.2,233.8,114.1,234z M117.3,235.9
	c0.2,0.1,0.5,0.1,0.8,0.1s0.5,0,0.8-0.1c0.2-0.1,0.4-0.2,0.6-0.4c0.2-0.2,0.3-0.4,0.4-0.8c0.1-0.3,0.1-0.7,0.1-1.1v-1
	c0-0.4,0-0.8-0.1-1.1c-0.1-0.3-0.2-0.6-0.4-0.8c-0.2-0.2-0.4-0.3-0.6-0.4c-0.2-0.1-0.5-0.1-0.8-0.1s-0.5,0-0.8,0.1
	c-0.2,0.1-0.4,0.2-0.6,0.4c-0.2,0.2-0.3,0.4-0.4,0.8c-0.1,0.3-0.1,0.7-0.1,1.1v1c0,0.4,0,0.8,0.1,1.1c0.1,0.3,0.2,0.6,0.4,0.8
	C116.9,235.7,117.1,235.8,117.3,235.9z M117.3,232.5c0-0.3,0-0.5,0.1-0.6s0.1-0.3,0.2-0.4s0.2-0.2,0.2-0.2s0.2-0.1,0.3-0.1
	s0.2,0,0.3,0.1s0.2,0.1,0.3,0.2s0.1,0.2,0.2,0.4s0.1,0.4,0.1,0.6v1.3c0,0.3,0,0.5-0.1,0.6c0,0.2-0.1,0.3-0.2,0.4
	c-0.1,0.1-0.1,0.2-0.2,0.2s-0.2,0.1-0.3,0.1s-0.2,0-0.3-0.1s-0.2-0.1-0.2-0.2c-0.1-0.1-0.1-0.2-0.2-0.4c0-0.2-0.1-0.4-0.1-0.6V232.5
	z M122.4,236v-4.4L121,232v-0.9l2.4-0.8h0.1v5.7H122.4z M127.6,230.3l-2.4,3.7l0.1,0.7h2.3v1.2h1.1v-1.2h0.6v-0.9h-0.6v-3.5H127.6z
	 M127.6,233.8h-1.3l1.2-1.9l0.1-0.1V233.8z M163.6,236v-4.7h-1.7v-0.9h4.6v0.9h-1.7v4.7H163.6z M168.2,230v2.2
	c0.1-0.2,0.3-0.3,0.5-0.4c0.2-0.1,0.4-0.1,0.6-0.1c0.2,0,0.4,0,0.6,0.1s0.3,0.2,0.4,0.3c0.1,0.1,0.2,0.3,0.3,0.5
	c0.1,0.2,0.1,0.5,0.1,0.8v2.7h-1.1v-2.7c0-0.1,0-0.2,0-0.3c0-0.1-0.1-0.2-0.1-0.2c-0.1-0.1-0.1-0.1-0.2-0.1s-0.2,0-0.3,0
	c-0.2,0-0.3,0-0.4,0.1c-0.1,0.1-0.2,0.2-0.3,0.3v3h-1.1v-6H168.2z M175.3,233.8c0-0.3,0-0.6-0.1-0.9c-0.1-0.3-0.2-0.5-0.4-0.7
	c-0.2-0.2-0.4-0.3-0.6-0.4c-0.2-0.1-0.5-0.2-0.8-0.2c-0.3,0-0.6,0.1-0.8,0.2c-0.2,0.1-0.5,0.3-0.6,0.5c-0.2,0.2-0.3,0.4-0.4,0.7
	c-0.1,0.3-0.1,0.6-0.1,0.9v0.2c0,0.3,0,0.6,0.1,0.8c0.1,0.2,0.2,0.5,0.4,0.7c0.2,0.2,0.4,0.3,0.7,0.4c0.3,0.1,0.6,0.2,0.9,0.2
	c0.2,0,0.4,0,0.6-0.1s0.3-0.1,0.5-0.2c0.1-0.1,0.3-0.2,0.4-0.2c0.1-0.1,0.2-0.2,0.3-0.3l-0.6-0.6c-0.1,0.2-0.3,0.3-0.4,0.4
	c-0.2,0.1-0.4,0.1-0.6,0.1c-0.1,0-0.3,0-0.4-0.1c-0.1,0-0.2-0.1-0.3-0.2c-0.1-0.1-0.2-0.2-0.2-0.3c-0.1-0.1-0.1-0.2-0.1-0.4h2.7
	V233.8z M174.1,233.5h-1.6c0-0.1,0-0.2,0.1-0.4c0-0.1,0.1-0.2,0.2-0.3c0.1-0.1,0.1-0.1,0.2-0.2s0.2-0.1,0.3-0.1c0.1,0,0.2,0,0.3,0.1
	s0.2,0.1,0.2,0.2s0.1,0.2,0.1,0.2C174.1,233.2,174.1,233.3,174.1,233.5L174.1,233.5z M181.9,233c0.1-0.1,0.2-0.3,0.2-0.4
	c0-0.2,0.1-0.4,0.1-0.6c0-0.3,0-0.5-0.1-0.7c-0.1-0.2-0.2-0.4-0.4-0.5s-0.4-0.3-0.7-0.3s-0.6-0.1-0.9-0.1H178v5.7h1.2v-2.1h0.9
	l1.1,2.1h1.3v-0.1l-1.2-2.3c0.2-0.1,0.3-0.2,0.4-0.2C181.7,233.3,181.8,233.1,181.9,233z M180.9,232.5c0,0.1-0.1,0.2-0.2,0.3
	s-0.2,0.1-0.3,0.2c-0.1,0-0.3,0.1-0.4,0.1h-0.9v-1.7h0.9c0.3,0,0.5,0.1,0.7,0.2c0.2,0.2,0.2,0.4,0.2,0.6
	C181,232.2,181,232.3,180.9,232.5z M184,235.9c0.2,0.1,0.5,0.2,0.9,0.2s0.6-0.1,0.9-0.2c0.2-0.1,0.5-0.3,0.6-0.4s0.3-0.4,0.4-0.7
	s0.1-0.5,0.1-0.9v-0.1c0-0.3,0-0.6-0.1-0.9c-0.1-0.3-0.2-0.5-0.4-0.7s-0.4-0.3-0.6-0.5s-0.5-0.2-0.9-0.2c-0.3,0-0.6,0.1-0.8,0.2
	s-0.5,0.3-0.6,0.5s-0.3,0.4-0.4,0.7c-0.1,0.3-0.1,0.5-0.1,0.9v0.1c0,0.3,0,0.6,0.1,0.9s0.2,0.5,0.4,0.7S183.7,235.8,184,235.9z
	 M183.9,233.8c0-0.2,0-0.3,0-0.5c0-0.1,0.1-0.3,0.2-0.4s0.2-0.2,0.3-0.3s0.2-0.1,0.4-0.1c0.2,0,0.3,0,0.4,0.1s0.2,0.2,0.3,0.3
	s0.1,0.2,0.2,0.4c0,0.2,0,0.3,0,0.5v0.1c0,0.2,0,0.3,0,0.5c0,0.2-0.1,0.3-0.2,0.4c-0.1,0.1-0.2,0.2-0.3,0.3
	c-0.1,0.1-0.2,0.1-0.4,0.1c-0.2,0-0.3,0-0.4-0.1c-0.1-0.1-0.2-0.2-0.3-0.3c-0.1-0.1-0.1-0.2-0.2-0.4
	C184,234.2,183.9,234.1,183.9,233.8L183.9,233.8z M187.1,236l1.3-2.2l-1.2-2.1h1.2l0.7,1.3l0.7-1.3h1.2l-1.2,2.1l1.3,2.2h-1.2
	l-0.8-1.3l-0.8,1.3H187.1z M191.6,231.8h1.1v4.2h-1.1V231.8z M192.7,230.9c0,0.1-0.1,0.1-0.1,0.2c-0.1,0.1-0.1,0.1-0.2,0.1
	c-0.1,0-0.2,0-0.3,0s-0.2,0-0.3,0c-0.1,0-0.1-0.1-0.2-0.1c-0.1-0.1-0.1-0.1-0.1-0.2c0-0.1,0-0.2,0-0.2c0-0.2,0.1-0.3,0.2-0.4
	s0.3-0.2,0.5-0.2c0.1,0,0.2,0,0.3,0c0.1,0,0.1,0.1,0.2,0.1c0.1,0.1,0.1,0.1,0.1,0.2c0,0.1,0,0.1,0,0.2
	C192.8,230.7,192.8,230.8,192.7,230.9z M194.6,235.9c0.2,0.1,0.5,0.2,0.9,0.2s0.6-0.1,0.9-0.2c0.2-0.1,0.5-0.3,0.6-0.4
	s0.3-0.4,0.4-0.7s0.1-0.5,0.1-0.9v-0.1c0-0.3,0-0.6-0.1-0.9c-0.1-0.3-0.2-0.5-0.4-0.7s-0.4-0.3-0.6-0.5s-0.5-0.2-0.9-0.2
	c-0.3,0-0.6,0.1-0.8,0.2s-0.5,0.3-0.6,0.5s-0.3,0.4-0.4,0.7c-0.1,0.3-0.1,0.5-0.1,0.9v0.1c0,0.3,0,0.6,0.1,0.9s0.2,0.5,0.4,0.7
	S194.4,235.8,194.6,235.9z M194.6,233.8c0-0.2,0-0.3,0-0.5c0-0.1,0.1-0.3,0.2-0.4s0.2-0.2,0.3-0.3s0.2-0.1,0.4-0.1
	c0.2,0,0.3,0,0.4,0.1s0.2,0.2,0.3,0.3s0.1,0.2,0.2,0.4c0,0.2,0,0.3,0,0.5v0.1c0,0.2,0,0.3,0,0.5c0,0.2-0.1,0.3-0.2,0.4
	c-0.1,0.1-0.2,0.2-0.3,0.3c-0.1,0.1-0.2,0.1-0.4,0.1c-0.2,0-0.3,0-0.4-0.1c-0.1-0.1-0.2-0.2-0.3-0.3c-0.1-0.1-0.1-0.2-0.2-0.4
	C194.6,234.2,194.6,234.1,194.6,233.8L194.6,233.8z M325,234.8c0-0.1,0-0.2,0-0.3c0-0.1,0-0.2,0-0.3c0-0.1-0.1-0.2-0.1-0.2
	c-0.1-0.1-0.2-0.1-0.3-0.2c-0.1-0.1-0.2-0.1-0.4-0.2c-0.3-0.1-0.5-0.2-0.7-0.3c-0.2-0.1-0.4-0.2-0.5-0.4c-0.1-0.1-0.3-0.3-0.3-0.5
	c-0.1-0.2-0.1-0.4-0.1-0.7c0-0.2,0-0.4,0.1-0.6c0.1-0.2,0.2-0.3,0.3-0.5c0.1-0.1,0.3-0.2,0.5-0.3c0.2-0.1,0.4-0.1,0.6-0.2v-0.8h0.6
	v0.8c0.2,0,0.4,0.1,0.6,0.2c0.2,0.1,0.3,0.2,0.5,0.4c0.1,0.2,0.2,0.3,0.3,0.5c0.1,0.2,0.1,0.4,0.1,0.7H325c0-0.3-0.1-0.5-0.2-0.7
	c-0.1-0.2-0.3-0.2-0.5-0.2c-0.1,0-0.2,0-0.3,0.1c-0.1,0-0.2,0.1-0.2,0.1c-0.1,0.1-0.1,0.1-0.1,0.2c0,0.1,0,0.2,0,0.3
	c0,0.1,0,0.2,0,0.3c0,0.1,0.1,0.2,0.1,0.2c0.1,0.1,0.1,0.1,0.3,0.2s0.2,0.1,0.4,0.2c0.3,0.1,0.5,0.2,0.7,0.3
	c0.2,0.1,0.4,0.2,0.5,0.4c0.1,0.1,0.3,0.3,0.3,0.5c0.1,0.2,0.1,0.4,0.1,0.7c0,0.2,0,0.4-0.1,0.6c-0.1,0.2-0.2,0.3-0.3,0.5
	c-0.1,0.1-0.3,0.2-0.5,0.3c-0.2,0.1-0.4,0.1-0.6,0.2v0.8H324V236c-0.2,0-0.4-0.1-0.6-0.2c-0.2-0.1-0.4-0.2-0.5-0.3
	c-0.2-0.1-0.3-0.3-0.4-0.6c-0.1-0.2-0.1-0.5-0.1-0.8h1.1c0,0.2,0,0.3,0.1,0.5c0,0.1,0.1,0.2,0.2,0.3c0.1,0.1,0.2,0.1,0.3,0.2
	c0.1,0,0.2,0,0.3,0c0.1,0,0.2,0,0.3-0.1c0.1,0,0.2-0.1,0.2-0.1C324.9,234.9,324.9,234.8,325,234.8z M329.6,234.5c0-0.1,0-0.3,0-0.4
	s0-0.3-0.1-0.4c0-0.1-0.1-0.2-0.2-0.3c-0.1-0.1-0.2-0.2-0.3-0.2c-0.1,0-0.2-0.1-0.4-0.1c-0.1,0-0.2,0-0.3,0c-0.1,0-0.1,0-0.2,0.1
	c-0.1,0-0.1,0.1-0.2,0.1c0,0-0.1,0.1-0.1,0.1l-0.9-0.2l0.3-2.9h3.2v0.9h-2.3l-0.1,1.2c0,0,0.1,0,0.1-0.1c0.1,0,0.1,0,0.2-0.1
	c0.1,0,0.2,0,0.2-0.1c0.1,0,0.2,0,0.3,0c0.3,0,0.5,0,0.7,0.1c0.2,0.1,0.4,0.2,0.5,0.4s0.3,0.4,0.3,0.6c0.1,0.2,0.1,0.5,0.1,0.8
	c0,0.3,0,0.5-0.1,0.7c-0.1,0.2-0.2,0.4-0.4,0.6c-0.2,0.2-0.4,0.3-0.6,0.4c-0.2,0.1-0.5,0.2-0.8,0.2c-0.2,0-0.5,0-0.7-0.1
	c-0.2-0.1-0.4-0.2-0.6-0.3c-0.2-0.1-0.3-0.3-0.4-0.5c-0.1-0.2-0.2-0.4-0.2-0.7h1.1c0,0.2,0.1,0.4,0.2,0.6c0.1,0.1,0.3,0.2,0.6,0.2
	c0.1,0,0.3,0,0.4-0.1c0.1-0.1,0.2-0.1,0.2-0.2C329.5,234.8,329.6,234.6,329.6,234.5z M333.9,234l-1,1.1h2.4v0.9h-3.9v-0.8l1.8-2
	c0.1-0.2,0.3-0.3,0.3-0.4c0.1-0.1,0.2-0.2,0.2-0.3c0.1-0.1,0.1-0.2,0.1-0.3c0-0.1,0-0.2,0-0.3c0-0.3-0.1-0.5-0.2-0.6
	c-0.1-0.1-0.3-0.2-0.5-0.2c-0.1,0-0.3,0-0.4,0.1c-0.1,0-0.2,0.1-0.3,0.2c-0.1,0.1-0.1,0.2-0.2,0.3c0,0.1-0.1,0.2-0.1,0.4h-1.1
	c0-0.3,0-0.5,0.1-0.7c0.1-0.2,0.2-0.4,0.4-0.6c0.2-0.2,0.4-0.3,0.6-0.4c0.2-0.1,0.5-0.1,0.8-0.1c0.3,0,0.6,0,0.8,0.1
	s0.4,0.2,0.6,0.3c0.2,0.1,0.3,0.3,0.4,0.5c0.1,0.2,0.1,0.4,0.1,0.7c0,0.2,0,0.4-0.1,0.6c-0.1,0.2-0.1,0.4-0.3,0.5
	c-0.1,0.2-0.2,0.4-0.4,0.5C334.3,233.6,334.1,233.8,333.9,234z M337.2,235.9c0.2,0.1,0.5,0.1,0.8,0.1c0.3,0,0.5,0,0.8-0.1
	c0.2-0.1,0.4-0.2,0.6-0.4c0.2-0.2,0.3-0.4,0.4-0.8c0.1-0.3,0.1-0.7,0.1-1.1v-1c0-0.4,0-0.8-0.1-1.1c-0.1-0.3-0.2-0.6-0.4-0.8
	c-0.2-0.2-0.4-0.3-0.6-0.4c-0.2-0.1-0.5-0.1-0.8-0.1c-0.3,0-0.5,0-0.8,0.1c-0.2,0.1-0.4,0.2-0.6,0.4c-0.2,0.2-0.3,0.4-0.4,0.8
	c-0.1,0.3-0.1,0.7-0.1,1.1v1c0,0.4,0,0.8,0.1,1.1c0.1,0.3,0.2,0.6,0.4,0.8C336.8,235.7,337,235.8,337.2,235.9z M337.2,232.5
	c0-0.3,0-0.5,0.1-0.6s0.1-0.3,0.2-0.4c0.1-0.1,0.2-0.2,0.2-0.2s0.2-0.1,0.3-0.1s0.2,0,0.3,0.1c0.1,0,0.2,0.1,0.3,0.2
	c0.1,0.1,0.1,0.2,0.2,0.4s0.1,0.4,0.1,0.6v1.3c0,0.3,0,0.5-0.1,0.6c0,0.2-0.1,0.3-0.2,0.4c-0.1,0.1-0.2,0.2-0.2,0.2
	c-0.1,0-0.2,0.1-0.3,0.1s-0.2,0-0.3-0.1c-0.1,0-0.2-0.1-0.2-0.2c-0.1-0.1-0.1-0.2-0.2-0.4c0-0.2-0.1-0.4-0.1-0.6V232.5z M341,235.9
	c-0.1-0.1-0.1-0.1-0.1-0.2c0-0.1,0-0.2,0-0.2s0-0.2,0-0.2c0-0.1,0.1-0.1,0.1-0.2c0.1-0.1,0.1-0.1,0.2-0.1s0.2,0,0.3,0
	c0.1,0,0.2,0,0.3,0c0.1,0,0.1,0.1,0.2,0.1c0.1,0.1,0.1,0.1,0.1,0.2c0,0.1,0,0.2,0,0.2s0,0.2,0,0.2c0,0.1-0.1,0.1-0.1,0.2
	c-0.1,0.1-0.1,0.1-0.2,0.1c-0.1,0-0.2,0-0.3,0c-0.1,0-0.2,0-0.3,0C341.1,235.9,341,235.9,341,235.9z M344.1,235.9
	c0.2,0.1,0.5,0.1,0.8,0.1c0.3,0,0.5,0,0.8-0.1c0.2-0.1,0.4-0.2,0.6-0.4c0.2-0.2,0.3-0.4,0.4-0.8c0.1-0.3,0.1-0.7,0.1-1.1v-1
	c0-0.4,0-0.8-0.1-1.1c-0.1-0.3-0.2-0.6-0.4-0.8c-0.2-0.2-0.4-0.3-0.6-0.4c-0.2-0.1-0.5-0.1-0.8-0.1c-0.3,0-0.5,0-0.8,0.1
	c-0.2,0.1-0.4,0.2-0.6,0.4c-0.2,0.2-0.3,0.4-0.4,0.8c-0.1,0.3-0.1,0.7-0.1,1.1v1c0,0.4,0,0.8,0.1,1.1c0.1,0.3,0.2,0.6,0.4,0.8
	C343.7,235.7,343.9,235.8,344.1,235.9z M344.1,232.5c0-0.3,0-0.5,0.1-0.6s0.1-0.3,0.2-0.4c0.1-0.1,0.2-0.2,0.2-0.2s0.2-0.1,0.3-0.1
	s0.2,0,0.3,0.1c0.1,0,0.2,0.1,0.3,0.2c0.1,0.1,0.1,0.2,0.2,0.4s0.1,0.4,0.1,0.6v1.3c0,0.3,0,0.5-0.1,0.6c0,0.2-0.1,0.3-0.2,0.4
	c-0.1,0.1-0.2,0.2-0.2,0.2c-0.1,0-0.2,0.1-0.3,0.1s-0.2,0-0.3-0.1c-0.1,0-0.2-0.1-0.2-0.2c-0.1-0.1-0.1-0.2-0.2-0.4
	c0-0.2-0.1-0.4-0.1-0.6V232.5z M348.7,235.9c0.2,0.1,0.5,0.1,0.8,0.1c0.3,0,0.5,0,0.8-0.1c0.2-0.1,0.4-0.2,0.6-0.4
	c0.2-0.2,0.3-0.4,0.4-0.8c0.1-0.3,0.1-0.7,0.1-1.1v-1c0-0.4,0-0.8-0.1-1.1c-0.1-0.3-0.2-0.6-0.4-0.8c-0.2-0.2-0.4-0.3-0.6-0.4
	c-0.2-0.1-0.5-0.1-0.8-0.1c-0.3,0-0.5,0-0.8,0.1c-0.2,0.1-0.4,0.2-0.6,0.4c-0.2,0.2-0.3,0.4-0.4,0.8c-0.1,0.3-0.1,0.7-0.1,1.1v1
	c0,0.4,0,0.8,0.1,1.1c0.1,0.3,0.2,0.6,0.4,0.8C348.3,235.7,348.5,235.8,348.7,235.9z M348.7,232.5c0-0.3,0-0.5,0.1-0.6
	s0.1-0.3,0.2-0.4c0.1-0.1,0.2-0.2,0.2-0.2s0.2-0.1,0.3-0.1s0.2,0,0.3,0.1c0.1,0,0.2,0.1,0.3,0.2c0.1,0.1,0.1,0.2,0.2,0.4
	s0.1,0.4,0.1,0.6v1.3c0,0.3,0,0.5-0.1,0.6c0,0.2-0.1,0.3-0.2,0.4c-0.1,0.1-0.2,0.2-0.2,0.2c-0.1,0-0.2,0.1-0.3,0.1s-0.2,0-0.3-0.1
	c-0.1,0-0.2-0.1-0.2-0.2c-0.1-0.1-0.1-0.2-0.2-0.4c0-0.2-0.1-0.4-0.1-0.6V232.5z M438.5,227h-64.1c-3.1,0-5.6,2.5-5.6,5.6
	c0,3.1,2.5,5.6,5.6,5.6h64.1c3.1,0,5.6-2.5,5.6-5.6C444.1,229.5,441.6,227,438.5,227z M404.1,232.7c0,0.4-0.1,0.7-0.2,1
	c-0.1,0.3-0.3,0.5-0.5,0.7c-0.2,0.2-0.4,0.4-0.7,0.5c-0.3,0.1-0.6,0.2-0.9,0.2h-1.5v-5h1.5c0.3,0,0.6,0.1,0.9,0.2
	c0.3,0.1,0.5,0.3,0.7,0.5c0.2,0.2,0.4,0.5,0.5,0.7c0.1,0.3,0.2,0.6,0.2,1V232.7z M408.6,233.4c0,0.3,0,0.5-0.1,0.8
	c-0.1,0.2-0.2,0.4-0.4,0.6c-0.2,0.1-0.4,0.3-0.6,0.3c-0.2,0.1-0.5,0.1-0.8,0.1c-0.3,0-0.5,0-0.8-0.1c-0.2-0.1-0.4-0.2-0.6-0.3
	c-0.2-0.1-0.3-0.3-0.4-0.6c-0.1-0.2-0.1-0.5-0.1-0.8v-3.3h1v3.3c0,0.3,0.1,0.6,0.2,0.7c0.2,0.1,0.4,0.2,0.6,0.2
	c0.3,0,0.5-0.1,0.6-0.2c0.2-0.1,0.2-0.4,0.2-0.7v-3.3h1V233.4z M412.8,235.1h-3.3v-5h3.3v0.8h-2.3v1.2h2v0.8h-2v1.3h2.3V235.1z
	 M402.8,231.3c0.2,0.3,0.3,0.6,0.3,1.1v0.2c0,0.5-0.1,0.9-0.3,1.1c-0.2,0.3-0.5,0.4-0.9,0.4h-0.5v-3.3h0.5
	C402.3,230.9,402.6,231.1,402.8,231.3z"/>
</svg>
